<svg width="206" height="52" viewBox="0 0 206 52" fill="none" xmlns="http://www.w3.org/2000/svg">
<g filter="url(#filter0_d_46_2203)">
<rect x="31.5" width="174" height="52" rx="26" fill="#0285E4"/>
<path d="M83.098 32.144C81.118 32.144 79.534 31.61 78.346 30.542L78.922 29.408C79.546 29.936 80.182 30.314 80.83 30.542C81.49 30.77 82.252 30.884 83.116 30.884C84.136 30.884 84.922 30.686 85.474 30.29C86.026 29.894 86.302 29.336 86.302 28.616C86.302 28.196 86.17 27.854 85.906 27.59C85.642 27.326 85.294 27.116 84.862 26.96C84.43 26.804 83.848 26.642 83.116 26.474C82.132 26.246 81.322 26.006 80.686 25.754C80.062 25.502 79.552 25.142 79.156 24.674C78.772 24.206 78.58 23.594 78.58 22.838C78.58 22.118 78.766 21.482 79.138 20.93C79.522 20.366 80.062 19.934 80.758 19.634C81.466 19.322 82.282 19.166 83.206 19.166C84.082 19.166 84.898 19.304 85.654 19.58C86.422 19.856 87.07 20.252 87.598 20.768L87.04 21.902C86.44 21.386 85.828 21.014 85.204 20.786C84.592 20.546 83.926 20.426 83.206 20.426C82.222 20.426 81.448 20.636 80.884 21.056C80.332 21.464 80.056 22.04 80.056 22.784C80.056 23.42 80.302 23.9 80.794 24.224C81.286 24.548 82.03 24.824 83.026 25.052C84.118 25.316 84.976 25.562 85.6 25.79C86.224 26.006 86.74 26.336 87.148 26.78C87.568 27.224 87.778 27.818 87.778 28.562C87.778 29.282 87.586 29.912 87.202 30.452C86.83 30.992 86.29 31.412 85.582 31.712C84.874 32 84.046 32.144 83.098 32.144ZM97.5394 23.234V32H96.1174V30.506C95.8414 31.034 95.4514 31.436 94.9474 31.712C94.4554 31.988 93.8974 32.126 93.2734 32.126C92.2294 32.126 91.4434 31.838 90.9154 31.262C90.3874 30.674 90.1234 29.81 90.1234 28.67V23.234H91.5814V28.634C91.5814 29.414 91.7374 29.99 92.0494 30.362C92.3614 30.722 92.8534 30.902 93.5254 30.902C94.2934 30.902 94.9114 30.656 95.3794 30.164C95.8474 29.66 96.0814 29 96.0814 28.184V23.234H97.5394ZM104.859 23.018C105.627 23.018 106.305 23.204 106.893 23.576C107.481 23.948 107.937 24.476 108.261 25.16C108.585 25.844 108.747 26.636 108.747 27.536C108.747 28.448 108.585 29.252 108.261 29.948C107.937 30.632 107.481 31.166 106.893 31.55C106.305 31.934 105.627 32.126 104.859 32.126C104.175 32.126 103.575 31.976 103.059 31.676C102.555 31.376 102.171 30.95 101.907 30.398V32H100.449V19.31H101.907V24.746C102.171 24.194 102.555 23.768 103.059 23.468C103.575 23.168 104.175 23.018 104.859 23.018ZM104.571 30.92C105.423 30.92 106.083 30.626 106.551 30.038C107.019 29.438 107.253 28.604 107.253 27.536C107.253 26.492 107.019 25.682 106.551 25.106C106.083 24.53 105.423 24.242 104.571 24.242C103.719 24.242 103.059 24.53 102.591 25.106C102.135 25.682 101.907 26.504 101.907 27.572C101.907 28.64 102.135 29.468 102.591 30.056C103.059 30.632 103.719 30.92 104.571 30.92ZM114.096 32.126C112.62 32.126 111.45 31.748 110.586 30.992L111.072 29.912C111.54 30.284 112.014 30.554 112.494 30.722C112.986 30.878 113.538 30.956 114.15 30.956C114.798 30.956 115.29 30.848 115.626 30.632C115.974 30.404 116.148 30.08 116.148 29.66C116.148 29.312 116.034 29.036 115.806 28.832C115.578 28.628 115.2 28.466 114.672 28.346L113.196 28.004C112.452 27.836 111.882 27.548 111.486 27.14C111.09 26.732 110.892 26.228 110.892 25.628C110.892 24.848 111.198 24.218 111.81 23.738C112.422 23.258 113.238 23.018 114.258 23.018C114.87 23.018 115.452 23.12 116.004 23.324C116.556 23.516 117.018 23.798 117.39 24.17L116.904 25.232C116.1 24.548 115.218 24.206 114.258 24.206C113.646 24.206 113.166 24.326 112.818 24.566C112.482 24.794 112.314 25.118 112.314 25.538C112.314 25.886 112.416 26.168 112.62 26.384C112.836 26.588 113.178 26.744 113.646 26.852L115.14 27.212C115.956 27.404 116.562 27.698 116.958 28.094C117.354 28.478 117.552 28.982 117.552 29.606C117.552 30.374 117.24 30.986 116.616 31.442C116.004 31.898 115.164 32.126 114.096 32.126ZM123.682 32.126C122.818 32.126 122.068 31.94 121.432 31.568C120.796 31.196 120.304 30.674 119.956 30.002C119.62 29.318 119.452 28.52 119.452 27.608C119.452 26.696 119.626 25.898 119.974 25.214C120.334 24.518 120.832 23.978 121.468 23.594C122.116 23.21 122.872 23.018 123.736 23.018C124.324 23.018 124.9 23.126 125.464 23.342C126.028 23.546 126.484 23.822 126.832 24.17L126.346 25.25C125.518 24.578 124.678 24.242 123.826 24.242C122.926 24.242 122.224 24.536 121.72 25.124C121.216 25.712 120.964 26.54 120.964 27.608C120.964 28.664 121.216 29.48 121.72 30.056C122.224 30.632 122.926 30.92 123.826 30.92C124.678 30.92 125.518 30.584 126.346 29.912L126.832 30.992C126.46 31.34 125.992 31.616 125.428 31.82C124.864 32.024 124.282 32.126 123.682 32.126ZM133.756 24.278L132.802 24.368C131.902 24.452 131.248 24.734 130.84 25.214C130.444 25.694 130.246 26.288 130.246 26.996V32H128.788V23.234H130.21V24.764C130.702 23.744 131.668 23.174 133.108 23.054L133.63 23.018L133.756 24.278ZM135.333 32V23.234H136.791V32H135.333ZM135.189 19.436H136.953V21.074H135.189V19.436ZM144.127 23.018C144.895 23.018 145.573 23.204 146.161 23.576C146.749 23.948 147.205 24.476 147.529 25.16C147.853 25.844 148.015 26.636 148.015 27.536C148.015 28.448 147.853 29.252 147.529 29.948C147.205 30.632 146.749 31.166 146.161 31.55C145.573 31.934 144.895 32.126 144.127 32.126C143.443 32.126 142.843 31.976 142.327 31.676C141.823 31.376 141.439 30.95 141.175 30.398V32H139.717V19.31H141.175V24.746C141.439 24.194 141.823 23.768 142.327 23.468C142.843 23.168 143.443 23.018 144.127 23.018ZM143.839 30.92C144.691 30.92 145.351 30.626 145.819 30.038C146.287 29.438 146.521 28.604 146.521 27.536C146.521 26.492 146.287 25.682 145.819 25.106C145.351 24.53 144.691 24.242 143.839 24.242C142.987 24.242 142.327 24.53 141.859 25.106C141.403 25.682 141.175 26.504 141.175 27.572C141.175 28.64 141.403 29.468 141.859 30.056C142.327 30.632 142.987 30.92 143.839 30.92ZM157.737 27.842H151.329C151.377 28.862 151.653 29.636 152.157 30.164C152.661 30.68 153.375 30.938 154.299 30.938C155.319 30.938 156.255 30.59 157.107 29.894L157.593 30.956C157.209 31.316 156.717 31.604 156.117 31.82C155.517 32.024 154.905 32.126 154.281 32.126C152.913 32.126 151.833 31.724 151.041 30.92C150.261 30.116 149.871 29.006 149.871 27.59C149.871 26.69 150.045 25.898 150.393 25.214C150.741 24.518 151.227 23.978 151.851 23.594C152.487 23.21 153.207 23.018 154.011 23.018C155.175 23.018 156.087 23.402 156.747 24.17C157.407 24.926 157.737 25.97 157.737 27.302V27.842ZM154.029 24.152C153.261 24.152 152.643 24.392 152.175 24.872C151.719 25.352 151.449 26.03 151.365 26.906H156.459C156.435 26.018 156.213 25.34 155.793 24.872C155.373 24.392 154.785 24.152 154.029 24.152Z" fill="white"/>
</g>
<defs>
<filter id="filter0_d_46_2203" x="0.500031" y="-27" width="236" height="114" filterUnits="userSpaceOnUse" color-interpolation-filters="sRGB">
<feFlood flood-opacity="0" result="BackgroundImageFix"/>
<feColorMatrix in="SourceAlpha" type="matrix" values="0 0 0 0 0 0 0 0 0 0 0 0 0 0 0 0 0 0 127 0" result="hardAlpha"/>
<feOffset dy="4"/>
<feGaussianBlur stdDeviation="15.5"/>
<feColorMatrix type="matrix" values="0 0 0 0 0 0 0 0 0 0 0 0 0 0 0 0 0 0 0.15 0"/>
<feBlend mode="normal" in2="BackgroundImageFix" result="effect1_dropShadow_46_2203"/>
<feBlend mode="normal" in="SourceGraphic" in2="effect1_dropShadow_46_2203" result="shape"/>
</filter>
</defs>
</svg>
