<svg width="254" height="114" viewBox="0 0 254 114" fill="none" xmlns="http://www.w3.org/2000/svg">
<g filter="url(#filter0_d_46_2130)">
<rect x="31.5" y="27" width="191" height="52" rx="26" fill="white"/>
<path d="M82.126 59V47.57H77.716V46.31H88.048V47.57H83.62V59H82.126ZM93.4047 51.278L92.4507 51.368C91.5507 51.452 90.8967 51.734 90.4887 52.214C90.0927 52.694 89.8947 53.288 89.8947 53.996V59H88.4367V50.234H89.8587V51.764C90.3507 50.744 91.3167 50.174 92.7567 50.054L93.2787 50.018L93.4047 51.278ZM101.809 50.252H103.267L98.0833 62.24H96.5893L98.0653 58.892L94.3573 50.252H95.9053L98.8393 57.416L101.809 50.252ZM110.03 59V46.31H117.878V47.552H111.488V51.926H117.518V53.168H111.488V59H110.03ZM123.494 59.126C122.666 59.126 121.934 58.94 121.298 58.568C120.674 58.196 120.188 57.668 119.84 56.984C119.504 56.288 119.336 55.484 119.336 54.572C119.336 53.66 119.504 52.862 119.84 52.178C120.188 51.482 120.674 50.948 121.298 50.576C121.934 50.204 122.666 50.018 123.494 50.018C124.322 50.018 125.054 50.204 125.69 50.576C126.326 50.948 126.812 51.482 127.148 52.178C127.496 52.862 127.67 53.66 127.67 54.572C127.67 55.484 127.496 56.288 127.148 56.984C126.812 57.668 126.326 58.196 125.69 58.568C125.054 58.94 124.322 59.126 123.494 59.126ZM123.494 57.92C124.358 57.92 125.018 57.638 125.474 57.074C125.942 56.498 126.176 55.664 126.176 54.572C126.176 53.504 125.942 52.682 125.474 52.106C125.006 51.518 124.346 51.224 123.494 51.224C122.642 51.224 121.982 51.518 121.514 52.106C121.046 52.682 120.812 53.504 120.812 54.572C120.812 55.652 121.04 56.48 121.496 57.056C121.964 57.632 122.63 57.92 123.494 57.92ZM135.01 51.278L134.056 51.368C133.156 51.452 132.502 51.734 132.094 52.214C131.698 52.694 131.5 53.288 131.5 53.996V59H130.042V50.234H131.464V51.764C131.956 50.744 132.922 50.174 134.362 50.054L134.884 50.018L135.01 51.278ZM141.645 59V46.31H149.493V47.552H143.103V51.926H149.133V53.168H143.103V59H141.645ZM156.44 51.278L155.486 51.368C154.586 51.452 153.932 51.734 153.524 52.214C153.128 52.694 152.93 53.288 152.93 53.996V59H151.472V50.234H152.894V51.764C153.386 50.744 154.352 50.174 155.792 50.054L156.314 50.018L156.44 51.278ZM165.186 54.842H158.778C158.826 55.862 159.102 56.636 159.606 57.164C160.11 57.68 160.824 57.938 161.748 57.938C162.768 57.938 163.704 57.59 164.556 56.894L165.042 57.956C164.658 58.316 164.166 58.604 163.566 58.82C162.966 59.024 162.354 59.126 161.73 59.126C160.362 59.126 159.282 58.724 158.49 57.92C157.71 57.116 157.32 56.006 157.32 54.59C157.32 53.69 157.494 52.898 157.842 52.214C158.19 51.518 158.676 50.978 159.3 50.594C159.936 50.21 160.656 50.018 161.46 50.018C162.624 50.018 163.536 50.402 164.196 51.17C164.856 51.926 165.186 52.97 165.186 54.302V54.842ZM161.478 51.152C160.71 51.152 160.092 51.392 159.624 51.872C159.168 52.352 158.898 53.03 158.814 53.906H163.908C163.884 53.018 163.662 52.34 163.242 51.872C162.822 51.392 162.234 51.152 161.478 51.152ZM174.878 54.842H168.47C168.518 55.862 168.794 56.636 169.298 57.164C169.802 57.68 170.516 57.938 171.44 57.938C172.46 57.938 173.396 57.59 174.248 56.894L174.734 57.956C174.35 58.316 173.858 58.604 173.258 58.82C172.658 59.024 172.046 59.126 171.422 59.126C170.054 59.126 168.974 58.724 168.182 57.92C167.402 57.116 167.012 56.006 167.012 54.59C167.012 53.69 167.186 52.898 167.534 52.214C167.882 51.518 168.368 50.978 168.992 50.594C169.628 50.21 170.348 50.018 171.152 50.018C172.316 50.018 173.228 50.402 173.888 51.17C174.548 51.926 174.878 52.97 174.878 54.302V54.842ZM171.17 51.152C170.402 51.152 169.784 51.392 169.316 51.872C168.86 52.352 168.59 53.03 168.506 53.906H173.6C173.576 53.018 173.354 52.34 172.934 51.872C172.514 51.392 171.926 51.152 171.17 51.152Z" fill="#0285E4"/>
</g>
<defs>
<filter id="filter0_d_46_2130" x="0.5" y="0" width="253" height="114" filterUnits="userSpaceOnUse" color-interpolation-filters="sRGB">
<feFlood flood-opacity="0" result="BackgroundImageFix"/>
<feColorMatrix in="SourceAlpha" type="matrix" values="0 0 0 0 0 0 0 0 0 0 0 0 0 0 0 0 0 0 127 0" result="hardAlpha"/>
<feOffset dy="4"/>
<feGaussianBlur stdDeviation="15.5"/>
<feColorMatrix type="matrix" values="0 0 0 0 0 0 0 0 0 0 0 0 0 0 0 0 0 0 0.15 0"/>
<feBlend mode="normal" in2="BackgroundImageFix" result="effect1_dropShadow_46_2130"/>
<feBlend mode="normal" in="SourceGraphic" in2="effect1_dropShadow_46_2130" result="shape"/>
</filter>
</defs>
</svg>
