<svg width="322" height="114" viewBox="0 0 322 114" fill="none" xmlns="http://www.w3.org/2000/svg">
<g filter="url(#filter0_d_46_1861)">
<rect x="31.5" y="27" width="259" height="52" rx="26" fill="#0285E4"/>
<path d="M116.126 59V47.57H111.716V46.31H122.048V47.57H117.62V59H116.126ZM127.405 51.278L126.451 51.368C125.551 51.452 124.897 51.734 124.489 52.214C124.093 52.694 123.895 53.288 123.895 53.996V59H122.437V50.234H123.859V51.764C124.351 50.744 125.317 50.174 126.757 50.054L127.279 50.018L127.405 51.278ZM135.809 50.252H137.267L132.083 62.24H130.589L132.065 58.892L128.357 50.252H129.905L132.839 57.416L135.809 50.252ZM144.03 59V46.31H151.878V47.552H145.488V51.926H151.518V53.168H145.488V59H144.03ZM157.494 59.126C156.666 59.126 155.934 58.94 155.298 58.568C154.674 58.196 154.188 57.668 153.84 56.984C153.504 56.288 153.336 55.484 153.336 54.572C153.336 53.66 153.504 52.862 153.84 52.178C154.188 51.482 154.674 50.948 155.298 50.576C155.934 50.204 156.666 50.018 157.494 50.018C158.322 50.018 159.054 50.204 159.69 50.576C160.326 50.948 160.812 51.482 161.148 52.178C161.496 52.862 161.67 53.66 161.67 54.572C161.67 55.484 161.496 56.288 161.148 56.984C160.812 57.668 160.326 58.196 159.69 58.568C159.054 58.94 158.322 59.126 157.494 59.126ZM157.494 57.92C158.358 57.92 159.018 57.638 159.474 57.074C159.942 56.498 160.176 55.664 160.176 54.572C160.176 53.504 159.942 52.682 159.474 52.106C159.006 51.518 158.346 51.224 157.494 51.224C156.642 51.224 155.982 51.518 155.514 52.106C155.046 52.682 154.812 53.504 154.812 54.572C154.812 55.652 155.04 56.48 155.496 57.056C155.964 57.632 156.63 57.92 157.494 57.92ZM169.01 51.278L168.056 51.368C167.156 51.452 166.502 51.734 166.094 52.214C165.698 52.694 165.5 53.288 165.5 53.996V59H164.042V50.234H165.464V51.764C165.956 50.744 166.922 50.174 168.362 50.054L168.884 50.018L169.01 51.278ZM175.645 59V46.31H183.493V47.552H177.103V51.926H183.133V53.168H177.103V59H175.645ZM190.44 51.278L189.486 51.368C188.586 51.452 187.932 51.734 187.524 52.214C187.128 52.694 186.93 53.288 186.93 53.996V59H185.472V50.234H186.894V51.764C187.386 50.744 188.352 50.174 189.792 50.054L190.314 50.018L190.44 51.278ZM199.186 54.842H192.778C192.826 55.862 193.102 56.636 193.606 57.164C194.11 57.68 194.824 57.938 195.748 57.938C196.768 57.938 197.704 57.59 198.556 56.894L199.042 57.956C198.658 58.316 198.166 58.604 197.566 58.82C196.966 59.024 196.354 59.126 195.73 59.126C194.362 59.126 193.282 58.724 192.49 57.92C191.71 57.116 191.32 56.006 191.32 54.59C191.32 53.69 191.494 52.898 191.842 52.214C192.19 51.518 192.676 50.978 193.3 50.594C193.936 50.21 194.656 50.018 195.46 50.018C196.624 50.018 197.536 50.402 198.196 51.17C198.856 51.926 199.186 52.97 199.186 54.302V54.842ZM195.478 51.152C194.71 51.152 194.092 51.392 193.624 51.872C193.168 52.352 192.898 53.03 192.814 53.906H197.908C197.884 53.018 197.662 52.34 197.242 51.872C196.822 51.392 196.234 51.152 195.478 51.152ZM208.878 54.842H202.47C202.518 55.862 202.794 56.636 203.298 57.164C203.802 57.68 204.516 57.938 205.44 57.938C206.46 57.938 207.396 57.59 208.248 56.894L208.734 57.956C208.35 58.316 207.858 58.604 207.258 58.82C206.658 59.024 206.046 59.126 205.422 59.126C204.054 59.126 202.974 58.724 202.182 57.92C201.402 57.116 201.012 56.006 201.012 54.59C201.012 53.69 201.186 52.898 201.534 52.214C201.882 51.518 202.368 50.978 202.992 50.594C203.628 50.21 204.348 50.018 205.152 50.018C206.316 50.018 207.228 50.402 207.888 51.17C208.548 51.926 208.878 52.97 208.878 54.302V54.842ZM205.17 51.152C204.402 51.152 203.784 51.392 203.316 51.872C202.86 52.352 202.59 53.03 202.506 53.906H207.6C207.576 53.018 207.354 52.34 206.934 51.872C206.514 51.392 205.926 51.152 205.17 51.152Z" fill="white"/>
</g>
<defs>
<filter id="filter0_d_46_1861" x="0.5" y="0" width="321" height="114" filterUnits="userSpaceOnUse" color-interpolation-filters="sRGB">
<feFlood flood-opacity="0" result="BackgroundImageFix"/>
<feColorMatrix in="SourceAlpha" type="matrix" values="0 0 0 0 0 0 0 0 0 0 0 0 0 0 0 0 0 0 127 0" result="hardAlpha"/>
<feOffset dy="4"/>
<feGaussianBlur stdDeviation="15.5"/>
<feColorMatrix type="matrix" values="0 0 0 0 0 0 0 0 0 0 0 0 0 0 0 0 0 0 0.15 0"/>
<feBlend mode="normal" in2="BackgroundImageFix" result="effect1_dropShadow_46_1861"/>
<feBlend mode="normal" in="SourceGraphic" in2="effect1_dropShadow_46_1861" result="shape"/>
</filter>
</defs>
</svg>
