<svg width="372" height="639" viewBox="0 0 372 639" fill="none" xmlns="http://www.w3.org/2000/svg">
<rect x="0.5" y="0.5" width="371" height="638" rx="9.5" fill="white"/>
<rect x="0.5" y="0.5" width="371" height="638" rx="9.5" stroke="#D3D3D3"/>
<g clip-path="url(#clip0_46_2074)">
<path d="M79.8554 41.663C81.8 40.5326 84.9625 40.5149 86.917 41.6215L124.464 62.8532C126.429 63.9579 128 66.6881 128 68.9408V111.805C128 114.061 126.417 116.794 124.464 117.92L86.9091 139.371C84.9586 140.487 81.802 140.469 79.8671 139.329L43.5082 117.944C41.5714 116.803 40 114.05 40 111.805V68.9408C40 66.6841 41.5714 63.9382 43.518 62.8098L79.8554 41.663ZM64.6518 81.0825C61.5207 81.0825 58.3877 81.1102 55.2566 81.1102V101.123H59.0143V95.2344H64.6518C74.4162 95.2344 74.3868 81.0825 64.6518 81.0825ZM92.1793 100.866L86.143 94.033C93.4109 92.5516 92.9787 81.1654 84.0079 81.1102C80.8473 81.1102 77.6887 81.0825 74.5282 81.0825V101.123H78.2859V94.4335H81.9021L87.7086 101.123H92.1793V100.866ZM84.0098 84.6274C88.5945 84.6274 88.5788 91.0306 84.0098 91.0306H78.2879V84.6274H84.0098ZM65.2391 84.3118C69.3995 84.3118 69.3857 91.9756 65.2391 91.9756H58.8925V84.3138L65.2391 84.3118ZM103.081 80.7117C89.6336 80.7117 89.1346 101.582 103.081 101.582C116.729 101.58 116.715 80.7117 103.081 80.7117ZM103.081 84.1421C111.747 84.1421 111.881 98.1204 103.081 98.1204C94.2811 98.1204 94.3538 84.1421 103.081 84.1421Z" fill="#F3CD03"/>
</g>
<path d="M51.824 169.08H58.064C60.832 169.08 62.976 169.824 64.496 171.312C66.032 172.784 66.8 174.856 66.8 177.528C66.8 180.2 66.032 182.28 64.496 183.768C62.976 185.256 60.832 186 58.064 186H51.824V169.08ZM57.872 183.48C61.76 183.48 63.704 181.496 63.704 177.528C63.704 173.576 61.76 171.6 57.872 171.6H54.92V183.48H57.872ZM80.0498 180.672H72.0578C72.1538 181.76 72.4818 182.568 73.0418 183.096C73.6018 183.624 74.4018 183.888 75.4418 183.888C76.7378 183.888 77.9218 183.472 78.9938 182.64L79.8578 184.704C79.3138 185.152 78.6258 185.512 77.7938 185.784C76.9778 186.056 76.1538 186.192 75.3218 186.192C73.4018 186.192 71.8818 185.648 70.7618 184.56C69.6578 183.472 69.1058 181.984 69.1058 180.096C69.1058 178.896 69.3458 177.832 69.8258 176.904C70.3058 175.976 70.9778 175.256 71.8418 174.744C72.7218 174.232 73.7138 173.976 74.8178 173.976C76.4338 173.976 77.7058 174.496 78.6338 175.536C79.5778 176.576 80.0498 178.008 80.0498 179.832V180.672ZM74.8898 176.088C74.0898 176.088 73.4418 176.344 72.9458 176.856C72.4658 177.368 72.1698 178.104 72.0578 179.064H77.4818C77.4498 178.088 77.2098 177.352 76.7618 176.856C76.3138 176.344 75.6898 176.088 74.8898 176.088ZM86.9238 186.192C85.8838 186.192 84.9238 186.064 84.0438 185.808C83.1798 185.552 82.4438 185.184 81.8358 184.704L82.6758 182.616C83.9238 183.528 85.3558 183.984 86.9718 183.984C87.6598 183.984 88.1798 183.872 88.5318 183.648C88.8998 183.424 89.0838 183.104 89.0838 182.688C89.0838 182.336 88.9558 182.064 88.6998 181.872C88.4598 181.68 88.0198 181.504 87.3798 181.344L85.4598 180.912C84.3718 180.672 83.5638 180.28 83.0358 179.736C82.5078 179.192 82.2438 178.488 82.2438 177.624C82.2438 176.904 82.4438 176.272 82.8438 175.728C83.2598 175.168 83.8278 174.736 84.5478 174.432C85.2838 174.128 86.1318 173.976 87.0918 173.976C87.9238 173.976 88.7238 174.104 89.4918 174.36C90.2758 174.616 90.9638 174.976 91.5558 175.44L90.7158 177.48C89.4998 176.6 88.2838 176.16 87.0678 176.16C86.4118 176.16 85.8998 176.28 85.5318 176.52C85.1638 176.76 84.9798 177.096 84.9798 177.528C84.9798 177.848 85.0918 178.112 85.3158 178.32C85.5558 178.528 85.9318 178.688 86.4438 178.8L88.4358 179.256C89.6038 179.512 90.4598 179.92 91.0038 180.48C91.5478 181.024 91.8198 181.744 91.8198 182.64C91.8198 183.728 91.3798 184.592 90.4998 185.232C89.6198 185.872 88.4278 186.192 86.9238 186.192ZM94.3522 186V174.264H97.3522V186H94.3522ZM94.1842 168.816H97.4962V171.768H94.1842V168.816ZM111.97 174.264V184.92C111.97 186.76 111.458 188.152 110.434 189.096C109.426 190.04 107.93 190.512 105.946 190.512C104.922 190.512 103.938 190.376 102.994 190.104C102.05 189.848 101.226 189.48 100.522 189L101.362 186.888C102.818 187.768 104.322 188.208 105.874 188.208C107.954 188.208 108.994 187.184 108.994 185.136V183.6C108.642 184.256 108.13 184.768 107.458 185.136C106.786 185.488 106.018 185.664 105.154 185.664C104.13 185.664 103.218 185.424 102.418 184.944C101.634 184.448 101.018 183.76 100.57 182.88C100.122 182 99.8979 180.984 99.8979 179.832C99.8979 178.68 100.114 177.664 100.546 176.784C100.994 175.888 101.618 175.2 102.418 174.72C103.218 174.224 104.13 173.976 105.154 173.976C106.018 173.976 106.786 174.16 107.458 174.528C108.13 174.88 108.642 175.384 108.994 176.04V174.264H111.97ZM105.946 183.336C106.906 183.336 107.65 183.024 108.178 182.4C108.722 181.776 108.994 180.92 108.994 179.832C108.994 178.728 108.722 177.864 108.178 177.24C107.65 176.616 106.906 176.304 105.946 176.304C105.002 176.304 104.258 176.616 103.714 177.24C103.17 177.864 102.898 178.728 102.898 179.832C102.898 180.904 103.17 181.76 103.714 182.4C104.258 183.024 105.002 183.336 105.946 183.336ZM121.993 173.976C123.401 173.976 124.449 174.376 125.137 175.176C125.825 175.976 126.169 177.184 126.169 178.8V186H123.169V178.968C123.169 178.056 122.993 177.392 122.641 176.976C122.305 176.56 121.769 176.352 121.033 176.352C120.169 176.352 119.473 176.624 118.945 177.168C118.433 177.712 118.177 178.44 118.177 179.352V186H115.177V174.264H118.105V176.016C118.505 175.36 119.041 174.856 119.713 174.504C120.385 174.152 121.145 173.976 121.993 173.976ZM151.772 174.264H154.7L150.092 186H147.476L144.596 178.44L141.788 186H139.196L134.564 174.264H137.636L140.636 182.424L143.636 174.264H145.796L148.796 182.472L151.772 174.264ZM156.587 186V174.264H159.587V186H156.587ZM156.419 168.816H159.731V171.768H156.419V168.816ZM168.78 183.936C169.132 183.936 169.5 183.912 169.884 183.864L169.74 186.096C169.26 186.144 168.82 186.168 168.42 186.168C166.772 186.168 165.556 185.792 164.772 185.04C163.988 184.272 163.596 183.136 163.596 181.632V176.52H161.34V174.264H163.596V170.76H166.596V174.264H169.692V176.52H166.596V181.584C166.596 183.152 167.324 183.936 168.78 183.936ZM178.556 173.976C179.964 173.976 181.012 174.376 181.7 175.176C182.388 175.976 182.732 177.184 182.732 178.8V186H179.732V178.968C179.732 178.056 179.556 177.392 179.204 176.976C178.868 176.56 178.332 176.352 177.596 176.352C176.732 176.352 176.036 176.624 175.508 177.168C174.996 177.712 174.74 178.44 174.74 179.352V186H171.74V169.08H174.74V175.896C175.14 175.272 175.668 174.8 176.324 174.48C176.996 174.144 177.74 173.976 178.556 173.976ZM200.222 176.472L198.47 176.64C196.486 176.848 195.494 177.856 195.494 179.664V186H192.494V174.264H195.35V176.328C195.958 174.92 197.214 174.152 199.118 174.024L200.03 173.952L200.222 176.472ZM211.844 180.672H203.852C203.948 181.76 204.276 182.568 204.836 183.096C205.396 183.624 206.196 183.888 207.236 183.888C208.532 183.888 209.716 183.472 210.788 182.64L211.652 184.704C211.108 185.152 210.42 185.512 209.588 185.784C208.772 186.056 207.948 186.192 207.116 186.192C205.196 186.192 203.676 185.648 202.556 184.56C201.452 183.472 200.9 181.984 200.9 180.096C200.9 178.896 201.14 177.832 201.62 176.904C202.1 175.976 202.772 175.256 203.636 174.744C204.516 174.232 205.508 173.976 206.612 173.976C208.228 173.976 209.5 174.496 210.428 175.536C211.372 176.576 211.844 178.008 211.844 179.832V180.672ZM206.684 176.088C205.884 176.088 205.236 176.344 204.74 176.856C204.26 177.368 203.964 178.104 203.852 179.064H209.276C209.244 178.088 209.004 177.352 208.556 176.856C208.108 176.344 207.484 176.088 206.684 176.088ZM219.437 173.976C221.085 173.976 222.309 174.376 223.109 175.176C223.909 175.976 224.309 177.208 224.309 178.872V186H221.453V184.2C221.181 184.824 220.749 185.312 220.157 185.664C219.581 186.016 218.909 186.192 218.141 186.192C217.357 186.192 216.645 186.032 216.005 185.712C215.365 185.392 214.861 184.952 214.493 184.392C214.125 183.832 213.941 183.208 213.941 182.52C213.941 181.656 214.157 180.976 214.589 180.48C215.037 179.984 215.757 179.624 216.749 179.4C217.741 179.176 219.109 179.064 220.853 179.064H221.453V178.512C221.453 177.712 221.277 177.136 220.925 176.784C220.589 176.432 220.021 176.256 219.221 176.256C218.597 176.256 217.941 176.368 217.253 176.592C216.581 176.8 215.917 177.096 215.261 177.48L214.421 175.416C215.077 175 215.869 174.656 216.797 174.384C217.725 174.112 218.605 173.976 219.437 173.976ZM218.741 184.032C219.541 184.032 220.189 183.768 220.685 183.24C221.197 182.696 221.453 182 221.453 181.152V180.648H221.021C219.949 180.648 219.117 180.696 218.525 180.792C217.933 180.888 217.509 181.056 217.253 181.296C216.997 181.536 216.869 181.864 216.869 182.28C216.869 182.792 217.045 183.216 217.397 183.552C217.749 183.872 218.197 184.032 218.741 184.032ZM227.458 186V169.08H230.458V186H227.458ZM62.888 201.08V218H59.912V216.104C59.56 216.76 59.048 217.272 58.376 217.64C57.72 218.008 56.968 218.192 56.12 218.192C55.112 218.192 54.208 217.936 53.408 217.424C52.624 216.912 52.008 216.192 51.56 215.264C51.128 214.32 50.912 213.24 50.912 212.024C50.912 210.808 51.128 209.744 51.56 208.832C52.008 207.92 52.624 207.216 53.408 206.72C54.192 206.224 55.096 205.976 56.12 205.976C56.968 205.976 57.72 206.152 58.376 206.504C59.032 206.856 59.536 207.352 59.888 207.992V201.08H62.888ZM56.912 215.864C57.872 215.864 58.608 215.536 59.12 214.88C59.648 214.224 59.912 213.288 59.912 212.072C59.912 210.856 59.648 209.928 59.12 209.288C58.608 208.632 57.88 208.304 56.936 208.304C55.976 208.304 55.232 208.624 54.704 209.264C54.176 209.904 53.912 210.824 53.912 212.024C53.912 213.24 54.176 214.184 54.704 214.856C55.232 215.528 55.968 215.864 56.912 215.864ZM71.1141 205.976C72.7621 205.976 73.9861 206.376 74.7861 207.176C75.5861 207.976 75.9861 209.208 75.9861 210.872V218H73.1301V216.2C72.8581 216.824 72.4261 217.312 71.8341 217.664C71.2581 218.016 70.5861 218.192 69.8181 218.192C69.0341 218.192 68.3221 218.032 67.6821 217.712C67.0421 217.392 66.5381 216.952 66.1701 216.392C65.8021 215.832 65.6181 215.208 65.6181 214.52C65.6181 213.656 65.8341 212.976 66.2661 212.48C66.7141 211.984 67.4341 211.624 68.4261 211.4C69.4181 211.176 70.7861 211.064 72.5301 211.064H73.1301V210.512C73.1301 209.712 72.9541 209.136 72.6021 208.784C72.2661 208.432 71.6981 208.256 70.8981 208.256C70.2741 208.256 69.6181 208.368 68.9301 208.592C68.2581 208.8 67.5941 209.096 66.9381 209.48L66.0981 207.416C66.7541 207 67.5461 206.656 68.4741 206.384C69.4021 206.112 70.2821 205.976 71.1141 205.976ZM70.4181 216.032C71.2181 216.032 71.8661 215.768 72.3621 215.24C72.8741 214.696 73.1301 214 73.1301 213.152V212.648H72.6981C71.6261 212.648 70.7941 212.696 70.2021 212.792C69.6101 212.888 69.1861 213.056 68.9301 213.296C68.6741 213.536 68.5461 213.864 68.5461 214.28C68.5461 214.792 68.7221 215.216 69.0741 215.552C69.4261 215.872 69.8741 216.032 70.4181 216.032ZM85.135 215.936C85.487 215.936 85.855 215.912 86.239 215.864L86.095 218.096C85.615 218.144 85.175 218.168 84.775 218.168C83.127 218.168 81.911 217.792 81.127 217.04C80.343 216.272 79.951 215.136 79.951 213.632V208.52H77.695V206.264H79.951V202.76H82.951V206.264H86.047V208.52H82.951V213.584C82.951 215.152 83.679 215.936 85.135 215.936ZM93.1344 205.976C94.7824 205.976 96.0064 206.376 96.8064 207.176C97.6064 207.976 98.0064 209.208 98.0064 210.872V218H95.1504V216.2C94.8784 216.824 94.4464 217.312 93.8544 217.664C93.2784 218.016 92.6064 218.192 91.8384 218.192C91.0544 218.192 90.3424 218.032 89.7024 217.712C89.0624 217.392 88.5584 216.952 88.1904 216.392C87.8224 215.832 87.6384 215.208 87.6384 214.52C87.6384 213.656 87.8544 212.976 88.2864 212.48C88.7344 211.984 89.4544 211.624 90.4464 211.4C91.4384 211.176 92.8064 211.064 94.5504 211.064H95.1504V210.512C95.1504 209.712 94.9744 209.136 94.6224 208.784C94.2864 208.432 93.7184 208.256 92.9184 208.256C92.2944 208.256 91.6384 208.368 90.9504 208.592C90.2784 208.8 89.6144 209.096 88.9584 209.48L88.1184 207.416C88.7744 207 89.5664 206.656 90.4944 206.384C91.4224 206.112 92.3024 205.976 93.1344 205.976ZM92.4384 216.032C93.2384 216.032 93.8864 215.768 94.3824 215.24C94.8944 214.696 95.1504 214 95.1504 213.152V212.648H94.7184C93.6464 212.648 92.8144 212.696 92.2224 212.792C91.6304 212.888 91.2064 213.056 90.9504 213.296C90.6944 213.536 90.5664 213.864 90.5664 214.28C90.5664 214.792 90.7424 215.216 91.0944 215.552C91.4464 215.872 91.8944 216.032 92.4384 216.032Z" fill="black"/>
<path d="M51.392 274V262.72H58.528V263.808H52.688V267.728H58.208V268.816H52.688V272.912H58.528V274H51.392ZM66.2965 266.224H67.5925L64.2325 274H63.0165L59.6725 266.224H61.0485L63.6565 272.592L66.2965 266.224ZM75.5655 270.304H69.8695C69.9122 271.211 70.1575 271.899 70.6055 272.368C71.0535 272.827 71.6882 273.056 72.5095 273.056C73.4162 273.056 74.2482 272.747 75.0055 272.128L75.4375 273.072C75.0962 273.392 74.6588 273.648 74.1255 273.84C73.5922 274.021 73.0482 274.112 72.4935 274.112C71.2775 274.112 70.3175 273.755 69.6135 273.04C68.9202 272.325 68.5735 271.339 68.5735 270.08C68.5735 269.28 68.7282 268.576 69.0375 267.968C69.3468 267.349 69.7788 266.869 70.3335 266.528C70.8988 266.187 71.5388 266.016 72.2535 266.016C73.2882 266.016 74.0988 266.357 74.6855 267.04C75.2722 267.712 75.5655 268.64 75.5655 269.824V270.304ZM72.2695 267.024C71.5868 267.024 71.0375 267.237 70.6215 267.664C70.2162 268.091 69.9762 268.693 69.9015 269.472H74.4295C74.4082 268.683 74.2108 268.08 73.8375 267.664C73.4642 267.237 72.9415 267.024 72.2695 267.024ZM82.091 267.136L81.243 267.216C80.443 267.291 79.8617 267.541 79.499 267.968C79.147 268.395 78.971 268.923 78.971 269.552V274H77.675V266.208H78.939V267.568C79.3763 266.661 80.235 266.155 81.515 266.048L81.979 266.016L82.091 267.136ZM98.4166 266.208H99.7126L96.8166 274H95.5686L93.3766 267.968L91.1686 274H89.9366L87.0406 266.208H88.3846L90.5926 272.464L92.8486 266.208H93.9686L96.1926 272.464L98.4166 266.208ZM104.648 274.112C103.912 274.112 103.261 273.947 102.696 273.616C102.141 273.285 101.709 272.816 101.4 272.208C101.101 271.589 100.952 270.875 100.952 270.064C100.952 269.253 101.101 268.544 101.4 267.936C101.709 267.317 102.141 266.843 102.696 266.512C103.261 266.181 103.912 266.016 104.648 266.016C105.384 266.016 106.034 266.181 106.6 266.512C107.165 266.843 107.597 267.317 107.896 267.936C108.205 268.544 108.36 269.253 108.36 270.064C108.36 270.875 108.205 271.589 107.896 272.208C107.597 272.816 107.165 273.285 106.6 273.616C106.034 273.947 105.384 274.112 104.648 274.112ZM104.648 273.04C105.416 273.04 106.002 272.789 106.408 272.288C106.824 271.776 107.032 271.035 107.032 270.064C107.032 269.115 106.824 268.384 106.408 267.872C105.992 267.349 105.405 267.088 104.648 267.088C103.89 267.088 103.304 267.349 102.888 267.872C102.472 268.384 102.264 269.115 102.264 270.064C102.264 271.024 102.466 271.76 102.872 272.272C103.288 272.784 103.88 273.04 104.648 273.04ZM114.411 266.016C116.277 266.016 117.211 267.045 117.211 269.104V274H115.915V269.184C115.915 268.459 115.771 267.931 115.483 267.6C115.205 267.269 114.757 267.104 114.139 267.104C113.424 267.104 112.853 267.323 112.427 267.76C112 268.197 111.787 268.789 111.787 269.536V274H110.491V266.208H111.771V267.488C112.027 267.008 112.384 266.645 112.843 266.4C113.301 266.144 113.824 266.016 114.411 266.016ZM126.696 262.72V274H125.4V272.576C125.166 273.067 124.819 273.445 124.36 273.712C123.912 273.979 123.384 274.112 122.776 274.112C122.094 274.112 121.491 273.941 120.968 273.6C120.446 273.259 120.04 272.784 119.752 272.176C119.464 271.557 119.32 270.843 119.32 270.032C119.32 269.232 119.464 268.528 119.752 267.92C120.04 267.312 120.446 266.843 120.968 266.512C121.491 266.181 122.094 266.016 122.776 266.016C123.384 266.016 123.912 266.149 124.36 266.416C124.819 266.683 125.166 267.061 125.4 267.552V262.72H126.696ZM123.032 273.04C123.79 273.04 124.371 272.784 124.776 272.272C125.192 271.749 125.4 271.013 125.4 270.064C125.4 269.115 125.192 268.384 124.776 267.872C124.371 267.36 123.79 267.104 123.032 267.104C122.275 267.104 121.683 267.36 121.256 267.872C120.84 268.384 120.632 269.104 120.632 270.032C120.632 270.981 120.84 271.723 121.256 272.256C121.683 272.779 122.275 273.04 123.032 273.04ZM135.825 270.304H130.129C130.172 271.211 130.417 271.899 130.865 272.368C131.313 272.827 131.948 273.056 132.769 273.056C133.676 273.056 134.508 272.747 135.265 272.128L135.697 273.072C135.356 273.392 134.918 273.648 134.385 273.84C133.852 274.021 133.308 274.112 132.753 274.112C131.537 274.112 130.577 273.755 129.873 273.04C129.18 272.325 128.833 271.339 128.833 270.08C128.833 269.28 128.988 268.576 129.297 267.968C129.606 267.349 130.038 266.869 130.593 266.528C131.158 266.187 131.798 266.016 132.513 266.016C133.548 266.016 134.358 266.357 134.945 267.04C135.532 267.712 135.825 268.64 135.825 269.824V270.304ZM132.529 267.024C131.846 267.024 131.297 267.237 130.881 267.664C130.476 268.091 130.236 268.693 130.161 269.472H134.689C134.668 268.683 134.47 268.08 134.097 267.664C133.724 267.237 133.201 267.024 132.529 267.024ZM142.35 267.136L141.502 267.216C140.702 267.291 140.121 267.541 139.758 267.968C139.406 268.395 139.23 268.923 139.23 269.552V274H137.934V266.208H139.198V267.568C139.636 266.661 140.494 266.155 141.774 266.048L142.238 266.016L142.35 267.136ZM150.147 270.304H144.451C144.493 271.211 144.739 271.899 145.187 272.368C145.635 272.827 146.269 273.056 147.091 273.056C147.997 273.056 148.829 272.747 149.587 272.128L150.019 273.072C149.677 273.392 149.24 273.648 148.707 273.84C148.173 274.021 147.629 274.112 147.075 274.112C145.859 274.112 144.899 273.755 144.195 273.04C143.501 272.325 143.155 271.339 143.155 270.08C143.155 269.28 143.309 268.576 143.619 267.968C143.928 267.349 144.36 266.869 144.915 266.528C145.48 266.187 146.12 266.016 146.835 266.016C147.869 266.016 148.68 266.357 149.267 267.04C149.853 267.712 150.147 268.64 150.147 269.824V270.304ZM146.851 267.024C146.168 267.024 145.619 267.237 145.203 267.664C144.797 268.091 144.557 268.693 144.483 269.472H149.011C148.989 268.683 148.792 268.08 148.419 267.664C148.045 267.237 147.523 267.024 146.851 267.024ZM159.168 262.72V274H157.872V272.576C157.638 273.067 157.291 273.445 156.832 273.712C156.384 273.979 155.856 274.112 155.248 274.112C154.566 274.112 153.963 273.941 153.44 273.6C152.918 273.259 152.512 272.784 152.224 272.176C151.936 271.557 151.792 270.843 151.792 270.032C151.792 269.232 151.936 268.528 152.224 267.92C152.512 267.312 152.918 266.843 153.44 266.512C153.963 266.181 154.566 266.016 155.248 266.016C155.856 266.016 156.384 266.149 156.832 266.416C157.291 266.683 157.638 267.061 157.872 267.552V262.72H159.168ZM155.504 273.04C156.262 273.04 156.843 272.784 157.248 272.272C157.664 271.749 157.872 271.013 157.872 270.064C157.872 269.115 157.664 268.384 157.248 267.872C156.843 267.36 156.262 267.104 155.504 267.104C154.747 267.104 154.155 267.36 153.728 267.872C153.312 268.384 153.104 269.104 153.104 270.032C153.104 270.981 153.312 271.723 153.728 272.256C154.155 272.779 154.747 273.04 155.504 273.04ZM166.094 274V266.208H167.39V274H166.094ZM165.966 262.832H167.534V264.288H165.966V262.832ZM171.741 266.208H173.949V267.232H171.741V274H170.445V267.232H168.925V266.208H170.445V265.952C170.445 264.917 170.701 264.133 171.213 263.6C171.735 263.067 172.535 262.768 173.613 262.704L174.253 262.672L174.349 263.68L173.613 263.728C172.962 263.771 172.487 263.957 172.189 264.288C171.89 264.608 171.741 265.104 171.741 265.776V266.208ZM185.371 266.224H186.667L182.059 276.88H180.731L182.043 273.904L178.747 266.224H180.123L182.731 272.592L185.371 266.224ZM191.345 274.112C190.609 274.112 189.958 273.947 189.393 273.616C188.838 273.285 188.406 272.816 188.097 272.208C187.798 271.589 187.649 270.875 187.649 270.064C187.649 269.253 187.798 268.544 188.097 267.936C188.406 267.317 188.838 266.843 189.393 266.512C189.958 266.181 190.609 266.016 191.345 266.016C192.081 266.016 192.731 266.181 193.297 266.512C193.862 266.843 194.294 267.317 194.593 267.936C194.902 268.544 195.057 269.253 195.057 270.064C195.057 270.875 194.902 271.589 194.593 272.208C194.294 272.816 193.862 273.285 193.297 273.616C192.731 273.947 192.081 274.112 191.345 274.112ZM191.345 273.04C192.113 273.04 192.699 272.789 193.105 272.288C193.521 271.776 193.729 271.035 193.729 270.064C193.729 269.115 193.521 268.384 193.105 267.872C192.689 267.349 192.102 267.088 191.345 267.088C190.587 267.088 190.001 267.349 189.585 267.872C189.169 268.384 188.961 269.115 188.961 270.064C188.961 271.024 189.163 271.76 189.569 272.272C189.985 272.784 190.577 273.04 191.345 273.04ZM203.748 266.208V274H202.484V272.672C202.238 273.141 201.892 273.499 201.444 273.744C201.006 273.989 200.51 274.112 199.956 274.112C199.028 274.112 198.329 273.856 197.86 273.344C197.39 272.821 197.156 272.053 197.156 271.04V266.208H198.452V271.008C198.452 271.701 198.59 272.213 198.868 272.544C199.145 272.864 199.582 273.024 200.18 273.024C200.862 273.024 201.412 272.805 201.828 272.368C202.244 271.92 202.452 271.333 202.452 270.608V266.208H203.748ZM206.5 267.152L206.148 262.72H207.684L207.364 267.152H206.5ZM214.503 267.136L213.655 267.216C212.855 267.291 212.274 267.541 211.911 267.968C211.559 268.395 211.383 268.923 211.383 269.552V274H210.087V266.208H211.351V267.568C211.789 266.661 212.647 266.155 213.927 266.048L214.391 266.016L214.503 267.136ZM222.3 270.304H216.604C216.647 271.211 216.892 271.899 217.34 272.368C217.788 272.827 218.423 273.056 219.244 273.056C220.151 273.056 220.983 272.747 221.74 272.128L222.172 273.072C221.831 273.392 221.393 273.648 220.86 273.84C220.327 274.021 219.783 274.112 219.228 274.112C218.012 274.112 217.052 273.755 216.348 273.04C215.655 272.325 215.308 271.339 215.308 270.08C215.308 269.28 215.463 268.576 215.772 267.968C216.081 267.349 216.513 266.869 217.068 266.528C217.633 266.187 218.273 266.016 218.988 266.016C220.023 266.016 220.833 266.357 221.42 267.04C222.007 267.712 222.3 268.64 222.3 269.824V270.304ZM219.004 267.024C218.321 267.024 217.772 267.237 217.356 267.664C216.951 268.091 216.711 268.693 216.636 269.472H221.164C221.143 268.683 220.945 268.08 220.572 267.664C220.199 267.237 219.676 267.024 219.004 267.024ZM232.158 273.072C232.393 273.072 232.628 273.056 232.862 273.024L232.798 274.048C232.553 274.091 232.286 274.112 231.998 274.112C231.06 274.112 230.35 273.867 229.87 273.376C229.401 272.885 229.166 272.203 229.166 271.328V267.232H227.646V266.208H229.166V263.84H230.462V266.208H232.67V267.232H230.462V271.232C230.462 272.459 231.028 273.072 232.158 273.072ZM237.604 274.112C236.868 274.112 236.217 273.947 235.652 273.616C235.097 273.285 234.665 272.816 234.356 272.208C234.057 271.589 233.908 270.875 233.908 270.064C233.908 269.253 234.057 268.544 234.356 267.936C234.665 267.317 235.097 266.843 235.652 266.512C236.217 266.181 236.868 266.016 237.604 266.016C238.34 266.016 238.991 266.181 239.556 266.512C240.121 266.843 240.553 267.317 240.852 267.936C241.161 268.544 241.316 269.253 241.316 270.064C241.316 270.875 241.161 271.589 240.852 272.208C240.553 272.816 240.121 273.285 239.556 273.616C238.991 273.947 238.34 274.112 237.604 274.112ZM237.604 273.04C238.372 273.04 238.959 272.789 239.364 272.288C239.78 271.776 239.988 271.035 239.988 270.064C239.988 269.115 239.78 268.384 239.364 267.872C238.948 267.349 238.361 267.088 237.604 267.088C236.847 267.088 236.26 267.349 235.844 267.872C235.428 268.384 235.22 269.115 235.22 270.064C235.22 271.024 235.423 271.76 235.828 272.272C236.244 272.784 236.836 273.04 237.604 273.04ZM246.679 274.112C245.943 274.112 245.292 273.947 244.727 273.616C244.172 273.285 243.74 272.816 243.431 272.208C243.132 271.589 242.983 270.875 242.983 270.064C242.983 269.253 243.132 268.544 243.431 267.936C243.74 267.317 244.172 266.843 244.727 266.512C245.292 266.181 245.943 266.016 246.679 266.016C247.415 266.016 248.066 266.181 248.631 266.512C249.196 266.843 249.628 267.317 249.927 267.936C250.236 268.544 250.391 269.253 250.391 270.064C250.391 270.875 250.236 271.589 249.927 272.208C249.628 272.816 249.196 273.285 248.631 273.616C248.066 273.947 247.415 274.112 246.679 274.112ZM246.679 273.04C247.447 273.04 248.034 272.789 248.439 272.288C248.855 271.776 249.063 271.035 249.063 270.064C249.063 269.115 248.855 268.384 248.439 267.872C248.023 267.349 247.436 267.088 246.679 267.088C245.922 267.088 245.335 267.349 244.919 267.872C244.503 268.384 244.295 269.115 244.295 270.064C244.295 271.024 244.498 271.76 244.903 272.272C245.319 272.784 245.911 273.04 246.679 273.04ZM261.263 267.136L260.415 267.216C259.615 267.291 259.034 267.541 258.671 267.968C258.319 268.395 258.143 268.923 258.143 269.552V274H256.847V266.208H258.111V267.568C258.548 266.661 259.407 266.155 260.687 266.048L261.151 266.016L261.263 267.136ZM269.059 270.304H263.363C263.406 271.211 263.651 271.899 264.099 272.368C264.547 272.827 265.182 273.056 266.003 273.056C266.91 273.056 267.742 272.747 268.499 272.128L268.931 273.072C268.59 273.392 268.153 273.648 267.619 273.84C267.086 274.021 266.542 274.112 265.987 274.112C264.771 274.112 263.811 273.755 263.107 273.04C262.414 272.325 262.067 271.339 262.067 270.08C262.067 269.28 262.222 268.576 262.531 267.968C262.841 267.349 263.273 266.869 263.827 266.528C264.393 266.187 265.033 266.016 265.747 266.016C266.782 266.016 267.593 266.357 268.179 267.04C268.766 267.712 269.059 268.64 269.059 269.824V270.304ZM265.763 267.024C265.081 267.024 264.531 267.237 264.115 267.664C263.71 268.091 263.47 268.693 263.395 269.472H267.923C267.902 268.683 267.705 268.08 267.331 267.664C266.958 267.237 266.435 267.024 265.763 267.024ZM271.169 274V262.72H272.465V274H271.169ZM275.087 274V266.208H276.383V274H275.087ZM274.959 262.832H276.527V264.288H274.959V262.832ZM282.174 266.016C283.166 266.016 283.902 266.272 284.382 266.784C284.873 267.285 285.118 268.053 285.118 269.088V274H283.854V272.672C283.652 273.131 283.342 273.488 282.926 273.744C282.51 273.989 282.03 274.112 281.486 274.112C280.985 274.112 280.521 274.011 280.094 273.808C279.678 273.605 279.348 273.323 279.102 272.96C278.857 272.597 278.734 272.197 278.734 271.76C278.734 271.173 278.884 270.72 279.182 270.4C279.481 270.069 279.972 269.835 280.654 269.696C281.337 269.547 282.286 269.472 283.502 269.472H283.854V268.944C283.854 268.293 283.721 267.824 283.454 267.536C283.188 267.237 282.756 267.088 282.158 267.088C281.262 267.088 280.372 267.365 279.486 267.92L279.054 266.976C279.46 266.688 279.945 266.459 280.51 266.288C281.086 266.107 281.641 266.016 282.174 266.016ZM281.662 273.088C282.302 273.088 282.825 272.875 283.23 272.448C283.646 272.011 283.854 271.451 283.854 270.768V270.304H283.566C282.628 270.304 281.913 270.347 281.422 270.432C280.932 270.507 280.58 270.64 280.366 270.832C280.164 271.013 280.062 271.285 280.062 271.648C280.062 272.064 280.212 272.411 280.51 272.688C280.82 272.955 281.204 273.088 281.662 273.088ZM291.611 266.016C293.477 266.016 294.411 267.045 294.411 269.104V274H293.115V269.184C293.115 268.459 292.971 267.931 292.683 267.6C292.405 267.269 291.957 267.104 291.339 267.104C290.624 267.104 290.053 267.323 289.627 267.76C289.2 268.197 288.987 268.789 288.987 269.536V274H287.691V266.208H288.971V267.488C289.227 267.008 289.584 266.645 290.043 266.4C290.501 266.144 291.024 266.016 291.611 266.016ZM300.408 273.072C300.643 273.072 300.878 273.056 301.112 273.024L301.048 274.048C300.803 274.091 300.536 274.112 300.248 274.112C299.31 274.112 298.6 273.867 298.12 273.376C297.651 272.885 297.416 272.203 297.416 271.328V267.232H295.896V266.208H297.416V263.84H298.712V266.208H300.92V267.232H298.712V271.232C298.712 272.459 299.278 273.072 300.408 273.072ZM54.432 298.112C53.696 298.112 53.0453 297.947 52.48 297.616C51.9253 297.285 51.4933 296.816 51.184 296.208C50.8853 295.589 50.736 294.875 50.736 294.064C50.736 293.253 50.8853 292.544 51.184 291.936C51.4933 291.317 51.9253 290.843 52.48 290.512C53.0453 290.181 53.696 290.016 54.432 290.016C55.168 290.016 55.8187 290.181 56.384 290.512C56.9493 290.843 57.3813 291.317 57.68 291.936C57.9893 292.544 58.144 293.253 58.144 294.064C58.144 294.875 57.9893 295.589 57.68 296.208C57.3813 296.816 56.9493 297.285 56.384 297.616C55.8187 297.947 55.168 298.112 54.432 298.112ZM54.432 297.04C55.2 297.04 55.7867 296.789 56.192 296.288C56.608 295.776 56.816 295.035 56.816 294.064C56.816 293.115 56.608 292.384 56.192 291.872C55.776 291.349 55.1893 291.088 54.432 291.088C53.6747 291.088 53.088 291.349 52.672 291.872C52.256 292.384 52.048 293.115 52.048 294.064C52.048 295.024 52.2507 295.76 52.656 296.272C53.072 296.784 53.664 297.04 54.432 297.04ZM64.195 290.016C66.0617 290.016 66.995 291.045 66.995 293.104V298H65.699V293.184C65.699 292.459 65.555 291.931 65.267 291.6C64.9897 291.269 64.5417 291.104 63.923 291.104C63.2083 291.104 62.6377 291.323 62.211 291.76C61.7843 292.197 61.571 292.789 61.571 293.536V298H60.275V290.208H61.555V291.488C61.811 291.008 62.1683 290.645 62.627 290.4C63.0857 290.144 63.6083 290.016 64.195 290.016ZM77.0618 290.016C78.0538 290.016 78.7898 290.272 79.2698 290.784C79.7604 291.285 80.0058 292.053 80.0058 293.088V298H78.7418V296.672C78.5391 297.131 78.2298 297.488 77.8138 297.744C77.3978 297.989 76.9178 298.112 76.3738 298.112C75.8724 298.112 75.4084 298.011 74.9818 297.808C74.5658 297.605 74.2351 297.323 73.9898 296.96C73.7444 296.597 73.6218 296.197 73.6218 295.76C73.6218 295.173 73.7711 294.72 74.0698 294.4C74.3684 294.069 74.8591 293.835 75.5418 293.696C76.2244 293.547 77.1738 293.472 78.3898 293.472H78.7418V292.944C78.7418 292.293 78.6084 291.824 78.3418 291.536C78.0751 291.237 77.6431 291.088 77.0458 291.088C76.1498 291.088 75.2591 291.365 74.3738 291.92L73.9418 290.976C74.3471 290.688 74.8324 290.459 75.3978 290.288C75.9738 290.107 76.5284 290.016 77.0618 290.016ZM76.5498 297.088C77.1898 297.088 77.7124 296.875 78.1178 296.448C78.5338 296.011 78.7418 295.451 78.7418 294.768V294.304H78.4538C77.5151 294.304 76.8004 294.347 76.3098 294.432C75.8191 294.507 75.4671 294.64 75.2538 294.832C75.0511 295.013 74.9498 295.285 74.9498 295.648C74.9498 296.064 75.0991 296.411 75.3978 296.688C75.7071 296.955 76.0911 297.088 76.5498 297.088ZM90.1991 298.112C89.4311 298.112 88.7645 297.947 88.1991 297.616C87.6338 297.285 87.1965 296.821 86.8871 296.224C86.5885 295.616 86.4391 294.907 86.4391 294.096C86.4391 293.285 86.5938 292.576 86.9031 291.968C87.2231 291.349 87.6658 290.869 88.2311 290.528C88.8071 290.187 89.4791 290.016 90.2471 290.016C90.7698 290.016 91.2818 290.112 91.7831 290.304C92.2845 290.485 92.6898 290.731 92.9991 291.04L92.5671 292C91.8311 291.403 91.0845 291.104 90.3271 291.104C89.5271 291.104 88.9031 291.365 88.4551 291.888C88.0071 292.411 87.7831 293.147 87.7831 294.096C87.7831 295.035 88.0071 295.76 88.4551 296.272C88.9031 296.784 89.5271 297.04 90.3271 297.04C91.0845 297.04 91.8311 296.741 92.5671 296.144L92.9991 297.104C92.6685 297.413 92.2525 297.659 91.7511 297.84C91.2498 298.021 90.7325 298.112 90.1991 298.112ZM94.7594 298V286.72H96.0554V298H94.7594ZM98.6781 298V290.208H99.9741V298H98.6781ZM98.5501 286.832H100.118V288.288H98.5501V286.832ZM109.125 294.304H103.429C103.472 295.211 103.717 295.899 104.165 296.368C104.613 296.827 105.248 297.056 106.069 297.056C106.976 297.056 107.808 296.747 108.565 296.128L108.997 297.072C108.656 297.392 108.218 297.648 107.685 297.84C107.152 298.021 106.608 298.112 106.053 298.112C104.837 298.112 103.877 297.755 103.173 297.04C102.48 296.325 102.133 295.339 102.133 294.08C102.133 293.28 102.288 292.576 102.597 291.968C102.906 291.349 103.338 290.869 103.893 290.528C104.458 290.187 105.098 290.016 105.813 290.016C106.848 290.016 107.658 290.357 108.245 291.04C108.832 291.712 109.125 292.64 109.125 293.824V294.304ZM105.829 291.024C105.146 291.024 104.597 291.237 104.181 291.664C103.776 292.091 103.536 292.693 103.461 293.472H107.989C107.968 292.683 107.77 292.08 107.397 291.664C107.024 291.237 106.501 291.024 105.829 291.024ZM115.154 290.016C117.021 290.016 117.954 291.045 117.954 293.104V298H116.658V293.184C116.658 292.459 116.514 291.931 116.226 291.6C115.949 291.269 115.501 291.104 114.882 291.104C114.168 291.104 113.597 291.323 113.17 291.76C112.744 292.197 112.53 292.789 112.53 293.536V298H111.234V290.208H112.514V291.488C112.77 291.008 113.128 290.645 113.586 290.4C114.045 290.144 114.568 290.016 115.154 290.016ZM123.952 297.072C124.187 297.072 124.421 297.056 124.656 297.024L124.592 298.048C124.347 298.091 124.08 298.112 123.792 298.112C122.853 298.112 122.144 297.867 121.664 297.376C121.195 296.885 120.96 296.203 120.96 295.328V291.232H119.44V290.208H120.96V287.84H122.256V290.208H124.464V291.232H122.256V295.232C122.256 296.459 122.821 297.072 123.952 297.072ZM132.219 290.208H134.427V291.232H132.219V298H130.923V291.232H129.403V290.208H130.923V289.952C130.923 288.917 131.179 288.133 131.691 287.6C132.213 287.067 133.013 286.768 134.091 286.704L134.731 286.672L134.827 287.68L134.091 287.728C133.44 287.771 132.965 287.957 132.667 288.288C132.368 288.608 132.219 289.104 132.219 289.776V290.208ZM139.094 298.112C138.358 298.112 137.708 297.947 137.142 297.616C136.588 297.285 136.156 296.816 135.846 296.208C135.548 295.589 135.398 294.875 135.398 294.064C135.398 293.253 135.548 292.544 135.846 291.936C136.156 291.317 136.588 290.843 137.142 290.512C137.708 290.181 138.358 290.016 139.094 290.016C139.83 290.016 140.481 290.181 141.046 290.512C141.612 290.843 142.044 291.317 142.342 291.936C142.652 292.544 142.806 293.253 142.806 294.064C142.806 294.875 142.652 295.589 142.342 296.208C142.044 296.816 141.612 297.285 141.046 297.616C140.481 297.947 139.83 298.112 139.094 298.112ZM139.094 297.04C139.862 297.04 140.449 296.789 140.854 296.288C141.27 295.776 141.478 295.035 141.478 294.064C141.478 293.115 141.27 292.384 140.854 291.872C140.438 291.349 139.852 291.088 139.094 291.088C138.337 291.088 137.75 291.349 137.334 291.872C136.918 292.384 136.71 293.115 136.71 294.064C136.71 295.024 136.913 295.76 137.318 296.272C137.734 296.784 138.326 297.04 139.094 297.04ZM149.354 291.136L148.506 291.216C147.706 291.291 147.124 291.541 146.762 291.968C146.41 292.395 146.234 292.923 146.234 293.552V298H144.938V290.208H146.202V291.568C146.639 290.661 147.498 290.155 148.778 290.048L149.242 290.016L149.354 291.136ZM165.679 290.208H166.975L164.079 298H162.831L160.639 291.968L158.431 298H157.199L154.303 290.208H155.647L157.855 296.464L160.111 290.208H161.231L163.455 296.464L165.679 290.208ZM171.91 298.112C171.174 298.112 170.523 297.947 169.958 297.616C169.403 297.285 168.971 296.816 168.662 296.208C168.363 295.589 168.214 294.875 168.214 294.064C168.214 293.253 168.363 292.544 168.662 291.936C168.971 291.317 169.403 290.843 169.958 290.512C170.523 290.181 171.174 290.016 171.91 290.016C172.646 290.016 173.297 290.181 173.862 290.512C174.427 290.843 174.859 291.317 175.158 291.936C175.467 292.544 175.622 293.253 175.622 294.064C175.622 294.875 175.467 295.589 175.158 296.208C174.859 296.816 174.427 297.285 173.862 297.616C173.297 297.947 172.646 298.112 171.91 298.112ZM171.91 297.04C172.678 297.04 173.265 296.789 173.67 296.288C174.086 295.776 174.294 295.035 174.294 294.064C174.294 293.115 174.086 292.384 173.67 291.872C173.254 291.349 172.667 291.088 171.91 291.088C171.153 291.088 170.566 291.349 170.15 291.872C169.734 292.384 169.526 293.115 169.526 294.064C169.526 295.024 169.729 295.76 170.134 296.272C170.55 296.784 171.142 297.04 171.91 297.04ZM182.169 291.136L181.321 291.216C180.521 291.291 179.94 291.541 179.577 291.968C179.225 292.395 179.049 292.923 179.049 293.552V298H177.753V290.208H179.017V291.568C179.454 290.661 180.313 290.155 181.593 290.048L182.057 290.016L182.169 291.136ZM190.538 298H188.858L184.89 294.272V298H183.594V286.72H184.89V293.744L188.522 290.224H190.17L186.298 293.952L190.538 298ZM193.319 294.656C193.319 293.995 193.436 293.435 193.671 292.976C193.905 292.507 194.247 291.989 194.695 291.424C195.057 290.965 195.324 290.576 195.495 290.256C195.676 289.936 195.767 289.579 195.767 289.184C195.767 288.725 195.607 288.368 195.287 288.112C194.967 287.845 194.529 287.712 193.975 287.712C193.473 287.712 192.961 287.824 192.439 288.048C191.916 288.261 191.404 288.576 190.903 288.992L190.391 287.984C190.849 287.557 191.409 287.221 192.071 286.976C192.732 286.72 193.388 286.592 194.039 286.592C194.945 286.592 195.681 286.821 196.247 287.28C196.812 287.739 197.095 288.341 197.095 289.088C197.095 289.653 196.972 290.144 196.727 290.56C196.481 290.976 196.113 291.461 195.623 292.016C195.164 292.539 194.812 292.997 194.567 293.392C194.321 293.787 194.172 294.245 194.119 294.768L194.087 295.056H193.319V294.656ZM192.903 298V296.368H194.535V298H192.903ZM206.985 298.128C205.225 298.128 203.817 297.653 202.761 296.704L203.273 295.696C203.828 296.165 204.393 296.501 204.969 296.704C205.556 296.907 206.233 297.008 207.001 297.008C207.908 297.008 208.607 296.832 209.097 296.48C209.588 296.128 209.833 295.632 209.833 294.992C209.833 294.619 209.716 294.315 209.481 294.08C209.247 293.845 208.937 293.659 208.553 293.52C208.169 293.381 207.652 293.237 207.001 293.088C206.127 292.885 205.407 292.672 204.841 292.448C204.287 292.224 203.833 291.904 203.481 291.488C203.14 291.072 202.969 290.528 202.969 289.856C202.969 289.216 203.135 288.651 203.465 288.16C203.807 287.659 204.287 287.275 204.905 287.008C205.535 286.731 206.26 286.592 207.081 286.592C207.86 286.592 208.585 286.715 209.257 286.96C209.94 287.205 210.516 287.557 210.985 288.016L210.489 289.024C209.956 288.565 209.412 288.235 208.857 288.032C208.313 287.819 207.721 287.712 207.081 287.712C206.207 287.712 205.519 287.899 205.017 288.272C204.527 288.635 204.281 289.147 204.281 289.808C204.281 290.373 204.5 290.8 204.937 291.088C205.375 291.376 206.036 291.621 206.921 291.824C207.892 292.059 208.655 292.277 209.209 292.48C209.764 292.672 210.223 292.965 210.585 293.36C210.959 293.755 211.145 294.283 211.145 294.944C211.145 295.584 210.975 296.144 210.633 296.624C210.303 297.104 209.823 297.477 209.193 297.744C208.564 298 207.828 298.128 206.985 298.128ZM213.284 298V286.72H214.58V298H213.284ZM220.371 290.016C221.363 290.016 222.099 290.272 222.579 290.784C223.07 291.285 223.315 292.053 223.315 293.088V298H222.051V296.672C221.848 297.131 221.539 297.488 221.123 297.744C220.707 297.989 220.227 298.112 219.683 298.112C219.182 298.112 218.718 298.011 218.291 297.808C217.875 297.605 217.544 297.323 217.299 296.96C217.054 296.597 216.931 296.197 216.931 295.76C216.931 295.173 217.08 294.72 217.379 294.4C217.678 294.069 218.168 293.835 218.851 293.696C219.534 293.547 220.483 293.472 221.699 293.472H222.051V292.944C222.051 292.293 221.918 291.824 221.651 291.536C221.384 291.237 220.952 291.088 220.355 291.088C219.459 291.088 218.568 291.365 217.683 291.92L217.251 290.976C217.656 290.688 218.142 290.459 218.707 290.288C219.283 290.107 219.838 290.016 220.371 290.016ZM219.859 297.088C220.499 297.088 221.022 296.875 221.427 296.448C221.843 296.011 222.051 295.451 222.051 294.768V294.304H221.763C220.824 294.304 220.11 294.347 219.619 294.432C219.128 294.507 218.776 294.64 218.563 294.832C218.36 295.013 218.259 295.285 218.259 295.648C218.259 296.064 218.408 296.411 218.707 296.688C219.016 296.955 219.4 297.088 219.859 297.088ZM229.312 297.072C229.546 297.072 229.781 297.056 230.016 297.024L229.952 298.048C229.706 298.091 229.44 298.112 229.152 298.112C228.213 298.112 227.504 297.867 227.024 297.376C226.554 296.885 226.32 296.203 226.32 295.328V291.232H224.8V290.208H226.32V287.84H227.616V290.208H229.824V291.232H227.616V295.232C227.616 296.459 228.181 297.072 229.312 297.072ZM238.053 294.304H232.357C232.4 295.211 232.645 295.899 233.093 296.368C233.541 296.827 234.176 297.056 234.997 297.056C235.904 297.056 236.736 296.747 237.493 296.128L237.925 297.072C237.584 297.392 237.146 297.648 236.613 297.84C236.08 298.021 235.536 298.112 234.981 298.112C233.765 298.112 232.805 297.755 232.101 297.04C231.408 296.325 231.061 295.339 231.061 294.08C231.061 293.28 231.216 292.576 231.525 291.968C231.834 291.349 232.266 290.869 232.821 290.528C233.386 290.187 234.026 290.016 234.741 290.016C235.776 290.016 236.586 290.357 237.173 291.04C237.76 291.712 238.053 292.64 238.053 293.824V294.304ZM234.757 291.024C234.074 291.024 233.525 291.237 233.109 291.664C232.704 292.091 232.464 292.693 232.389 293.472H236.917C236.896 292.683 236.698 292.08 236.325 291.664C235.952 291.237 235.429 291.024 234.757 291.024ZM248.408 290.016C250.274 290.016 251.208 291.045 251.208 293.104V298H249.912V293.184C249.912 292.459 249.768 291.931 249.48 291.6C249.202 291.269 248.754 291.104 248.136 291.104C247.421 291.104 246.85 291.323 246.424 291.76C245.997 292.197 245.784 292.789 245.784 293.536V298H244.488V286.72H245.784V291.456C246.04 290.987 246.392 290.629 246.84 290.384C247.298 290.139 247.821 290.016 248.408 290.016ZM260.309 294.304H254.613C254.656 295.211 254.901 295.899 255.349 296.368C255.797 296.827 256.432 297.056 257.253 297.056C258.16 297.056 258.992 296.747 259.749 296.128L260.181 297.072C259.84 297.392 259.403 297.648 258.869 297.84C258.336 298.021 257.792 298.112 257.237 298.112C256.021 298.112 255.061 297.755 254.357 297.04C253.664 296.325 253.317 295.339 253.317 294.08C253.317 293.28 253.472 292.576 253.781 291.968C254.091 291.349 254.523 290.869 255.077 290.528C255.643 290.187 256.283 290.016 256.997 290.016C258.032 290.016 258.843 290.357 259.429 291.04C260.016 291.712 260.309 292.64 260.309 293.824V294.304ZM257.013 291.024C256.331 291.024 255.781 291.237 255.365 291.664C254.96 292.091 254.72 292.693 254.645 293.472H259.173C259.152 292.683 258.955 292.08 258.581 291.664C258.208 291.237 257.685 291.024 257.013 291.024ZM262.419 298V286.72H263.715V298H262.419ZM270.257 290.016C270.94 290.016 271.543 290.187 272.065 290.528C272.588 290.869 272.993 291.349 273.281 291.968C273.569 292.576 273.713 293.285 273.713 294.096C273.713 294.907 273.569 295.616 273.281 296.224C272.993 296.821 272.588 297.285 272.065 297.616C271.553 297.947 270.951 298.112 270.257 298.112C269.649 298.112 269.116 297.979 268.657 297.712C268.209 297.445 267.868 297.067 267.633 296.576V300.88H266.337V290.208H267.633V291.552C267.868 291.061 268.209 290.683 268.657 290.416C269.116 290.149 269.649 290.016 270.257 290.016ZM270.001 297.04C270.759 297.04 271.345 296.784 271.761 296.272C272.177 295.76 272.385 295.035 272.385 294.096C272.385 293.157 272.177 292.427 271.761 291.904C271.345 291.371 270.759 291.104 270.001 291.104C269.244 291.104 268.657 291.36 268.241 291.872C267.836 292.384 267.633 293.115 267.633 294.064C267.633 295.013 267.836 295.749 268.241 296.272C268.657 296.784 269.244 297.04 270.001 297.04ZM278.49 298.112C277.178 298.112 276.138 297.776 275.37 297.104L275.802 296.144C276.218 296.475 276.639 296.715 277.066 296.864C277.503 297.003 277.994 297.072 278.538 297.072C279.114 297.072 279.551 296.976 279.85 296.784C280.159 296.581 280.314 296.293 280.314 295.92C280.314 295.611 280.213 295.365 280.01 295.184C279.807 295.003 279.471 294.859 279.002 294.752L277.69 294.448C277.029 294.299 276.522 294.043 276.17 293.68C275.818 293.317 275.642 292.869 275.642 292.336C275.642 291.643 275.914 291.083 276.458 290.656C277.002 290.229 277.727 290.016 278.634 290.016C279.178 290.016 279.695 290.107 280.186 290.288C280.677 290.459 281.087 290.709 281.418 291.04L280.986 291.984C280.271 291.376 279.487 291.072 278.634 291.072C278.09 291.072 277.663 291.179 277.354 291.392C277.055 291.595 276.906 291.883 276.906 292.256C276.906 292.565 276.997 292.816 277.178 293.008C277.37 293.189 277.674 293.328 278.09 293.424L279.418 293.744C280.143 293.915 280.682 294.176 281.034 294.528C281.386 294.869 281.562 295.317 281.562 295.872C281.562 296.555 281.285 297.099 280.73 297.504C280.186 297.909 279.439 298.112 278.49 298.112ZM56.784 314.224H58.08L53.472 324.88H52.144L53.456 321.904L50.16 314.224H51.536L54.144 320.592L56.784 314.224ZM62.757 322.112C62.021 322.112 61.3703 321.947 60.805 321.616C60.2503 321.285 59.8183 320.816 59.509 320.208C59.2103 319.589 59.061 318.875 59.061 318.064C59.061 317.253 59.2103 316.544 59.509 315.936C59.8183 315.317 60.2503 314.843 60.805 314.512C61.3703 314.181 62.021 314.016 62.757 314.016C63.493 314.016 64.1437 314.181 64.709 314.512C65.2743 314.843 65.7063 315.317 66.005 315.936C66.3143 316.544 66.469 317.253 66.469 318.064C66.469 318.875 66.3143 319.589 66.005 320.208C65.7063 320.816 65.2743 321.285 64.709 321.616C64.1437 321.947 63.493 322.112 62.757 322.112ZM62.757 321.04C63.525 321.04 64.1117 320.789 64.517 320.288C64.933 319.776 65.141 319.035 65.141 318.064C65.141 317.115 64.933 316.384 64.517 315.872C64.101 315.349 63.5143 315.088 62.757 315.088C61.9997 315.088 61.413 315.349 60.997 315.872C60.581 316.384 60.373 317.115 60.373 318.064C60.373 319.024 60.5757 319.76 60.981 320.272C61.397 320.784 61.989 321.04 62.757 321.04ZM75.16 314.208V322H73.896V320.672C73.6507 321.141 73.304 321.499 72.856 321.744C72.4187 321.989 71.9227 322.112 71.368 322.112C70.44 322.112 69.7413 321.856 69.272 321.344C68.8027 320.821 68.568 320.053 68.568 319.04V314.208H69.864V319.008C69.864 319.701 70.0027 320.213 70.28 320.544C70.5573 320.864 70.9947 321.024 71.592 321.024C72.2747 321.024 72.824 320.805 73.24 320.368C73.656 319.92 73.864 319.333 73.864 318.608V314.208H75.16ZM82.0937 322V314.208H83.3897V322H82.0937ZM81.9657 310.832H83.5337V312.288H81.9657V310.832ZM92.9245 310.72V322H91.6285V320.576C91.3938 321.067 91.0472 321.445 90.5885 321.712C90.1405 321.979 89.6125 322.112 89.0045 322.112C88.3218 322.112 87.7192 321.941 87.1965 321.6C86.6738 321.259 86.2685 320.784 85.9805 320.176C85.6925 319.557 85.5485 318.843 85.5485 318.032C85.5485 317.232 85.6925 316.528 85.9805 315.92C86.2685 315.312 86.6738 314.843 87.1965 314.512C87.7192 314.181 88.3218 314.016 89.0045 314.016C89.6125 314.016 90.1405 314.149 90.5885 314.416C91.0472 314.683 91.3938 315.061 91.6285 315.552V310.72H92.9245ZM89.2605 321.04C90.0178 321.04 90.5992 320.784 91.0045 320.272C91.4205 319.749 91.6285 319.013 91.6285 318.064C91.6285 317.115 91.4205 316.384 91.0045 315.872C90.5992 315.36 90.0178 315.104 89.2605 315.104C88.5032 315.104 87.9112 315.36 87.4845 315.872C87.0685 316.384 86.8605 317.104 86.8605 318.032C86.8605 318.981 87.0685 319.723 87.4845 320.256C87.9112 320.779 88.5032 321.04 89.2605 321.04ZM102.053 318.304H96.357C96.3997 319.211 96.645 319.899 97.093 320.368C97.541 320.827 98.1757 321.056 98.997 321.056C99.9037 321.056 100.736 320.747 101.493 320.128L101.925 321.072C101.584 321.392 101.146 321.648 100.613 321.84C100.08 322.021 99.5357 322.112 98.981 322.112C97.765 322.112 96.805 321.755 96.101 321.04C95.4077 320.325 95.061 319.339 95.061 318.08C95.061 317.28 95.2157 316.576 95.525 315.968C95.8343 315.349 96.2663 314.869 96.821 314.528C97.3863 314.187 98.0263 314.016 98.741 314.016C99.7757 314.016 100.586 314.357 101.173 315.04C101.76 315.712 102.053 316.64 102.053 317.824V318.304ZM98.757 315.024C98.0743 315.024 97.525 315.237 97.109 315.664C96.7037 316.091 96.4637 316.693 96.389 317.472H100.917C100.896 316.683 100.698 316.08 100.325 315.664C99.9517 315.237 99.429 315.024 98.757 315.024ZM108.083 314.016C109.949 314.016 110.883 315.045 110.883 317.104V322H109.587V317.184C109.587 316.459 109.443 315.931 109.155 315.6C108.877 315.269 108.429 315.104 107.811 315.104C107.096 315.104 106.525 315.323 106.099 315.76C105.672 316.197 105.459 316.789 105.459 317.536V322H104.163V314.208H105.443V315.488C105.699 315.008 106.056 314.645 106.515 314.4C106.973 314.144 107.496 314.016 108.083 314.016ZM116.88 321.072C117.115 321.072 117.35 321.056 117.584 321.024L117.52 322.048C117.275 322.091 117.008 322.112 116.72 322.112C115.782 322.112 115.072 321.867 114.592 321.376C114.123 320.885 113.888 320.203 113.888 319.328V315.232H112.368V314.208H113.888V311.84H115.184V314.208H117.392V315.232H115.184V319.232C115.184 320.459 115.75 321.072 116.88 321.072ZM119.094 322V314.208H120.39V322H119.094ZM118.966 310.832H120.534V312.288H118.966V310.832ZM124.741 314.208H126.949V315.232H124.741V322H123.445V315.232H121.925V314.208H123.445V313.952C123.445 312.917 123.701 312.133 124.213 311.6C124.735 311.067 125.535 310.768 126.613 310.704L127.253 310.672L127.349 311.68L126.613 311.728C125.962 311.771 125.487 311.957 125.189 312.288C124.89 312.608 124.741 313.104 124.741 313.776V314.208ZM134.265 314.224H135.561L130.953 324.88H129.625L130.937 321.904L127.641 314.224H129.017L131.625 320.592L134.265 314.224ZM141.233 320.368H142.865V322H141.233V320.368Z" fill="#5C5C5C"/>
<rect x="15" y="350" width="342" height="249" fill="white"/>
<g clip-path="url(#clip1_46_2074)">
<path d="M57.6445 367.604H53.4678V372H52.1553V362.047H58.3213V363.127H53.4678V366.531H57.6445V367.604ZM64.0293 372C63.9564 371.854 63.8971 371.594 63.8516 371.221C63.2637 371.831 62.5618 372.137 61.7461 372.137C61.0169 372.137 60.4176 371.932 59.9482 371.521C59.4834 371.107 59.251 370.583 59.251 369.949C59.251 369.179 59.5426 368.582 60.126 368.158C60.7139 367.73 61.5387 367.516 62.6006 367.516H63.8311V366.935C63.8311 366.493 63.6989 366.142 63.4346 365.882C63.1702 365.618 62.7806 365.485 62.2656 365.485C61.8145 365.485 61.4362 365.599 61.1309 365.827C60.8255 366.055 60.6729 366.331 60.6729 366.654H59.4014C59.4014 366.285 59.5312 365.93 59.791 365.588C60.0553 365.242 60.4108 364.968 60.8574 364.768C61.3086 364.567 61.8031 364.467 62.3408 364.467C63.193 364.467 63.8607 364.681 64.3438 365.109C64.8268 365.533 65.0775 366.119 65.0957 366.866V370.271C65.0957 370.95 65.1823 371.49 65.3555 371.891V372H64.0293ZM61.9307 371.036C62.3271 371.036 62.7031 370.934 63.0586 370.729C63.4141 370.523 63.6715 370.257 63.8311 369.929V368.411H62.8398C61.2904 368.411 60.5156 368.865 60.5156 369.771C60.5156 370.168 60.6478 370.478 60.9121 370.701C61.1764 370.924 61.516 371.036 61.9307 371.036ZM70.0449 371.104C70.4961 371.104 70.8903 370.968 71.2275 370.694C71.5648 370.421 71.7516 370.079 71.7881 369.669H72.9844C72.9616 370.093 72.8158 370.496 72.5469 370.879C72.278 371.262 71.918 371.567 71.4668 371.795C71.0202 372.023 70.5462 372.137 70.0449 372.137C69.0378 372.137 68.2357 371.802 67.6387 371.132C67.0462 370.457 66.75 369.537 66.75 368.37V368.158C66.75 367.438 66.8822 366.798 67.1465 366.237C67.4108 365.677 67.7891 365.242 68.2812 364.932C68.778 364.622 69.3636 364.467 70.0381 364.467C70.8675 364.467 71.5557 364.715 72.1025 365.212C72.654 365.709 72.9479 366.354 72.9844 367.146H71.7881C71.7516 366.668 71.5693 366.276 71.2412 365.971C70.9176 365.661 70.5166 365.506 70.0381 365.506C69.3955 365.506 68.8965 365.738 68.541 366.203C68.1901 366.663 68.0146 367.331 68.0146 368.206V368.445C68.0146 369.298 68.1901 369.954 68.541 370.414C68.8919 370.874 69.3932 371.104 70.0449 371.104ZM77.4756 372.137C76.473 372.137 75.6572 371.809 75.0283 371.152C74.3994 370.492 74.085 369.61 74.085 368.507V368.274C74.085 367.541 74.224 366.887 74.502 366.312C74.7845 365.734 75.1764 365.283 75.6777 364.959C76.1836 364.631 76.7305 364.467 77.3184 364.467C78.2799 364.467 79.0273 364.784 79.5605 365.417C80.0938 366.05 80.3604 366.957 80.3604 368.138V368.664H75.3496C75.3678 369.393 75.5798 369.983 75.9854 370.435C76.3955 370.881 76.915 371.104 77.5439 371.104C77.9906 371.104 78.3688 371.013 78.6787 370.831C78.9886 370.649 79.2598 370.407 79.4922 370.106L80.2646 370.708C79.6449 371.66 78.7152 372.137 77.4756 372.137ZM77.3184 365.506C76.8079 365.506 76.3796 365.693 76.0332 366.066C75.6868 366.436 75.4727 366.955 75.3906 367.625H79.0957V367.529C79.0592 366.887 78.8861 366.39 78.5762 366.039C78.2663 365.684 77.847 365.506 77.3184 365.506ZM88.0918 368.384C88.0918 369.514 87.832 370.423 87.3125 371.111C86.793 371.795 86.0957 372.137 85.2207 372.137C84.2865 372.137 83.5641 371.806 83.0537 371.146L82.9922 372H81.8301V361.5H83.0947V365.417C83.6051 364.784 84.3092 364.467 85.207 364.467C86.1048 364.467 86.8089 364.806 87.3193 365.485C87.8343 366.164 88.0918 367.094 88.0918 368.274V368.384ZM86.8271 368.24C86.8271 367.379 86.6608 366.714 86.3281 366.244C85.9954 365.775 85.5169 365.54 84.8926 365.54C84.0586 365.54 83.4593 365.927 83.0947 366.702V369.901C83.4821 370.676 84.0859 371.063 84.9062 371.063C85.5124 371.063 85.984 370.829 86.3213 370.359C86.6585 369.89 86.8271 369.184 86.8271 368.24ZM89.3564 368.233C89.3564 367.509 89.4977 366.857 89.7803 366.278C90.0674 365.7 90.4639 365.253 90.9697 364.938C91.4801 364.624 92.0612 364.467 92.7129 364.467C93.7201 364.467 94.5335 364.815 95.1533 365.513C95.7777 366.21 96.0898 367.137 96.0898 368.295V368.384C96.0898 369.104 95.9508 369.751 95.6729 370.325C95.3994 370.895 95.0052 371.339 94.4902 371.658C93.9798 371.977 93.3919 372.137 92.7266 372.137C91.724 372.137 90.9105 371.788 90.2861 371.091C89.6663 370.394 89.3564 369.471 89.3564 368.322V368.233ZM90.6279 368.384C90.6279 369.204 90.8171 369.863 91.1953 370.359C91.5781 370.856 92.0885 371.104 92.7266 371.104C93.3691 371.104 93.8796 370.854 94.2578 370.353C94.6361 369.847 94.8252 369.14 94.8252 368.233C94.8252 367.422 94.6315 366.766 94.2441 366.265C93.8613 365.759 93.3509 365.506 92.7129 365.506C92.0885 365.506 91.585 365.754 91.2021 366.251C90.8193 366.748 90.6279 367.459 90.6279 368.384ZM97.3408 368.233C97.3408 367.509 97.4821 366.857 97.7646 366.278C98.0518 365.7 98.4482 365.253 98.9541 364.938C99.4645 364.624 100.046 364.467 100.697 364.467C101.704 364.467 102.518 364.815 103.138 365.513C103.762 366.21 104.074 367.137 104.074 368.295V368.384C104.074 369.104 103.935 369.751 103.657 370.325C103.384 370.895 102.99 371.339 102.475 371.658C101.964 371.977 101.376 372.137 100.711 372.137C99.7083 372.137 98.8949 371.788 98.2705 371.091C97.6507 370.394 97.3408 369.471 97.3408 368.322V368.233ZM98.6123 368.384C98.6123 369.204 98.8014 369.863 99.1797 370.359C99.5625 370.856 100.073 371.104 100.711 371.104C101.354 371.104 101.864 370.854 102.242 370.353C102.62 369.847 102.81 369.14 102.81 368.233C102.81 367.422 102.616 366.766 102.229 366.265C101.846 365.759 101.335 365.506 100.697 365.506C100.073 365.506 99.5693 365.754 99.1865 366.251C98.8037 366.748 98.6123 367.459 98.6123 368.384ZM107.725 368.575L106.932 369.402V372H105.667V361.5H106.932V367.851L107.608 367.037L109.912 364.604H111.45L108.572 367.693L111.785 372H110.302L107.725 368.575Z" fill="#505D6F"/>
<path d="M280.073 366.148H281.126C281.627 366.148 281.999 366.023 282.24 365.772C282.482 365.522 282.603 365.189 282.603 364.774C282.603 364.373 282.482 364.061 282.24 363.838C282.003 363.615 281.675 363.503 281.256 363.503C280.878 363.503 280.561 363.608 280.306 363.817C280.05 364.022 279.923 364.291 279.923 364.624H277.947C277.947 364.104 278.086 363.64 278.364 363.229C278.647 362.815 279.039 362.491 279.54 362.259C280.046 362.026 280.602 361.91 281.208 361.91C282.261 361.91 283.086 362.163 283.683 362.669C284.28 363.17 284.578 363.863 284.578 364.747C284.578 365.203 284.439 365.622 284.161 366.005C283.883 366.388 283.519 366.682 283.067 366.887C283.628 367.087 284.045 367.388 284.318 367.789C284.596 368.19 284.735 368.664 284.735 369.211C284.735 370.095 284.412 370.804 283.765 371.337C283.122 371.87 282.27 372.137 281.208 372.137C280.215 372.137 279.401 371.875 278.768 371.351C278.139 370.826 277.824 370.134 277.824 369.272H279.8C279.8 369.646 279.939 369.951 280.217 370.188C280.499 370.425 280.846 370.544 281.256 370.544C281.725 370.544 282.092 370.421 282.356 370.175C282.625 369.924 282.76 369.594 282.76 369.184C282.76 368.19 282.213 367.693 281.119 367.693H280.073V366.148ZM286.396 367.105L286.971 362.047H292.549V363.694H288.591L288.345 365.834C288.814 365.583 289.313 365.458 289.842 365.458C290.79 365.458 291.533 365.752 292.07 366.34C292.608 366.928 292.877 367.75 292.877 368.808C292.877 369.45 292.74 370.027 292.467 370.537C292.198 371.043 291.811 371.437 291.305 371.72C290.799 371.998 290.202 372.137 289.514 372.137C288.912 372.137 288.354 372.016 287.839 371.774C287.324 371.528 286.916 371.184 286.615 370.742C286.319 370.3 286.162 369.797 286.144 369.231H288.099C288.14 369.646 288.283 369.97 288.529 370.202C288.78 370.43 289.106 370.544 289.507 370.544C289.953 370.544 290.298 370.384 290.539 370.065C290.781 369.742 290.901 369.286 290.901 368.698C290.901 368.133 290.762 367.7 290.484 367.399C290.206 367.099 289.812 366.948 289.302 366.948C288.832 366.948 288.452 367.071 288.16 367.317L287.969 367.495L286.396 367.105ZM294.736 374.495L293.704 373.955L293.95 373.511C294.256 372.955 294.413 372.401 294.422 371.85V370.318H296.09L296.083 371.686C296.078 372.191 295.951 372.702 295.7 373.217C295.45 373.732 295.128 374.158 294.736 374.495ZM302.181 368.021C301.666 368.527 301.064 368.78 300.376 368.78C299.496 368.78 298.792 368.479 298.264 367.878C297.735 367.272 297.471 366.456 297.471 365.431C297.471 364.779 297.612 364.182 297.895 363.64C298.182 363.093 298.58 362.669 299.091 362.368C299.601 362.063 300.175 361.91 300.813 361.91C301.47 361.91 302.053 362.074 302.563 362.402C303.074 362.73 303.47 363.202 303.753 363.817C304.035 364.433 304.179 365.137 304.184 365.93V366.661C304.184 368.32 303.771 369.623 302.946 370.571C302.121 371.519 300.952 372.025 299.439 372.089L298.954 372.096V370.448L299.392 370.441C301.11 370.364 302.039 369.557 302.181 368.021ZM300.861 367.27C301.18 367.27 301.454 367.188 301.682 367.023C301.914 366.859 302.09 366.661 302.208 366.429V365.615C302.208 364.945 302.08 364.426 301.825 364.057C301.57 363.688 301.228 363.503 300.8 363.503C300.403 363.503 300.077 363.685 299.822 364.05C299.567 364.41 299.439 364.863 299.439 365.41C299.439 365.952 299.562 366.399 299.809 366.75C300.059 367.096 300.41 367.27 300.861 367.27ZM312.421 372H305.599V370.646L308.818 367.215C309.26 366.732 309.586 366.31 309.796 365.95C310.01 365.59 310.117 365.248 310.117 364.925C310.117 364.483 310.006 364.136 309.782 363.886C309.559 363.631 309.24 363.503 308.825 363.503C308.379 363.503 308.025 363.658 307.766 363.968C307.51 364.273 307.383 364.676 307.383 365.178H305.4C305.4 364.572 305.544 364.018 305.831 363.517C306.123 363.015 306.533 362.623 307.062 362.341C307.59 362.054 308.189 361.91 308.859 361.91C309.885 361.91 310.68 362.156 311.245 362.648C311.815 363.141 312.1 363.836 312.1 364.733C312.1 365.226 311.972 365.727 311.717 366.237C311.462 366.748 311.024 367.342 310.404 368.021L308.142 370.407H312.421V372ZM318.259 368.021C317.744 368.527 317.142 368.78 316.454 368.78C315.575 368.78 314.87 368.479 314.342 367.878C313.813 367.272 313.549 366.456 313.549 365.431C313.549 364.779 313.69 364.182 313.973 363.64C314.26 363.093 314.659 362.669 315.169 362.368C315.679 362.063 316.254 361.91 316.892 361.91C317.548 361.91 318.131 362.074 318.642 362.402C319.152 362.73 319.549 363.202 319.831 363.817C320.114 364.433 320.257 365.137 320.262 365.93V366.661C320.262 368.32 319.849 369.623 319.024 370.571C318.2 371.519 317.031 372.025 315.518 372.089L315.032 372.096V370.448L315.47 370.441C317.188 370.364 318.118 369.557 318.259 368.021ZM316.939 367.27C317.258 367.27 317.532 367.188 317.76 367.023C317.992 366.859 318.168 366.661 318.286 366.429V365.615C318.286 364.945 318.159 364.426 317.903 364.057C317.648 363.688 317.306 363.503 316.878 363.503C316.481 363.503 316.156 363.685 315.9 364.05C315.645 364.41 315.518 364.863 315.518 365.41C315.518 365.952 315.641 366.399 315.887 366.75C316.137 367.096 316.488 367.27 316.939 367.27Z" fill="#505D70"/>
<rect x="51" y="383" width="270" height="6" rx="3" fill="#F3F5F8"/>
<rect x="51" y="383" width="134.695" height="6" rx="3" fill="#2CD9C5"/>
<path d="M59.0322 421.127H55.833V430H54.5273V421.127H51.335V420.047H59.0322V421.127ZM66.4629 428.257L67.8848 422.604H69.1494L66.9961 430H65.9707L64.1729 424.395L62.4229 430H61.3975L59.251 422.604H60.5088L61.9648 428.141L63.6875 422.604H64.7061L66.4629 428.257ZM71.8154 430H70.5508V422.604H71.8154V430ZM70.4482 420.642C70.4482 420.437 70.5098 420.263 70.6328 420.122C70.7604 419.981 70.9473 419.91 71.1934 419.91C71.4395 419.91 71.6263 419.981 71.7539 420.122C71.8815 420.263 71.9453 420.437 71.9453 420.642C71.9453 420.847 71.8815 421.018 71.7539 421.154C71.6263 421.291 71.4395 421.359 71.1934 421.359C70.9473 421.359 70.7604 421.291 70.6328 421.154C70.5098 421.018 70.4482 420.847 70.4482 420.642ZM75.5615 420.812V422.604H76.9424V423.581H75.5615V428.168C75.5615 428.464 75.623 428.688 75.7461 428.838C75.8691 428.984 76.0788 429.057 76.375 429.057C76.5208 429.057 76.7214 429.029 76.9766 428.975V430C76.6439 430.091 76.3203 430.137 76.0059 430.137C75.4408 430.137 75.0146 429.966 74.7275 429.624C74.4404 429.282 74.2969 428.797 74.2969 428.168V423.581H72.9502V422.604H74.2969V420.812H75.5615ZM80.1416 420.812V422.604H81.5225V423.581H80.1416V428.168C80.1416 428.464 80.2031 428.688 80.3262 428.838C80.4492 428.984 80.6589 429.057 80.9551 429.057C81.1009 429.057 81.3014 429.029 81.5566 428.975V430C81.224 430.091 80.9004 430.137 80.5859 430.137C80.0208 430.137 79.5947 429.966 79.3076 429.624C79.0205 429.282 78.877 428.797 78.877 428.168V423.581H77.5303V422.604H78.877V420.812H80.1416ZM86.0752 430.137C85.0726 430.137 84.2568 429.809 83.6279 429.152C82.999 428.492 82.6846 427.61 82.6846 426.507V426.274C82.6846 425.541 82.8236 424.887 83.1016 424.312C83.3841 423.734 83.776 423.283 84.2773 422.959C84.7832 422.631 85.3301 422.467 85.918 422.467C86.8796 422.467 87.627 422.784 88.1602 423.417C88.6934 424.05 88.96 424.957 88.96 426.138V426.664H83.9492C83.9674 427.393 84.1794 427.983 84.585 428.435C84.9951 428.881 85.5146 429.104 86.1436 429.104C86.5902 429.104 86.9684 429.013 87.2783 428.831C87.5882 428.649 87.8594 428.407 88.0918 428.106L88.8643 428.708C88.2445 429.66 87.3148 430.137 86.0752 430.137ZM85.918 423.506C85.4076 423.506 84.9792 423.693 84.6328 424.066C84.2865 424.436 84.0723 424.955 83.9902 425.625H87.6953V425.529C87.6589 424.887 87.4857 424.39 87.1758 424.039C86.8659 423.684 86.4466 423.506 85.918 423.506ZM94.0049 423.738C93.8135 423.706 93.6061 423.69 93.3828 423.69C92.5534 423.69 91.9906 424.044 91.6943 424.75V430H90.4297V422.604H91.6602L91.6807 423.458C92.0954 422.797 92.6833 422.467 93.4443 422.467C93.6904 422.467 93.8773 422.499 94.0049 422.562V423.738Z" fill="#505D6F"/>
<path d="M284.886 430H278.063V428.646L281.283 425.215C281.725 424.732 282.051 424.31 282.261 423.95C282.475 423.59 282.582 423.248 282.582 422.925C282.582 422.483 282.47 422.136 282.247 421.886C282.024 421.631 281.705 421.503 281.29 421.503C280.843 421.503 280.49 421.658 280.23 421.968C279.975 422.273 279.848 422.676 279.848 423.178H277.865C277.865 422.572 278.009 422.018 278.296 421.517C278.588 421.015 278.998 420.623 279.526 420.341C280.055 420.054 280.654 419.91 281.324 419.91C282.35 419.91 283.145 420.156 283.71 420.648C284.28 421.141 284.564 421.836 284.564 422.733C284.564 423.226 284.437 423.727 284.182 424.237C283.926 424.748 283.489 425.342 282.869 426.021L280.606 428.407H284.886V430ZM292.59 422.692C292.59 423.175 292.469 423.604 292.228 423.978C291.986 424.351 291.653 424.65 291.229 424.873C291.713 425.105 292.095 425.427 292.378 425.837C292.66 426.243 292.802 426.721 292.802 427.272C292.802 428.157 292.501 428.856 291.899 429.371C291.298 429.882 290.48 430.137 289.445 430.137C288.411 430.137 287.59 429.879 286.984 429.364C286.378 428.849 286.075 428.152 286.075 427.272C286.075 426.721 286.216 426.24 286.499 425.83C286.782 425.42 287.162 425.101 287.641 424.873C287.217 424.65 286.884 424.351 286.643 423.978C286.406 423.604 286.287 423.175 286.287 422.692C286.287 421.845 286.57 421.17 287.135 420.669C287.7 420.163 288.468 419.91 289.438 419.91C290.405 419.91 291.17 420.161 291.735 420.662C292.305 421.159 292.59 421.836 292.59 422.692ZM290.819 427.129C290.819 426.696 290.694 426.35 290.443 426.09C290.193 425.83 289.855 425.7 289.432 425.7C289.012 425.7 288.677 425.83 288.427 426.09C288.176 426.345 288.051 426.691 288.051 427.129C288.051 427.553 288.174 427.895 288.42 428.154C288.666 428.414 289.008 428.544 289.445 428.544C289.874 428.544 290.209 428.419 290.45 428.168C290.696 427.917 290.819 427.571 290.819 427.129ZM290.614 422.788C290.614 422.401 290.512 422.091 290.307 421.858C290.102 421.621 289.812 421.503 289.438 421.503C289.069 421.503 288.782 421.617 288.577 421.845C288.372 422.073 288.27 422.387 288.27 422.788C288.27 423.185 288.372 423.504 288.577 423.745C288.782 423.987 289.072 424.107 289.445 424.107C289.819 424.107 290.106 423.987 290.307 423.745C290.512 423.504 290.614 423.185 290.614 422.788ZM294.736 432.495L293.704 431.955L293.95 431.511C294.256 430.955 294.413 430.401 294.422 429.85V428.318H296.09L296.083 429.686C296.078 430.191 295.951 430.702 295.7 431.217C295.45 431.732 295.128 432.158 294.736 432.495ZM304.047 422.692C304.047 423.175 303.926 423.604 303.685 423.978C303.443 424.351 303.11 424.65 302.687 424.873C303.17 425.105 303.552 425.427 303.835 425.837C304.118 426.243 304.259 426.721 304.259 427.272C304.259 428.157 303.958 428.856 303.356 429.371C302.755 429.882 301.937 430.137 300.902 430.137C299.868 430.137 299.048 429.879 298.441 429.364C297.835 428.849 297.532 428.152 297.532 427.272C297.532 426.721 297.674 426.24 297.956 425.83C298.239 425.42 298.619 425.101 299.098 424.873C298.674 424.65 298.341 424.351 298.1 423.978C297.863 423.604 297.744 423.175 297.744 422.692C297.744 421.845 298.027 421.17 298.592 420.669C299.157 420.163 299.925 419.91 300.896 419.91C301.862 419.91 302.627 420.161 303.192 420.662C303.762 421.159 304.047 421.836 304.047 422.692ZM302.276 427.129C302.276 426.696 302.151 426.35 301.9 426.09C301.65 425.83 301.312 425.7 300.889 425.7C300.469 425.7 300.134 425.83 299.884 426.09C299.633 426.345 299.508 426.691 299.508 427.129C299.508 427.553 299.631 427.895 299.877 428.154C300.123 428.414 300.465 428.544 300.902 428.544C301.331 428.544 301.666 428.419 301.907 428.168C302.153 427.917 302.276 427.571 302.276 427.129ZM302.071 422.788C302.071 422.401 301.969 422.091 301.764 421.858C301.559 421.621 301.269 421.503 300.896 421.503C300.526 421.503 300.239 421.617 300.034 421.845C299.829 422.073 299.727 422.387 299.727 422.788C299.727 423.185 299.829 423.504 300.034 423.745C300.239 423.987 300.529 424.107 300.902 424.107C301.276 424.107 301.563 423.987 301.764 423.745C301.969 423.504 302.071 423.185 302.071 422.788ZM305.893 425.105L306.467 420.047H312.045V421.694H308.087L307.841 423.834C308.31 423.583 308.809 423.458 309.338 423.458C310.286 423.458 311.029 423.752 311.566 424.34C312.104 424.928 312.373 425.75 312.373 426.808C312.373 427.45 312.236 428.027 311.963 428.537C311.694 429.043 311.307 429.437 310.801 429.72C310.295 429.998 309.698 430.137 309.01 430.137C308.408 430.137 307.85 430.016 307.335 429.774C306.82 429.528 306.412 429.184 306.111 428.742C305.815 428.3 305.658 427.797 305.64 427.231H307.595C307.636 427.646 307.779 427.97 308.025 428.202C308.276 428.43 308.602 428.544 309.003 428.544C309.45 428.544 309.794 428.384 310.035 428.065C310.277 427.742 310.397 427.286 310.397 426.698C310.397 426.133 310.258 425.7 309.98 425.399C309.702 425.099 309.308 424.948 308.798 424.948C308.328 424.948 307.948 425.071 307.656 425.317L307.465 425.495L305.893 425.105ZM319.482 426.254H320.61V427.847H319.482V430H317.507V427.847H313.426L313.337 426.603L317.486 420.047H319.482V426.254ZM315.306 426.254H317.507V422.74L317.377 422.966L315.306 426.254Z" fill="#505D70"/>
<rect x="51" y="441" width="270" height="6" rx="3" fill="#F3F5F8"/>
<rect x="51" y="441" width="74.9661" height="6" rx="3" fill="#2D99FF"/>
<path d="M52.1553 488V478.047H55.4092C56.4893 478.047 57.3005 478.27 57.8428 478.717C58.3896 479.163 58.6631 479.824 58.6631 480.699C58.6631 481.164 58.5309 481.576 58.2666 481.937C58.0023 482.292 57.6423 482.568 57.1865 482.764C57.7243 482.914 58.1481 483.201 58.458 483.625C58.7725 484.044 58.9297 484.546 58.9297 485.129C58.9297 486.022 58.6403 486.724 58.0615 487.234C57.4827 487.745 56.6647 488 55.6074 488H52.1553ZM53.4678 483.345V486.927H55.6348C56.2454 486.927 56.7262 486.77 57.0771 486.455C57.4326 486.136 57.6104 485.699 57.6104 485.143C57.6104 483.944 56.9587 483.345 55.6553 483.345H53.4678ZM53.4678 482.292H55.4502C56.0244 482.292 56.4824 482.148 56.8242 481.861C57.1706 481.574 57.3438 481.185 57.3438 480.692C57.3438 480.146 57.1842 479.749 56.8652 479.503C56.5462 479.252 56.0609 479.127 55.4092 479.127H53.4678V482.292ZM63.749 488.137C62.7464 488.137 61.9307 487.809 61.3018 487.152C60.6729 486.492 60.3584 485.61 60.3584 484.507V484.274C60.3584 483.541 60.4974 482.887 60.7754 482.312C61.0579 481.734 61.4499 481.283 61.9512 480.959C62.457 480.631 63.0039 480.467 63.5918 480.467C64.5534 480.467 65.3008 480.784 65.834 481.417C66.3672 482.05 66.6338 482.957 66.6338 484.138V484.664H61.623C61.6413 485.393 61.8532 485.983 62.2588 486.435C62.6689 486.881 63.1885 487.104 63.8174 487.104C64.264 487.104 64.6423 487.013 64.9521 486.831C65.262 486.649 65.5332 486.407 65.7656 486.106L66.5381 486.708C65.9183 487.66 64.9886 488.137 63.749 488.137ZM63.5918 481.506C63.0814 481.506 62.653 481.693 62.3066 482.066C61.9603 482.436 61.7461 482.955 61.6641 483.625H65.3691V483.529C65.3327 482.887 65.1595 482.39 64.8496 482.039C64.5397 481.684 64.1204 481.506 63.5918 481.506ZM69.3682 481.499C69.9287 480.811 70.6579 480.467 71.5557 480.467C73.1188 480.467 73.9072 481.349 73.9209 483.112V488H72.6562V483.105C72.6517 482.572 72.5286 482.178 72.2871 481.923C72.0501 481.668 71.6787 481.54 71.1729 481.54C70.7627 481.54 70.4027 481.649 70.0928 481.868C69.7829 482.087 69.5413 482.374 69.3682 482.729V488H68.1035V477.5H69.3682V481.499ZM80.3809 488C80.3079 487.854 80.2487 487.594 80.2031 487.221C79.6152 487.831 78.9134 488.137 78.0977 488.137C77.3685 488.137 76.7692 487.932 76.2998 487.521C75.835 487.107 75.6025 486.583 75.6025 485.949C75.6025 485.179 75.8942 484.582 76.4775 484.158C77.0654 483.73 77.8903 483.516 78.9521 483.516H80.1826V482.935C80.1826 482.493 80.0505 482.142 79.7861 481.882C79.5218 481.618 79.1322 481.485 78.6172 481.485C78.166 481.485 77.7878 481.599 77.4824 481.827C77.1771 482.055 77.0244 482.331 77.0244 482.654H75.7529C75.7529 482.285 75.8828 481.93 76.1426 481.588C76.4069 481.242 76.7624 480.968 77.209 480.768C77.6602 480.567 78.1546 480.467 78.6924 480.467C79.5446 480.467 80.2122 480.681 80.6953 481.109C81.1784 481.533 81.429 482.119 81.4473 482.866V486.271C81.4473 486.95 81.5339 487.49 81.707 487.891V488H80.3809ZM78.2822 487.036C78.6787 487.036 79.0547 486.934 79.4102 486.729C79.7656 486.523 80.0231 486.257 80.1826 485.929V484.411H79.1914C77.6419 484.411 76.8672 484.865 76.8672 485.771C76.8672 486.168 76.9993 486.478 77.2637 486.701C77.528 486.924 77.8675 487.036 78.2822 487.036ZM84.626 480.604L84.667 481.533C85.2321 480.822 85.9704 480.467 86.8818 480.467C88.445 480.467 89.2334 481.349 89.2471 483.112V488H87.9824V483.105C87.9779 482.572 87.8548 482.178 87.6133 481.923C87.3763 481.668 87.0049 481.54 86.499 481.54C86.0889 481.54 85.7288 481.649 85.4189 481.868C85.109 482.087 84.8675 482.374 84.6943 482.729V488H83.4297V480.604H84.626ZM94.1211 487.104C94.5723 487.104 94.9665 486.968 95.3037 486.694C95.641 486.421 95.8278 486.079 95.8643 485.669H97.0605C97.0378 486.093 96.8919 486.496 96.623 486.879C96.3542 487.262 95.9941 487.567 95.543 487.795C95.0964 488.023 94.6224 488.137 94.1211 488.137C93.1139 488.137 92.3118 487.802 91.7148 487.132C91.1224 486.457 90.8262 485.537 90.8262 484.37V484.158C90.8262 483.438 90.9583 482.798 91.2227 482.237C91.487 481.677 91.8652 481.242 92.3574 480.932C92.8542 480.622 93.4398 480.467 94.1143 480.467C94.9437 480.467 95.6318 480.715 96.1787 481.212C96.7301 481.709 97.0241 482.354 97.0605 483.146H95.8643C95.8278 482.668 95.6455 482.276 95.3174 481.971C94.9938 481.661 94.5928 481.506 94.1143 481.506C93.4717 481.506 92.9727 481.738 92.6172 482.203C92.2663 482.663 92.0908 483.331 92.0908 484.206V484.445C92.0908 485.298 92.2663 485.954 92.6172 486.414C92.9681 486.874 93.4694 487.104 94.1211 487.104ZM101.552 488.137C100.549 488.137 99.7334 487.809 99.1045 487.152C98.4756 486.492 98.1611 485.61 98.1611 484.507V484.274C98.1611 483.541 98.3001 482.887 98.5781 482.312C98.8607 481.734 99.2526 481.283 99.7539 480.959C100.26 480.631 100.807 480.467 101.395 480.467C102.356 480.467 103.104 480.784 103.637 481.417C104.17 482.05 104.437 482.957 104.437 484.138V484.664H99.4258C99.444 485.393 99.6559 485.983 100.062 486.435C100.472 486.881 100.991 487.104 101.62 487.104C102.067 487.104 102.445 487.013 102.755 486.831C103.065 486.649 103.336 486.407 103.568 486.106L104.341 486.708C103.721 487.66 102.791 488.137 101.552 488.137ZM101.395 481.506C100.884 481.506 100.456 481.693 100.109 482.066C99.763 482.436 99.5488 482.955 99.4668 483.625H103.172V483.529C103.135 482.887 102.962 482.39 102.652 482.039C102.342 481.684 101.923 481.506 101.395 481.506Z" fill="#505D6F"/>
<path d="M290.901 488H288.926V480.385L286.567 481.116V479.51L290.689 478.033H290.901V488ZM294.736 490.495L293.704 489.955L293.95 489.511C294.256 488.955 294.413 488.401 294.422 487.85V486.318H296.09L296.083 487.686C296.078 488.191 295.951 488.702 295.7 489.217C295.45 489.732 295.128 490.158 294.736 490.495ZM304.047 480.692C304.047 481.175 303.926 481.604 303.685 481.978C303.443 482.351 303.11 482.65 302.687 482.873C303.17 483.105 303.552 483.427 303.835 483.837C304.118 484.243 304.259 484.721 304.259 485.272C304.259 486.157 303.958 486.856 303.356 487.371C302.755 487.882 301.937 488.137 300.902 488.137C299.868 488.137 299.048 487.879 298.441 487.364C297.835 486.849 297.532 486.152 297.532 485.272C297.532 484.721 297.674 484.24 297.956 483.83C298.239 483.42 298.619 483.101 299.098 482.873C298.674 482.65 298.341 482.351 298.1 481.978C297.863 481.604 297.744 481.175 297.744 480.692C297.744 479.845 298.027 479.17 298.592 478.669C299.157 478.163 299.925 477.91 300.896 477.91C301.862 477.91 302.627 478.161 303.192 478.662C303.762 479.159 304.047 479.836 304.047 480.692ZM302.276 485.129C302.276 484.696 302.151 484.35 301.9 484.09C301.65 483.83 301.312 483.7 300.889 483.7C300.469 483.7 300.134 483.83 299.884 484.09C299.633 484.345 299.508 484.691 299.508 485.129C299.508 485.553 299.631 485.895 299.877 486.154C300.123 486.414 300.465 486.544 300.902 486.544C301.331 486.544 301.666 486.419 301.907 486.168C302.153 485.917 302.276 485.571 302.276 485.129ZM302.071 480.788C302.071 480.401 301.969 480.091 301.764 479.858C301.559 479.621 301.269 479.503 300.896 479.503C300.526 479.503 300.239 479.617 300.034 479.845C299.829 480.073 299.727 480.387 299.727 480.788C299.727 481.185 299.829 481.504 300.034 481.745C300.239 481.987 300.529 482.107 300.902 482.107C301.276 482.107 301.563 481.987 301.764 481.745C301.969 481.504 302.071 481.185 302.071 480.788ZM311.443 484.254H312.571V485.847H311.443V488H309.468V485.847H305.387L305.298 484.603L309.447 478.047H311.443V484.254ZM307.267 484.254H309.468V480.74L309.338 480.966L307.267 484.254ZM315.647 482.148H316.7C317.201 482.148 317.573 482.023 317.814 481.772C318.056 481.522 318.177 481.189 318.177 480.774C318.177 480.373 318.056 480.061 317.814 479.838C317.577 479.615 317.249 479.503 316.83 479.503C316.452 479.503 316.135 479.608 315.88 479.817C315.625 480.022 315.497 480.291 315.497 480.624H313.521C313.521 480.104 313.66 479.64 313.938 479.229C314.221 478.815 314.613 478.491 315.114 478.259C315.62 478.026 316.176 477.91 316.782 477.91C317.835 477.91 318.66 478.163 319.257 478.669C319.854 479.17 320.152 479.863 320.152 480.747C320.152 481.203 320.013 481.622 319.735 482.005C319.457 482.388 319.093 482.682 318.642 482.887C319.202 483.087 319.619 483.388 319.893 483.789C320.171 484.19 320.31 484.664 320.31 485.211C320.31 486.095 319.986 486.804 319.339 487.337C318.696 487.87 317.844 488.137 316.782 488.137C315.789 488.137 314.975 487.875 314.342 487.351C313.713 486.826 313.398 486.134 313.398 485.272H315.374C315.374 485.646 315.513 485.951 315.791 486.188C316.074 486.425 316.42 486.544 316.83 486.544C317.299 486.544 317.666 486.421 317.931 486.175C318.2 485.924 318.334 485.594 318.334 485.184C318.334 484.19 317.787 483.693 316.693 483.693H315.647V482.148Z" fill="#505D70"/>
<rect x="51" y="499" width="270" height="6" rx="3" fill="#F3F5F8"/>
<rect x="51" y="499" width="218.194" height="6" rx="3" fill="#826AF9"/>
<path d="M53.5635 546H52.251V536.047H53.5635V546ZM56.9678 538.604L57.0088 539.533C57.5739 538.822 58.3122 538.467 59.2236 538.467C60.7868 538.467 61.5752 539.349 61.5889 541.112V546H60.3242V541.105C60.3197 540.572 60.1966 540.178 59.9551 539.923C59.7181 539.668 59.3467 539.54 58.8408 539.54C58.4307 539.54 58.0706 539.649 57.7607 539.868C57.4508 540.087 57.2093 540.374 57.0361 540.729V546H55.7715V538.604H56.9678ZM67.8027 544.038C67.8027 543.696 67.6729 543.432 67.4131 543.245C67.1579 543.054 66.709 542.89 66.0664 542.753C65.4284 542.616 64.9202 542.452 64.542 542.261C64.1683 542.069 63.8903 541.841 63.708 541.577C63.5303 541.313 63.4414 540.998 63.4414 540.634C63.4414 540.028 63.6966 539.515 64.207 539.096C64.722 538.676 65.3783 538.467 66.1758 538.467C67.0143 538.467 67.6934 538.683 68.2129 539.116C68.737 539.549 68.999 540.103 68.999 540.777H67.7275C67.7275 540.431 67.5794 540.132 67.2832 539.882C66.9915 539.631 66.6224 539.506 66.1758 539.506C65.7155 539.506 65.3555 539.606 65.0957 539.807C64.8359 540.007 64.7061 540.269 64.7061 540.593C64.7061 540.898 64.8268 541.128 65.0684 541.283C65.3099 541.438 65.7451 541.586 66.374 541.728C67.0075 541.869 67.5202 542.037 67.9121 542.233C68.304 542.429 68.5934 542.666 68.7803 542.944C68.9717 543.218 69.0674 543.553 69.0674 543.949C69.0674 544.61 68.8031 545.141 68.2744 545.542C67.7458 545.938 67.0599 546.137 66.2168 546.137C65.6243 546.137 65.1003 546.032 64.6445 545.822C64.1888 545.613 63.8311 545.321 63.5713 544.947C63.3161 544.569 63.1885 544.161 63.1885 543.724H64.4531C64.4759 544.147 64.6445 544.485 64.959 544.735C65.278 544.981 65.6973 545.104 66.2168 545.104C66.6953 545.104 67.0781 545.009 67.3652 544.817C67.6569 544.621 67.8027 544.362 67.8027 544.038ZM72.4307 536.812V538.604H73.8115V539.581H72.4307V544.168C72.4307 544.464 72.4922 544.688 72.6152 544.838C72.7383 544.984 72.9479 545.057 73.2441 545.057C73.39 545.057 73.5905 545.029 73.8457 544.975V546C73.513 546.091 73.1895 546.137 72.875 546.137C72.3099 546.137 71.8838 545.966 71.5967 545.624C71.3096 545.282 71.166 544.797 71.166 544.168V539.581H69.8193V538.604H71.166V536.812H72.4307ZM79.8613 546C79.7884 545.854 79.7292 545.594 79.6836 545.221C79.0957 545.831 78.3939 546.137 77.5781 546.137C76.849 546.137 76.2497 545.932 75.7803 545.521C75.3154 545.107 75.083 544.583 75.083 543.949C75.083 543.179 75.3747 542.582 75.958 542.158C76.5459 541.73 77.3708 541.516 78.4326 541.516H79.6631V540.935C79.6631 540.493 79.5309 540.142 79.2666 539.882C79.0023 539.618 78.6126 539.485 78.0977 539.485C77.6465 539.485 77.2682 539.599 76.9629 539.827C76.6576 540.055 76.5049 540.331 76.5049 540.654H75.2334C75.2334 540.285 75.3633 539.93 75.623 539.588C75.8874 539.242 76.2428 538.968 76.6895 538.768C77.1406 538.567 77.6351 538.467 78.1729 538.467C79.0251 538.467 79.6927 538.681 80.1758 539.109C80.6589 539.533 80.9095 540.119 80.9277 540.866V544.271C80.9277 544.95 81.0143 545.49 81.1875 545.891V546H79.8613ZM77.7627 545.036C78.1592 545.036 78.5352 544.934 78.8906 544.729C79.2461 544.523 79.5036 544.257 79.6631 543.929V542.411H78.6719C77.1224 542.411 76.3477 542.865 76.3477 543.771C76.3477 544.168 76.4798 544.478 76.7441 544.701C77.0085 544.924 77.348 545.036 77.7627 545.036ZM82.6094 542.24C82.6094 541.087 82.876 540.171 83.4092 539.492C83.9424 538.809 84.6488 538.467 85.5283 538.467C86.4307 538.467 87.1348 538.786 87.6406 539.424L87.7021 538.604H88.8574V545.822C88.8574 546.779 88.5726 547.534 88.0029 548.085C87.4378 548.636 86.6768 548.912 85.7197 548.912C85.1865 548.912 84.6647 548.798 84.1543 548.57C83.6439 548.342 83.2542 548.03 82.9854 547.634L83.6416 546.875C84.1839 547.545 84.847 547.88 85.6309 547.88C86.2461 547.88 86.7246 547.707 87.0664 547.36C87.4128 547.014 87.5859 546.526 87.5859 545.897V545.262C87.0801 545.845 86.3896 546.137 85.5146 546.137C84.6488 546.137 83.9469 545.788 83.4092 545.091C82.876 544.394 82.6094 543.443 82.6094 542.24ZM83.8809 542.384C83.8809 543.218 84.0518 543.874 84.3936 544.353C84.7354 544.826 85.2139 545.063 85.8291 545.063C86.6266 545.063 87.2122 544.701 87.5859 543.977V540.6C87.1986 539.893 86.6175 539.54 85.8428 539.54C85.2275 539.54 84.7467 539.779 84.4004 540.258C84.054 540.736 83.8809 541.445 83.8809 542.384ZM94.3467 539.738C94.1553 539.706 93.9479 539.69 93.7246 539.69C92.8952 539.69 92.3324 540.044 92.0361 540.75V546H90.7715V538.604H92.002L92.0225 539.458C92.4372 538.797 93.0251 538.467 93.7861 538.467C94.0322 538.467 94.2191 538.499 94.3467 538.562V539.738ZM99.8086 546C99.7357 545.854 99.6764 545.594 99.6309 545.221C99.043 545.831 98.3411 546.137 97.5254 546.137C96.7962 546.137 96.1969 545.932 95.7275 545.521C95.2627 545.107 95.0303 544.583 95.0303 543.949C95.0303 543.179 95.3219 542.582 95.9053 542.158C96.4932 541.73 97.318 541.516 98.3799 541.516H99.6104V540.935C99.6104 540.493 99.4782 540.142 99.2139 539.882C98.9495 539.618 98.5599 539.485 98.0449 539.485C97.5938 539.485 97.2155 539.599 96.9102 539.827C96.6048 540.055 96.4521 540.331 96.4521 540.654H95.1807C95.1807 540.285 95.3105 539.93 95.5703 539.588C95.8346 539.242 96.1901 538.968 96.6367 538.768C97.0879 538.567 97.5824 538.467 98.1201 538.467C98.9723 538.467 99.64 538.681 100.123 539.109C100.606 539.533 100.857 540.119 100.875 540.866V544.271C100.875 544.95 100.962 545.49 101.135 545.891V546H99.8086ZM97.71 545.036C98.1064 545.036 98.4824 544.934 98.8379 544.729C99.1934 544.523 99.4508 544.257 99.6104 543.929V542.411H98.6191C97.0697 542.411 96.2949 542.865 96.2949 543.771C96.2949 544.168 96.4271 544.478 96.6914 544.701C96.9557 544.924 97.2952 545.036 97.71 545.036ZM104.047 538.604L104.081 539.424C104.623 538.786 105.355 538.467 106.275 538.467C107.31 538.467 108.014 538.863 108.388 539.656C108.634 539.301 108.953 539.014 109.345 538.795C109.741 538.576 110.208 538.467 110.746 538.467C112.368 538.467 113.193 539.326 113.221 541.044V546H111.956V541.119C111.956 540.59 111.835 540.196 111.594 539.937C111.352 539.672 110.947 539.54 110.377 539.54C109.908 539.54 109.518 539.681 109.208 539.964C108.898 540.242 108.718 540.618 108.668 541.092V546H107.396V541.153C107.396 540.078 106.87 539.54 105.817 539.54C104.988 539.54 104.421 539.893 104.115 540.6V546H102.851V538.604H104.047Z" fill="#505D6F"/>
<path d="M283.908 542.254H285.036V543.847H283.908V546H281.933V543.847H277.852L277.763 542.603L281.912 536.047H283.908V542.254ZM279.731 542.254H281.933V538.74L281.803 538.966L279.731 542.254ZM290.724 542.021C290.209 542.527 289.607 542.78 288.919 542.78C288.039 542.78 287.335 542.479 286.807 541.878C286.278 541.272 286.014 540.456 286.014 539.431C286.014 538.779 286.155 538.182 286.438 537.64C286.725 537.093 287.123 536.669 287.634 536.368C288.144 536.063 288.718 535.91 289.356 535.91C290.013 535.91 290.596 536.074 291.106 536.402C291.617 536.73 292.013 537.202 292.296 537.817C292.578 538.433 292.722 539.137 292.727 539.93V540.661C292.727 542.32 292.314 543.623 291.489 544.571C290.664 545.519 289.495 546.025 287.982 546.089L287.497 546.096V544.448L287.935 544.441C289.653 544.364 290.582 543.557 290.724 542.021ZM289.404 541.27C289.723 541.27 289.997 541.188 290.225 541.023C290.457 540.859 290.632 540.661 290.751 540.429V539.615C290.751 538.945 290.623 538.426 290.368 538.057C290.113 537.688 289.771 537.503 289.343 537.503C288.946 537.503 288.62 537.685 288.365 538.05C288.11 538.41 287.982 538.863 287.982 539.41C287.982 539.952 288.105 540.399 288.352 540.75C288.602 541.096 288.953 541.27 289.404 541.27ZM294.736 548.495L293.704 547.955L293.95 547.511C294.256 546.955 294.413 546.401 294.422 545.85V544.318H296.09L296.083 545.686C296.078 546.191 295.951 546.702 295.7 547.217C295.45 547.732 295.128 548.158 294.736 548.495ZM302.181 542.021C301.666 542.527 301.064 542.78 300.376 542.78C299.496 542.78 298.792 542.479 298.264 541.878C297.735 541.272 297.471 540.456 297.471 539.431C297.471 538.779 297.612 538.182 297.895 537.64C298.182 537.093 298.58 536.669 299.091 536.368C299.601 536.063 300.175 535.91 300.813 535.91C301.47 535.91 302.053 536.074 302.563 536.402C303.074 536.73 303.47 537.202 303.753 537.817C304.035 538.433 304.179 539.137 304.184 539.93V540.661C304.184 542.32 303.771 543.623 302.946 544.571C302.121 545.519 300.952 546.025 299.439 546.089L298.954 546.096V544.448L299.392 544.441C301.11 544.364 302.039 543.557 302.181 542.021ZM300.861 541.27C301.18 541.27 301.454 541.188 301.682 541.023C301.914 540.859 302.09 540.661 302.208 540.429V539.615C302.208 538.945 302.08 538.426 301.825 538.057C301.57 537.688 301.228 537.503 300.8 537.503C300.403 537.503 300.077 537.685 299.822 538.05C299.567 538.41 299.439 538.863 299.439 539.41C299.439 539.952 299.562 540.399 299.809 540.75C300.059 541.096 300.41 541.27 300.861 541.27ZM311.443 542.254H312.571V543.847H311.443V546H309.468V543.847H305.387L305.298 542.603L309.447 536.047H311.443V542.254ZM307.267 542.254H309.468V538.74L309.338 538.966L307.267 542.254ZM315.647 540.148H316.7C317.201 540.148 317.573 540.023 317.814 539.772C318.056 539.522 318.177 539.189 318.177 538.774C318.177 538.373 318.056 538.061 317.814 537.838C317.577 537.615 317.249 537.503 316.83 537.503C316.452 537.503 316.135 537.608 315.88 537.817C315.625 538.022 315.497 538.291 315.497 538.624H313.521C313.521 538.104 313.66 537.64 313.938 537.229C314.221 536.815 314.613 536.491 315.114 536.259C315.62 536.026 316.176 535.91 316.782 535.91C317.835 535.91 318.66 536.163 319.257 536.669C319.854 537.17 320.152 537.863 320.152 538.747C320.152 539.203 320.013 539.622 319.735 540.005C319.457 540.388 319.093 540.682 318.642 540.887C319.202 541.087 319.619 541.388 319.893 541.789C320.171 542.19 320.31 542.664 320.31 543.211C320.31 544.095 319.986 544.804 319.339 545.337C318.696 545.87 317.844 546.137 316.782 546.137C315.789 546.137 314.975 545.875 314.342 545.351C313.713 544.826 313.398 544.134 313.398 543.272H315.374C315.374 543.646 315.513 543.951 315.791 544.188C316.074 544.425 316.42 544.544 316.83 544.544C317.299 544.544 317.666 544.421 317.931 544.175C318.2 543.924 318.334 543.594 318.334 543.184C318.334 542.19 317.787 541.693 316.693 541.693H315.647V540.148Z" fill="#505D70"/>
<rect x="51" y="557" width="270" height="6" rx="3" fill="#F3F5F8"/>
<rect x="51" y="557" width="24.3792" height="6" rx="3" fill="#FFE700"/>
</g>
<defs>
<clipPath id="clip0_46_2074">
<rect width="88" height="101" fill="white" transform="translate(40 40)"/>
</clipPath>
<clipPath id="clip1_46_2074">
<rect width="270" height="208" fill="white" transform="translate(51 355)"/>
</clipPath>
</defs>
</svg>
