<svg width="473" height="136" viewBox="0 0 473 136" fill="none" xmlns="http://www.w3.org/2000/svg">
<g clip-path="url(#clip0_1_77)">
<g clip-path="url(#clip1_1_77)">
<path d="M29.8154 10.3646L27.8167 13.3708C28.7806 15.2933 29.2525 17.4249 29.1901 19.5746C29.1277 21.7243 28.5329 23.825 27.4592 25.6883H4.93666C3.54106 23.2672 2.96277 20.4609 3.28751 17.6853C3.61226 14.9097 4.82277 12.3126 6.73956 10.2791C8.65636 8.2456 11.1774 6.88388 13.929 6.39581C16.6806 5.90775 19.5162 6.31934 22.0154 7.56956L25.0217 5.57081C21.9609 3.60816 18.3304 2.72869 14.7109 3.07308C11.0913 3.41747 7.69176 4.96581 5.05609 7.47045C2.42042 9.97509 0.700875 13.2913 0.172515 16.8886C-0.355844 20.486 0.337506 24.1566 2.14166 27.3133C2.42524 27.8045 2.83243 28.2129 3.32276 28.498C3.81309 28.7831 4.36949 28.9349 4.93666 28.9383H27.4429C28.0156 28.9406 28.5787 28.7915 29.0752 28.5061C29.5718 28.2208 29.9841 27.8093 30.2704 27.3133C31.7676 24.7197 32.519 21.7627 32.4416 18.769C32.3642 15.7752 31.461 12.8611 29.8317 10.3483L29.8154 10.3646ZM13.9067 21.4796C14.2085 21.7817 14.5669 22.0214 14.9615 22.185C15.356 22.3486 15.7789 22.4327 16.206 22.4327C16.6331 22.4327 17.056 22.3486 17.4506 22.185C17.8451 22.0214 18.2036 21.7817 18.5054 21.4796L27.7029 7.68331L13.9067 16.8808C13.6045 17.1826 13.3648 17.5411 13.2012 17.9356C13.0377 18.3302 12.9535 18.7531 12.9535 19.1802C12.9535 19.6073 13.0377 20.0302 13.2012 20.4247C13.3648 20.8193 13.6045 21.1777 13.9067 21.4796Z" fill="#EE4248"/>
</g>
<path d="M57.5781 2.9375L62.5 16.0156L67.4102 2.9375H71.2422V20H68.2891V14.375L68.582 6.85156L63.543 20H61.4219L56.3945 6.86328L56.6875 14.375V20H53.7344V2.9375H57.5781ZM77.6117 20H74.7641V7.32031H77.6117V20ZM74.5883 4.02734C74.5883 3.58984 74.725 3.22656 74.9984 2.9375C75.2797 2.64844 75.6781 2.50391 76.1938 2.50391C76.7094 2.50391 77.1078 2.64844 77.3891 2.9375C77.6703 3.22656 77.8109 3.58984 77.8109 4.02734C77.8109 4.45703 77.6703 4.81641 77.3891 5.10547C77.1078 5.38672 76.7094 5.52734 76.1938 5.52734C75.6781 5.52734 75.2797 5.38672 74.9984 5.10547C74.725 4.81641 74.5883 4.45703 74.5883 4.02734ZM87.9305 16.5547C87.9305 16.0469 87.7195 15.6602 87.2977 15.3945C86.8836 15.1289 86.1922 14.8945 85.2234 14.6914C84.2547 14.4883 83.4461 14.2305 82.7977 13.918C81.3758 13.2305 80.6648 12.2344 80.6648 10.9297C80.6648 9.83594 81.1258 8.92188 82.0477 8.1875C82.9695 7.45312 84.1414 7.08594 85.5633 7.08594C87.0789 7.08594 88.3016 7.46094 89.2313 8.21094C90.1688 8.96094 90.6375 9.93359 90.6375 11.1289H87.7898C87.7898 10.582 87.5867 10.1289 87.1805 9.76953C86.7742 9.40234 86.2352 9.21875 85.5633 9.21875C84.9383 9.21875 84.4266 9.36328 84.0281 9.65234C83.6375 9.94141 83.4422 10.3281 83.4422 10.8125C83.4422 11.25 83.6258 11.5898 83.993 11.832C84.3602 12.0742 85.1023 12.3203 86.2195 12.5703C87.3367 12.8125 88.2117 13.1055 88.8445 13.4492C89.4852 13.7852 89.9578 14.1914 90.2625 14.668C90.575 15.1445 90.7313 15.7227 90.7313 16.4023C90.7313 17.543 90.2586 18.4688 89.3133 19.1797C88.368 19.8828 87.1297 20.2344 85.5984 20.2344C84.5594 20.2344 83.6336 20.0469 82.8211 19.6719C82.0086 19.2969 81.3758 18.7812 80.9227 18.125C80.4695 17.4688 80.243 16.7617 80.243 16.0039H83.0086C83.0477 16.6758 83.3016 17.1953 83.7703 17.5625C84.2391 17.9219 84.8602 18.1016 85.6336 18.1016C86.3836 18.1016 86.9539 17.9609 87.3445 17.6797C87.7352 17.3906 87.9305 17.0156 87.9305 16.5547ZM100.429 16.5547C100.429 16.0469 100.218 15.6602 99.7961 15.3945C99.382 15.1289 98.6906 14.8945 97.7219 14.6914C96.7531 14.4883 95.9445 14.2305 95.2961 13.918C93.8742 13.2305 93.1633 12.2344 93.1633 10.9297C93.1633 9.83594 93.6242 8.92188 94.5461 8.1875C95.468 7.45312 96.6398 7.08594 98.0617 7.08594C99.5773 7.08594 100.8 7.46094 101.73 8.21094C102.667 8.96094 103.136 9.93359 103.136 11.1289H100.288C100.288 10.582 100.085 10.1289 99.6789 9.76953C99.2727 9.40234 98.7336 9.21875 98.0617 9.21875C97.4367 9.21875 96.925 9.36328 96.5266 9.65234C96.1359 9.94141 95.9406 10.3281 95.9406 10.8125C95.9406 11.25 96.1242 11.5898 96.4914 11.832C96.8586 12.0742 97.6008 12.3203 98.718 12.5703C99.8352 12.8125 100.71 13.1055 101.343 13.4492C101.984 13.7852 102.456 14.1914 102.761 14.668C103.073 15.1445 103.23 15.7227 103.23 16.4023C103.23 17.543 102.757 18.4688 101.812 19.1797C100.866 19.8828 99.6281 20.2344 98.0969 20.2344C97.0578 20.2344 96.132 20.0469 95.3195 19.6719C94.507 19.2969 93.8742 18.7812 93.4211 18.125C92.968 17.4688 92.7414 16.7617 92.7414 16.0039H95.507C95.5461 16.6758 95.8 17.1953 96.2687 17.5625C96.7375 17.9219 97.3586 18.1016 98.132 18.1016C98.882 18.1016 99.4523 17.9609 99.843 17.6797C100.234 17.3906 100.429 17.0156 100.429 16.5547ZM108.849 20H106.002V7.32031H108.849V20ZM105.826 4.02734C105.826 3.58984 105.963 3.22656 106.236 2.9375C106.517 2.64844 106.916 2.50391 107.431 2.50391C107.947 2.50391 108.345 2.64844 108.627 2.9375C108.908 3.22656 109.048 3.58984 109.048 4.02734C109.048 4.45703 108.908 4.81641 108.627 5.10547C108.345 5.38672 107.947 5.52734 107.431 5.52734C106.916 5.52734 106.517 5.38672 106.236 5.10547C105.963 4.81641 105.826 4.45703 105.826 4.02734ZM111.527 13.543C111.527 12.3008 111.773 11.1836 112.266 10.1914C112.758 9.19141 113.449 8.42578 114.34 7.89453C115.23 7.35547 116.254 7.08594 117.41 7.08594C119.121 7.08594 120.508 7.63672 121.57 8.73828C122.641 9.83984 123.219 11.3008 123.305 13.1211L123.316 13.7891C123.316 15.0391 123.074 16.1562 122.59 17.1406C122.113 18.125 121.426 18.8867 120.527 19.4258C119.637 19.9648 118.605 20.2344 117.434 20.2344C115.645 20.2344 114.211 19.6406 113.133 18.4531C112.062 17.2578 111.527 15.668 111.527 13.6836V13.543ZM114.375 13.7891C114.375 15.0938 114.645 16.1172 115.184 16.8594C115.723 17.5938 116.473 17.9609 117.434 17.9609C118.395 17.9609 119.141 17.5859 119.672 16.8359C120.211 16.0859 120.48 14.9883 120.48 13.543C120.48 12.2617 120.203 11.2461 119.648 10.4961C119.102 9.74609 118.355 9.37109 117.41 9.37109C116.48 9.37109 115.742 9.74219 115.195 10.4844C114.648 11.2188 114.375 12.3203 114.375 13.7891ZM128.467 7.32031L128.549 8.78516C129.487 7.65234 130.717 7.08594 132.241 7.08594C134.881 7.08594 136.225 8.59766 136.272 11.6211V20H133.424V11.7852C133.424 10.9805 133.248 10.3867 132.897 10.0039C132.553 9.61328 131.987 9.41797 131.198 9.41797C130.049 9.41797 129.194 9.9375 128.631 10.9766V20H125.784V7.32031H128.467Z" fill="#263238"/>
<path d="M62.3271 46.5918H58.2139V58H56.5352V46.5918H52.4307V45.2031H62.3271V46.5918ZM62.8611 53.1572C62.8611 52.2256 63.0428 51.3877 63.4061 50.6436C63.7752 49.8994 64.285 49.3252 64.9354 48.9209C65.5916 48.5166 66.3387 48.3145 67.1766 48.3145C68.4715 48.3145 69.5174 48.7627 70.3143 49.6592C71.117 50.5557 71.5184 51.748 71.5184 53.2363V53.3506C71.5184 54.2764 71.3396 55.1084 70.9822 55.8467C70.6307 56.5791 70.1238 57.1504 69.4617 57.5605C68.8055 57.9707 68.0496 58.1758 67.1941 58.1758C65.9051 58.1758 64.8592 57.7275 64.0564 56.8311C63.2596 55.9346 62.8611 54.748 62.8611 53.2715V53.1572ZM64.4959 53.3506C64.4959 54.4053 64.7391 55.252 65.2254 55.8906C65.7176 56.5293 66.3738 56.8486 67.1941 56.8486C68.0203 56.8486 68.6766 56.5264 69.1629 55.8818C69.6492 55.2314 69.8924 54.3232 69.8924 53.1572C69.8924 52.1143 69.6434 51.2705 69.1453 50.626C68.6531 49.9756 67.9969 49.6504 67.1766 49.6504C66.3738 49.6504 65.7264 49.9697 65.2342 50.6084C64.742 51.2471 64.4959 52.1611 64.4959 53.3506ZM78.0355 53.166C78.0355 51.6836 78.3783 50.5059 79.0639 49.6328C79.7494 48.7539 80.6576 48.3145 81.7885 48.3145C82.9486 48.3145 83.8539 48.7246 84.5043 49.5449L84.5834 48.4902H86.0688V57.7715C86.0688 59.002 85.7025 59.9717 84.9701 60.6807C84.2436 61.3896 83.265 61.7441 82.0346 61.7441C81.349 61.7441 80.6781 61.5977 80.0219 61.3047C79.3656 61.0117 78.8646 60.6104 78.5189 60.1006L79.3627 59.125C80.06 59.9863 80.9125 60.417 81.9203 60.417C82.7113 60.417 83.3266 60.1943 83.766 59.749C84.2113 59.3037 84.434 58.6768 84.434 57.8682V57.0508C83.7836 57.8008 82.8959 58.1758 81.7709 58.1758C80.6576 58.1758 79.7553 57.7275 79.0639 56.8311C78.3783 55.9346 78.0355 54.7129 78.0355 53.166ZM79.6703 53.3506C79.6703 54.4229 79.89 55.2666 80.3295 55.8818C80.7689 56.4912 81.3842 56.7959 82.1752 56.7959C83.2006 56.7959 83.9535 56.3301 84.434 55.3984V51.0566C83.9359 50.1484 83.1889 49.6943 82.1928 49.6943C81.4018 49.6943 80.7836 50.002 80.3383 50.6172C79.893 51.2324 79.6703 52.1436 79.6703 53.3506ZM93.3264 49.9492C93.0803 49.9082 92.8137 49.8877 92.5266 49.8877C91.4602 49.8877 90.7365 50.3418 90.3557 51.25V58H88.7297V48.4902H90.3117L90.3381 49.5889C90.8713 48.7393 91.6271 48.3145 92.6057 48.3145C92.9221 48.3145 93.1623 48.3555 93.3264 48.4375V49.9492ZM94.4229 53.1572C94.4229 52.2256 94.6045 51.3877 94.9678 50.6436C95.3369 49.8994 95.8467 49.3252 96.4971 48.9209C97.1533 48.5166 97.9004 48.3145 98.7383 48.3145C100.033 48.3145 101.079 48.7627 101.876 49.6592C102.679 50.5557 103.08 51.748 103.08 53.2363V53.3506C103.08 54.2764 102.901 55.1084 102.544 55.8467C102.192 56.5791 101.686 57.1504 101.023 57.5605C100.367 57.9707 99.6113 58.1758 98.7559 58.1758C97.4668 58.1758 96.4209 57.7275 95.6182 56.8311C94.8213 55.9346 94.4229 54.748 94.4229 53.2715V53.1572ZM96.0576 53.3506C96.0576 54.4053 96.3008 55.252 96.7871 55.8906C97.2793 56.5293 97.9355 56.8486 98.7559 56.8486C99.582 56.8486 100.238 56.5264 100.725 55.8818C101.211 55.2314 101.454 54.3232 101.454 53.1572C101.454 52.1143 101.205 51.2705 100.707 50.626C100.215 49.9756 99.5586 49.6504 98.7383 49.6504C97.9355 49.6504 97.2881 49.9697 96.7959 50.6084C96.3037 51.2471 96.0576 52.1611 96.0576 53.3506ZM113.739 55.7588L115.567 48.4902H117.193L114.425 58H113.106L110.795 50.793L108.545 58H107.226L104.467 48.4902H106.084L107.956 55.6094L110.171 48.4902H111.48L113.739 55.7588ZM125.925 46.1875V48.4902H127.701V49.7471H125.925V55.6445C125.925 56.0254 126.004 56.3125 126.162 56.5059C126.321 56.6934 126.59 56.7871 126.971 56.7871C127.159 56.7871 127.416 56.752 127.745 56.6816V58C127.317 58.1172 126.901 58.1758 126.496 58.1758C125.77 58.1758 125.222 57.9561 124.853 57.5166C124.484 57.0771 124.299 56.4531 124.299 55.6445V49.7471H122.568V48.4902H124.299V46.1875H125.925ZM131.434 49.6416C132.154 48.7568 133.092 48.3145 134.246 48.3145C136.256 48.3145 137.27 49.4482 137.287 51.7158V58H135.661V51.707C135.655 51.0215 135.497 50.5146 135.187 50.1865C134.882 49.8584 134.404 49.6943 133.754 49.6943C133.227 49.6943 132.764 49.835 132.365 50.1162C131.967 50.3975 131.656 50.7666 131.434 51.2236V58H129.808V44.5H131.434V49.6416ZM143.868 58.1758C142.579 58.1758 141.53 57.7539 140.722 56.9102C139.913 56.0605 139.509 54.9268 139.509 53.5088V53.21C139.509 52.2666 139.688 51.4258 140.045 50.6875C140.408 49.9434 140.912 49.3633 141.557 48.9473C142.207 48.5254 142.91 48.3145 143.666 48.3145C144.902 48.3145 145.863 48.7217 146.549 49.5361C147.234 50.3506 147.577 51.5166 147.577 53.0342V53.7109H141.135C141.158 54.6484 141.431 55.4072 141.952 55.9873C142.479 56.5615 143.147 56.8486 143.956 56.8486C144.53 56.8486 145.017 56.7314 145.415 56.4971C145.813 56.2627 146.162 55.9521 146.461 55.5654L147.454 56.3389C146.657 57.5635 145.462 58.1758 143.868 58.1758ZM143.666 49.6504C143.01 49.6504 142.459 49.8906 142.014 50.3711C141.568 50.8457 141.293 51.5137 141.188 52.375H145.951V52.252C145.904 51.4258 145.682 50.7871 145.283 50.3359C144.885 49.8789 144.346 49.6504 143.666 49.6504ZM162.382 53.3506C162.382 54.8037 162.048 55.9727 161.38 56.8574C160.713 57.7363 159.816 58.1758 158.691 58.1758C157.49 58.1758 156.561 57.751 155.905 56.9014L155.826 58H154.332V44.5H155.958V49.5361C156.614 48.7217 157.519 48.3145 158.673 48.3145C159.828 48.3145 160.733 48.751 161.389 49.624C162.051 50.4971 162.382 51.6924 162.382 53.21V53.3506ZM160.756 53.166C160.756 52.0586 160.543 51.2031 160.115 50.5996C159.687 49.9961 159.072 49.6943 158.269 49.6943C157.197 49.6943 156.426 50.1924 155.958 51.1885V55.3018C156.456 56.2979 157.232 56.7959 158.287 56.7959C159.066 56.7959 159.672 56.4941 160.106 55.8906C160.54 55.2871 160.756 54.3789 160.756 53.166ZM170.51 57.0596C169.877 57.8037 168.949 58.1758 167.724 58.1758C166.71 58.1758 165.937 57.8828 165.404 57.2969C164.876 56.7051 164.61 55.832 164.604 54.6777V48.4902H166.23V54.6338C166.23 56.0752 166.816 56.7959 167.988 56.7959C169.23 56.7959 170.056 56.333 170.466 55.4072V48.4902H172.092V58H170.545L170.51 57.0596ZM180.308 55.4775C180.308 55.0381 180.141 54.6982 179.807 54.458C179.479 54.2119 178.902 54.001 178.075 53.8252C177.255 53.6494 176.602 53.4385 176.115 53.1924C175.635 52.9463 175.278 52.6533 175.043 52.3135C174.815 51.9736 174.7 51.5693 174.7 51.1006C174.7 50.3213 175.029 49.6621 175.685 49.123C176.347 48.584 177.191 48.3145 178.216 48.3145C179.294 48.3145 180.167 48.5928 180.835 49.1494C181.509 49.7061 181.846 50.418 181.846 51.2852H180.211C180.211 50.8398 180.021 50.4561 179.64 50.1338C179.265 49.8115 178.79 49.6504 178.216 49.6504C177.624 49.6504 177.161 49.7793 176.827 50.0371C176.493 50.2949 176.326 50.6318 176.326 51.0479C176.326 51.4404 176.482 51.7363 176.792 51.9355C177.103 52.1348 177.662 52.3252 178.471 52.5068C179.285 52.6885 179.945 52.9053 180.448 53.1572C180.952 53.4092 181.324 53.7139 181.565 54.0713C181.811 54.4229 181.934 54.8535 181.934 55.3633C181.934 56.2129 181.594 56.8955 180.914 57.4111C180.235 57.9209 179.353 58.1758 178.269 58.1758C177.507 58.1758 176.833 58.041 176.247 57.7715C175.661 57.502 175.201 57.127 174.867 56.6465C174.539 56.1602 174.375 55.6357 174.375 55.0732H176.001C176.03 55.6182 176.247 56.0518 176.652 56.374C177.062 56.6904 177.601 56.8486 178.269 56.8486C178.884 56.8486 179.376 56.7256 179.745 56.4795C180.12 56.2275 180.308 55.8936 180.308 55.4775ZM186.019 58H184.393V48.4902H186.019V58ZM184.261 45.9678C184.261 45.7041 184.34 45.4814 184.498 45.2998C184.662 45.1182 184.902 45.0273 185.219 45.0273C185.535 45.0273 185.775 45.1182 185.939 45.2998C186.104 45.4814 186.186 45.7041 186.186 45.9678C186.186 46.2314 186.104 46.4512 185.939 46.627C185.775 46.8027 185.535 46.8906 185.219 46.8906C184.902 46.8906 184.662 46.8027 184.498 46.627C184.34 46.4512 184.261 46.2314 184.261 45.9678ZM190.367 48.4902L190.42 49.6855C191.146 48.7715 192.096 48.3145 193.267 48.3145C195.277 48.3145 196.291 49.4482 196.308 51.7158V58H194.682V51.707C194.677 51.0215 194.518 50.5146 194.208 50.1865C193.903 49.8584 193.426 49.6943 192.775 49.6943C192.248 49.6943 191.785 49.835 191.387 50.1162C190.988 50.3975 190.678 50.7666 190.455 51.2236V58H188.829V48.4902H190.367ZM202.907 58.1758C201.618 58.1758 200.569 57.7539 199.76 56.9102C198.952 56.0605 198.547 54.9268 198.547 53.5088V53.21C198.547 52.2666 198.726 51.4258 199.084 50.6875C199.447 49.9434 199.951 49.3633 200.595 48.9473C201.246 48.5254 201.949 48.3145 202.705 48.3145C203.941 48.3145 204.902 48.7217 205.587 49.5361C206.273 50.3506 206.616 51.5166 206.616 53.0342V53.7109H200.173C200.197 54.6484 200.469 55.4072 200.991 55.9873C201.518 56.5615 202.186 56.8486 202.995 56.8486C203.569 56.8486 204.055 56.7314 204.454 56.4971C204.852 56.2627 205.201 55.9521 205.5 55.5654L206.493 56.3389C205.696 57.5635 204.501 58.1758 202.907 58.1758ZM202.705 49.6504C202.048 49.6504 201.498 49.8906 201.052 50.3711C200.607 50.8457 200.332 51.5137 200.226 52.375H204.99V52.252C204.943 51.4258 204.72 50.7871 204.322 50.3359C203.923 49.8789 203.384 49.6504 202.705 49.6504ZM214.243 55.4775C214.243 55.0381 214.076 54.6982 213.742 54.458C213.413 54.2119 212.836 54.001 212.01 53.8252C211.19 53.6494 210.537 53.4385 210.05 53.1924C209.57 52.9463 209.212 52.6533 208.978 52.3135C208.749 51.9736 208.635 51.5693 208.635 51.1006C208.635 50.3213 208.963 49.6621 209.62 49.123C210.282 48.584 211.125 48.3145 212.151 48.3145C213.229 48.3145 214.102 48.5928 214.77 49.1494C215.444 49.7061 215.781 50.418 215.781 51.2852H214.146C214.146 50.8398 213.955 50.4561 213.575 50.1338C213.2 49.8115 212.725 49.6504 212.151 49.6504C211.559 49.6504 211.096 49.7793 210.762 50.0371C210.428 50.2949 210.261 50.6318 210.261 51.0479C210.261 51.4404 210.416 51.7363 210.727 51.9355C211.038 52.1348 211.597 52.3252 212.406 52.5068C213.22 52.6885 213.879 52.9053 214.383 53.1572C214.887 53.4092 215.259 53.7139 215.499 54.0713C215.746 54.4229 215.869 54.8535 215.869 55.3633C215.869 56.2129 215.529 56.8955 214.849 57.4111C214.169 57.9209 213.288 58.1758 212.204 58.1758C211.442 58.1758 210.768 58.041 210.182 57.7715C209.596 57.502 209.136 57.127 208.802 56.6465C208.474 56.1602 208.31 55.6357 208.31 55.0732H209.936C209.965 55.6182 210.182 56.0518 210.586 56.374C210.996 56.6904 211.536 56.8486 212.204 56.8486C212.819 56.8486 213.311 56.7256 213.68 56.4795C214.055 56.2275 214.243 55.8936 214.243 55.4775ZM223.724 55.4775C223.724 55.0381 223.557 54.6982 223.223 54.458C222.895 54.2119 222.318 54.001 221.491 53.8252C220.671 53.6494 220.018 53.4385 219.531 53.1924C219.051 52.9463 218.694 52.6533 218.459 52.3135C218.231 51.9736 218.116 51.5693 218.116 51.1006C218.116 50.3213 218.445 49.6621 219.101 49.123C219.763 48.584 220.607 48.3145 221.632 48.3145C222.71 48.3145 223.583 48.5928 224.251 49.1494C224.925 49.7061 225.262 50.418 225.262 51.2852H223.627C223.627 50.8398 223.437 50.4561 223.056 50.1338C222.681 49.8115 222.206 49.6504 221.632 49.6504C221.04 49.6504 220.577 49.7793 220.243 50.0371C219.909 50.2949 219.742 50.6318 219.742 51.0479C219.742 51.4404 219.898 51.7363 220.208 51.9355C220.519 52.1348 221.078 52.3252 221.887 52.5068C222.701 52.6885 223.361 52.9053 223.864 53.1572C224.368 53.4092 224.74 53.7139 224.981 54.0713C225.227 54.4229 225.35 54.8535 225.35 55.3633C225.35 56.2129 225.01 56.8955 224.33 57.4111C223.651 57.9209 222.769 58.1758 221.685 58.1758C220.923 58.1758 220.249 58.041 219.663 57.7715C219.077 57.502 218.617 57.127 218.283 56.6465C217.955 56.1602 217.791 55.6357 217.791 55.0732H219.417C219.446 55.6182 219.663 56.0518 220.068 56.374C220.478 56.6904 221.017 56.8486 221.685 56.8486C222.3 56.8486 222.792 56.7256 223.161 56.4795C223.536 56.2275 223.724 55.8936 223.724 55.4775ZM234.539 46.1875V48.4902H236.314V49.7471H234.539V55.6445C234.539 56.0254 234.618 56.3125 234.776 56.5059C234.934 56.6934 235.204 56.7871 235.585 56.7871C235.772 56.7871 236.03 56.752 236.358 56.6816V58C235.93 58.1172 235.514 58.1758 235.11 58.1758C234.384 58.1758 233.836 57.9561 233.467 57.5166C233.097 57.0771 232.913 56.4531 232.913 55.6445V49.7471H231.181V48.4902H232.913V46.1875H234.539ZM237.815 53.1572C237.815 52.2256 237.997 51.3877 238.36 50.6436C238.729 49.8994 239.239 49.3252 239.889 48.9209C240.546 48.5166 241.293 48.3145 242.13 48.3145C243.425 48.3145 244.471 48.7627 245.268 49.6592C246.071 50.5557 246.472 51.748 246.472 53.2363V53.3506C246.472 54.2764 246.294 55.1084 245.936 55.8467C245.585 56.5791 245.078 57.1504 244.416 57.5605C243.759 57.9707 243.004 58.1758 242.148 58.1758C240.859 58.1758 239.813 57.7275 239.01 56.8311C238.213 55.9346 237.815 54.748 237.815 53.2715V53.1572ZM239.45 53.3506C239.45 54.4053 239.693 55.252 240.179 55.8906C240.671 56.5293 241.328 56.8486 242.148 56.8486C242.974 56.8486 243.63 56.5264 244.117 55.8818C244.603 55.2314 244.846 54.3232 244.846 53.1572C244.846 52.1143 244.597 51.2705 244.099 50.626C243.607 49.9756 242.951 49.6504 242.13 49.6504C241.328 49.6504 240.68 49.9697 240.188 50.6084C239.696 51.2471 239.45 52.1611 239.45 53.3506ZM248.325 53.166C248.325 51.6836 248.667 50.5059 249.353 49.6328C250.038 48.7539 250.947 48.3145 252.078 48.3145C253.238 48.3145 254.143 48.7246 254.793 49.5449L254.872 48.4902H256.358V57.7715C256.358 59.002 255.992 59.9717 255.259 60.6807C254.533 61.3896 253.554 61.7441 252.324 61.7441C251.638 61.7441 250.967 61.5977 250.311 61.3047C249.655 61.0117 249.154 60.6104 248.808 60.1006L249.652 59.125C250.349 59.9863 251.202 60.417 252.209 60.417C253 60.417 253.616 60.1943 254.055 59.749C254.5 59.3037 254.723 58.6768 254.723 57.8682V57.0508C254.073 57.8008 253.185 58.1758 252.06 58.1758C250.947 58.1758 250.044 57.7275 249.353 56.8311C248.667 55.9346 248.325 54.7129 248.325 53.166ZM249.959 53.3506C249.959 54.4229 250.179 55.2666 250.619 55.8818C251.058 56.4912 251.673 56.7959 252.464 56.7959C253.49 56.7959 254.243 56.3301 254.723 55.3984V51.0566C254.225 50.1484 253.478 49.6943 252.482 49.6943C251.691 49.6943 251.073 50.002 250.627 50.6172C250.182 51.2324 249.959 52.1436 249.959 53.3506ZM262.965 58.1758C261.676 58.1758 260.627 57.7539 259.819 56.9102C259.01 56.0605 258.606 54.9268 258.606 53.5088V53.21C258.606 52.2666 258.784 51.4258 259.142 50.6875C259.505 49.9434 260.009 49.3633 260.654 48.9473C261.304 48.5254 262.007 48.3145 262.763 48.3145C263.999 48.3145 264.96 48.7217 265.646 49.5361C266.331 50.3506 266.674 51.5166 266.674 53.0342V53.7109H260.232C260.255 54.6484 260.528 55.4072 261.049 55.9873C261.576 56.5615 262.244 56.8486 263.053 56.8486C263.627 56.8486 264.113 56.7314 264.512 56.4971C264.91 56.2627 265.259 55.9521 265.558 55.5654L266.551 56.3389C265.754 57.5635 264.559 58.1758 262.965 58.1758ZM262.763 49.6504C262.107 49.6504 261.556 49.8906 261.111 50.3711C260.665 50.8457 260.39 51.5137 260.284 52.375H265.048V52.252C265.001 51.4258 264.779 50.7871 264.38 50.3359C263.982 49.8789 263.443 49.6504 262.763 49.6504ZM270.97 46.1875V48.4902H272.745V49.7471H270.97V55.6445C270.97 56.0254 271.049 56.3125 271.207 56.5059C271.365 56.6934 271.635 56.7871 272.016 56.7871C272.203 56.7871 272.461 56.752 272.789 56.6816V58C272.361 58.1172 271.945 58.1758 271.541 58.1758C270.814 58.1758 270.267 57.9561 269.897 57.5166C269.528 57.0771 269.344 56.4531 269.344 55.6445V49.7471H267.612V48.4902H269.344V46.1875H270.97ZM276.478 49.6416C277.199 48.7568 278.137 48.3145 279.291 48.3145C281.301 48.3145 282.314 49.4482 282.332 51.7158V58H280.706V51.707C280.7 51.0215 280.542 50.5146 280.231 50.1865C279.927 49.8584 279.449 49.6943 278.799 49.6943C278.271 49.6943 277.808 49.835 277.41 50.1162C277.012 50.3975 276.701 50.7666 276.478 51.2236V58H274.852V44.5H276.478V49.6416ZM288.913 58.1758C287.624 58.1758 286.575 57.7539 285.766 56.9102C284.958 56.0605 284.553 54.9268 284.553 53.5088V53.21C284.553 52.2666 284.732 51.4258 285.089 50.6875C285.453 49.9434 285.957 49.3633 286.601 48.9473C287.252 48.5254 287.955 48.3145 288.711 48.3145C289.947 48.3145 290.908 48.7217 291.593 49.5361C292.279 50.3506 292.622 51.5166 292.622 53.0342V53.7109H286.179C286.203 54.6484 286.475 55.4072 286.997 55.9873C287.524 56.5615 288.192 56.8486 289.001 56.8486C289.575 56.8486 290.061 56.7314 290.46 56.4971C290.858 56.2627 291.207 55.9521 291.505 55.5654L292.499 56.3389C291.702 57.5635 290.506 58.1758 288.913 58.1758ZM288.711 49.6504C288.054 49.6504 287.504 49.8906 287.058 50.3711C286.613 50.8457 286.337 51.5137 286.232 52.375H290.996V52.252C290.949 51.4258 290.726 50.7871 290.328 50.3359C289.929 49.8789 289.39 49.6504 288.711 49.6504ZM299.308 49.9492C299.062 49.9082 298.795 49.8877 298.508 49.8877C297.442 49.8877 296.718 50.3418 296.337 51.25V58H294.711V48.4902H296.293L296.32 49.5889C296.853 48.7393 297.609 48.3145 298.587 48.3145C298.904 48.3145 299.144 48.3555 299.308 48.4375V49.9492ZM314.096 55.7588L315.924 48.4902H317.55L314.781 58H313.463L311.151 50.793L308.901 58H307.583L304.823 48.4902H306.44L308.312 55.6094L310.527 48.4902H311.837L314.096 55.7588ZM321.178 58H319.552V48.4902H321.178V58ZM319.42 45.9678C319.42 45.7041 319.499 45.4814 319.657 45.2998C319.821 45.1182 320.061 45.0273 320.378 45.0273C320.694 45.0273 320.934 45.1182 321.098 45.2998C321.263 45.4814 321.345 45.7041 321.345 45.9678C321.345 46.2314 321.263 46.4512 321.098 46.627C320.934 46.8027 320.694 46.8906 320.378 46.8906C320.061 46.8906 319.821 46.8027 319.657 46.627C319.499 46.4512 319.42 46.2314 319.42 45.9678ZM326.194 46.1875V48.4902H327.969V49.7471H326.194V55.6445C326.194 56.0254 326.273 56.3125 326.431 56.5059C326.589 56.6934 326.859 56.7871 327.24 56.7871C327.427 56.7871 327.685 56.752 328.013 56.6816V58C327.586 58.1172 327.17 58.1758 326.765 58.1758C326.039 58.1758 325.491 57.9561 325.122 57.5166C324.753 57.0771 324.568 56.4531 324.568 55.6445V49.7471H322.837V48.4902H324.568V46.1875H326.194ZM331.703 49.6416C332.423 48.7568 333.361 48.3145 334.515 48.3145C336.525 48.3145 337.538 49.4482 337.556 51.7158V58H335.93V51.707C335.924 51.0215 335.766 50.5146 335.455 50.1865C335.151 49.8584 334.673 49.6943 334.023 49.6943C333.496 49.6943 333.033 49.835 332.634 50.1162C332.236 50.3975 331.925 50.7666 331.703 51.2236V58H330.077V44.5H331.703V49.6416ZM348.67 56.8486C349.25 56.8486 349.757 56.6729 350.19 56.3213C350.624 55.9697 350.864 55.5303 350.911 55.0029H352.449C352.42 55.5479 352.232 56.0664 351.887 56.5586C351.541 57.0508 351.078 57.4434 350.498 57.7363C349.924 58.0293 349.314 58.1758 348.67 58.1758C347.375 58.1758 346.344 57.7451 345.576 56.8838C344.814 56.0166 344.434 54.833 344.434 53.333V53.0605C344.434 52.1348 344.604 51.3115 344.943 50.5908C345.283 49.8701 345.77 49.3105 346.402 48.9121C347.041 48.5137 347.794 48.3145 348.661 48.3145C349.728 48.3145 350.612 48.6338 351.315 49.2725C352.024 49.9111 352.402 50.7402 352.449 51.7598H350.911C350.864 51.1445 350.63 50.6406 350.208 50.248C349.792 49.8496 349.276 49.6504 348.661 49.6504C347.835 49.6504 347.193 49.9492 346.736 50.5469C346.285 51.1387 346.06 51.9971 346.06 53.1221V53.4297C346.06 54.5254 346.285 55.3691 346.736 55.9609C347.188 56.5527 347.832 56.8486 348.67 56.8486ZM356.244 58H354.618V44.5H356.244V58ZM360.821 58H359.195V48.4902H360.821V58ZM359.063 45.9678C359.063 45.7041 359.142 45.4814 359.3 45.2998C359.464 45.1182 359.705 45.0273 360.021 45.0273C360.337 45.0273 360.578 45.1182 360.742 45.2998C360.906 45.4814 360.988 45.7041 360.988 45.9678C360.988 46.2314 360.906 46.4512 360.742 46.627C360.578 46.8027 360.337 46.8906 360.021 46.8906C359.705 46.8906 359.464 46.8027 359.3 46.627C359.142 46.4512 359.063 46.2314 359.063 45.9678ZM367.578 58.1758C366.288 58.1758 365.24 57.7539 364.431 56.9102C363.622 56.0605 363.218 54.9268 363.218 53.5088V53.21C363.218 52.2666 363.397 51.4258 363.754 50.6875C364.118 49.9434 364.621 49.3633 365.266 48.9473C365.916 48.5254 366.62 48.3145 367.375 48.3145C368.612 48.3145 369.573 48.7217 370.258 49.5361C370.944 50.3506 371.287 51.5166 371.287 53.0342V53.7109H364.844C364.868 54.6484 365.14 55.4072 365.662 55.9873C366.189 56.5615 366.857 56.8486 367.665 56.8486C368.24 56.8486 368.726 56.7314 369.124 56.4971C369.523 56.2627 369.871 55.9521 370.17 55.5654L371.163 56.3389C370.367 57.5635 369.171 58.1758 367.578 58.1758ZM367.375 49.6504C366.719 49.6504 366.168 49.8906 365.723 50.3711C365.278 50.8457 365.002 51.5137 364.897 52.375H369.661V52.252C369.614 51.4258 369.391 50.7871 368.993 50.3359C368.594 49.8789 368.055 49.6504 367.375 49.6504ZM374.914 48.4902L374.967 49.6855C375.694 48.7715 376.643 48.3145 377.815 48.3145C379.824 48.3145 380.838 49.4482 380.856 51.7158V58H379.23V51.707C379.224 51.0215 379.066 50.5146 378.755 50.1865C378.45 49.8584 377.973 49.6943 377.322 49.6943C376.795 49.6943 376.332 49.835 375.934 50.1162C375.535 50.3975 375.225 50.7666 375.002 51.2236V58H373.376V48.4902H374.914ZM385.714 46.1875V48.4902H387.489V49.7471H385.714V55.6445C385.714 56.0254 385.793 56.3125 385.951 56.5059C386.109 56.6934 386.379 56.7871 386.76 56.7871C386.947 56.7871 387.205 56.752 387.533 56.6816V58C387.105 58.1172 386.689 58.1758 386.285 58.1758C385.559 58.1758 385.011 57.9561 384.642 57.5166C384.272 57.0771 384.088 56.4531 384.088 55.6445V49.7471H382.356V48.4902H384.088V46.1875H385.714ZM395.134 55.4775C395.134 55.0381 394.967 54.6982 394.633 54.458C394.305 54.2119 393.727 54.001 392.901 53.8252C392.081 53.6494 391.428 53.4385 390.941 53.1924C390.461 52.9463 390.103 52.6533 389.869 52.3135C389.64 51.9736 389.526 51.5693 389.526 51.1006C389.526 50.3213 389.854 49.6621 390.511 49.123C391.173 48.584 392.016 48.3145 393.042 48.3145C394.12 48.3145 394.993 48.5928 395.661 49.1494C396.335 49.7061 396.672 50.418 396.672 51.2852H395.037C395.037 50.8398 394.846 50.4561 394.466 50.1338C394.091 49.8115 393.616 49.6504 393.042 49.6504C392.45 49.6504 391.987 49.7793 391.653 50.0371C391.319 50.2949 391.152 50.6318 391.152 51.0479C391.152 51.4404 391.307 51.7363 391.618 51.9355C391.929 52.1348 392.488 52.3252 393.297 52.5068C394.111 52.6885 394.77 52.9053 395.274 53.1572C395.778 53.4092 396.15 53.7139 396.39 54.0713C396.637 54.4229 396.76 54.8535 396.76 55.3633C396.76 56.2129 396.42 56.8955 395.74 57.4111C395.06 57.9209 394.179 58.1758 393.095 58.1758C392.333 58.1758 391.659 58.041 391.073 57.7715C390.487 57.502 390.027 57.127 389.693 56.6465C389.365 56.1602 389.201 55.6357 389.201 55.0732H390.827C390.856 55.6182 391.073 56.0518 391.477 56.374C391.888 56.6904 392.427 56.8486 393.095 56.8486C393.71 56.8486 394.202 56.7256 394.571 56.4795C394.946 56.2275 395.134 55.8936 395.134 55.4775ZM411.793 53.3506C411.793 54.8037 411.459 55.9727 410.791 56.8574C410.123 57.7363 409.227 58.1758 408.102 58.1758C406.901 58.1758 405.972 57.751 405.316 56.9014L405.237 58H403.743V44.5H405.369V49.5361C406.025 48.7217 406.93 48.3145 408.084 48.3145C409.239 48.3145 410.144 48.751 410.8 49.624C411.462 50.4971 411.793 51.6924 411.793 53.21V53.3506ZM410.167 53.166C410.167 52.0586 409.954 51.2031 409.526 50.5996C409.098 49.9961 408.483 49.6943 407.68 49.6943C406.608 49.6943 405.837 50.1924 405.369 51.1885V55.3018C405.867 56.2979 406.643 56.7959 407.698 56.7959C408.477 56.7959 409.083 56.4941 409.517 55.8906C409.951 55.2871 410.167 54.3789 410.167 53.166ZM417.056 55.6182L419.271 48.4902H421.011L417.188 59.4678C416.596 61.0498 415.655 61.8408 414.366 61.8408L414.059 61.8145L413.452 61.7002V60.3818L413.892 60.417C414.443 60.417 414.87 60.3057 415.175 60.083C415.486 59.8604 415.74 59.4531 415.94 58.8613L416.3 57.8945L412.907 48.4902H414.683L417.056 55.6182ZM61.2637 77.3506C61.2637 78.7979 60.9326 79.9639 60.2705 80.8486C59.6084 81.7334 58.7119 82.1758 57.5811 82.1758C56.4268 82.1758 55.5186 81.8096 54.8564 81.0771V85.6562H53.2305V72.4902H54.7158L54.7949 73.5449C55.457 72.7246 56.377 72.3145 57.5547 72.3145C58.6973 72.3145 59.5996 72.7451 60.2617 73.6064C60.9297 74.4678 61.2637 75.666 61.2637 77.2012V77.3506ZM59.6377 77.166C59.6377 76.0938 59.4092 75.2471 58.9521 74.626C58.4951 74.0049 57.8682 73.6943 57.0713 73.6943C56.0869 73.6943 55.3486 74.1309 54.8564 75.0039V79.5479C55.3428 80.415 56.0869 80.8486 57.0889 80.8486C57.8682 80.8486 58.4863 80.541 58.9434 79.9258C59.4062 79.3047 59.6377 78.3848 59.6377 77.166ZM68.1346 73.9492C67.8885 73.9082 67.6219 73.8877 67.3348 73.8877C66.2684 73.8877 65.5447 74.3418 65.1639 75.25V82H63.5379V72.4902H65.1199L65.1463 73.5889C65.6795 72.7393 66.4354 72.3145 67.4139 72.3145C67.7303 72.3145 67.9705 72.3555 68.1346 72.4375V73.9492ZM69.2311 77.1572C69.2311 76.2256 69.4127 75.3877 69.776 74.6436C70.1451 73.8994 70.6549 73.3252 71.3053 72.9209C71.9615 72.5166 72.7086 72.3145 73.5465 72.3145C74.8414 72.3145 75.8873 72.7627 76.6842 73.6592C77.4869 74.5557 77.8883 75.748 77.8883 77.2363V77.3506C77.8883 78.2764 77.7096 79.1084 77.3521 79.8467C77.0006 80.5791 76.4937 81.1504 75.8316 81.5605C75.1754 81.9707 74.4195 82.1758 73.5641 82.1758C72.275 82.1758 71.2291 81.7275 70.4264 80.8311C69.6295 79.9346 69.2311 78.748 69.2311 77.2715V77.1572ZM70.8658 77.3506C70.8658 78.4053 71.109 79.252 71.5953 79.8906C72.0875 80.5293 72.7437 80.8486 73.5641 80.8486C74.3902 80.8486 75.0465 80.5264 75.5328 79.8818C76.0191 79.2314 76.2623 78.3232 76.2623 77.1572C76.2623 76.1143 76.0133 75.2705 75.5152 74.626C75.023 73.9756 74.3668 73.6504 73.5465 73.6504C72.7437 73.6504 72.0963 73.9697 71.6041 74.6084C71.1119 75.2471 70.8658 76.1611 70.8658 77.3506ZM83.1244 79.7939L85.4799 72.4902H87.141L83.7309 82H82.4916L79.0463 72.4902H80.7074L83.1244 79.7939ZM90.6721 82H89.0461V72.4902H90.6721V82ZM88.9143 69.9678C88.9143 69.7041 88.9934 69.4814 89.1516 69.2998C89.3156 69.1182 89.5559 69.0273 89.8723 69.0273C90.1887 69.0273 90.4289 69.1182 90.593 69.2998C90.757 69.4814 90.8391 69.7041 90.8391 69.9678C90.8391 70.2314 90.757 70.4512 90.593 70.627C90.4289 70.8027 90.1887 70.8906 89.8723 70.8906C89.5559 70.8906 89.3156 70.8027 89.1516 70.627C88.9934 70.4512 88.9143 70.2314 88.9143 69.9678ZM93.0869 77.166C93.0869 75.707 93.4326 74.5352 94.124 73.6504C94.8154 72.7598 95.7207 72.3145 96.8398 72.3145C97.9531 72.3145 98.835 72.6953 99.4854 73.457V68.5H101.111V82H99.6172L99.5381 80.9805C98.8877 81.7773 97.9824 82.1758 96.8223 82.1758C95.7207 82.1758 94.8213 81.7246 94.124 80.8223C93.4326 79.9199 93.0869 78.7422 93.0869 77.2891V77.166ZM94.7129 77.3506C94.7129 78.4287 94.9355 79.2725 95.3809 79.8818C95.8262 80.4912 96.4414 80.7959 97.2266 80.7959C98.2578 80.7959 99.0107 80.333 99.4854 79.4072V75.0391C98.999 74.1426 98.252 73.6943 97.2441 73.6943C96.4473 73.6943 95.8262 74.002 95.3809 74.6172C94.9355 75.2324 94.7129 76.1436 94.7129 77.3506ZM105.609 82H103.983V72.4902H105.609V82ZM103.851 69.9678C103.851 69.7041 103.93 69.4814 104.089 69.2998C104.253 69.1182 104.493 69.0273 104.809 69.0273C105.126 69.0273 105.366 69.1182 105.53 69.2998C105.694 69.4814 105.776 69.7041 105.776 69.9678C105.776 70.2314 105.694 70.4512 105.53 70.627C105.366 70.8027 105.126 70.8906 104.809 70.8906C104.493 70.8906 104.253 70.8027 104.089 70.627C103.93 70.4512 103.851 70.2314 103.851 69.9678ZM109.958 72.4902L110.01 73.6855C110.737 72.7715 111.686 72.3145 112.858 72.3145C114.868 72.3145 115.881 73.4482 115.899 75.7158V82H114.273V75.707C114.267 75.0215 114.109 74.5146 113.798 74.1865C113.494 73.8584 113.016 73.6943 112.366 73.6943C111.838 73.6943 111.376 73.835 110.977 74.1162C110.579 74.3975 110.268 74.7666 110.046 75.2236V82H108.42V72.4902H109.958ZM118.164 77.166C118.164 75.6836 118.507 74.5059 119.193 73.6328C119.878 72.7539 120.787 72.3145 121.917 72.3145C123.078 72.3145 123.983 72.7246 124.633 73.5449L124.712 72.4902H126.198V81.7715C126.198 83.002 125.831 83.9717 125.099 84.6807C124.372 85.3896 123.394 85.7441 122.163 85.7441C121.478 85.7441 120.807 85.5977 120.151 85.3047C119.495 85.0117 118.994 84.6104 118.648 84.1006L119.492 83.125C120.189 83.9863 121.041 84.417 122.049 84.417C122.84 84.417 123.455 84.1943 123.895 83.749C124.34 83.3037 124.563 82.6768 124.563 81.8682V81.0508C123.912 81.8008 123.025 82.1758 121.9 82.1758C120.787 82.1758 119.884 81.7275 119.193 80.8311C118.507 79.9346 118.164 78.7129 118.164 77.166ZM119.799 77.3506C119.799 78.4229 120.019 79.2666 120.458 79.8818C120.898 80.4912 121.513 80.7959 122.304 80.7959C123.329 80.7959 124.082 80.3301 124.563 79.3984V75.0566C124.065 74.1484 123.318 73.6943 122.322 73.6943C121.531 73.6943 120.912 74.002 120.467 74.6172C120.022 75.2324 119.799 76.1436 119.799 77.3506ZM137.47 82.1758C136.181 82.1758 135.132 81.7539 134.323 80.9102C133.515 80.0605 133.11 78.9268 133.11 77.5088V77.21C133.11 76.2666 133.289 75.4258 133.646 74.6875C134.01 73.9434 134.514 73.3633 135.158 72.9473C135.809 72.5254 136.512 72.3145 137.268 72.3145C138.504 72.3145 139.465 72.7217 140.15 73.5361C140.836 74.3506 141.179 75.5166 141.179 77.0342V77.7109H134.736C134.76 78.6484 135.032 79.4072 135.554 79.9873C136.081 80.5615 136.749 80.8486 137.558 80.8486C138.132 80.8486 138.618 80.7314 139.017 80.4971C139.415 80.2627 139.764 79.9521 140.062 79.5654L141.056 80.3389C140.259 81.5635 139.063 82.1758 137.47 82.1758ZM137.268 73.6504C136.611 73.6504 136.061 73.8906 135.615 74.3711C135.17 74.8457 134.895 75.5137 134.789 76.375H139.553V76.252C139.506 75.4258 139.283 74.7871 138.885 74.3359C138.486 73.8789 137.947 73.6504 137.268 73.6504ZM144.806 72.4902L144.859 73.6855C145.586 72.7715 146.535 72.3145 147.707 72.3145C149.717 72.3145 150.73 73.4482 150.748 75.7158V82H149.122V75.707C149.116 75.0215 148.958 74.5146 148.647 74.1865C148.343 73.8584 147.865 73.6943 147.215 73.6943C146.687 73.6943 146.224 73.835 145.826 74.1162C145.428 74.3975 145.117 74.7666 144.894 75.2236V82H143.268V72.4902H144.806ZM155.026 73.6416C155.747 72.7568 156.684 72.3145 157.838 72.3145C159.848 72.3145 160.862 73.4482 160.879 75.7158V82H159.254V75.707C159.248 75.0215 159.089 74.5146 158.779 74.1865C158.474 73.8584 157.997 73.6943 157.346 73.6943C156.819 73.6943 156.356 73.835 155.958 74.1162C155.559 74.3975 155.249 74.7666 155.026 75.2236V82H153.4V68.5H155.026V73.6416ZM169.385 82C169.291 81.8125 169.215 81.4785 169.157 80.998C168.401 81.7832 167.498 82.1758 166.45 82.1758C165.512 82.1758 164.742 81.9121 164.138 81.3848C163.54 80.8516 163.242 80.1777 163.242 79.3633C163.242 78.373 163.617 77.6055 164.367 77.0605C165.122 76.5098 166.183 76.2344 167.548 76.2344H169.13V75.4873C169.13 74.9189 168.96 74.4678 168.621 74.1338C168.281 73.7939 167.78 73.624 167.118 73.624C166.537 73.624 166.051 73.7705 165.659 74.0635C165.266 74.3564 165.07 74.7109 165.07 75.127H163.435C163.435 74.6523 163.602 74.1953 163.936 73.7559C164.276 73.3105 164.733 72.959 165.307 72.7012C165.887 72.4434 166.523 72.3145 167.214 72.3145C168.31 72.3145 169.168 72.5898 169.789 73.1406C170.411 73.6855 170.733 74.4385 170.756 75.3994V79.7764C170.756 80.6494 170.868 81.3438 171.09 81.8594V82H169.385ZM166.687 80.7607C167.197 80.7607 167.68 80.6289 168.137 80.3652C168.594 80.1016 168.925 79.7588 169.13 79.3369V77.3857H167.856C165.864 77.3857 164.868 77.9688 164.868 79.1348C164.868 79.6445 165.037 80.043 165.377 80.3301C165.717 80.6172 166.154 80.7607 166.687 80.7607ZM175.043 72.4902L175.096 73.6855C175.822 72.7715 176.772 72.3145 177.944 72.3145C179.953 72.3145 180.967 73.4482 180.985 75.7158V82H179.359V75.707C179.353 75.0215 179.195 74.5146 178.884 74.1865C178.579 73.8584 178.102 73.6943 177.451 73.6943C176.924 73.6943 176.461 73.835 176.063 74.1162C175.664 74.3975 175.354 74.7666 175.131 75.2236V82H173.505V72.4902H175.043ZM187.451 80.8486C188.031 80.8486 188.538 80.6729 188.972 80.3213C189.405 79.9697 189.646 79.5303 189.692 79.0029H191.23C191.201 79.5479 191.014 80.0664 190.668 80.5586C190.322 81.0508 189.859 81.4434 189.279 81.7363C188.705 82.0293 188.096 82.1758 187.451 82.1758C186.156 82.1758 185.125 81.7451 184.357 80.8838C183.596 80.0166 183.215 78.833 183.215 77.333V77.0605C183.215 76.1348 183.385 75.3115 183.725 74.5908C184.064 73.8701 184.551 73.3105 185.184 72.9121C185.822 72.5137 186.575 72.3145 187.442 72.3145C188.509 72.3145 189.394 72.6338 190.097 73.2725C190.806 73.9111 191.184 74.7402 191.23 75.7598H189.692C189.646 75.1445 189.411 74.6406 188.989 74.248C188.573 73.8496 188.058 73.6504 187.442 73.6504C186.616 73.6504 185.975 73.9492 185.518 74.5469C185.066 75.1387 184.841 75.9971 184.841 77.1221V77.4297C184.841 78.5254 185.066 79.3691 185.518 79.9609C185.969 80.5527 186.613 80.8486 187.451 80.8486ZM197.205 82.1758C195.916 82.1758 194.867 81.7539 194.058 80.9102C193.25 80.0605 192.846 78.9268 192.846 77.5088V77.21C192.846 76.2666 193.024 75.4258 193.382 74.6875C193.745 73.9434 194.249 73.3633 194.893 72.9473C195.544 72.5254 196.247 72.3145 197.003 72.3145C198.239 72.3145 199.2 72.7217 199.886 73.5361C200.571 74.3506 200.914 75.5166 200.914 77.0342V77.7109H194.471C194.495 78.6484 194.767 79.4072 195.289 79.9873C195.816 80.5615 196.484 80.8486 197.293 80.8486C197.867 80.8486 198.353 80.7314 198.752 80.4971C199.15 80.2627 199.499 79.9521 199.798 79.5654L200.791 80.3389C199.994 81.5635 198.799 82.1758 197.205 82.1758ZM197.003 73.6504C196.346 73.6504 195.796 73.8906 195.35 74.3711C194.905 74.8457 194.63 75.5137 194.524 76.375H199.288V76.252C199.241 75.4258 199.018 74.7871 198.62 74.3359C198.221 73.8789 197.682 73.6504 197.003 73.6504ZM202.608 77.166C202.608 75.707 202.954 74.5352 203.645 73.6504C204.337 72.7598 205.242 72.3145 206.361 72.3145C207.474 72.3145 208.356 72.6953 209.006 73.457V68.5H210.632V82H209.138L209.059 80.9805C208.409 81.7773 207.504 82.1758 206.343 82.1758C205.242 82.1758 204.342 81.7246 203.645 80.8223C202.954 79.9199 202.608 78.7422 202.608 77.2891V77.166ZM204.234 77.3506C204.234 78.4287 204.457 79.2725 204.902 79.8818C205.347 80.4912 205.962 80.7959 206.748 80.7959C207.779 80.7959 208.532 80.333 209.006 79.4072V75.0391C208.52 74.1426 207.773 73.6943 206.765 73.6943C205.968 73.6943 205.347 74.002 204.902 74.6172C204.457 75.2324 204.234 76.1436 204.234 77.3506ZM223.566 79.4775C223.566 79.0381 223.399 78.6982 223.065 78.458C222.737 78.2119 222.159 78.001 221.333 77.8252C220.513 77.6494 219.86 77.4385 219.373 77.1924C218.893 76.9463 218.535 76.6533 218.301 76.3135C218.072 75.9736 217.958 75.5693 217.958 75.1006C217.958 74.3213 218.286 73.6621 218.943 73.123C219.605 72.584 220.448 72.3145 221.474 72.3145C222.552 72.3145 223.425 72.5928 224.093 73.1494C224.767 73.7061 225.104 74.418 225.104 75.2852H223.469C223.469 74.8398 223.279 74.4561 222.898 74.1338C222.523 73.8115 222.048 73.6504 221.474 73.6504C220.882 73.6504 220.419 73.7793 220.085 74.0371C219.751 74.2949 219.584 74.6318 219.584 75.0479C219.584 75.4404 219.739 75.7363 220.05 75.9355C220.361 76.1348 220.92 76.3252 221.729 76.5068C222.543 76.6885 223.202 76.9053 223.706 77.1572C224.21 77.4092 224.582 77.7139 224.822 78.0713C225.069 78.4229 225.192 78.8535 225.192 79.3633C225.192 80.2129 224.852 80.8955 224.172 81.4111C223.492 81.9209 222.611 82.1758 221.527 82.1758C220.765 82.1758 220.091 82.041 219.505 81.7715C218.919 81.502 218.459 81.127 218.125 80.6465C217.797 80.1602 217.633 79.6357 217.633 79.0732H219.259C219.288 79.6182 219.505 80.0518 219.909 80.374C220.32 80.6904 220.859 80.8486 221.527 80.8486C222.142 80.8486 222.634 80.7256 223.003 80.4795C223.378 80.2275 223.566 79.8936 223.566 79.4775ZM231.456 82.1758C230.167 82.1758 229.118 81.7539 228.31 80.9102C227.501 80.0605 227.097 78.9268 227.097 77.5088V77.21C227.097 76.2666 227.275 75.4258 227.633 74.6875C227.996 73.9434 228.5 73.3633 229.145 72.9473C229.795 72.5254 230.498 72.3145 231.254 72.3145C232.49 72.3145 233.451 72.7217 234.137 73.5361C234.822 74.3506 235.165 75.5166 235.165 77.0342V77.7109H228.723C228.746 78.6484 229.019 79.4072 229.54 79.9873C230.067 80.5615 230.735 80.8486 231.544 80.8486C232.118 80.8486 232.604 80.7314 233.003 80.4971C233.401 80.2627 233.75 79.9521 234.049 79.5654L235.042 80.3389C234.245 81.5635 233.05 82.1758 231.456 82.1758ZM231.254 73.6504C230.598 73.6504 230.047 73.8906 229.602 74.3711C229.156 74.8457 228.881 75.5137 228.775 76.375H233.539V76.252C233.492 75.4258 233.27 74.7871 232.871 74.3359C232.473 73.8789 231.934 73.6504 231.254 73.6504ZM241.851 73.9492C241.605 73.9082 241.339 73.8877 241.052 73.8877C239.985 73.8877 239.262 74.3418 238.881 75.25V82H237.255V72.4902H238.837L238.863 73.5889C239.396 72.7393 240.152 72.3145 241.131 72.3145C241.447 72.3145 241.687 72.3555 241.851 72.4375V73.9492ZM246.85 79.7939L249.206 72.4902H250.867L247.457 82H246.217L242.772 72.4902H244.433L246.85 79.7939ZM254.398 82H252.772V72.4902H254.398V82ZM252.64 69.9678C252.64 69.7041 252.719 69.4814 252.877 69.2998C253.041 69.1182 253.282 69.0273 253.598 69.0273C253.914 69.0273 254.155 69.1182 254.319 69.2998C254.483 69.4814 254.565 69.7041 254.565 69.9678C254.565 70.2314 254.483 70.4512 254.319 70.627C254.155 70.8027 253.914 70.8906 253.598 70.8906C253.282 70.8906 253.041 70.8027 252.877 70.627C252.719 70.4512 252.64 70.2314 252.64 69.9678ZM261.023 80.8486C261.603 80.8486 262.11 80.6729 262.543 80.3213C262.977 79.9697 263.217 79.5303 263.264 79.0029H264.802C264.773 79.5479 264.585 80.0664 264.239 80.5586C263.894 81.0508 263.431 81.4434 262.851 81.7363C262.277 82.0293 261.667 82.1758 261.023 82.1758C259.728 82.1758 258.696 81.7451 257.929 80.8838C257.167 80.0166 256.786 78.833 256.786 77.333V77.0605C256.786 76.1348 256.956 75.3115 257.296 74.5908C257.636 73.8701 258.122 73.3105 258.755 72.9121C259.394 72.5137 260.147 72.3145 261.014 72.3145C262.08 72.3145 262.965 72.6338 263.668 73.2725C264.377 73.9111 264.755 74.7402 264.802 75.7598H263.264C263.217 75.1445 262.983 74.6406 262.561 74.248C262.145 73.8496 261.629 73.6504 261.014 73.6504C260.188 73.6504 259.546 73.9492 259.089 74.5469C258.638 75.1387 258.412 75.9971 258.412 77.1221V77.4297C258.412 78.5254 258.638 79.3691 259.089 79.9609C259.54 80.5527 260.185 80.8486 261.023 80.8486ZM270.776 82.1758C269.487 82.1758 268.438 81.7539 267.63 80.9102C266.821 80.0605 266.417 78.9268 266.417 77.5088V77.21C266.417 76.2666 266.596 75.4258 266.953 74.6875C267.316 73.9434 267.82 73.3633 268.465 72.9473C269.115 72.5254 269.818 72.3145 270.574 72.3145C271.811 72.3145 272.771 72.7217 273.457 73.5361C274.143 74.3506 274.485 75.5166 274.485 77.0342V77.7109H268.043C268.066 78.6484 268.339 79.4072 268.86 79.9873C269.388 80.5615 270.056 80.8486 270.864 80.8486C271.438 80.8486 271.925 80.7314 272.323 80.4971C272.722 80.2627 273.07 79.9521 273.369 79.5654L274.362 80.3389C273.565 81.5635 272.37 82.1758 270.776 82.1758ZM270.574 73.6504C269.918 73.6504 269.367 73.8906 268.922 74.3711C268.477 74.8457 268.201 75.5137 268.096 76.375H272.859V76.252C272.812 75.4258 272.59 74.7871 272.191 74.3359C271.793 73.8789 271.254 73.6504 270.574 73.6504ZM282.112 79.4775C282.112 79.0381 281.945 78.6982 281.611 78.458C281.283 78.2119 280.706 78.001 279.88 77.8252C279.059 77.6494 278.406 77.4385 277.92 77.1924C277.439 76.9463 277.082 76.6533 276.847 76.3135C276.619 75.9736 276.505 75.5693 276.505 75.1006C276.505 74.3213 276.833 73.6621 277.489 73.123C278.151 72.584 278.995 72.3145 280.02 72.3145C281.098 72.3145 281.971 72.5928 282.639 73.1494C283.313 73.7061 283.65 74.418 283.65 75.2852H282.015C282.015 74.8398 281.825 74.4561 281.444 74.1338C281.069 73.8115 280.595 73.6504 280.02 73.6504C279.429 73.6504 278.966 73.7793 278.632 74.0371C278.298 74.2949 278.131 74.6318 278.131 75.0479C278.131 75.4404 278.286 75.7363 278.596 75.9355C278.907 76.1348 279.467 76.3252 280.275 76.5068C281.09 76.6885 281.749 76.9053 282.253 77.1572C282.757 77.4092 283.129 77.7139 283.369 78.0713C283.615 78.4229 283.738 78.8535 283.738 79.3633C283.738 80.2129 283.398 80.8955 282.719 81.4111C282.039 81.9209 281.157 82.1758 280.073 82.1758C279.311 82.1758 278.637 82.041 278.052 81.7715C277.466 81.502 277.006 81.127 276.672 80.6465C276.344 80.1602 276.179 79.6357 276.179 79.0732H277.805C277.835 79.6182 278.052 80.0518 278.456 80.374C278.866 80.6904 279.405 80.8486 280.073 80.8486C280.688 80.8486 281.18 80.7256 281.55 80.4795C281.925 80.2275 282.112 79.8936 282.112 79.4775ZM296.592 82C296.498 81.8125 296.422 81.4785 296.364 80.998C295.608 81.7832 294.705 82.1758 293.657 82.1758C292.719 82.1758 291.949 81.9121 291.345 81.3848C290.747 80.8516 290.449 80.1777 290.449 79.3633C290.449 78.373 290.824 77.6055 291.574 77.0605C292.329 76.5098 293.39 76.2344 294.755 76.2344H296.337V75.4873C296.337 74.9189 296.167 74.4678 295.828 74.1338C295.488 73.7939 294.987 73.624 294.325 73.624C293.745 73.624 293.258 73.7705 292.866 74.0635C292.473 74.3564 292.277 74.7109 292.277 75.127H290.642C290.642 74.6523 290.809 74.1953 291.143 73.7559C291.483 73.3105 291.94 72.959 292.514 72.7012C293.094 72.4434 293.73 72.3145 294.421 72.3145C295.517 72.3145 296.375 72.5898 296.996 73.1406C297.618 73.6855 297.94 74.4385 297.963 75.3994V79.7764C297.963 80.6494 298.075 81.3438 298.297 81.8594V82H296.592ZM293.894 80.7607C294.404 80.7607 294.887 80.6289 295.344 80.3652C295.801 80.1016 296.132 79.7588 296.337 79.3369V77.3857H295.063C293.071 77.3857 292.075 77.9688 292.075 79.1348C292.075 79.6445 292.245 80.043 292.584 80.3301C292.924 80.6172 293.361 80.7607 293.894 80.7607ZM302.25 72.4902L302.303 73.6855C303.029 72.7715 303.979 72.3145 305.151 72.3145C307.16 72.3145 308.174 73.4482 308.192 75.7158V82H306.566V75.707C306.56 75.0215 306.402 74.5146 306.091 74.1865C305.786 73.8584 305.309 73.6943 304.658 73.6943C304.131 73.6943 303.668 73.835 303.27 74.1162C302.871 74.3975 302.561 74.7666 302.338 75.2236V82H300.712V72.4902H302.25ZM310.448 77.166C310.448 75.707 310.794 74.5352 311.485 73.6504C312.177 72.7598 313.082 72.3145 314.201 72.3145C315.314 72.3145 316.196 72.6953 316.847 73.457V68.5H318.473V82H316.979L316.899 80.9805C316.249 81.7773 315.344 82.1758 314.184 82.1758C313.082 82.1758 312.183 81.7246 311.485 80.8223C310.794 79.9199 310.448 78.7422 310.448 77.2891V77.166ZM312.074 77.3506C312.074 78.4287 312.297 79.2725 312.742 79.8818C313.188 80.4912 313.803 80.7959 314.588 80.7959C315.619 80.7959 316.372 80.333 316.847 79.4072V75.0391C316.36 74.1426 315.613 73.6943 314.605 73.6943C313.809 73.6943 313.188 74.002 312.742 74.6172C312.297 75.2324 312.074 76.1436 312.074 77.3506ZM334.289 79.7588L336.117 72.4902H337.743L334.974 82H333.656L331.344 74.793L329.094 82H327.776L325.016 72.4902H326.633L328.505 79.6094L330.72 72.4902H332.03L334.289 79.7588ZM341.371 82H339.745V72.4902H341.371V82ZM339.613 69.9678C339.613 69.7041 339.692 69.4814 339.85 69.2998C340.014 69.1182 340.254 69.0273 340.571 69.0273C340.887 69.0273 341.127 69.1182 341.291 69.2998C341.455 69.4814 341.538 69.7041 341.538 69.9678C341.538 70.2314 341.455 70.4512 341.291 70.627C341.127 70.8027 340.887 70.8906 340.571 70.8906C340.254 70.8906 340.014 70.8027 339.85 70.627C339.692 70.4512 339.613 70.2314 339.613 69.9678ZM343.785 77.166C343.785 75.707 344.131 74.5352 344.822 73.6504C345.514 72.7598 346.419 72.3145 347.538 72.3145C348.652 72.3145 349.533 72.6953 350.184 73.457V68.5H351.81V82H350.316L350.237 80.9805C349.586 81.7773 348.681 82.1758 347.521 82.1758C346.419 82.1758 345.52 81.7246 344.822 80.8223C344.131 79.9199 343.785 78.7422 343.785 77.2891V77.166ZM345.411 77.3506C345.411 78.4287 345.634 79.2725 346.079 79.8818C346.525 80.4912 347.14 80.7959 347.925 80.7959C348.956 80.7959 349.709 80.333 350.184 79.4072V75.0391C349.697 74.1426 348.95 73.6943 347.943 73.6943C347.146 73.6943 346.525 74.002 346.079 74.6172C345.634 75.2324 345.411 76.1436 345.411 77.3506ZM358.487 82.1758C357.198 82.1758 356.149 81.7539 355.341 80.9102C354.532 80.0605 354.128 78.9268 354.128 77.5088V77.21C354.128 76.2666 354.307 75.4258 354.664 74.6875C355.027 73.9434 355.531 73.3633 356.176 72.9473C356.826 72.5254 357.529 72.3145 358.285 72.3145C359.521 72.3145 360.482 72.7217 361.168 73.5361C361.854 74.3506 362.196 75.5166 362.196 77.0342V77.7109H355.754C355.777 78.6484 356.05 79.4072 356.571 79.9873C357.099 80.5615 357.767 80.8486 358.575 80.8486C359.149 80.8486 359.636 80.7314 360.034 80.4971C360.433 80.2627 360.781 79.9521 361.08 79.5654L362.073 80.3389C361.276 81.5635 360.081 82.1758 358.487 82.1758ZM358.285 73.6504C357.629 73.6504 357.078 73.8906 356.633 74.3711C356.188 74.8457 355.912 75.5137 355.807 76.375H360.57V76.252C360.523 75.4258 360.301 74.7871 359.902 74.3359C359.504 73.8789 358.965 73.6504 358.285 73.6504ZM368.555 77.166C368.555 75.707 368.901 74.5352 369.592 73.6504C370.284 72.7598 371.189 72.3145 372.308 72.3145C373.421 72.3145 374.303 72.6953 374.954 73.457V68.5H376.58V82H375.086L375.006 80.9805C374.356 81.7773 373.451 82.1758 372.291 82.1758C371.189 82.1758 370.29 81.7246 369.592 80.8223C368.901 79.9199 368.555 78.7422 368.555 77.2891V77.166ZM370.181 77.3506C370.181 78.4287 370.404 79.2725 370.849 79.8818C371.295 80.4912 371.91 80.7959 372.695 80.7959C373.726 80.7959 374.479 80.333 374.954 79.4072V75.0391C374.467 74.1426 373.72 73.6943 372.712 73.6943C371.916 73.6943 371.295 74.002 370.849 74.6172C370.404 75.2324 370.181 76.1436 370.181 77.3506ZM383.257 82.1758C381.968 82.1758 380.919 81.7539 380.111 80.9102C379.302 80.0605 378.898 78.9268 378.898 77.5088V77.21C378.898 76.2666 379.077 75.4258 379.434 74.6875C379.797 73.9434 380.301 73.3633 380.946 72.9473C381.596 72.5254 382.299 72.3145 383.055 72.3145C384.291 72.3145 385.252 72.7217 385.938 73.5361C386.623 74.3506 386.966 75.5166 386.966 77.0342V77.7109H380.524C380.547 78.6484 380.82 79.4072 381.341 79.9873C381.869 80.5615 382.537 80.8486 383.345 80.8486C383.919 80.8486 384.406 80.7314 384.804 80.4971C385.203 80.2627 385.551 79.9521 385.85 79.5654L386.843 80.3389C386.046 81.5635 384.851 82.1758 383.257 82.1758ZM383.055 73.6504C382.399 73.6504 381.848 73.8906 381.403 74.3711C380.957 74.8457 380.682 75.5137 380.577 76.375H385.34V76.252C385.293 75.4258 385.071 74.7871 384.672 74.3359C384.274 73.8789 383.735 73.6504 383.055 73.6504ZM390.822 82H389.196V68.5H390.822V82ZM395.399 82H393.773V72.4902H395.399V82ZM393.642 69.9678C393.642 69.7041 393.721 69.4814 393.879 69.2998C394.043 69.1182 394.283 69.0273 394.6 69.0273C394.916 69.0273 395.156 69.1182 395.32 69.2998C395.484 69.4814 395.566 69.7041 395.566 69.9678C395.566 70.2314 395.484 70.4512 395.32 70.627C395.156 70.8027 394.916 70.8906 394.6 70.8906C394.283 70.8906 394.043 70.8027 393.879 70.627C393.721 70.4512 393.642 70.2314 393.642 69.9678ZM401.347 79.7939L403.703 72.4902H405.364L401.954 82H400.715L397.269 72.4902H398.93L401.347 79.7939ZM410.952 82.1758C409.663 82.1758 408.614 81.7539 407.805 80.9102C406.997 80.0605 406.592 78.9268 406.592 77.5088V77.21C406.592 76.2666 406.771 75.4258 407.129 74.6875C407.492 73.9434 407.996 73.3633 408.64 72.9473C409.291 72.5254 409.994 72.3145 410.75 72.3145C411.986 72.3145 412.947 72.7217 413.632 73.5361C414.318 74.3506 414.661 75.5166 414.661 77.0342V77.7109H408.218C408.242 78.6484 408.514 79.4072 409.036 79.9873C409.563 80.5615 410.231 80.8486 411.04 80.8486C411.614 80.8486 412.1 80.7314 412.499 80.4971C412.897 80.2627 413.246 79.9521 413.545 79.5654L414.538 80.3389C413.741 81.5635 412.546 82.1758 410.952 82.1758ZM410.75 73.6504C410.093 73.6504 409.543 73.8906 409.097 74.3711C408.652 74.8457 408.377 75.5137 408.271 76.375H413.035V76.252C412.988 75.4258 412.765 74.7871 412.367 74.3359C411.968 73.8789 411.429 73.6504 410.75 73.6504ZM421.347 73.9492C421.101 73.9082 420.834 73.8877 420.547 73.8877C419.481 73.8877 418.757 74.3418 418.376 75.25V82H416.75V72.4902H418.332L418.359 73.5889C418.892 72.7393 419.648 72.3145 420.626 72.3145C420.943 72.3145 421.183 72.3555 421.347 72.4375V73.9492ZM426.32 79.6182L428.534 72.4902H430.275L426.451 83.4678C425.86 85.0498 424.919 85.8408 423.63 85.8408L423.322 85.8145L422.716 85.7002V84.3818L423.155 84.417C423.706 84.417 424.134 84.3057 424.439 84.083C424.749 83.8604 425.004 83.4531 425.203 82.8613L425.564 81.8945L422.171 72.4902H423.946L426.32 79.6182ZM57.0449 104.849C57.625 104.849 58.1318 104.673 58.5654 104.321C58.999 103.97 59.2393 103.53 59.2861 103.003H60.8242C60.7949 103.548 60.6074 104.066 60.2617 104.559C59.916 105.051 59.4531 105.443 58.873 105.736C58.2988 106.029 57.6895 106.176 57.0449 106.176C55.75 106.176 54.7188 105.745 53.9512 104.884C53.1895 104.017 52.8086 102.833 52.8086 101.333V101.061C52.8086 100.135 52.9785 99.3115 53.3184 98.5908C53.6582 97.8701 54.1445 97.3105 54.7773 96.9121C55.416 96.5137 56.1689 96.3145 57.0361 96.3145C58.1025 96.3145 58.9873 96.6338 59.6904 97.2725C60.3994 97.9111 60.7773 98.7402 60.8242 99.7598H59.2861C59.2393 99.1445 59.0049 98.6406 58.583 98.248C58.167 97.8496 57.6514 97.6504 57.0361 97.6504C56.21 97.6504 55.5684 97.9492 55.1113 98.5469C54.6602 99.1387 54.4346 99.9971 54.4346 101.122V101.43C54.4346 102.525 54.6602 103.369 55.1113 103.961C55.5625 104.553 56.207 104.849 57.0449 104.849ZM64.4783 97.6416C65.199 96.7568 66.1365 96.3145 67.2908 96.3145C69.3006 96.3145 70.3143 97.4482 70.3318 99.7158V106H68.7059V99.707C68.7 99.0215 68.5418 98.5146 68.2312 98.1865C67.9266 97.8584 67.449 97.6943 66.7986 97.6943C66.2713 97.6943 65.8084 97.835 65.41 98.1162C65.0115 98.3975 64.701 98.7666 64.4783 99.2236V106H62.8523V92.5H64.4783V97.6416ZM78.8375 106C78.7437 105.812 78.6676 105.479 78.609 104.998C77.8531 105.783 76.9508 106.176 75.902 106.176C74.9645 106.176 74.1939 105.912 73.5904 105.385C72.9928 104.852 72.6939 104.178 72.6939 103.363C72.6939 102.373 73.0689 101.605 73.8189 101.061C74.5748 100.51 75.6354 100.234 77.0006 100.234H78.5826V99.4873C78.5826 98.9189 78.4127 98.4678 78.0729 98.1338C77.733 97.7939 77.232 97.624 76.5699 97.624C75.9898 97.624 75.5035 97.7705 75.1109 98.0635C74.7184 98.3564 74.5221 98.7109 74.5221 99.127H72.8873C72.8873 98.6523 73.0543 98.1953 73.3883 97.7559C73.7281 97.3105 74.1852 96.959 74.7594 96.7012C75.3395 96.4434 75.9752 96.3145 76.6666 96.3145C77.7623 96.3145 78.6207 96.5898 79.2418 97.1406C79.8629 97.6855 80.1852 98.4385 80.2086 99.3994V103.776C80.2086 104.649 80.3199 105.344 80.5426 105.859V106H78.8375ZM76.1393 104.761C76.649 104.761 77.1324 104.629 77.5895 104.365C78.0465 104.102 78.3775 103.759 78.5826 103.337V101.386H77.3082C75.316 101.386 74.3199 101.969 74.3199 103.135C74.3199 103.645 74.4898 104.043 74.8297 104.33C75.1695 104.617 75.6061 104.761 76.1393 104.761ZM84.4955 96.4902L84.5482 97.6855C85.2748 96.7715 86.224 96.3145 87.3959 96.3145C89.4057 96.3145 90.4193 97.4482 90.4369 99.7158V106H88.8109V99.707C88.8051 99.0215 88.6469 98.5146 88.3363 98.1865C88.0316 97.8584 87.5541 97.6943 86.9037 97.6943C86.3764 97.6943 85.9135 97.835 85.515 98.1162C85.1166 98.3975 84.8061 98.7666 84.5834 99.2236V106H82.9574V96.4902H84.4955ZM94.6271 96.4902L94.6799 97.6855C95.4064 96.7715 96.3557 96.3145 97.5275 96.3145C99.5373 96.3145 100.551 97.4482 100.569 99.7158V106H98.9426V99.707C98.9367 99.0215 98.7785 98.5146 98.468 98.1865C98.1633 97.8584 97.6857 97.6943 97.0354 97.6943C96.508 97.6943 96.0451 97.835 95.6467 98.1162C95.2482 98.3975 94.9377 98.7666 94.715 99.2236V106H93.0891V96.4902H94.6271ZM107.167 106.176C105.878 106.176 104.829 105.754 104.021 104.91C103.212 104.061 102.808 102.927 102.808 101.509V101.21C102.808 100.267 102.986 99.4258 103.344 98.6875C103.707 97.9434 104.211 97.3633 104.855 96.9473C105.506 96.5254 106.209 96.3145 106.965 96.3145C108.201 96.3145 109.162 96.7217 109.848 97.5361C110.533 98.3506 110.876 99.5166 110.876 101.034V101.711H104.434C104.457 102.648 104.729 103.407 105.251 103.987C105.778 104.562 106.446 104.849 107.255 104.849C107.829 104.849 108.315 104.731 108.714 104.497C109.112 104.263 109.461 103.952 109.76 103.565L110.753 104.339C109.956 105.563 108.761 106.176 107.167 106.176ZM106.965 97.6504C106.309 97.6504 105.758 97.8906 105.312 98.3711C104.867 98.8457 104.592 99.5137 104.486 100.375H109.25V100.252C109.203 99.4258 108.98 98.7871 108.582 98.3359C108.184 97.8789 107.645 97.6504 106.965 97.6504ZM114.732 106H113.106V92.5H114.732V106ZM124.413 94.1875V96.4902H126.189V97.7471H124.413V103.645C124.413 104.025 124.493 104.312 124.651 104.506C124.809 104.693 125.079 104.787 125.459 104.787C125.647 104.787 125.905 104.752 126.233 104.682V106C125.805 106.117 125.389 106.176 124.985 106.176C124.258 106.176 123.71 105.956 123.341 105.517C122.972 105.077 122.787 104.453 122.787 103.645V97.7471H121.056V96.4902H122.787V94.1875H124.413ZM127.69 101.157C127.69 100.226 127.871 99.3877 128.235 98.6436C128.604 97.8994 129.113 97.3252 129.764 96.9209C130.42 96.5166 131.167 96.3145 132.005 96.3145C133.3 96.3145 134.346 96.7627 135.143 97.6592C135.946 98.5557 136.347 99.748 136.347 101.236V101.351C136.347 102.276 136.168 103.108 135.811 103.847C135.459 104.579 134.952 105.15 134.29 105.561C133.634 105.971 132.878 106.176 132.023 106.176C130.734 106.176 129.688 105.728 128.885 104.831C128.088 103.935 127.69 102.748 127.69 101.271V101.157ZM129.324 101.351C129.324 102.405 129.568 103.252 130.054 103.891C130.546 104.529 131.202 104.849 132.023 104.849C132.849 104.849 133.505 104.526 133.991 103.882C134.478 103.231 134.721 102.323 134.721 101.157C134.721 100.114 134.472 99.2705 133.974 98.626C133.482 97.9756 132.825 97.6504 132.005 97.6504C131.202 97.6504 130.555 97.9697 130.063 98.6084C129.571 99.2471 129.324 100.161 129.324 101.351ZM147.197 106.176C145.908 106.176 144.859 105.754 144.051 104.91C143.242 104.061 142.838 102.927 142.838 101.509V101.21C142.838 100.267 143.016 99.4258 143.374 98.6875C143.737 97.9434 144.241 97.3633 144.886 96.9473C145.536 96.5254 146.239 96.3145 146.995 96.3145C148.231 96.3145 149.192 96.7217 149.878 97.5361C150.563 98.3506 150.906 99.5166 150.906 101.034V101.711H144.464C144.487 102.648 144.76 103.407 145.281 103.987C145.808 104.562 146.476 104.849 147.285 104.849C147.859 104.849 148.346 104.731 148.744 104.497C149.142 104.263 149.491 103.952 149.79 103.565L150.783 104.339C149.986 105.563 148.791 106.176 147.197 106.176ZM146.995 97.6504C146.339 97.6504 145.788 97.8906 145.343 98.3711C144.897 98.8457 144.622 99.5137 144.516 100.375H149.28V100.252C149.233 99.4258 149.011 98.7871 148.612 98.3359C148.214 97.8789 147.675 97.6504 146.995 97.6504ZM154.534 96.4902L154.587 97.6855C155.313 96.7715 156.262 96.3145 157.434 96.3145C159.444 96.3145 160.458 97.4482 160.475 99.7158V106H158.849V99.707C158.843 99.0215 158.685 98.5146 158.375 98.1865C158.07 97.8584 157.592 97.6943 156.942 97.6943C156.415 97.6943 155.952 97.835 155.553 98.1162C155.155 98.3975 154.844 98.7666 154.622 99.2236V106H152.996V96.4902H154.534ZM162.732 101.166C162.732 99.707 163.078 98.5352 163.769 97.6504C164.46 96.7598 165.366 96.3145 166.485 96.3145C167.598 96.3145 168.48 96.6953 169.13 97.457V92.5H170.756V106H169.262L169.183 104.98C168.533 105.777 167.627 106.176 166.467 106.176C165.366 106.176 164.466 105.725 163.769 104.822C163.078 103.92 162.732 102.742 162.732 101.289V101.166ZM164.358 101.351C164.358 102.429 164.58 103.272 165.026 103.882C165.471 104.491 166.086 104.796 166.871 104.796C167.903 104.796 168.656 104.333 169.13 103.407V99.0391C168.644 98.1426 167.897 97.6943 166.889 97.6943C166.092 97.6943 165.471 98.002 165.026 98.6172C164.58 99.2324 164.358 100.144 164.358 101.351ZM176.871 101.228H172.582V99.9004H176.871V101.228ZM184.533 105.06C183.9 105.804 182.972 106.176 181.747 106.176C180.733 106.176 179.96 105.883 179.427 105.297C178.899 104.705 178.633 103.832 178.627 102.678V96.4902H180.253V102.634C180.253 104.075 180.839 104.796 182.011 104.796C183.253 104.796 184.079 104.333 184.489 103.407V96.4902H186.115V106H184.568L184.533 105.06ZM194.331 103.478C194.331 103.038 194.164 102.698 193.83 102.458C193.502 102.212 192.925 102.001 192.098 101.825C191.278 101.649 190.625 101.438 190.138 101.192C189.658 100.946 189.301 100.653 189.066 100.313C188.838 99.9736 188.723 99.5693 188.723 99.1006C188.723 98.3213 189.052 97.6621 189.708 97.123C190.37 96.584 191.214 96.3145 192.239 96.3145C193.317 96.3145 194.19 96.5928 194.858 97.1494C195.532 97.7061 195.869 98.418 195.869 99.2852H194.234C194.234 98.8398 194.044 98.4561 193.663 98.1338C193.288 97.8115 192.813 97.6504 192.239 97.6504C191.647 97.6504 191.184 97.7793 190.85 98.0371C190.516 98.2949 190.349 98.6318 190.349 99.0479C190.349 99.4404 190.505 99.7363 190.815 99.9355C191.126 100.135 191.685 100.325 192.494 100.507C193.308 100.688 193.968 100.905 194.471 101.157C194.975 101.409 195.347 101.714 195.588 102.071C195.834 102.423 195.957 102.854 195.957 103.363C195.957 104.213 195.617 104.896 194.937 105.411C194.258 105.921 193.376 106.176 192.292 106.176C191.53 106.176 190.856 106.041 190.27 105.771C189.684 105.502 189.224 105.127 188.89 104.646C188.562 104.16 188.398 103.636 188.398 103.073H190.024C190.054 103.618 190.27 104.052 190.675 104.374C191.085 104.69 191.624 104.849 192.292 104.849C192.907 104.849 193.399 104.726 193.768 104.479C194.143 104.228 194.331 103.894 194.331 103.478ZM202.221 106.176C200.932 106.176 199.883 105.754 199.075 104.91C198.266 104.061 197.862 102.927 197.862 101.509V101.21C197.862 100.267 198.041 99.4258 198.398 98.6875C198.761 97.9434 199.265 97.3633 199.91 96.9473C200.56 96.5254 201.263 96.3145 202.019 96.3145C203.255 96.3145 204.216 96.7217 204.902 97.5361C205.587 98.3506 205.93 99.5166 205.93 101.034V101.711H199.488C199.511 102.648 199.784 103.407 200.305 103.987C200.833 104.562 201.501 104.849 202.309 104.849C202.883 104.849 203.37 104.731 203.768 104.497C204.167 104.263 204.515 103.952 204.814 103.565L205.807 104.339C205.01 105.563 203.815 106.176 202.221 106.176ZM202.019 97.6504C201.363 97.6504 200.812 97.8906 200.367 98.3711C199.921 98.8457 199.646 99.5137 199.541 100.375H204.304V100.252C204.257 99.4258 204.035 98.7871 203.636 98.3359C203.238 97.8789 202.699 97.6504 202.019 97.6504ZM212.617 97.9492C212.371 97.9082 212.104 97.8877 211.817 97.8877C210.75 97.8877 210.027 98.3418 209.646 99.25V106H208.02V96.4902H209.602L209.628 97.5889C210.162 96.7393 210.917 96.3145 211.896 96.3145C212.212 96.3145 212.453 96.3555 212.617 96.4375V97.9492ZM219.857 103.478C219.857 103.038 219.69 102.698 219.356 102.458C219.028 102.212 218.45 102.001 217.624 101.825C216.804 101.649 216.151 101.438 215.664 101.192C215.184 100.946 214.826 100.653 214.592 100.313C214.363 99.9736 214.249 99.5693 214.249 99.1006C214.249 98.3213 214.577 97.6621 215.234 97.123C215.896 96.584 216.739 96.3145 217.765 96.3145C218.843 96.3145 219.716 96.5928 220.384 97.1494C221.058 97.7061 221.395 98.418 221.395 99.2852H219.76C219.76 98.8398 219.57 98.4561 219.189 98.1338C218.814 97.8115 218.339 97.6504 217.765 97.6504C217.173 97.6504 216.71 97.7793 216.376 98.0371C216.042 98.2949 215.875 98.6318 215.875 99.0479C215.875 99.4404 216.03 99.7363 216.341 99.9355C216.652 100.135 217.211 100.325 218.02 100.507C218.834 100.688 219.493 100.905 219.997 101.157C220.501 101.409 220.873 101.714 221.113 102.071C221.36 102.423 221.483 102.854 221.483 103.363C221.483 104.213 221.143 104.896 220.463 105.411C219.783 105.921 218.902 106.176 217.818 106.176C217.056 106.176 216.382 106.041 215.796 105.771C215.21 105.502 214.75 105.127 214.416 104.646C214.088 104.16 213.924 103.636 213.924 103.073H215.55C215.579 103.618 215.796 104.052 216.2 104.374C216.611 104.69 217.15 104.849 217.818 104.849C218.433 104.849 218.925 104.726 219.294 104.479C219.669 104.228 219.857 103.894 219.857 103.478ZM223.836 105.147C223.836 104.866 223.918 104.632 224.082 104.444C224.252 104.257 224.504 104.163 224.838 104.163C225.172 104.163 225.424 104.257 225.594 104.444C225.77 104.632 225.857 104.866 225.857 105.147C225.857 105.417 225.77 105.643 225.594 105.824C225.424 106.006 225.172 106.097 224.838 106.097C224.504 106.097 224.252 106.006 224.082 105.824C223.918 105.643 223.836 105.417 223.836 105.147Z" fill="#263238"/>
</g>
<defs>
<clipPath id="clip0_1_77">
<rect width="473" height="136" rx="9" fill="white"/>
</clipPath>
<clipPath id="clip1_1_77">
<rect width="32" height="32" fill="white"/>
</clipPath>
</defs>
</svg>
