<svg width="557" height="112" viewBox="0 0 557 112" fill="none" xmlns="http://www.w3.org/2000/svg">
<g clip-path="url(#clip0_1_70)">
<path fill-rule="evenodd" clip-rule="evenodd" d="M18.2367 8.77151C17.7729 9.09308 17.2497 9.31905 16.6976 9.43623C16.1456 9.55342 15.5757 9.55949 15.0212 9.45407C14.4668 9.34865 13.9389 9.13385 13.4684 8.82223C12.9979 8.5106 12.5941 8.10838 12.2807 7.63904C11.9673 7.1697 11.7505 6.64263 11.643 6.08861C11.5354 5.53458 11.5393 4.96468 11.6544 4.41218C11.7695 3.85967 11.9935 3.33562 12.3133 2.8706C12.6331 2.40559 13.0423 2.00893 13.517 1.70376C14.4544 1.08466 15.5986 0.861813 16.6998 1.08393C17.8009 1.30605 18.7693 1.95506 19.3933 2.88911C20.0173 3.82315 20.2462 4.96625 20.0298 6.06853C19.8135 7.17081 19.1696 8.14262 18.2388 8.77151H18.2367ZM17.0573 3.47176C16.8259 3.30528 16.5633 3.18706 16.2853 3.12415C16.0072 3.06124 15.7193 3.05493 15.4388 3.10558C15.1583 3.15622 14.8908 3.26281 14.6523 3.41897C14.4138 3.57514 14.2091 3.7777 14.0505 4.0146C13.8919 4.25149 13.7826 4.51788 13.7291 4.79789C13.6756 5.07791 13.679 5.36583 13.739 5.64451C13.7991 5.92319 13.9146 6.18694 14.0788 6.42004C14.2429 6.65315 14.4522 6.85086 14.6943 7.00139C15.162 7.28552 15.7214 7.37824 16.2558 7.26023C16.7902 7.14222 17.2585 6.82258 17.563 6.36789C17.8676 5.9132 17.985 5.35852 17.8908 4.81941C17.7966 4.2803 17.498 3.79833 17.0573 3.47389V3.47176ZM22.6036 3.53551C23.2164 3.12326 23.9539 2.93762 24.6889 3.01054C25.4239 3.08346 26.1105 3.41038 26.6304 3.93501C27.0009 4.30848 27.2741 4.76715 27.426 5.27079C27.578 5.77443 27.604 6.30766 27.5018 6.82371C27.3997 7.33975 27.1724 7.82284 26.8401 8.23061C26.5077 8.63838 26.0804 8.95837 25.5956 9.16251C25.0133 9.40598 24.3715 9.47011 23.7526 9.34669C23.1336 9.22328 22.5656 8.91794 22.1212 8.46976C21.7872 8.13405 21.5315 7.72865 21.3725 7.28259C21.2135 6.83653 21.155 6.36083 21.2013 5.88954C21.2476 5.41825 21.3975 4.96302 21.6403 4.55643C21.8831 4.14984 22.2127 3.80194 22.6057 3.53764L22.6036 3.53551ZM23.6236 6.95676C23.8231 7.15543 24.0933 7.2667 24.3749 7.2661C24.5143 7.2658 24.6523 7.23805 24.7809 7.18443C24.9096 7.13081 25.0265 7.05236 25.1249 6.95357C25.2232 6.85479 25.3012 6.73759 25.3543 6.60868C25.4073 6.47977 25.4345 6.34167 25.4342 6.20226C25.4339 6.06285 25.4062 5.92486 25.3525 5.79618C25.2989 5.66749 25.2205 5.55063 25.1217 5.45226C24.9238 5.25328 24.6564 5.13899 24.3758 5.13351C24.2357 5.13323 24.0968 5.16073 23.9674 5.21442C23.8379 5.26811 23.7204 5.34694 23.6216 5.44633C23.5228 5.54573 23.4447 5.66372 23.3918 5.7935C23.3388 5.92327 23.3122 6.06224 23.3133 6.20239C23.314 6.48539 23.4253 6.7569 23.6236 6.95889V6.95676ZM5.65455 25.3975H9.5008V27.5331H5.65455C4.98123 27.5271 4.3378 27.2542 3.8653 26.7745C3.39099 26.293 3.12533 25.6441 3.1258 24.9683V21.122C2.8397 21.1124 2.5585 21.045 2.29919 20.9237C2.03988 20.8025 1.80783 20.6299 1.61705 20.4165C1.41433 20.2112 1.25524 19.967 1.14934 19.6985C1.04343 19.4301 0.992909 19.1431 1.0008 18.8546V14.2179C1.00718 13.2149 1.40455 12.2565 2.1058 11.5446C2.80493 10.8413 3.75055 10.4396 4.7408 10.4333H8.6508C8.1234 11.0614 7.72612 11.788 7.48205 12.571H4.7408C4.30951 12.5834 3.89915 12.7597 3.5933 13.064C3.29287 13.3729 3.1251 13.787 3.1258 14.2179V18.9609H5.2508V24.9661C5.24587 25.024 5.25275 25.0823 5.27101 25.1375C5.28928 25.1926 5.31855 25.2435 5.35705 25.287C5.44247 25.353 5.54664 25.3902 5.65455 25.3933V25.3975ZM21.167 11.5468C20.8193 11.1957 20.4057 10.9167 19.9498 10.726C19.494 10.5353 19.0049 10.4365 18.5108 10.4354H13.2408C12.2502 10.4433 11.3029 10.8428 10.6058 11.5468C9.90455 12.2586 9.50718 13.217 9.5008 14.22V20.9733C9.4978 21.5531 9.71853 22.1118 10.1171 22.533C10.3081 22.7462 10.5402 22.9185 10.7994 23.0397C11.0587 23.161 11.3398 23.2286 11.6258 23.2385V28.1749C11.6238 28.5118 11.6885 28.8458 11.8161 29.1576C11.9438 29.4695 12.1319 29.7529 12.3696 29.9918C12.7521 30.3488 13.2344 30.5804 13.7508 30.6548H18.0008C18.5985 30.5763 19.1461 30.2797 19.5384 29.8219C19.9306 29.3642 20.1398 28.7776 20.1258 28.1749V23.2364C20.4119 23.2268 20.6931 23.1594 20.9524 23.0381C21.2117 22.9169 21.4438 22.7443 21.6346 22.5309C21.8371 22.3259 21.9961 22.082 22.102 21.814C22.2079 21.5459 22.2585 21.2592 22.2508 20.9711V14.2179C22.2523 13.2195 21.8633 12.2601 21.167 11.5446V11.5468ZM20.1258 21.0774H18.0008V28.1749C17.9987 28.2869 17.953 28.3937 17.8733 28.4724C17.837 28.5153 17.7913 28.5492 17.7396 28.5713C17.688 28.5935 17.6319 28.6032 17.5758 28.5999H14.1546C14.0435 28.5947 13.9384 28.5483 13.8598 28.4697C13.7812 28.3911 13.7347 28.2859 13.7296 28.1749V21.0774H11.6258V14.2179C11.6258 13.7865 11.7937 13.3721 12.0933 13.064C12.3992 12.7597 12.8095 12.5834 13.2408 12.571H18.5108C18.8327 12.5767 19.146 12.6762 19.4121 12.8574C19.6782 13.0386 19.8857 13.2936 20.0089 13.591C20.0898 13.7899 20.1296 14.0032 20.1258 14.2179V21.0774ZM26.0971 27.531H22.2508V25.3954H26.0758C26.1837 25.3924 26.2879 25.3552 26.3733 25.2891C26.4161 25.2473 26.4496 25.1969 26.4715 25.1413C26.4935 25.0856 26.5035 25.0259 26.5008 24.9661V18.9609H28.6258V14.2179C28.6265 13.787 28.4587 13.3729 28.1583 13.064C27.8524 12.7597 27.4421 12.5834 27.0108 12.571H24.2696C24.0256 11.788 23.6283 11.0613 23.1008 10.4333H27.0108C28.0012 10.4423 28.9481 10.8417 29.6458 11.5446C30.347 12.2565 30.7444 13.2149 30.7508 14.2179V18.8546C30.7508 19.4348 30.5319 19.9915 30.1367 20.4123C29.7414 20.8351 29.2017 21.088 28.6258 21.1199V24.9661C28.6258 25.644 28.3602 26.2921 27.8863 26.7724C27.4138 27.2521 26.7704 27.5249 26.0971 27.531ZM7.3758 2.99576C6.74346 2.99503 6.12531 3.18314 5.60057 3.536C5.07583 3.88885 4.66842 4.39037 4.43055 4.97626C4.19049 5.56195 4.12817 6.20536 4.25136 6.82623C4.37456 7.4471 4.67781 8.01797 5.1233 8.46764C5.56863 8.91678 6.13774 9.22298 6.75793 9.34712C7.37812 9.47126 8.02124 9.4077 8.60514 9.16456C9.18903 8.92142 9.68719 8.50975 10.036 7.98212C10.3848 7.45449 10.5684 6.83486 10.5633 6.20239C10.5633 5.35239 10.2276 4.53639 9.6283 3.93501C9.33323 3.63779 8.98233 3.40181 8.59577 3.24063C8.20921 3.07944 7.79462 2.99622 7.3758 2.99576ZM7.3758 7.27126C7.23565 7.27155 7.09684 7.24405 6.96739 7.19035C6.83793 7.13666 6.72041 7.05784 6.6216 6.95844C6.5228 6.85905 6.44468 6.74105 6.39176 6.61128C6.33885 6.48151 6.31218 6.34253 6.3133 6.20239C6.31385 5.92017 6.42577 5.64959 6.62473 5.44944C6.82368 5.24928 7.0936 5.13575 7.3758 5.13351C7.65714 5.13847 7.92548 5.25287 8.12386 5.45244C8.32223 5.652 8.43503 5.92102 8.4383 6.20239C8.43775 6.4846 8.32583 6.75519 8.12688 6.95534C7.92792 7.15549 7.658 7.26902 7.3758 7.27126Z" fill="#EE4248"/>
<path d="M59.7461 16.2852L64.082 2.9375H67.3398L61.1992 20H58.3281L52.2109 2.9375H55.457L59.7461 16.2852ZM72.1273 20H69.2797V7.32031H72.1273V20ZM69.1039 4.02734C69.1039 3.58984 69.2406 3.22656 69.5141 2.9375C69.7953 2.64844 70.1938 2.50391 70.7094 2.50391C71.225 2.50391 71.6234 2.64844 71.9047 2.9375C72.1859 3.22656 72.3266 3.58984 72.3266 4.02734C72.3266 4.45703 72.1859 4.81641 71.9047 5.10547C71.6234 5.38672 71.225 5.52734 70.7094 5.52734C70.1938 5.52734 69.7953 5.38672 69.5141 5.10547C69.2406 4.81641 69.1039 4.45703 69.1039 4.02734ZM82.4461 16.5547C82.4461 16.0469 82.2352 15.6602 81.8133 15.3945C81.3992 15.1289 80.7078 14.8945 79.7391 14.6914C78.7703 14.4883 77.9617 14.2305 77.3133 13.918C75.8914 13.2305 75.1805 12.2344 75.1805 10.9297C75.1805 9.83594 75.6414 8.92188 76.5633 8.1875C77.4852 7.45312 78.657 7.08594 80.0789 7.08594C81.5945 7.08594 82.8172 7.46094 83.7469 8.21094C84.6844 8.96094 85.1531 9.93359 85.1531 11.1289H82.3055C82.3055 10.582 82.1023 10.1289 81.6961 9.76953C81.2898 9.40234 80.7508 9.21875 80.0789 9.21875C79.4539 9.21875 78.9422 9.36328 78.5438 9.65234C78.1531 9.94141 77.9578 10.3281 77.9578 10.8125C77.9578 11.25 78.1414 11.5898 78.5086 11.832C78.8758 12.0742 79.618 12.3203 80.7352 12.5703C81.8523 12.8125 82.7273 13.1055 83.3602 13.4492C84.0008 13.7852 84.4734 14.1914 84.7781 14.668C85.0906 15.1445 85.2469 15.7227 85.2469 16.4023C85.2469 17.543 84.7742 18.4688 83.8289 19.1797C82.8836 19.8828 81.6453 20.2344 80.1141 20.2344C79.075 20.2344 78.1492 20.0469 77.3367 19.6719C76.5242 19.2969 75.8914 18.7812 75.4383 18.125C74.9852 17.4688 74.7586 16.7617 74.7586 16.0039H77.5242C77.5633 16.6758 77.8172 17.1953 78.2859 17.5625C78.7547 17.9219 79.3758 18.1016 80.1492 18.1016C80.8992 18.1016 81.4695 17.9609 81.8602 17.6797C82.2508 17.3906 82.4461 17.0156 82.4461 16.5547ZM90.8664 20H88.0187V7.32031H90.8664V20ZM87.843 4.02734C87.843 3.58984 87.9797 3.22656 88.2531 2.9375C88.5344 2.64844 88.9328 2.50391 89.4484 2.50391C89.9641 2.50391 90.3625 2.64844 90.6437 2.9375C90.925 3.22656 91.0656 3.58984 91.0656 4.02734C91.0656 4.45703 90.925 4.81641 90.6437 5.10547C90.3625 5.38672 89.9641 5.52734 89.4484 5.52734C88.9328 5.52734 88.5344 5.38672 88.2531 5.10547C87.9797 4.81641 87.843 4.45703 87.843 4.02734ZM93.5445 13.543C93.5445 12.3008 93.7906 11.1836 94.2828 10.1914C94.775 9.19141 95.4664 8.42578 96.357 7.89453C97.2477 7.35547 98.2711 7.08594 99.4273 7.08594C101.138 7.08594 102.525 7.63672 103.588 8.73828C104.658 9.83984 105.236 11.3008 105.322 13.1211L105.334 13.7891C105.334 15.0391 105.091 16.1562 104.607 17.1406C104.13 18.125 103.443 18.8867 102.545 19.4258C101.654 19.9648 100.623 20.2344 99.4508 20.2344C97.6617 20.2344 96.2281 19.6406 95.15 18.4531C94.0797 17.2578 93.5445 15.668 93.5445 13.6836V13.543ZM96.3922 13.7891C96.3922 15.0938 96.6617 16.1172 97.2008 16.8594C97.7398 17.5938 98.4898 17.9609 99.4508 17.9609C100.412 17.9609 101.158 17.5859 101.689 16.8359C102.228 16.0859 102.498 14.9883 102.498 13.543C102.498 12.2617 102.22 11.2461 101.666 10.4961C101.119 9.74609 100.373 9.37109 99.4273 9.37109C98.4977 9.37109 97.7594 9.74219 97.2125 10.4844C96.6656 11.2188 96.3922 12.3203 96.3922 13.7891ZM110.484 7.32031L110.566 8.78516C111.504 7.65234 112.734 7.08594 114.258 7.08594C116.898 7.08594 118.242 8.59766 118.289 11.6211V20H115.441V11.7852C115.441 10.9805 115.266 10.3867 114.914 10.0039C114.57 9.61328 114.004 9.41797 113.215 9.41797C112.066 9.41797 111.211 9.9375 110.648 10.9766V20H107.801V7.32031H110.484Z" fill="#263238"/>
<path d="M62.3271 46.5918H58.2139V58H56.5352V46.5918H52.4307V45.2031H62.3271V46.5918ZM62.8611 53.1572C62.8611 52.2256 63.0428 51.3877 63.4061 50.6436C63.7752 49.8994 64.285 49.3252 64.9354 48.9209C65.5916 48.5166 66.3387 48.3145 67.1766 48.3145C68.4715 48.3145 69.5174 48.7627 70.3143 49.6592C71.117 50.5557 71.5184 51.748 71.5184 53.2363V53.3506C71.5184 54.2764 71.3396 55.1084 70.9822 55.8467C70.6307 56.5791 70.1238 57.1504 69.4617 57.5605C68.8055 57.9707 68.0496 58.1758 67.1941 58.1758C65.9051 58.1758 64.8592 57.7275 64.0564 56.8311C63.2596 55.9346 62.8611 54.748 62.8611 53.2715V53.1572ZM64.4959 53.3506C64.4959 54.4053 64.7391 55.252 65.2254 55.8906C65.7176 56.5293 66.3738 56.8486 67.1941 56.8486C68.0203 56.8486 68.6766 56.5264 69.1629 55.8818C69.6492 55.2314 69.8924 54.3232 69.8924 53.1572C69.8924 52.1143 69.6434 51.2705 69.1453 50.626C68.6531 49.9756 67.9969 49.6504 67.1766 49.6504C66.3738 49.6504 65.7264 49.9697 65.2342 50.6084C64.742 51.2471 64.4959 52.1611 64.4959 53.3506ZM86.473 53.3506C86.473 54.8037 86.1391 55.9727 85.4711 56.8574C84.8031 57.7363 83.9066 58.1758 82.7816 58.1758C81.5805 58.1758 80.6518 57.751 79.9955 56.9014L79.9164 58H78.4223V44.5H80.0482V49.5361C80.7045 48.7217 81.6098 48.3145 82.7641 48.3145C83.9184 48.3145 84.8236 48.751 85.4799 49.624C86.142 50.4971 86.473 51.6924 86.473 53.21V53.3506ZM84.8471 53.166C84.8471 52.0586 84.6332 51.2031 84.2055 50.5996C83.7777 49.9961 83.1625 49.6943 82.3598 49.6943C81.2875 49.6943 80.517 50.1924 80.0482 51.1885V55.3018C80.5463 56.2979 81.3227 56.7959 82.3773 56.7959C83.1566 56.7959 83.7631 56.4941 84.1967 55.8906C84.6303 55.2871 84.8471 54.3789 84.8471 53.166ZM92.676 58.1758C91.3869 58.1758 90.3381 57.7539 89.5295 56.9102C88.7209 56.0605 88.3166 54.9268 88.3166 53.5088V53.21C88.3166 52.2666 88.4953 51.4258 88.8527 50.6875C89.216 49.9434 89.7199 49.3633 90.3645 48.9473C91.0148 48.5254 91.718 48.3145 92.4738 48.3145C93.7102 48.3145 94.6711 48.7217 95.3566 49.5361C96.0422 50.3506 96.385 51.5166 96.385 53.0342V53.7109H89.9426C89.966 54.6484 90.2385 55.4072 90.76 55.9873C91.2873 56.5615 91.9553 56.8486 92.7639 56.8486C93.3381 56.8486 93.8244 56.7314 94.2229 56.4971C94.6213 56.2627 94.9699 55.9521 95.2687 55.5654L96.2619 56.3389C95.465 57.5635 94.2697 58.1758 92.676 58.1758ZM92.4738 49.6504C91.8176 49.6504 91.2668 49.8906 90.8215 50.3711C90.3762 50.8457 90.1008 51.5137 89.9953 52.375H94.759V52.252C94.7121 51.4258 94.4895 50.7871 94.091 50.3359C93.6926 49.8789 93.1535 49.6504 92.4738 49.6504ZM102.289 56.8486C102.869 56.8486 103.376 56.6729 103.81 56.3213C104.243 55.9697 104.483 55.5303 104.53 55.0029H106.068C106.039 55.5479 105.852 56.0664 105.506 56.5586C105.16 57.0508 104.697 57.4434 104.117 57.7363C103.543 58.0293 102.934 58.1758 102.289 58.1758C100.994 58.1758 99.9629 57.7451 99.1953 56.8838C98.4336 56.0166 98.0527 54.833 98.0527 53.333V53.0605C98.0527 52.1348 98.2227 51.3115 98.5625 50.5908C98.9023 49.8701 99.3887 49.3105 100.021 48.9121C100.66 48.5137 101.413 48.3145 102.28 48.3145C103.347 48.3145 104.231 48.6338 104.935 49.2725C105.644 49.9111 106.021 50.7402 106.068 51.7598H104.53C104.483 51.1445 104.249 50.6406 103.827 50.248C103.411 49.8496 102.896 49.6504 102.28 49.6504C101.454 49.6504 100.812 49.9492 100.355 50.5469C99.9043 51.1387 99.6787 51.9971 99.6787 53.1221V53.4297C99.6787 54.5254 99.9043 55.3691 100.355 55.9609C100.807 56.5527 101.451 56.8486 102.289 56.8486ZM107.666 53.1572C107.666 52.2256 107.847 51.3877 108.211 50.6436C108.58 49.8994 109.09 49.3252 109.74 48.9209C110.396 48.5166 111.143 48.3145 111.981 48.3145C113.276 48.3145 114.322 48.7627 115.119 49.6592C115.922 50.5557 116.323 51.748 116.323 53.2363V53.3506C116.323 54.2764 116.144 55.1084 115.787 55.8467C115.435 56.5791 114.929 57.1504 114.266 57.5605C113.61 57.9707 112.854 58.1758 111.999 58.1758C110.71 58.1758 109.664 57.7275 108.861 56.8311C108.064 55.9346 107.666 54.748 107.666 53.2715V53.1572ZM109.301 53.3506C109.301 54.4053 109.544 55.252 110.03 55.8906C110.522 56.5293 111.179 56.8486 111.999 56.8486C112.825 56.8486 113.481 56.5264 113.968 55.8818C114.454 55.2314 114.697 54.3232 114.697 53.1572C114.697 52.1143 114.448 51.2705 113.95 50.626C113.458 49.9756 112.802 49.6504 111.981 49.6504C111.179 49.6504 110.531 49.9697 110.039 50.6084C109.547 51.2471 109.301 52.1611 109.301 53.3506ZM120.091 48.4902L120.135 49.5449C120.833 48.7246 121.773 48.3145 122.957 48.3145C124.287 48.3145 125.192 48.8242 125.672 49.8438C125.989 49.3867 126.399 49.0176 126.903 48.7363C127.413 48.4551 128.013 48.3145 128.705 48.3145C130.791 48.3145 131.851 49.4189 131.886 51.6279V58H130.26V51.7246C130.26 51.0449 130.105 50.5381 129.795 50.2041C129.484 49.8643 128.963 49.6943 128.23 49.6943C127.627 49.6943 127.126 49.876 126.727 50.2393C126.329 50.5967 126.097 51.0801 126.033 51.6895V58H124.398V51.7686C124.398 50.3857 123.721 49.6943 122.368 49.6943C121.301 49.6943 120.572 50.1484 120.179 51.0566V58H118.553V48.4902H120.091ZM138.494 58.1758C137.204 58.1758 136.156 57.7539 135.347 56.9102C134.538 56.0605 134.134 54.9268 134.134 53.5088V53.21C134.134 52.2666 134.313 51.4258 134.67 50.6875C135.034 49.9434 135.537 49.3633 136.182 48.9473C136.832 48.5254 137.536 48.3145 138.291 48.3145C139.528 48.3145 140.489 48.7217 141.174 49.5361C141.86 50.3506 142.203 51.5166 142.203 53.0342V53.7109H135.76C135.784 54.6484 136.056 55.4072 136.578 55.9873C137.105 56.5615 137.773 56.8486 138.581 56.8486C139.156 56.8486 139.642 56.7314 140.04 56.4971C140.439 56.2627 140.787 55.9521 141.086 55.5654L142.079 56.3389C141.283 57.5635 140.087 58.1758 138.494 58.1758ZM138.291 49.6504C137.635 49.6504 137.084 49.8906 136.639 50.3711C136.194 50.8457 135.918 51.5137 135.813 52.375H140.577V52.252C140.53 51.4258 140.307 50.7871 139.909 50.3359C139.51 49.8789 138.971 49.6504 138.291 49.6504ZM151.163 46.1875V48.4902H152.938V49.7471H151.163V55.6445C151.163 56.0254 151.242 56.3125 151.4 56.5059C151.559 56.6934 151.828 56.7871 152.209 56.7871C152.396 56.7871 152.654 56.752 152.982 56.6816V58C152.555 58.1172 152.139 58.1758 151.734 58.1758C151.008 58.1758 150.46 57.9561 150.091 57.5166C149.722 57.0771 149.537 56.4531 149.537 55.6445V49.7471H147.806V48.4902H149.537V46.1875H151.163ZM156.672 49.6416C157.392 48.7568 158.33 48.3145 159.484 48.3145C161.494 48.3145 162.508 49.4482 162.525 51.7158V58H160.899V51.707C160.893 51.0215 160.735 50.5146 160.425 50.1865C160.12 49.8584 159.642 49.6943 158.992 49.6943C158.465 49.6943 158.002 49.835 157.603 50.1162C157.205 50.3975 156.894 50.7666 156.672 51.2236V58H155.046V44.5H156.672V49.6416ZM169.106 58.1758C167.817 58.1758 166.768 57.7539 165.96 56.9102C165.151 56.0605 164.747 54.9268 164.747 53.5088V53.21C164.747 52.2666 164.925 51.4258 165.283 50.6875C165.646 49.9434 166.15 49.3633 166.795 48.9473C167.445 48.5254 168.148 48.3145 168.904 48.3145C170.14 48.3145 171.101 48.7217 171.787 49.5361C172.472 50.3506 172.815 51.5166 172.815 53.0342V53.7109H166.373C166.396 54.6484 166.669 55.4072 167.19 55.9873C167.717 56.5615 168.385 56.8486 169.194 56.8486C169.768 56.8486 170.254 56.7314 170.653 56.4971C171.051 56.2627 171.4 55.9521 171.699 55.5654L172.692 56.3389C171.895 57.5635 170.7 58.1758 169.106 58.1758ZM168.904 49.6504C168.248 49.6504 167.697 49.8906 167.252 50.3711C166.806 50.8457 166.531 51.5137 166.425 52.375H171.189V52.252C171.142 51.4258 170.92 50.7871 170.521 50.3359C170.123 49.8789 169.584 49.6504 168.904 49.6504ZM181.336 58H179.71V44.5H181.336V58ZM188.093 58.1758C186.804 58.1758 185.755 57.7539 184.946 56.9102C184.138 56.0605 183.733 54.9268 183.733 53.5088V53.21C183.733 52.2666 183.912 51.4258 184.27 50.6875C184.633 49.9434 185.137 49.3633 185.781 48.9473C186.432 48.5254 187.135 48.3145 187.891 48.3145C189.127 48.3145 190.088 48.7217 190.773 49.5361C191.459 50.3506 191.802 51.5166 191.802 53.0342V53.7109H185.359C185.383 54.6484 185.655 55.4072 186.177 55.9873C186.704 56.5615 187.372 56.8486 188.181 56.8486C188.755 56.8486 189.241 56.7314 189.64 56.4971C190.038 56.2627 190.387 55.9521 190.686 55.5654L191.679 56.3389C190.882 57.5635 189.687 58.1758 188.093 58.1758ZM187.891 49.6504C187.234 49.6504 186.684 49.8906 186.238 50.3711C185.793 50.8457 185.518 51.5137 185.412 52.375H190.176V52.252C190.129 51.4258 189.906 50.7871 189.508 50.3359C189.109 49.8789 188.57 49.6504 187.891 49.6504ZM199.762 58C199.669 57.8125 199.593 57.4785 199.534 56.998C198.778 57.7832 197.876 58.1758 196.827 58.1758C195.889 58.1758 195.119 57.9121 194.515 57.3848C193.918 56.8516 193.619 56.1777 193.619 55.3633C193.619 54.373 193.994 53.6055 194.744 53.0605C195.5 52.5098 196.56 52.2344 197.926 52.2344H199.508V51.4873C199.508 50.9189 199.338 50.4678 198.998 50.1338C198.658 49.7939 198.157 49.624 197.495 49.624C196.915 49.624 196.429 49.7705 196.036 50.0635C195.643 50.3564 195.447 50.7109 195.447 51.127H193.812C193.812 50.6523 193.979 50.1953 194.313 49.7559C194.653 49.3105 195.11 48.959 195.684 48.7012C196.264 48.4434 196.9 48.3145 197.592 48.3145C198.687 48.3145 199.546 48.5898 200.167 49.1406C200.788 49.6855 201.11 50.4385 201.134 51.3994V55.7764C201.134 56.6494 201.245 57.3438 201.468 57.8594V58H199.762ZM197.064 56.7607C197.574 56.7607 198.057 56.6289 198.514 56.3652C198.971 56.1016 199.303 55.7588 199.508 55.3369V53.3857H198.233C196.241 53.3857 195.245 53.9688 195.245 55.1348C195.245 55.6445 195.415 56.043 195.755 56.3301C196.095 56.6172 196.531 56.7607 197.064 56.7607ZM203.487 53.166C203.487 51.707 203.833 50.5352 204.524 49.6504C205.215 48.7598 206.121 48.3145 207.24 48.3145C208.353 48.3145 209.235 48.6953 209.885 49.457V44.5H211.511V58H210.017L209.938 56.9805C209.288 57.7773 208.382 58.1758 207.222 58.1758C206.121 58.1758 205.221 57.7246 204.524 56.8223C203.833 55.9199 203.487 54.7422 203.487 53.2891V53.166ZM205.113 53.3506C205.113 54.4287 205.336 55.2725 205.781 55.8818C206.226 56.4912 206.841 56.7959 207.627 56.7959C208.658 56.7959 209.411 56.333 209.885 55.4072V51.0391C209.399 50.1426 208.652 49.6943 207.644 49.6943C206.847 49.6943 206.226 50.002 205.781 50.6172C205.336 51.2324 205.113 52.1436 205.113 53.3506ZM216.009 58H214.383V48.4902H216.009V58ZM214.251 45.9678C214.251 45.7041 214.33 45.4814 214.489 45.2998C214.653 45.1182 214.893 45.0273 215.209 45.0273C215.526 45.0273 215.766 45.1182 215.93 45.2998C216.094 45.4814 216.176 45.7041 216.176 45.9678C216.176 46.2314 216.094 46.4512 215.93 46.627C215.766 46.8027 215.526 46.8906 215.209 46.8906C214.893 46.8906 214.653 46.8027 214.489 46.627C214.33 46.4512 214.251 46.2314 214.251 45.9678ZM220.358 48.4902L220.41 49.6855C221.137 48.7715 222.086 48.3145 223.258 48.3145C225.268 48.3145 226.281 49.4482 226.299 51.7158V58H224.673V51.707C224.667 51.0215 224.509 50.5146 224.198 50.1865C223.894 49.8584 223.416 49.6943 222.766 49.6943C222.238 49.6943 221.776 49.835 221.377 50.1162C220.979 50.3975 220.668 50.7666 220.446 51.2236V58H218.82V48.4902H220.358ZM228.564 53.166C228.564 51.6836 228.907 50.5059 229.593 49.6328C230.278 48.7539 231.187 48.3145 232.317 48.3145C233.478 48.3145 234.383 48.7246 235.033 49.5449L235.112 48.4902H236.598V57.7715C236.598 59.002 236.231 59.9717 235.499 60.6807C234.772 61.3896 233.794 61.7441 232.563 61.7441C231.878 61.7441 231.207 61.5977 230.551 61.3047C229.895 61.0117 229.394 60.6104 229.048 60.1006L229.892 59.125C230.589 59.9863 231.441 60.417 232.449 60.417C233.24 60.417 233.855 60.1943 234.295 59.749C234.74 59.3037 234.963 58.6768 234.963 57.8682V57.0508C234.312 57.8008 233.425 58.1758 232.3 58.1758C231.187 58.1758 230.284 57.7275 229.593 56.8311C228.907 55.9346 228.564 54.7129 228.564 53.166ZM230.199 53.3506C230.199 54.4229 230.419 55.2666 230.858 55.8818C231.298 56.4912 231.913 56.7959 232.704 56.7959C233.729 56.7959 234.482 56.3301 234.963 55.3984V51.0566C234.465 50.1484 233.718 49.6943 232.722 49.6943C231.931 49.6943 231.312 50.002 230.867 50.6172C230.422 51.2324 230.199 52.1436 230.199 53.3506ZM249.795 58C249.701 57.8125 249.625 57.4785 249.566 56.998C248.81 57.7832 247.908 58.1758 246.859 58.1758C245.921 58.1758 245.151 57.9121 244.547 57.3848C243.95 56.8516 243.651 56.1777 243.651 55.3633C243.651 54.373 244.026 53.6055 244.776 53.0605C245.532 52.5098 246.592 52.2344 247.958 52.2344H249.54V51.4873C249.54 50.9189 249.37 50.4678 249.03 50.1338C248.69 49.7939 248.189 49.624 247.527 49.624C246.947 49.624 246.461 49.7705 246.068 50.0635C245.675 50.3564 245.479 50.7109 245.479 51.127H243.844C243.844 50.6523 244.011 50.1953 244.345 49.7559C244.685 49.3105 245.142 48.959 245.716 48.7012C246.296 48.4434 246.932 48.3145 247.624 48.3145C248.719 48.3145 249.578 48.5898 250.199 49.1406C250.82 49.6855 251.142 50.4385 251.166 51.3994V55.7764C251.166 56.6494 251.277 57.3438 251.5 57.8594V58H249.795ZM247.096 56.7607C247.606 56.7607 248.089 56.6289 248.546 56.3652C249.004 56.1016 249.335 55.7588 249.54 55.3369V53.3857H248.265C246.273 53.3857 245.277 53.9688 245.277 55.1348C245.277 55.6445 245.447 56.043 245.787 56.3301C246.127 56.6172 246.563 56.7607 247.096 56.7607ZM261.948 53.3506C261.948 54.7979 261.617 55.9639 260.954 56.8486C260.292 57.7334 259.396 58.1758 258.265 58.1758C257.111 58.1758 256.203 57.8096 255.54 57.0771V61.6562H253.914V48.4902H255.4L255.479 49.5449C256.141 48.7246 257.061 48.3145 258.239 48.3145C259.381 48.3145 260.284 48.7451 260.946 49.6064C261.614 50.4678 261.948 51.666 261.948 53.2012V53.3506ZM260.322 53.166C260.322 52.0938 260.093 51.2471 259.636 50.626C259.179 50.0049 258.552 49.6943 257.755 49.6943C256.771 49.6943 256.033 50.1309 255.54 51.0039V55.5479C256.027 56.415 256.771 56.8486 257.773 56.8486C258.552 56.8486 259.17 56.541 259.627 55.9258C260.09 55.3047 260.322 54.3848 260.322 53.166ZM272.255 53.3506C272.255 54.7979 271.924 55.9639 271.262 56.8486C270.6 57.7334 269.703 58.1758 268.572 58.1758C267.418 58.1758 266.51 57.8096 265.848 57.0771V61.6562H264.222V48.4902H265.707L265.786 49.5449C266.448 48.7246 267.368 48.3145 268.546 48.3145C269.689 48.3145 270.591 48.7451 271.253 49.6064C271.921 50.4678 272.255 51.666 272.255 53.2012V53.3506ZM270.629 53.166C270.629 52.0938 270.401 51.2471 269.944 50.626C269.487 50.0049 268.86 49.6943 268.063 49.6943C267.078 49.6943 266.34 50.1309 265.848 51.0039V55.5479C266.334 56.415 267.078 56.8486 268.08 56.8486C268.86 56.8486 269.478 56.541 269.935 55.9258C270.398 55.3047 270.629 54.3848 270.629 53.166ZM276.296 58H274.67V44.5H276.296V58ZM280.873 58H279.247V48.4902H280.873V58ZM279.115 45.9678C279.115 45.7041 279.194 45.4814 279.352 45.2998C279.516 45.1182 279.757 45.0273 280.073 45.0273C280.389 45.0273 280.63 45.1182 280.794 45.2998C280.958 45.4814 281.04 45.7041 281.04 45.9678C281.04 46.2314 280.958 46.4512 280.794 46.627C280.63 46.8027 280.389 46.8906 280.073 46.8906C279.757 46.8906 279.516 46.8027 279.352 46.627C279.194 46.4512 279.115 46.2314 279.115 45.9678ZM287.498 56.8486C288.078 56.8486 288.585 56.6729 289.018 56.3213C289.452 55.9697 289.692 55.5303 289.739 55.0029H291.277C291.248 55.5479 291.06 56.0664 290.714 56.5586C290.369 57.0508 289.906 57.4434 289.326 57.7363C288.752 58.0293 288.142 58.1758 287.498 58.1758C286.203 58.1758 285.171 57.7451 284.404 56.8838C283.642 56.0166 283.261 54.833 283.261 53.333V53.0605C283.261 52.1348 283.431 51.3115 283.771 50.5908C284.111 49.8701 284.597 49.3105 285.23 48.9121C285.869 48.5137 286.622 48.3145 287.489 48.3145C288.555 48.3145 289.44 48.6338 290.143 49.2725C290.852 49.9111 291.23 50.7402 291.277 51.7598H289.739C289.692 51.1445 289.458 50.6406 289.036 50.248C288.62 49.8496 288.104 49.6504 287.489 49.6504C286.663 49.6504 286.021 49.9492 285.564 50.5469C285.113 51.1387 284.887 51.9971 284.887 53.1221V53.4297C284.887 54.5254 285.113 55.3691 285.564 55.9609C286.015 56.5527 286.66 56.8486 287.498 56.8486ZM299.176 58C299.082 57.8125 299.006 57.4785 298.948 56.998C298.192 57.7832 297.289 58.1758 296.241 58.1758C295.303 58.1758 294.533 57.9121 293.929 57.3848C293.331 56.8516 293.033 56.1777 293.033 55.3633C293.033 54.373 293.408 53.6055 294.158 53.0605C294.913 52.5098 295.974 52.2344 297.339 52.2344H298.921V51.4873C298.921 50.9189 298.751 50.4678 298.412 50.1338C298.072 49.7939 297.571 49.624 296.909 49.624C296.329 49.624 295.842 49.7705 295.45 50.0635C295.057 50.3564 294.861 50.7109 294.861 51.127H293.226C293.226 50.6523 293.393 50.1953 293.727 49.7559C294.067 49.3105 294.524 48.959 295.098 48.7012C295.678 48.4434 296.314 48.3145 297.005 48.3145C298.101 48.3145 298.959 48.5898 299.58 49.1406C300.202 49.6855 300.524 50.4385 300.547 51.3994V55.7764C300.547 56.6494 300.659 57.3438 300.881 57.8594V58H299.176ZM296.478 56.7607C296.988 56.7607 297.471 56.6289 297.928 56.3652C298.385 56.1016 298.716 55.7588 298.921 55.3369V53.3857H297.647C295.655 53.3857 294.659 53.9688 294.659 55.1348C294.659 55.6445 294.829 56.043 295.168 56.3301C295.508 56.6172 295.945 56.7607 296.478 56.7607ZM305.502 46.1875V48.4902H307.278V49.7471H305.502V55.6445C305.502 56.0254 305.581 56.3125 305.739 56.5059C305.898 56.6934 306.167 56.7871 306.548 56.7871C306.736 56.7871 306.993 56.752 307.321 56.6816V58C306.894 58.1172 306.478 58.1758 306.073 58.1758C305.347 58.1758 304.799 57.9561 304.43 57.5166C304.061 57.0771 303.876 56.4531 303.876 55.6445V49.7471H302.145V48.4902H303.876V46.1875H305.502ZM311.151 58H309.525V48.4902H311.151V58ZM309.394 45.9678C309.394 45.7041 309.473 45.4814 309.631 45.2998C309.795 45.1182 310.035 45.0273 310.352 45.0273C310.668 45.0273 310.908 45.1182 311.072 45.2998C311.236 45.4814 311.318 45.7041 311.318 45.9678C311.318 46.2314 311.236 46.4512 311.072 46.627C310.908 46.8027 310.668 46.8906 310.352 46.8906C310.035 46.8906 309.795 46.8027 309.631 46.627C309.473 46.4512 309.394 46.2314 309.394 45.9678ZM313.531 53.1572C313.531 52.2256 313.713 51.3877 314.076 50.6436C314.445 49.8994 314.955 49.3252 315.605 48.9209C316.262 48.5166 317.009 48.3145 317.846 48.3145C319.141 48.3145 320.187 48.7627 320.984 49.6592C321.787 50.5557 322.188 51.748 322.188 53.2363V53.3506C322.188 54.2764 322.01 55.1084 321.652 55.8467C321.301 56.5791 320.794 57.1504 320.132 57.5605C319.475 57.9707 318.72 58.1758 317.864 58.1758C316.575 58.1758 315.529 57.7275 314.726 56.8311C313.93 55.9346 313.531 54.748 313.531 53.2715V53.1572ZM315.166 53.3506C315.166 54.4053 315.409 55.252 315.895 55.8906C316.388 56.5293 317.044 56.8486 317.864 56.8486C318.69 56.8486 319.346 56.5264 319.833 55.8818C320.319 55.2314 320.562 54.3232 320.562 53.1572C320.562 52.1143 320.313 51.2705 319.815 50.626C319.323 49.9756 318.667 49.6504 317.846 49.6504C317.044 49.6504 316.396 49.9697 315.904 50.6084C315.412 51.2471 315.166 52.1611 315.166 53.3506ZM325.965 48.4902L326.018 49.6855C326.745 48.7715 327.694 48.3145 328.866 48.3145C330.876 48.3145 331.889 49.4482 331.907 51.7158V58H330.281V51.707C330.275 51.0215 330.117 50.5146 329.806 50.1865C329.502 49.8584 329.024 49.6943 328.374 49.6943C327.846 49.6943 327.383 49.835 326.985 50.1162C326.587 50.3975 326.276 50.7666 326.053 51.2236V58H324.427V48.4902H325.965ZM344.761 55.4775C344.761 55.0381 344.594 54.6982 344.26 54.458C343.932 54.2119 343.355 54.001 342.529 53.8252C341.708 53.6494 341.055 53.4385 340.569 53.1924C340.088 52.9463 339.731 52.6533 339.496 52.3135C339.268 51.9736 339.154 51.5693 339.154 51.1006C339.154 50.3213 339.482 49.6621 340.138 49.123C340.8 48.584 341.644 48.3145 342.669 48.3145C343.747 48.3145 344.62 48.5928 345.288 49.1494C345.962 49.7061 346.299 50.418 346.299 51.2852H344.664C344.664 50.8398 344.474 50.4561 344.093 50.1338C343.718 49.8115 343.243 49.6504 342.669 49.6504C342.077 49.6504 341.614 49.7793 341.28 50.0371C340.946 50.2949 340.779 50.6318 340.779 51.0479C340.779 51.4404 340.935 51.7363 341.245 51.9355C341.556 52.1348 342.115 52.3252 342.924 52.5068C343.738 52.6885 344.398 52.9053 344.902 53.1572C345.405 53.4092 345.778 53.7139 346.018 54.0713C346.264 54.4229 346.387 54.8535 346.387 55.3633C346.387 56.2129 346.047 56.8955 345.367 57.4111C344.688 57.9209 343.806 58.1758 342.722 58.1758C341.96 58.1758 341.286 58.041 340.7 57.7715C340.114 57.502 339.654 57.127 339.32 56.6465C338.992 56.1602 338.828 55.6357 338.828 55.0732H340.454C340.484 55.6182 340.7 56.0518 341.105 56.374C341.515 56.6904 342.054 56.8486 342.722 56.8486C343.337 56.8486 343.829 56.7256 344.198 56.4795C344.573 56.2275 344.761 55.8936 344.761 55.4775ZM352.651 58.1758C351.362 58.1758 350.313 57.7539 349.505 56.9102C348.696 56.0605 348.292 54.9268 348.292 53.5088V53.21C348.292 52.2666 348.471 51.4258 348.828 50.6875C349.191 49.9434 349.695 49.3633 350.34 48.9473C350.99 48.5254 351.693 48.3145 352.449 48.3145C353.686 48.3145 354.646 48.7217 355.332 49.5361C356.018 50.3506 356.36 51.5166 356.36 53.0342V53.7109H349.918C349.941 54.6484 350.214 55.4072 350.735 55.9873C351.263 56.5615 351.931 56.8486 352.739 56.8486C353.313 56.8486 353.8 56.7314 354.198 56.4971C354.597 56.2627 354.945 55.9521 355.244 55.5654L356.237 56.3389C355.44 57.5635 354.245 58.1758 352.651 58.1758ZM352.449 49.6504C351.793 49.6504 351.242 49.8906 350.797 50.3711C350.352 50.8457 350.076 51.5137 349.971 52.375H354.734V52.252C354.688 51.4258 354.465 50.7871 354.066 50.3359C353.668 49.8789 353.129 49.6504 352.449 49.6504ZM363.047 49.9492C362.801 49.9082 362.534 49.8877 362.247 49.8877C361.18 49.8877 360.457 50.3418 360.076 51.25V58H358.45V48.4902H360.032L360.058 49.5889C360.592 48.7393 361.347 48.3145 362.326 48.3145C362.642 48.3145 362.883 48.3555 363.047 48.4375V49.9492ZM368.046 55.7939L370.401 48.4902H372.062L368.652 58H367.413L363.967 48.4902H365.629L368.046 55.7939ZM375.593 58H373.967V48.4902H375.593V58ZM373.835 45.9678C373.835 45.7041 373.914 45.4814 374.073 45.2998C374.237 45.1182 374.477 45.0273 374.793 45.0273C375.11 45.0273 375.35 45.1182 375.514 45.2998C375.678 45.4814 375.76 45.7041 375.76 45.9678C375.76 46.2314 375.678 46.4512 375.514 46.627C375.35 46.8027 375.11 46.8906 374.793 46.8906C374.477 46.8906 374.237 46.8027 374.073 46.627C373.914 46.4512 373.835 46.2314 373.835 45.9678ZM382.218 56.8486C382.798 56.8486 383.305 56.6729 383.738 56.3213C384.172 55.9697 384.412 55.5303 384.459 55.0029H385.997C385.968 55.5479 385.78 56.0664 385.435 56.5586C385.089 57.0508 384.626 57.4434 384.046 57.7363C383.472 58.0293 382.862 58.1758 382.218 58.1758C380.923 58.1758 379.892 57.7451 379.124 56.8838C378.362 56.0166 377.982 54.833 377.982 53.333V53.0605C377.982 52.1348 378.152 51.3115 378.491 50.5908C378.831 49.8701 379.318 49.3105 379.95 48.9121C380.589 48.5137 381.342 48.3145 382.209 48.3145C383.276 48.3145 384.16 48.6338 384.863 49.2725C385.572 49.9111 385.95 50.7402 385.997 51.7598H384.459C384.412 51.1445 384.178 50.6406 383.756 50.248C383.34 49.8496 382.824 49.6504 382.209 49.6504C381.383 49.6504 380.741 49.9492 380.284 50.5469C379.833 51.1387 379.608 51.9971 379.608 53.1221V53.4297C379.608 54.5254 379.833 55.3691 380.284 55.9609C380.736 56.5527 381.38 56.8486 382.218 56.8486ZM391.972 58.1758C390.683 58.1758 389.634 57.7539 388.825 56.9102C388.017 56.0605 387.612 54.9268 387.612 53.5088V53.21C387.612 52.2666 387.791 51.4258 388.148 50.6875C388.512 49.9434 389.016 49.3633 389.66 48.9473C390.311 48.5254 391.014 48.3145 391.77 48.3145C393.006 48.3145 393.967 48.7217 394.652 49.5361C395.338 50.3506 395.681 51.5166 395.681 53.0342V53.7109H389.238C389.262 54.6484 389.534 55.4072 390.056 55.9873C390.583 56.5615 391.251 56.8486 392.06 56.8486C392.634 56.8486 393.12 56.7314 393.519 56.4971C393.917 56.2627 394.266 55.9521 394.564 55.5654L395.558 56.3389C394.761 57.5635 393.565 58.1758 391.972 58.1758ZM391.77 49.6504C391.113 49.6504 390.562 49.8906 390.117 50.3711C389.672 50.8457 389.396 51.5137 389.291 52.375H394.055V52.252C394.008 51.4258 393.785 50.7871 393.387 50.3359C392.988 49.8789 392.449 49.6504 391.77 49.6504ZM410.468 53.3506C410.468 54.7979 410.137 55.9639 409.475 56.8486C408.813 57.7334 407.917 58.1758 406.786 58.1758C405.631 58.1758 404.723 57.8096 404.061 57.0771V61.6562H402.435V48.4902H403.921L404 49.5449C404.662 48.7246 405.582 48.3145 406.759 48.3145C407.902 48.3145 408.804 48.7451 409.466 49.6064C410.134 50.4678 410.468 51.666 410.468 53.2012V53.3506ZM408.842 53.166C408.842 52.0938 408.614 51.2471 408.157 50.626C407.7 50.0049 407.073 49.6943 406.276 49.6943C405.292 49.6943 404.553 50.1309 404.061 51.0039V55.5479C404.547 56.415 405.292 56.8486 406.294 56.8486C407.073 56.8486 407.691 56.541 408.148 55.9258C408.611 55.3047 408.842 54.3848 408.842 53.166ZM417.339 49.9492C417.093 49.9082 416.827 49.8877 416.539 49.8877C415.473 49.8877 414.749 50.3418 414.369 51.25V58H412.743V48.4902H414.325L414.351 49.5889C414.884 48.7393 415.64 48.3145 416.619 48.3145C416.935 48.3145 417.175 48.3555 417.339 48.4375V49.9492ZM418.436 53.1572C418.436 52.2256 418.617 51.3877 418.981 50.6436C419.35 49.8994 419.86 49.3252 420.51 48.9209C421.166 48.5166 421.913 48.3145 422.751 48.3145C424.046 48.3145 425.092 48.7627 425.889 49.6592C426.692 50.5557 427.093 51.748 427.093 53.2363V53.3506C427.093 54.2764 426.914 55.1084 426.557 55.8467C426.205 56.5791 425.698 57.1504 425.036 57.5605C424.38 57.9707 423.624 58.1758 422.769 58.1758C421.48 58.1758 420.434 57.7275 419.631 56.8311C418.834 55.9346 418.436 54.748 418.436 53.2715V53.1572ZM420.07 53.3506C420.07 54.4053 420.314 55.252 420.8 55.8906C421.292 56.5293 421.948 56.8486 422.769 56.8486C423.595 56.8486 424.251 56.5264 424.737 55.8818C425.224 55.2314 425.467 54.3232 425.467 53.1572C425.467 52.1143 425.218 51.2705 424.72 50.626C424.228 49.9756 423.571 49.6504 422.751 49.6504C421.948 49.6504 421.301 49.9697 420.809 50.6084C420.317 51.2471 420.07 52.1611 420.07 53.3506ZM432.329 55.7939L434.685 48.4902H436.346L432.936 58H431.696L428.251 48.4902H429.912L432.329 55.7939ZM439.877 58H438.251V48.4902H439.877V58ZM438.119 45.9678C438.119 45.7041 438.198 45.4814 438.356 45.2998C438.52 45.1182 438.761 45.0273 439.077 45.0273C439.393 45.0273 439.634 45.1182 439.798 45.2998C439.962 45.4814 440.044 45.7041 440.044 45.9678C440.044 46.2314 439.962 46.4512 439.798 46.627C439.634 46.8027 439.393 46.8906 439.077 46.8906C438.761 46.8906 438.52 46.8027 438.356 46.627C438.198 46.4512 438.119 46.2314 438.119 45.9678ZM442.292 53.166C442.292 51.707 442.637 50.5352 443.329 49.6504C444.02 48.7598 444.925 48.3145 446.045 48.3145C447.158 48.3145 448.04 48.6953 448.69 49.457V44.5H450.316V58H448.822L448.743 56.9805C448.092 57.7773 447.187 58.1758 446.027 58.1758C444.925 58.1758 444.026 57.7246 443.329 56.8223C442.637 55.9199 442.292 54.7422 442.292 53.2891V53.166ZM443.918 53.3506C443.918 54.4287 444.14 55.2725 444.586 55.8818C445.031 56.4912 445.646 56.7959 446.431 56.7959C447.462 56.7959 448.215 56.333 448.69 55.4072V51.0391C448.204 50.1426 447.457 49.6943 446.449 49.6943C445.652 49.6943 445.031 50.002 444.586 50.6172C444.14 51.2324 443.918 52.1436 443.918 53.3506ZM456.994 58.1758C455.704 58.1758 454.656 57.7539 453.847 56.9102C453.038 56.0605 452.634 54.9268 452.634 53.5088V53.21C452.634 52.2666 452.813 51.4258 453.17 50.6875C453.534 49.9434 454.038 49.3633 454.682 48.9473C455.332 48.5254 456.036 48.3145 456.791 48.3145C458.028 48.3145 458.989 48.7217 459.674 49.5361C460.36 50.3506 460.703 51.5166 460.703 53.0342V53.7109H454.26C454.284 54.6484 454.556 55.4072 455.078 55.9873C455.605 56.5615 456.273 56.8486 457.081 56.8486C457.656 56.8486 458.142 56.7314 458.54 56.4971C458.939 56.2627 459.288 55.9521 459.586 55.5654L460.579 56.3389C459.783 57.5635 458.587 58.1758 456.994 58.1758ZM456.791 49.6504C456.135 49.6504 455.584 49.8906 455.139 50.3711C454.694 50.8457 454.418 51.5137 454.313 52.375H459.077V52.252C459.03 51.4258 458.807 50.7871 458.409 50.3359C458.01 49.8789 457.471 49.6504 456.791 49.6504ZM467.389 49.9492C467.143 49.9082 466.876 49.8877 466.589 49.8877C465.523 49.8877 464.799 50.3418 464.418 51.25V58H462.792V48.4902H464.374L464.401 49.5889C464.934 48.7393 465.69 48.3145 466.668 48.3145C466.985 48.3145 467.225 48.3555 467.389 48.4375V49.9492ZM53.1689 76.8057C53.1689 75.4814 53.3447 74.21 53.6963 72.9912C54.0537 71.7725 54.584 70.665 55.2871 69.6689C55.9902 68.6729 56.7197 67.9697 57.4756 67.5596L57.8096 68.6318C56.9541 69.2881 56.251 70.29 55.7002 71.6377C55.1553 72.9854 54.8564 74.4941 54.8037 76.1641L54.7949 76.9111C54.7949 79.1729 55.208 81.1357 56.0342 82.7998C56.5322 83.7959 57.124 84.5752 57.8096 85.1377L57.4756 86.1309C56.6963 85.6973 55.9521 84.9707 55.2432 83.9512C53.8604 81.959 53.1689 79.5771 53.1689 76.8057ZM66.9041 78.6602H61.5428L60.3387 82H58.5984L63.4852 69.2031H64.9617L69.8572 82H68.1258L66.9041 78.6602ZM62.0525 77.2715H66.4031L64.2234 71.2861L62.0525 77.2715ZM75.5504 76.2959C74.1031 75.8799 73.0484 75.3701 72.3863 74.7666C71.7301 74.1572 71.402 73.4072 71.402 72.5166C71.402 71.5088 71.8033 70.6768 72.6061 70.0205C73.4146 69.3584 74.4635 69.0273 75.7525 69.0273C76.6314 69.0273 77.4137 69.1973 78.0992 69.5371C78.7906 69.877 79.3238 70.3457 79.6988 70.9434C80.0797 71.541 80.2701 72.1943 80.2701 72.9033H78.5738C78.5738 72.1299 78.3277 71.5234 77.8355 71.084C77.3434 70.6387 76.649 70.416 75.7525 70.416C74.9205 70.416 74.2701 70.6006 73.8014 70.9697C73.3385 71.333 73.107 71.8398 73.107 72.4902C73.107 73.0117 73.3268 73.4541 73.7662 73.8174C74.2115 74.1748 74.9645 74.5029 76.025 74.8018C77.0914 75.1006 77.9234 75.4316 78.5211 75.7949C79.1246 76.1523 79.5699 76.5713 79.857 77.0518C80.15 77.5322 80.2965 78.0977 80.2965 78.748C80.2965 79.7852 79.8922 80.6172 79.0836 81.2441C78.275 81.8652 77.1939 82.1758 75.8404 82.1758C74.9615 82.1758 74.1412 82.0088 73.3795 81.6748C72.6178 81.335 72.0289 80.8721 71.6129 80.2861C71.2027 79.7002 70.9977 79.0352 70.9977 78.291H72.6939C72.6939 79.0645 72.9781 79.6768 73.5465 80.1279C74.1207 80.5732 74.8854 80.7959 75.8404 80.7959C76.7311 80.7959 77.4137 80.6143 77.8883 80.251C78.3629 79.8877 78.6002 79.3926 78.6002 78.7656C78.6002 78.1387 78.3805 77.6553 77.941 77.3154C77.5016 76.9697 76.7047 76.6299 75.5504 76.2959ZM84.3549 76.9902V82H82.6674V69.2031H87.3871C88.7875 69.2031 89.8832 69.5605 90.6742 70.2754C91.4711 70.9902 91.8695 71.9365 91.8695 73.1143C91.8695 74.3564 91.4799 75.3145 90.7006 75.9883C89.9271 76.6562 88.8168 76.9902 87.3695 76.9902H84.3549ZM84.3549 75.6104H87.3871C88.2895 75.6104 88.9809 75.3994 89.4613 74.9775C89.9418 74.5498 90.182 73.9346 90.182 73.1318C90.182 72.3701 89.9418 71.7607 89.4613 71.3037C88.9809 70.8467 88.3217 70.6094 87.4838 70.5918H84.3549V75.6104ZM97.7209 76.8936C97.7209 78.2002 97.548 79.4541 97.2023 80.6553C96.8625 81.8506 96.3381 82.9551 95.6291 83.9688C94.926 84.9824 94.1877 85.7031 93.4143 86.1309L93.0715 85.1377C93.9738 84.4463 94.6975 83.374 95.2424 81.9209C95.7932 80.4619 96.0744 78.8447 96.0861 77.0693V76.7881C96.0861 75.5576 95.9572 74.415 95.6994 73.3604C95.4416 72.2998 95.0812 71.3506 94.6184 70.5127C94.1613 69.6748 93.6457 69.0215 93.0715 68.5527L93.4143 67.5596C94.1877 67.9873 94.923 68.7021 95.6203 69.7041C96.3234 70.7061 96.8479 71.8105 97.1936 73.0176C97.5451 74.2246 97.7209 75.5166 97.7209 76.8936ZM105.89 82V73.7471H104.388V72.4902H105.89V71.5146C105.89 70.4951 106.163 69.707 106.708 69.1504C107.253 68.5938 108.023 68.3154 109.019 68.3154C109.394 68.3154 109.766 68.3652 110.136 68.4648L110.048 69.7832C109.772 69.7305 109.479 69.7041 109.169 69.7041C108.641 69.7041 108.234 69.8594 107.947 70.1699C107.66 70.4746 107.516 70.9141 107.516 71.4883V72.4902H109.547V73.7471H107.516V82H105.89ZM111.118 77.1572C111.118 76.2256 111.299 75.3877 111.663 74.6436C112.032 73.8994 112.542 73.3252 113.192 72.9209C113.848 72.5166 114.595 72.3145 115.433 72.3145C116.728 72.3145 117.774 72.7627 118.571 73.6592C119.374 74.5557 119.775 75.748 119.775 77.2363V77.3506C119.775 78.2764 119.596 79.1084 119.239 79.8467C118.887 80.5791 118.38 81.1504 117.718 81.5605C117.062 81.9707 116.306 82.1758 115.451 82.1758C114.162 82.1758 113.116 81.7275 112.313 80.8311C111.516 79.9346 111.118 78.748 111.118 77.2715V77.1572ZM112.753 77.3506C112.753 78.4053 112.996 79.252 113.482 79.8906C113.974 80.5293 114.63 80.8486 115.451 80.8486C116.277 80.8486 116.933 80.5264 117.42 79.8818C117.906 79.2314 118.149 78.3232 118.149 77.1572C118.149 76.1143 117.9 75.2705 117.402 74.626C116.91 73.9756 116.254 73.6504 115.433 73.6504C114.63 73.6504 113.983 73.9697 113.491 74.6084C112.999 75.2471 112.753 76.1611 112.753 77.3506ZM125.829 80.8486C126.409 80.8486 126.915 80.6729 127.349 80.3213C127.783 79.9697 128.023 79.5303 128.07 79.0029H129.608C129.579 79.5479 129.391 80.0664 129.045 80.5586C128.7 81.0508 128.237 81.4434 127.657 81.7363C127.082 82.0293 126.473 82.1758 125.829 82.1758C124.534 82.1758 123.502 81.7451 122.735 80.8838C121.973 80.0166 121.592 78.833 121.592 77.333V77.0605C121.592 76.1348 121.762 75.3115 122.102 74.5908C122.442 73.8701 122.928 73.3105 123.561 72.9121C124.2 72.5137 124.953 72.3145 125.82 72.3145C126.886 72.3145 127.771 72.6338 128.474 73.2725C129.183 73.9111 129.561 74.7402 129.608 75.7598H128.07C128.023 75.1445 127.788 74.6406 127.367 74.248C126.951 73.8496 126.435 73.6504 125.82 73.6504C124.994 73.6504 124.352 73.9492 123.895 74.5469C123.444 75.1387 123.218 75.9971 123.218 77.1221V77.4297C123.218 78.5254 123.444 79.3691 123.895 79.9609C124.346 80.5527 124.991 80.8486 125.829 80.8486ZM137.507 81.0596C136.874 81.8037 135.946 82.1758 134.721 82.1758C133.707 82.1758 132.934 81.8828 132.401 81.2969C131.873 80.7051 131.607 79.832 131.601 78.6777V72.4902H133.227V78.6338C133.227 80.0752 133.813 80.7959 134.985 80.7959C136.227 80.7959 137.053 80.333 137.463 79.4072V72.4902H139.089V82H137.542L137.507 81.0596ZM147.305 79.4775C147.305 79.0381 147.138 78.6982 146.804 78.458C146.476 78.2119 145.898 78.001 145.072 77.8252C144.252 77.6494 143.599 77.4385 143.112 77.1924C142.632 76.9463 142.274 76.6533 142.04 76.3135C141.812 75.9736 141.697 75.5693 141.697 75.1006C141.697 74.3213 142.025 73.6621 142.682 73.123C143.344 72.584 144.188 72.3145 145.213 72.3145C146.291 72.3145 147.164 72.5928 147.832 73.1494C148.506 73.7061 148.843 74.418 148.843 75.2852H147.208C147.208 74.8398 147.018 74.4561 146.637 74.1338C146.262 73.8115 145.787 73.6504 145.213 73.6504C144.621 73.6504 144.158 73.7793 143.824 74.0371C143.49 74.2949 143.323 74.6318 143.323 75.0479C143.323 75.4404 143.479 75.7363 143.789 75.9355C144.1 76.1348 144.659 76.3252 145.468 76.5068C146.282 76.6885 146.941 76.9053 147.445 77.1572C147.949 77.4092 148.321 77.7139 148.562 78.0713C148.808 78.4229 148.931 78.8535 148.931 79.3633C148.931 80.2129 148.591 80.8955 147.911 81.4111C147.231 81.9209 146.35 82.1758 145.266 82.1758C144.504 82.1758 143.83 82.041 143.244 81.7715C142.658 81.502 142.198 81.127 141.864 80.6465C141.536 80.1602 141.372 79.6357 141.372 79.0732H142.998C143.027 79.6182 143.244 80.0518 143.648 80.374C144.059 80.6904 144.598 80.8486 145.266 80.8486C145.881 80.8486 146.373 80.7256 146.742 80.4795C147.117 80.2275 147.305 79.8936 147.305 79.4775ZM153.015 82H151.389V72.4902H153.015V82ZM151.258 69.9678C151.258 69.7041 151.337 69.4814 151.495 69.2998C151.659 69.1182 151.899 69.0273 152.216 69.0273C152.532 69.0273 152.772 69.1182 152.936 69.2998C153.1 69.4814 153.182 69.7041 153.182 69.9678C153.182 70.2314 153.1 70.4512 152.936 70.627C152.772 70.8027 152.532 70.8906 152.216 70.8906C151.899 70.8906 151.659 70.8027 151.495 70.627C151.337 70.4512 151.258 70.2314 151.258 69.9678ZM157.364 72.4902L157.417 73.6855C158.143 72.7715 159.092 72.3145 160.264 72.3145C162.274 72.3145 163.288 73.4482 163.305 75.7158V82H161.679V75.707C161.673 75.0215 161.515 74.5146 161.205 74.1865C160.9 73.8584 160.422 73.6943 159.772 73.6943C159.245 73.6943 158.782 73.835 158.383 74.1162C157.985 74.3975 157.674 74.7666 157.452 75.2236V82H155.826V72.4902H157.364ZM165.571 77.166C165.571 75.6836 165.913 74.5059 166.599 73.6328C167.285 72.7539 168.193 72.3145 169.324 72.3145C170.484 72.3145 171.389 72.7246 172.039 73.5449L172.119 72.4902H173.604V81.7715C173.604 83.002 173.238 83.9717 172.505 84.6807C171.779 85.3896 170.8 85.7441 169.57 85.7441C168.884 85.7441 168.213 85.5977 167.557 85.3047C166.901 85.0117 166.4 84.6104 166.054 84.1006L166.898 83.125C167.595 83.9863 168.448 84.417 169.455 84.417C170.246 84.417 170.862 84.1943 171.301 83.749C171.746 83.3037 171.969 82.6768 171.969 81.8682V81.0508C171.319 81.8008 170.431 82.1758 169.306 82.1758C168.193 82.1758 167.29 81.7275 166.599 80.8311C165.913 79.9346 165.571 78.7129 165.571 77.166ZM167.205 77.3506C167.205 78.4229 167.425 79.2666 167.865 79.8818C168.304 80.4912 168.919 80.7959 169.71 80.7959C170.736 80.7959 171.489 80.3301 171.969 79.3984V75.0566C171.471 74.1484 170.724 73.6943 169.728 73.6943C168.937 73.6943 168.319 74.002 167.873 74.6172C167.428 75.2324 167.205 76.1436 167.205 77.3506ZM180.499 77.1572C180.499 76.2256 180.681 75.3877 181.044 74.6436C181.413 73.8994 181.923 73.3252 182.573 72.9209C183.229 72.5166 183.977 72.3145 184.814 72.3145C186.109 72.3145 187.155 72.7627 187.952 73.6592C188.755 74.5557 189.156 75.748 189.156 77.2363V77.3506C189.156 78.2764 188.978 79.1084 188.62 79.8467C188.269 80.5791 187.762 81.1504 187.1 81.5605C186.443 81.9707 185.688 82.1758 184.832 82.1758C183.543 82.1758 182.497 81.7275 181.694 80.8311C180.897 79.9346 180.499 78.748 180.499 77.2715V77.1572ZM182.134 77.3506C182.134 78.4053 182.377 79.252 182.863 79.8906C183.355 80.5293 184.012 80.8486 184.832 80.8486C185.658 80.8486 186.314 80.5264 186.801 79.8818C187.287 79.2314 187.53 78.3232 187.53 77.1572C187.53 76.1143 187.281 75.2705 186.783 74.626C186.291 73.9756 185.635 73.6504 184.814 73.6504C184.012 73.6504 183.364 73.9697 182.872 74.6084C182.38 75.2471 182.134 76.1611 182.134 77.3506ZM192.933 72.4902L192.986 73.6855C193.713 72.7715 194.662 72.3145 195.834 72.3145C197.844 72.3145 198.857 73.4482 198.875 75.7158V82H197.249V75.707C197.243 75.0215 197.085 74.5146 196.774 74.1865C196.47 73.8584 195.992 73.6943 195.342 73.6943C194.814 73.6943 194.351 73.835 193.953 74.1162C193.554 74.3975 193.244 74.7666 193.021 75.2236V82H191.395V72.4902H192.933ZM206.992 82V73.7471H205.489V72.4902H206.992V71.5146C206.992 70.4951 207.264 69.707 207.809 69.1504C208.354 68.5938 209.124 68.3154 210.121 68.3154C210.496 68.3154 210.868 68.3652 211.237 68.4648L211.149 69.7832C210.873 69.7305 210.58 69.7041 210.27 69.7041C209.743 69.7041 209.335 69.8594 209.048 70.1699C208.761 70.4746 208.618 70.9141 208.618 71.4883V72.4902H210.648V73.7471H208.618V82H206.992ZM217.246 73.9492C217 73.9082 216.734 73.8877 216.446 73.8877C215.38 73.8877 214.656 74.3418 214.276 75.25V82H212.65V72.4902H214.232L214.258 73.5889C214.791 72.7393 215.547 72.3145 216.526 72.3145C216.842 72.3145 217.082 72.3555 217.246 72.4375V73.9492ZM218.343 77.1572C218.343 76.2256 218.524 75.3877 218.888 74.6436C219.257 73.8994 219.767 73.3252 220.417 72.9209C221.073 72.5166 221.82 72.3145 222.658 72.3145C223.953 72.3145 224.999 72.7627 225.796 73.6592C226.599 74.5557 227 75.748 227 77.2363V77.3506C227 78.2764 226.821 79.1084 226.464 79.8467C226.112 80.5791 225.605 81.1504 224.943 81.5605C224.287 81.9707 223.531 82.1758 222.676 82.1758C221.387 82.1758 220.341 81.7275 219.538 80.8311C218.741 79.9346 218.343 78.748 218.343 77.2715V77.1572ZM219.978 77.3506C219.978 78.4053 220.221 79.252 220.707 79.8906C221.199 80.5293 221.855 80.8486 222.676 80.8486C223.502 80.8486 224.158 80.5264 224.645 79.8818C225.131 79.2314 225.374 78.3232 225.374 77.1572C225.374 76.1143 225.125 75.2705 224.627 74.626C224.135 73.9756 223.479 73.6504 222.658 73.6504C221.855 73.6504 221.208 73.9697 220.716 74.6084C220.224 75.2471 219.978 76.1611 219.978 77.3506ZM230.777 72.4902L230.83 73.6855C231.556 72.7715 232.506 72.3145 233.678 72.3145C235.687 72.3145 236.701 73.4482 236.719 75.7158V82H235.093V75.707C235.087 75.0215 234.929 74.5146 234.618 74.1865C234.313 73.8584 233.836 73.6943 233.185 73.6943C232.658 73.6943 232.195 73.835 231.797 74.1162C231.398 74.3975 231.088 74.7666 230.865 75.2236V82H229.239V72.4902H230.777ZM241.577 70.1875V72.4902H243.352V73.7471H241.577V79.6445C241.577 80.0254 241.656 80.3125 241.814 80.5059C241.972 80.6934 242.242 80.7871 242.623 80.7871C242.81 80.7871 243.068 80.752 243.396 80.6816V82C242.968 82.1172 242.552 82.1758 242.148 82.1758C241.421 82.1758 240.874 81.9561 240.504 81.5166C240.135 81.0771 239.951 80.4531 239.951 79.6445V73.7471H238.219V72.4902H239.951V70.1875H241.577ZM248.843 77.2275H244.554V75.9004H248.843V77.2275ZM254.58 82.1758C253.291 82.1758 252.242 81.7539 251.434 80.9102C250.625 80.0605 250.221 78.9268 250.221 77.5088V77.21C250.221 76.2666 250.4 75.4258 250.757 74.6875C251.12 73.9434 251.624 73.3633 252.269 72.9473C252.919 72.5254 253.622 72.3145 254.378 72.3145C255.614 72.3145 256.575 72.7217 257.261 73.5361C257.946 74.3506 258.289 75.5166 258.289 77.0342V77.7109H251.847C251.87 78.6484 252.143 79.4072 252.664 79.9873C253.192 80.5615 253.86 80.8486 254.668 80.8486C255.242 80.8486 255.729 80.7314 256.127 80.4971C256.526 80.2627 256.874 79.9521 257.173 79.5654L258.166 80.3389C257.369 81.5635 256.174 82.1758 254.58 82.1758ZM254.378 73.6504C253.722 73.6504 253.171 73.8906 252.726 74.3711C252.28 74.8457 252.005 75.5137 251.9 76.375H256.663V76.252C256.616 75.4258 256.394 74.7871 255.995 74.3359C255.597 73.8789 255.058 73.6504 254.378 73.6504ZM261.917 72.4902L261.97 73.6855C262.696 72.7715 263.646 72.3145 264.817 72.3145C266.827 72.3145 267.841 73.4482 267.858 75.7158V82H266.232V75.707C266.227 75.0215 266.068 74.5146 265.758 74.1865C265.453 73.8584 264.976 73.6943 264.325 73.6943C263.798 73.6943 263.335 73.835 262.937 74.1162C262.538 74.3975 262.228 74.7666 262.005 75.2236V82H260.379V72.4902H261.917ZM270.115 77.166C270.115 75.707 270.461 74.5352 271.152 73.6504C271.844 72.7598 272.749 72.3145 273.868 72.3145C274.981 72.3145 275.863 72.6953 276.513 73.457V68.5H278.139V82H276.645L276.566 80.9805C275.916 81.7773 275.011 82.1758 273.85 82.1758C272.749 82.1758 271.849 81.7246 271.152 80.8223C270.461 79.9199 270.115 78.7422 270.115 77.2891V77.166ZM271.741 77.3506C271.741 78.4287 271.964 79.2725 272.409 79.8818C272.854 80.4912 273.47 80.7959 274.255 80.7959C275.286 80.7959 276.039 80.333 276.513 79.4072V75.0391C276.027 74.1426 275.28 73.6943 274.272 73.6943C273.475 73.6943 272.854 74.002 272.409 74.6172C271.964 75.2324 271.741 76.1436 271.741 77.3506ZM291.407 82C291.313 81.8125 291.237 81.4785 291.178 80.998C290.422 81.7832 289.52 82.1758 288.471 82.1758C287.534 82.1758 286.763 81.9121 286.16 81.3848C285.562 80.8516 285.263 80.1777 285.263 79.3633C285.263 78.373 285.638 77.6055 286.388 77.0605C287.144 76.5098 288.204 76.2344 289.57 76.2344H291.152V75.4873C291.152 74.9189 290.982 74.4678 290.642 74.1338C290.302 73.7939 289.801 73.624 289.139 73.624C288.559 73.624 288.073 73.7705 287.68 74.0635C287.288 74.3564 287.091 74.7109 287.091 75.127H285.456C285.456 74.6523 285.623 74.1953 285.957 73.7559C286.297 73.3105 286.754 72.959 287.329 72.7012C287.909 72.4434 288.544 72.3145 289.236 72.3145C290.331 72.3145 291.19 72.5898 291.811 73.1406C292.432 73.6855 292.754 74.4385 292.778 75.3994V79.7764C292.778 80.6494 292.889 81.3438 293.112 81.8594V82H291.407ZM288.708 80.7607C289.218 80.7607 289.702 80.6289 290.159 80.3652C290.616 80.1016 290.947 79.7588 291.152 79.3369V77.3857H289.877C287.885 77.3857 286.889 77.9688 286.889 79.1348C286.889 79.6445 287.059 80.043 287.399 80.3301C287.739 80.6172 288.175 80.7607 288.708 80.7607ZM303.56 77.3506C303.56 78.7979 303.229 79.9639 302.567 80.8486C301.904 81.7334 301.008 82.1758 299.877 82.1758C298.723 82.1758 297.815 81.8096 297.153 81.0771V85.6562H295.527V72.4902H297.012L297.091 73.5449C297.753 72.7246 298.673 72.3145 299.851 72.3145C300.993 72.3145 301.896 72.7451 302.558 73.6064C303.226 74.4678 303.56 75.666 303.56 77.2012V77.3506ZM301.934 77.166C301.934 76.0938 301.705 75.2471 301.248 74.626C300.791 74.0049 300.164 73.6943 299.367 73.6943C298.383 73.6943 297.645 74.1309 297.153 75.0039V79.5479C297.639 80.415 298.383 80.8486 299.385 80.8486C300.164 80.8486 300.782 80.541 301.239 79.9258C301.702 79.3047 301.934 78.3848 301.934 77.166ZM313.867 77.3506C313.867 78.7979 313.536 79.9639 312.874 80.8486C312.212 81.7334 311.315 82.1758 310.185 82.1758C309.03 82.1758 308.122 81.8096 307.46 81.0771V85.6562H305.834V72.4902H307.319L307.398 73.5449C308.061 72.7246 308.98 72.3145 310.158 72.3145C311.301 72.3145 312.203 72.7451 312.865 73.6064C313.533 74.4678 313.867 75.666 313.867 77.2012V77.3506ZM312.241 77.166C312.241 76.0938 312.013 75.2471 311.556 74.626C311.099 74.0049 310.472 73.6943 309.675 73.6943C308.69 73.6943 307.952 74.1309 307.46 75.0039V79.5479C307.946 80.415 308.69 80.8486 309.692 80.8486C310.472 80.8486 311.09 80.541 311.547 79.9258C312.01 79.3047 312.241 78.3848 312.241 77.166ZM317.908 82H316.282V68.5H317.908V82ZM322.485 82H320.859V72.4902H322.485V82ZM320.727 69.9678C320.727 69.7041 320.806 69.4814 320.964 69.2998C321.129 69.1182 321.369 69.0273 321.685 69.0273C322.002 69.0273 322.242 69.1182 322.406 69.2998C322.57 69.4814 322.652 69.7041 322.652 69.9678C322.652 70.2314 322.57 70.4512 322.406 70.627C322.242 70.8027 322.002 70.8906 321.685 70.8906C321.369 70.8906 321.129 70.8027 320.964 70.627C320.806 70.4512 320.727 70.2314 320.727 69.9678ZM329.11 80.8486C329.69 80.8486 330.197 80.6729 330.63 80.3213C331.064 79.9697 331.304 79.5303 331.351 79.0029H332.889C332.86 79.5479 332.672 80.0664 332.327 80.5586C331.981 81.0508 331.518 81.4434 330.938 81.7363C330.364 82.0293 329.754 82.1758 329.11 82.1758C327.815 82.1758 326.784 81.7451 326.016 80.8838C325.254 80.0166 324.873 78.833 324.873 77.333V77.0605C324.873 76.1348 325.043 75.3115 325.383 74.5908C325.723 73.8701 326.209 73.3105 326.842 72.9121C327.481 72.5137 328.234 72.3145 329.101 72.3145C330.167 72.3145 331.052 72.6338 331.755 73.2725C332.464 73.9111 332.842 74.7402 332.889 75.7598H331.351C331.304 75.1445 331.07 74.6406 330.648 74.248C330.232 73.8496 329.716 73.6504 329.101 73.6504C328.275 73.6504 327.633 73.9492 327.176 74.5469C326.725 75.1387 326.499 75.9971 326.499 77.1221V77.4297C326.499 78.5254 326.725 79.3691 327.176 79.9609C327.627 80.5527 328.272 80.8486 329.11 80.8486ZM340.788 82C340.695 81.8125 340.618 81.4785 340.56 80.998C339.804 81.7832 338.902 82.1758 337.853 82.1758C336.915 82.1758 336.145 81.9121 335.541 81.3848C334.944 80.8516 334.645 80.1777 334.645 79.3633C334.645 78.373 335.02 77.6055 335.77 77.0605C336.526 76.5098 337.586 76.2344 338.951 76.2344H340.533V75.4873C340.533 74.9189 340.363 74.4678 340.024 74.1338C339.684 73.7939 339.183 73.624 338.521 73.624C337.941 73.624 337.454 73.7705 337.062 74.0635C336.669 74.3564 336.473 74.7109 336.473 75.127H334.838C334.838 74.6523 335.005 74.1953 335.339 73.7559C335.679 73.3105 336.136 72.959 336.71 72.7012C337.29 72.4434 337.926 72.3145 338.617 72.3145C339.713 72.3145 340.571 72.5898 341.193 73.1406C341.814 73.6855 342.136 74.4385 342.159 75.3994V79.7764C342.159 80.6494 342.271 81.3438 342.493 81.8594V82H340.788ZM338.09 80.7607C338.6 80.7607 339.083 80.6289 339.54 80.3652C339.997 80.1016 340.328 79.7588 340.533 79.3369V77.3857H339.259C337.267 77.3857 336.271 77.9688 336.271 79.1348C336.271 79.6445 336.441 80.043 336.78 80.3301C337.12 80.6172 337.557 80.7607 338.09 80.7607ZM347.114 70.1875V72.4902H348.89V73.7471H347.114V79.6445C347.114 80.0254 347.193 80.3125 347.352 80.5059C347.51 80.6934 347.779 80.7871 348.16 80.7871C348.348 80.7871 348.605 80.752 348.934 80.6816V82C348.506 82.1172 348.09 82.1758 347.686 82.1758C346.959 82.1758 346.411 81.9561 346.042 81.5166C345.673 81.0771 345.488 80.4531 345.488 79.6445V73.7471H343.757V72.4902H345.488V70.1875H347.114ZM352.763 82H351.138V72.4902H352.763V82ZM351.006 69.9678C351.006 69.7041 351.085 69.4814 351.243 69.2998C351.407 69.1182 351.647 69.0273 351.964 69.0273C352.28 69.0273 352.52 69.1182 352.684 69.2998C352.848 69.4814 352.93 69.7041 352.93 69.9678C352.93 70.2314 352.848 70.4512 352.684 70.627C352.52 70.8027 352.28 70.8906 351.964 70.8906C351.647 70.8906 351.407 70.8027 351.243 70.627C351.085 70.4512 351.006 70.2314 351.006 69.9678ZM355.143 77.1572C355.143 76.2256 355.325 75.3877 355.688 74.6436C356.057 73.8994 356.567 73.3252 357.217 72.9209C357.874 72.5166 358.621 72.3145 359.459 72.3145C360.754 72.3145 361.799 72.7627 362.596 73.6592C363.399 74.5557 363.8 75.748 363.8 77.2363V77.3506C363.8 78.2764 363.622 79.1084 363.264 79.8467C362.913 80.5791 362.406 81.1504 361.744 81.5605C361.087 81.9707 360.332 82.1758 359.476 82.1758C358.187 82.1758 357.141 81.7275 356.338 80.8311C355.542 79.9346 355.143 78.748 355.143 77.2715V77.1572ZM356.778 77.3506C356.778 78.4053 357.021 79.252 357.507 79.8906C358 80.5293 358.656 80.8486 359.476 80.8486C360.302 80.8486 360.959 80.5264 361.445 79.8818C361.931 79.2314 362.174 78.3232 362.174 77.1572C362.174 76.1143 361.925 75.2705 361.427 74.626C360.935 73.9756 360.279 73.6504 359.459 73.6504C358.656 73.6504 358.008 73.9697 357.516 74.6084C357.024 75.2471 356.778 76.1611 356.778 77.3506ZM367.578 72.4902L367.63 73.6855C368.357 72.7715 369.306 72.3145 370.478 72.3145C372.488 72.3145 373.501 73.4482 373.519 75.7158V82H371.893V75.707C371.887 75.0215 371.729 74.5146 371.418 74.1865C371.114 73.8584 370.636 73.6943 369.986 73.6943C369.458 73.6943 368.996 73.835 368.597 74.1162C368.199 74.3975 367.888 74.7666 367.665 75.2236V82H366.039V72.4902H367.578ZM380.44 77.166C380.44 75.707 380.786 74.5352 381.478 73.6504C382.169 72.7598 383.074 72.3145 384.193 72.3145C385.307 72.3145 386.188 72.6953 386.839 73.457V68.5H388.465V82H386.971L386.892 80.9805C386.241 81.7773 385.336 82.1758 384.176 82.1758C383.074 82.1758 382.175 81.7246 381.478 80.8223C380.786 79.9199 380.44 78.7422 380.44 77.2891V77.166ZM382.066 77.3506C382.066 78.4287 382.289 79.2725 382.734 79.8818C383.18 80.4912 383.795 80.7959 384.58 80.7959C385.611 80.7959 386.364 80.333 386.839 79.4072V75.0391C386.353 74.1426 385.605 73.6943 384.598 73.6943C383.801 73.6943 383.18 74.002 382.734 74.6172C382.289 75.2324 382.066 76.1436 382.066 77.3506ZM395.142 82.1758C393.853 82.1758 392.805 81.7539 391.996 80.9102C391.187 80.0605 390.783 78.9268 390.783 77.5088V77.21C390.783 76.2666 390.962 75.4258 391.319 74.6875C391.682 73.9434 392.186 73.3633 392.831 72.9473C393.481 72.5254 394.184 72.3145 394.94 72.3145C396.177 72.3145 397.138 72.7217 397.823 73.5361C398.509 74.3506 398.851 75.5166 398.851 77.0342V77.7109H392.409C392.432 78.6484 392.705 79.4072 393.226 79.9873C393.754 80.5615 394.422 80.8486 395.23 80.8486C395.805 80.8486 396.291 80.7314 396.689 80.4971C397.088 80.2627 397.436 79.9521 397.735 79.5654L398.728 80.3389C397.931 81.5635 396.736 82.1758 395.142 82.1758ZM394.94 73.6504C394.284 73.6504 393.733 73.8906 393.288 74.3711C392.843 74.8457 392.567 75.5137 392.462 76.375H397.225V76.252C397.179 75.4258 396.956 74.7871 396.557 74.3359C396.159 73.8789 395.62 73.6504 394.94 73.6504ZM402.708 82H401.082V68.5H402.708V82ZM407.285 82H405.659V72.4902H407.285V82ZM405.527 69.9678C405.527 69.7041 405.606 69.4814 405.764 69.2998C405.928 69.1182 406.168 69.0273 406.485 69.0273C406.801 69.0273 407.041 69.1182 407.205 69.2998C407.37 69.4814 407.452 69.7041 407.452 69.9678C407.452 70.2314 407.37 70.4512 407.205 70.627C407.041 70.8027 406.801 70.8906 406.485 70.8906C406.168 70.8906 405.928 70.8027 405.764 70.627C405.606 70.4512 405.527 70.2314 405.527 69.9678ZM413.233 79.7939L415.588 72.4902H417.249L413.839 82H412.6L409.154 72.4902H410.816L413.233 79.7939ZM422.837 82.1758C421.548 82.1758 420.499 81.7539 419.69 80.9102C418.882 80.0605 418.478 78.9268 418.478 77.5088V77.21C418.478 76.2666 418.656 75.4258 419.014 74.6875C419.377 73.9434 419.881 73.3633 420.525 72.9473C421.176 72.5254 421.879 72.3145 422.635 72.3145C423.871 72.3145 424.832 72.7217 425.518 73.5361C426.203 74.3506 426.546 75.5166 426.546 77.0342V77.7109H420.104C420.127 78.6484 420.399 79.4072 420.921 79.9873C421.448 80.5615 422.116 80.8486 422.925 80.8486C423.499 80.8486 423.985 80.7314 424.384 80.4971C424.782 80.2627 425.131 79.9521 425.43 79.5654L426.423 80.3389C425.626 81.5635 424.431 82.1758 422.837 82.1758ZM422.635 73.6504C421.979 73.6504 421.428 73.8906 420.982 74.3711C420.537 74.8457 420.262 75.5137 420.156 76.375H424.92V76.252C424.873 75.4258 424.65 74.7871 424.252 74.3359C423.854 73.8789 423.314 73.6504 422.635 73.6504ZM433.232 73.9492C432.986 73.9082 432.72 73.8877 432.432 73.8877C431.366 73.8877 430.642 74.3418 430.262 75.25V82H428.636V72.4902H430.218L430.244 73.5889C430.777 72.7393 431.533 72.3145 432.512 72.3145C432.828 72.3145 433.068 72.3555 433.232 72.4375V73.9492ZM438.706 82.1758C437.417 82.1758 436.368 81.7539 435.559 80.9102C434.751 80.0605 434.346 78.9268 434.346 77.5088V77.21C434.346 76.2666 434.525 75.4258 434.882 74.6875C435.246 73.9434 435.75 73.3633 436.394 72.9473C437.045 72.5254 437.748 72.3145 438.504 72.3145C439.74 72.3145 440.701 72.7217 441.386 73.5361C442.072 74.3506 442.415 75.5166 442.415 77.0342V77.7109H435.972C435.996 78.6484 436.268 79.4072 436.79 79.9873C437.317 80.5615 437.985 80.8486 438.794 80.8486C439.368 80.8486 439.854 80.7314 440.253 80.4971C440.651 80.2627 441 79.9521 441.298 79.5654L442.292 80.3389C441.495 81.5635 440.299 82.1758 438.706 82.1758ZM438.504 73.6504C437.847 73.6504 437.296 73.8906 436.851 74.3711C436.406 74.8457 436.13 75.5137 436.025 76.375H440.789V76.252C440.742 75.4258 440.519 74.7871 440.121 74.3359C439.722 73.8789 439.183 73.6504 438.504 73.6504ZM444.109 77.166C444.109 75.707 444.454 74.5352 445.146 73.6504C445.837 72.7598 446.743 72.3145 447.862 72.3145C448.975 72.3145 449.857 72.6953 450.507 73.457V68.5H452.133V82H450.639L450.56 80.9805C449.91 81.7773 449.004 82.1758 447.844 82.1758C446.743 82.1758 445.843 81.7246 445.146 80.8223C444.454 79.9199 444.109 78.7422 444.109 77.2891V77.166ZM445.735 77.3506C445.735 78.4287 445.957 79.2725 446.403 79.8818C446.848 80.4912 447.463 80.7959 448.248 80.7959C449.28 80.7959 450.033 80.333 450.507 79.4072V75.0391C450.021 74.1426 449.274 73.6943 448.266 73.6943C447.469 73.6943 446.848 74.002 446.403 74.6172C445.957 75.2324 445.735 76.1436 445.735 77.3506ZM54.0303 106V97.7471H52.5273V96.4902H54.0303V95.5146C54.0303 94.4951 54.3027 93.707 54.8477 93.1504C55.3926 92.5938 56.1631 92.3154 57.1592 92.3154C57.5342 92.3154 57.9062 92.3652 58.2754 92.4648L58.1875 93.7832C57.9121 93.7305 57.6191 93.7041 57.3086 93.7041C56.7812 93.7041 56.374 93.8594 56.0869 94.1699C55.7998 94.4746 55.6562 94.9141 55.6562 95.4883V96.4902H57.6865V97.7471H55.6562V106H54.0303ZM59.2576 101.157C59.2576 100.226 59.4393 99.3877 59.8025 98.6436C60.1717 97.8994 60.6814 97.3252 61.3318 96.9209C61.9881 96.5166 62.7352 96.3145 63.573 96.3145C64.868 96.3145 65.9139 96.7627 66.7107 97.6592C67.5135 98.5557 67.9148 99.748 67.9148 101.236V101.351C67.9148 102.276 67.7361 103.108 67.3787 103.847C67.0271 104.579 66.5203 105.15 65.8582 105.561C65.202 105.971 64.4461 106.176 63.5906 106.176C62.3016 106.176 61.2557 105.728 60.4529 104.831C59.6561 103.935 59.2576 102.748 59.2576 101.271V101.157ZM60.8924 101.351C60.8924 102.405 61.1355 103.252 61.6219 103.891C62.1141 104.529 62.7703 104.849 63.5906 104.849C64.4168 104.849 65.073 104.526 65.5594 103.882C66.0457 103.231 66.2889 102.323 66.2889 101.157C66.2889 100.114 66.0398 99.2705 65.5418 98.626C65.0496 97.9756 64.3934 97.6504 63.573 97.6504C62.7703 97.6504 62.1229 97.9697 61.6307 98.6084C61.1385 99.2471 60.8924 100.161 60.8924 101.351ZM74.7506 97.9492C74.5045 97.9082 74.2379 97.8877 73.9508 97.8877C72.8844 97.8877 72.1607 98.3418 71.7799 99.25V106H70.1539V96.4902H71.7359L71.7623 97.5889C72.2955 96.7393 73.0514 96.3145 74.0299 96.3145C74.3463 96.3145 74.5865 96.3555 74.7506 96.4375V97.9492ZM83.1838 106H81.4963V93.2031H83.1838V106ZM87.7607 96.4902L87.8135 97.6855C88.54 96.7715 89.4893 96.3145 90.6611 96.3145C92.6709 96.3145 93.6846 97.4482 93.7021 99.7158V106H92.0762V99.707C92.0703 99.0215 91.9121 98.5146 91.6016 98.1865C91.2969 97.8584 90.8193 97.6943 90.1689 97.6943C89.6416 97.6943 89.1787 97.835 88.7803 98.1162C88.3818 98.3975 88.0713 98.7666 87.8486 99.2236V106H86.2227V96.4902H87.7607ZM95.9588 101.166C95.9588 99.707 96.3045 98.5352 96.9959 97.6504C97.6873 96.7598 98.5926 96.3145 99.7117 96.3145C100.825 96.3145 101.707 96.6953 102.357 97.457V92.5H103.983V106H102.489L102.41 104.98C101.76 105.777 100.854 106.176 99.6941 106.176C98.5926 106.176 97.6932 105.725 96.9959 104.822C96.3045 103.92 95.9588 102.742 95.9588 101.289V101.166ZM97.5848 101.351C97.5848 102.429 97.8074 103.272 98.2527 103.882C98.698 104.491 99.3133 104.796 100.098 104.796C101.13 104.796 101.883 104.333 102.357 103.407V99.0391C101.871 98.1426 101.124 97.6943 100.116 97.6943C99.3191 97.6943 98.698 98.002 98.2527 98.6172C97.8074 99.2324 97.5848 100.144 97.5848 101.351ZM106.284 101.157C106.284 100.226 106.465 99.3877 106.829 98.6436C107.198 97.8994 107.708 97.3252 108.358 96.9209C109.014 96.5166 109.761 96.3145 110.599 96.3145C111.894 96.3145 112.94 96.7627 113.737 97.6592C114.54 98.5557 114.941 99.748 114.941 101.236V101.351C114.941 102.276 114.762 103.108 114.405 103.847C114.053 104.579 113.546 105.15 112.884 105.561C112.228 105.971 111.472 106.176 110.617 106.176C109.328 106.176 108.282 105.728 107.479 104.831C106.682 103.935 106.284 102.748 106.284 101.271V101.157ZM107.919 101.351C107.919 102.405 108.162 103.252 108.648 103.891C109.14 104.529 109.796 104.849 110.617 104.849C111.443 104.849 112.099 104.526 112.586 103.882C113.072 103.231 113.315 102.323 113.315 101.157C113.315 100.114 113.066 99.2705 112.568 98.626C112.076 97.9756 111.42 97.6504 110.599 97.6504C109.796 97.6504 109.149 97.9697 108.657 98.6084C108.165 99.2471 107.919 100.161 107.919 101.351ZM118.718 96.4902L118.771 97.6855C119.497 96.7715 120.447 96.3145 121.619 96.3145C123.628 96.3145 124.642 97.4482 124.66 99.7158V106H123.034V99.707C123.028 99.0215 122.87 98.5146 122.559 98.1865C122.254 97.8584 121.777 97.6943 121.126 97.6943C120.599 97.6943 120.136 97.835 119.738 98.1162C119.339 98.3975 119.029 98.7666 118.806 99.2236V106H117.18V96.4902H118.718ZM131.258 106.176C129.969 106.176 128.92 105.754 128.112 104.91C127.303 104.061 126.899 102.927 126.899 101.509V101.21C126.899 100.267 127.077 99.4258 127.435 98.6875C127.798 97.9434 128.302 97.3633 128.946 96.9473C129.597 96.5254 130.3 96.3145 131.056 96.3145C132.292 96.3145 133.253 96.7217 133.939 97.5361C134.624 98.3506 134.967 99.5166 134.967 101.034V101.711H128.525C128.548 102.648 128.821 103.407 129.342 103.987C129.869 104.562 130.537 104.849 131.346 104.849C131.92 104.849 132.406 104.731 132.805 104.497C133.203 104.263 133.552 103.952 133.851 103.565L134.844 104.339C134.047 105.563 132.852 106.176 131.258 106.176ZM131.056 97.6504C130.4 97.6504 129.849 97.8906 129.404 98.3711C128.958 98.8457 128.683 99.5137 128.577 100.375H133.341V100.252C133.294 99.4258 133.071 98.7871 132.673 98.3359C132.275 97.8789 131.736 97.6504 131.056 97.6504ZM142.594 103.478C142.594 103.038 142.427 102.698 142.093 102.458C141.765 102.212 141.188 102.001 140.361 101.825C139.541 101.649 138.888 101.438 138.401 101.192C137.921 100.946 137.563 100.653 137.329 100.313C137.101 99.9736 136.986 99.5693 136.986 99.1006C136.986 98.3213 137.314 97.6621 137.971 97.123C138.633 96.584 139.477 96.3145 140.502 96.3145C141.58 96.3145 142.453 96.5928 143.121 97.1494C143.795 97.7061 144.132 98.418 144.132 99.2852H142.497C142.497 98.8398 142.307 98.4561 141.926 98.1338C141.551 97.8115 141.076 97.6504 140.502 97.6504C139.91 97.6504 139.447 97.7793 139.113 98.0371C138.779 98.2949 138.612 98.6318 138.612 99.0479C138.612 99.4404 138.768 99.7363 139.078 99.9355C139.389 100.135 139.948 100.325 140.757 100.507C141.571 100.688 142.23 100.905 142.734 101.157C143.238 101.409 143.61 101.714 143.851 102.071C144.097 102.423 144.22 102.854 144.22 103.363C144.22 104.213 143.88 104.896 143.2 105.411C142.521 105.921 141.639 106.176 140.555 106.176C139.793 106.176 139.119 106.041 138.533 105.771C137.947 105.502 137.487 105.127 137.153 104.646C136.825 104.16 136.661 103.636 136.661 103.073H138.287C138.316 103.618 138.533 104.052 138.938 104.374C139.348 104.69 139.887 104.849 140.555 104.849C141.17 104.849 141.662 104.726 142.031 104.479C142.406 104.228 142.594 103.894 142.594 103.478ZM148.304 106H146.679V96.4902H148.304V106ZM146.547 93.9678C146.547 93.7041 146.626 93.4814 146.784 93.2998C146.948 93.1182 147.188 93.0273 147.505 93.0273C147.821 93.0273 148.061 93.1182 148.225 93.2998C148.389 93.4814 148.471 93.7041 148.471 93.9678C148.471 94.2314 148.389 94.4512 148.225 94.627C148.061 94.8027 147.821 94.8906 147.505 94.8906C147.188 94.8906 146.948 94.8027 146.784 94.627C146.626 94.4512 146.547 94.2314 146.547 93.9678ZM156.986 106C156.892 105.812 156.816 105.479 156.757 104.998C156.002 105.783 155.099 106.176 154.05 106.176C153.113 106.176 152.342 105.912 151.739 105.385C151.141 104.852 150.842 104.178 150.842 103.363C150.842 102.373 151.217 101.605 151.967 101.061C152.723 100.51 153.784 100.234 155.149 100.234H156.731V99.4873C156.731 98.9189 156.561 98.4678 156.221 98.1338C155.881 97.7939 155.38 97.624 154.718 97.624C154.138 97.624 153.652 97.7705 153.259 98.0635C152.867 98.3564 152.671 98.7109 152.671 99.127H151.036C151.036 98.6523 151.203 98.1953 151.537 97.7559C151.877 97.3105 152.334 96.959 152.908 96.7012C153.488 96.4434 154.124 96.3145 154.815 96.3145C155.911 96.3145 156.769 96.5898 157.39 97.1406C158.011 97.6855 158.334 98.4385 158.357 99.3994V103.776C158.357 104.649 158.468 105.344 158.691 105.859V106H156.986ZM154.288 104.761C154.797 104.761 155.281 104.629 155.738 104.365C156.195 104.102 156.526 103.759 156.731 103.337V101.386H155.457C153.464 101.386 152.468 101.969 152.468 103.135C152.468 103.645 152.638 104.043 152.978 104.33C153.318 104.617 153.754 104.761 154.288 104.761ZM160.622 96.8066L159.7 96.1738C160.245 95.4121 160.526 94.6094 160.543 93.7656V92.5H162.152V93.6426C162.146 94.2285 161.999 94.8145 161.712 95.4004C161.431 95.9805 161.068 96.4492 160.622 96.8066ZM168.864 103.478C168.864 103.038 168.697 102.698 168.363 102.458C168.035 102.212 167.458 102.001 166.632 101.825C165.812 101.649 165.158 101.438 164.672 101.192C164.192 100.946 163.834 100.653 163.6 100.313C163.371 99.9736 163.257 99.5693 163.257 99.1006C163.257 98.3213 163.585 97.6621 164.241 97.123C164.904 96.584 165.747 96.3145 166.773 96.3145C167.851 96.3145 168.724 96.5928 169.392 97.1494C170.066 97.7061 170.403 98.418 170.403 99.2852H168.768C168.768 98.8398 168.577 98.4561 168.196 98.1338C167.821 97.8115 167.347 97.6504 166.773 97.6504C166.181 97.6504 165.718 97.7793 165.384 98.0371C165.05 98.2949 164.883 98.6318 164.883 99.0479C164.883 99.4404 165.038 99.7363 165.349 99.9355C165.659 100.135 166.219 100.325 167.028 100.507C167.842 100.688 168.501 100.905 169.005 101.157C169.509 101.409 169.881 101.714 170.121 102.071C170.367 102.423 170.49 102.854 170.49 103.363C170.49 104.213 170.151 104.896 169.471 105.411C168.791 105.921 167.909 106.176 166.825 106.176C166.064 106.176 165.39 106.041 164.804 105.771C164.218 105.502 163.758 105.127 163.424 104.646C163.096 104.16 162.932 103.636 162.932 103.073H164.558C164.587 103.618 164.804 104.052 165.208 104.374C165.618 104.69 166.157 104.849 166.825 104.849C167.441 104.849 167.933 104.726 168.302 104.479C168.677 104.228 168.864 103.894 168.864 103.478ZM185.524 101.351C185.524 102.804 185.19 103.973 184.522 104.857C183.854 105.736 182.958 106.176 181.833 106.176C180.632 106.176 179.703 105.751 179.047 104.901L178.968 106H177.473V92.5H179.099V97.5361C179.756 96.7217 180.661 96.3145 181.815 96.3145C182.97 96.3145 183.875 96.751 184.531 97.624C185.193 98.4971 185.524 99.6924 185.524 101.21V101.351ZM183.898 101.166C183.898 100.059 183.684 99.2031 183.257 98.5996C182.829 97.9961 182.214 97.6943 181.411 97.6943C180.339 97.6943 179.568 98.1924 179.099 99.1885V103.302C179.597 104.298 180.374 104.796 181.429 104.796C182.208 104.796 182.814 104.494 183.248 103.891C183.681 103.287 183.898 102.379 183.898 101.166ZM193.652 106C193.558 105.812 193.482 105.479 193.423 104.998C192.668 105.783 191.765 106.176 190.716 106.176C189.779 106.176 189.008 105.912 188.405 105.385C187.807 104.852 187.508 104.178 187.508 103.363C187.508 102.373 187.883 101.605 188.633 101.061C189.389 100.51 190.45 100.234 191.815 100.234H193.397V99.4873C193.397 98.9189 193.227 98.4678 192.887 98.1338C192.547 97.7939 192.046 97.624 191.384 97.624C190.804 97.624 190.318 97.7705 189.925 98.0635C189.533 98.3564 189.337 98.7109 189.337 99.127H187.702C187.702 98.6523 187.869 98.1953 188.203 97.7559C188.543 97.3105 189 96.959 189.574 96.7012C190.154 96.4434 190.79 96.3145 191.481 96.3145C192.577 96.3145 193.435 96.5898 194.056 97.1406C194.677 97.6855 195 98.4385 195.023 99.3994V103.776C195.023 104.649 195.134 105.344 195.357 105.859V106H193.652ZM190.954 104.761C191.463 104.761 191.947 104.629 192.404 104.365C192.861 104.102 193.192 103.759 193.397 103.337V101.386H192.123C190.13 101.386 189.134 101.969 189.134 103.135C189.134 103.645 189.304 104.043 189.644 104.33C189.984 104.617 190.421 104.761 190.954 104.761ZM199.31 96.4902L199.363 97.6855C200.089 96.7715 201.038 96.3145 202.21 96.3145C204.22 96.3145 205.234 97.4482 205.251 99.7158V106H203.625V99.707C203.62 99.0215 203.461 98.5146 203.151 98.1865C202.846 97.8584 202.369 97.6943 201.718 97.6943C201.191 97.6943 200.728 97.835 200.329 98.1162C199.931 98.3975 199.621 98.7666 199.398 99.2236V106H197.772V96.4902H199.31ZM210.558 101.597L209.538 102.66V106H207.912V92.5H209.538V100.665L210.408 99.6191L213.37 96.4902H215.348L211.648 100.463L215.779 106H213.871L210.558 101.597ZM218.993 106H217.367V96.4902H218.993V106ZM217.235 93.9678C217.235 93.7041 217.314 93.4814 217.473 93.2998C217.637 93.1182 217.877 93.0273 218.193 93.0273C218.51 93.0273 218.75 93.1182 218.914 93.2998C219.078 93.4814 219.16 93.7041 219.16 93.9678C219.16 94.2314 219.078 94.4512 218.914 94.627C218.75 94.8027 218.51 94.8906 218.193 94.8906C217.877 94.8906 217.637 94.8027 217.473 94.627C217.314 94.4512 217.235 94.2314 217.235 93.9678ZM223.342 96.4902L223.394 97.6855C224.121 96.7715 225.07 96.3145 226.242 96.3145C228.252 96.3145 229.265 97.4482 229.283 99.7158V106H227.657V99.707C227.651 99.0215 227.493 98.5146 227.182 98.1865C226.878 97.8584 226.4 97.6943 225.75 97.6943C225.222 97.6943 224.76 97.835 224.361 98.1162C223.963 98.3975 223.652 98.7666 223.429 99.2236V106H221.804V96.4902H223.342ZM231.548 101.166C231.548 99.6836 231.891 98.5059 232.577 97.6328C233.262 96.7539 234.171 96.3145 235.301 96.3145C236.462 96.3145 237.367 96.7246 238.017 97.5449L238.096 96.4902H239.582V105.771C239.582 107.002 239.215 107.972 238.483 108.681C237.756 109.39 236.778 109.744 235.547 109.744C234.862 109.744 234.191 109.598 233.535 109.305C232.879 109.012 232.378 108.61 232.032 108.101L232.876 107.125C233.573 107.986 234.425 108.417 235.433 108.417C236.224 108.417 236.839 108.194 237.279 107.749C237.724 107.304 237.947 106.677 237.947 105.868V105.051C237.296 105.801 236.409 106.176 235.284 106.176C234.171 106.176 233.268 105.728 232.577 104.831C231.891 103.935 231.548 102.713 231.548 101.166ZM233.183 101.351C233.183 102.423 233.403 103.267 233.842 103.882C234.282 104.491 234.897 104.796 235.688 104.796C236.713 104.796 237.466 104.33 237.947 103.398V99.0566C237.449 98.1484 236.702 97.6943 235.706 97.6943C234.915 97.6943 234.296 98.002 233.851 98.6172C233.406 99.2324 233.183 100.144 233.183 101.351ZM252.779 106C252.685 105.812 252.609 105.479 252.55 104.998C251.794 105.783 250.892 106.176 249.843 106.176C248.905 106.176 248.135 105.912 247.531 105.385C246.934 104.852 246.635 104.178 246.635 103.363C246.635 102.373 247.01 101.605 247.76 101.061C248.516 100.51 249.576 100.234 250.942 100.234H252.524V99.4873C252.524 98.9189 252.354 98.4678 252.014 98.1338C251.674 97.7939 251.173 97.624 250.511 97.624C249.931 97.624 249.445 97.7705 249.052 98.0635C248.659 98.3564 248.463 98.7109 248.463 99.127H246.828C246.828 98.6523 246.995 98.1953 247.329 97.7559C247.669 97.3105 248.126 96.959 248.7 96.7012C249.28 96.4434 249.916 96.3145 250.608 96.3145C251.703 96.3145 252.562 96.5898 253.183 97.1406C253.804 97.6855 254.126 98.4385 254.15 99.3994V103.776C254.15 104.649 254.261 105.344 254.484 105.859V106H252.779ZM250.08 104.761C250.59 104.761 251.073 104.629 251.53 104.365C251.988 104.102 252.319 103.759 252.524 103.337V101.386H251.249C249.257 101.386 248.261 101.969 248.261 103.135C248.261 103.645 248.431 104.043 248.771 104.33C249.111 104.617 249.547 104.761 250.08 104.761ZM258.437 96.4902L258.489 97.6855C259.216 96.7715 260.165 96.3145 261.337 96.3145C263.347 96.3145 264.36 97.4482 264.378 99.7158V106H262.752V99.707C262.746 99.0215 262.588 98.5146 262.277 98.1865C261.973 97.8584 261.495 97.6943 260.845 97.6943C260.317 97.6943 259.854 97.835 259.456 98.1162C259.058 98.3975 258.747 98.7666 258.524 99.2236V106H256.898V96.4902H258.437ZM266.635 101.166C266.635 99.707 266.98 98.5352 267.672 97.6504C268.363 96.7598 269.268 96.3145 270.387 96.3145C271.501 96.3145 272.383 96.6953 273.033 97.457V92.5H274.659V106H273.165L273.086 104.98C272.435 105.777 271.53 106.176 270.37 106.176C269.268 106.176 268.369 105.725 267.672 104.822C266.98 103.92 266.635 102.742 266.635 101.289V101.166ZM268.261 101.351C268.261 102.429 268.483 103.272 268.929 103.882C269.374 104.491 269.989 104.796 270.774 104.796C271.805 104.796 272.558 104.333 273.033 103.407V99.0391C272.547 98.1426 271.8 97.6943 270.792 97.6943C269.995 97.6943 269.374 98.002 268.929 98.6172C268.483 99.2324 268.261 100.144 268.261 101.351ZM282.6 106V97.7471H281.097V96.4902H282.6V95.6816C282.6 94.6211 282.902 93.7949 283.505 93.2031C284.115 92.6113 284.973 92.3154 286.08 92.3154C286.737 92.3154 287.566 92.4941 288.568 92.8516L288.295 94.2227C287.563 93.9297 286.866 93.7832 286.204 93.7832C285.506 93.7832 285.002 93.9414 284.692 94.2578C284.387 94.5684 284.235 95.0371 284.235 95.6641V96.4902H286.177V97.7471H284.235V106H282.6ZM289.376 106H287.742V96.4902H289.376V106ZM298.425 96.4902L298.478 97.6855C299.204 96.7715 300.153 96.3145 301.325 96.3145C303.335 96.3145 304.349 97.4482 304.366 99.7158V106H302.74V99.707C302.734 99.0215 302.576 98.5146 302.266 98.1865C301.961 97.8584 301.483 97.6943 300.833 97.6943C300.306 97.6943 299.843 97.835 299.444 98.1162C299.046 98.3975 298.735 98.7666 298.513 99.2236V106H296.887V96.4902H298.425ZM312.889 106C312.796 105.812 312.72 105.479 312.661 104.998C311.905 105.783 311.003 106.176 309.954 106.176C309.016 106.176 308.246 105.912 307.642 105.385C307.045 104.852 306.746 104.178 306.746 103.363C306.746 102.373 307.121 101.605 307.871 101.061C308.627 100.51 309.687 100.234 311.053 100.234H312.635V99.4873C312.635 98.9189 312.465 98.4678 312.125 98.1338C311.785 97.7939 311.284 97.624 310.622 97.624C310.042 97.624 309.555 97.7705 309.163 98.0635C308.77 98.3564 308.574 98.7109 308.574 99.127H306.939C306.939 98.6523 307.106 98.1953 307.44 97.7559C307.78 97.3105 308.237 96.959 308.811 96.7012C309.391 96.4434 310.027 96.3145 310.719 96.3145C311.814 96.3145 312.673 96.5898 313.294 97.1406C313.915 97.6855 314.237 98.4385 314.261 99.3994V103.776C314.261 104.649 314.372 105.344 314.595 105.859V106H312.889ZM310.191 104.761C310.701 104.761 311.184 104.629 311.641 104.365C312.098 104.102 312.429 103.759 312.635 103.337V101.386H311.36C309.368 101.386 308.372 101.969 308.372 103.135C308.372 103.645 308.542 104.043 308.882 104.33C309.221 104.617 309.658 104.761 310.191 104.761ZM318.547 96.4902L318.6 97.6855C319.327 96.7715 320.276 96.3145 321.448 96.3145C323.458 96.3145 324.471 97.4482 324.489 99.7158V106H322.863V99.707C322.857 99.0215 322.699 98.5146 322.388 98.1865C322.084 97.8584 321.606 97.6943 320.956 97.6943C320.428 97.6943 319.965 97.835 319.567 98.1162C319.169 98.3975 318.858 98.7666 318.635 99.2236V106H317.009V96.4902H318.547ZM330.955 104.849C331.536 104.849 332.042 104.673 332.476 104.321C332.91 103.97 333.15 103.53 333.197 103.003H334.735C334.705 103.548 334.518 104.066 334.172 104.559C333.827 105.051 333.364 105.443 332.784 105.736C332.209 106.029 331.6 106.176 330.955 106.176C329.661 106.176 328.629 105.745 327.862 104.884C327.1 104.017 326.719 102.833 326.719 101.333V101.061C326.719 100.135 326.889 99.3115 327.229 98.5908C327.569 97.8701 328.055 97.3105 328.688 96.9121C329.327 96.5137 330.079 96.3145 330.947 96.3145C332.013 96.3145 332.898 96.6338 333.601 97.2725C334.31 97.9111 334.688 98.7402 334.735 99.7598H333.197C333.15 99.1445 332.915 98.6406 332.494 98.248C332.078 97.8496 331.562 97.6504 330.947 97.6504C330.121 97.6504 329.479 97.9492 329.022 98.5469C328.571 99.1387 328.345 99.9971 328.345 101.122V101.43C328.345 102.525 328.571 103.369 329.022 103.961C329.473 104.553 330.118 104.849 330.955 104.849ZM338.529 106H336.904V96.4902H338.529V106ZM336.772 93.9678C336.772 93.7041 336.851 93.4814 337.009 93.2998C337.173 93.1182 337.413 93.0273 337.73 93.0273C338.046 93.0273 338.286 93.1182 338.45 93.2998C338.614 93.4814 338.696 93.7041 338.696 93.9678C338.696 94.2314 338.614 94.4512 338.45 94.627C338.286 94.8027 338.046 94.8906 337.73 94.8906C337.413 94.8906 337.173 94.8027 337.009 94.627C336.851 94.4512 336.772 94.2314 336.772 93.9678ZM347.211 106C347.117 105.812 347.041 105.479 346.982 104.998C346.227 105.783 345.324 106.176 344.275 106.176C343.338 106.176 342.567 105.912 341.964 105.385C341.366 104.852 341.067 104.178 341.067 103.363C341.067 102.373 341.442 101.605 342.192 101.061C342.948 100.51 344.009 100.234 345.374 100.234H346.956V99.4873C346.956 98.9189 346.786 98.4678 346.446 98.1338C346.106 97.7939 345.605 97.624 344.943 97.624C344.363 97.624 343.877 97.7705 343.484 98.0635C343.092 98.3564 342.896 98.7109 342.896 99.127H341.261C341.261 98.6523 341.428 98.1953 341.762 97.7559C342.102 97.3105 342.559 96.959 343.133 96.7012C343.713 96.4434 344.349 96.3145 345.04 96.3145C346.136 96.3145 346.994 96.5898 347.615 97.1406C348.236 97.6855 348.559 98.4385 348.582 99.3994V103.776C348.582 104.649 348.693 105.344 348.916 105.859V106H347.211ZM344.513 104.761C345.022 104.761 345.506 104.629 345.963 104.365C346.42 104.102 346.751 103.759 346.956 103.337V101.386H345.682C343.689 101.386 342.693 101.969 342.693 103.135C342.693 103.645 342.863 104.043 343.203 104.33C343.543 104.617 343.979 104.761 344.513 104.761ZM353.097 106H351.471V92.5H353.097V106ZM362.339 106H360.713V96.4902H362.339V106ZM360.581 93.9678C360.581 93.7041 360.661 93.4814 360.819 93.2998C360.983 93.1182 361.223 93.0273 361.539 93.0273C361.856 93.0273 362.096 93.1182 362.26 93.2998C362.424 93.4814 362.506 93.7041 362.506 93.9678C362.506 94.2314 362.424 94.4512 362.26 94.627C362.096 94.8027 361.856 94.8906 361.539 94.8906C361.223 94.8906 360.983 94.8027 360.819 94.627C360.661 94.4512 360.581 94.2314 360.581 93.9678ZM366.688 96.4902L366.74 97.6855C367.467 96.7715 368.416 96.3145 369.588 96.3145C371.598 96.3145 372.612 97.4482 372.629 99.7158V106H371.003V99.707C370.997 99.0215 370.839 98.5146 370.529 98.1865C370.224 97.8584 369.746 97.6943 369.096 97.6943C368.569 97.6943 368.106 97.835 367.707 98.1162C367.309 98.3975 366.998 98.7666 366.776 99.2236V106H365.15V96.4902H366.688ZM374.886 101.166C374.886 99.707 375.231 98.5352 375.923 97.6504C376.614 96.7598 377.52 96.3145 378.639 96.3145C379.752 96.3145 380.634 96.6953 381.284 97.457V92.5H382.91V106H381.416L381.337 104.98C380.687 105.777 379.781 106.176 378.621 106.176C377.52 106.176 376.62 105.725 375.923 104.822C375.231 103.92 374.886 102.742 374.886 101.289V101.166ZM376.512 101.351C376.512 102.429 376.734 103.272 377.18 103.882C377.625 104.491 378.24 104.796 379.025 104.796C380.057 104.796 380.81 104.333 381.284 103.407V99.0391C380.798 98.1426 380.051 97.6943 379.043 97.6943C378.246 97.6943 377.625 98.002 377.18 98.6172C376.734 99.2324 376.512 100.144 376.512 101.351ZM391.513 105.06C390.88 105.804 389.951 106.176 388.726 106.176C387.713 106.176 386.939 105.883 386.406 105.297C385.879 104.705 385.612 103.832 385.606 102.678V96.4902H387.232V102.634C387.232 104.075 387.818 104.796 388.99 104.796C390.232 104.796 391.058 104.333 391.469 103.407V96.4902H393.095V106H391.548L391.513 105.06ZM401.31 103.478C401.31 103.038 401.143 102.698 400.809 102.458C400.481 102.212 399.904 102.001 399.078 101.825C398.257 101.649 397.604 101.438 397.118 101.192C396.637 100.946 396.28 100.653 396.046 100.313C395.817 99.9736 395.703 99.5693 395.703 99.1006C395.703 98.3213 396.031 97.6621 396.687 97.123C397.349 96.584 398.193 96.3145 399.218 96.3145C400.296 96.3145 401.17 96.5928 401.837 97.1494C402.511 97.7061 402.848 98.418 402.848 99.2852H401.213C401.213 98.8398 401.023 98.4561 400.642 98.1338C400.267 97.8115 399.793 97.6504 399.218 97.6504C398.627 97.6504 398.164 97.7793 397.83 98.0371C397.496 98.2949 397.329 98.6318 397.329 99.0479C397.329 99.4404 397.484 99.7363 397.795 99.9355C398.105 100.135 398.665 100.325 399.473 100.507C400.288 100.688 400.947 100.905 401.451 101.157C401.955 101.409 402.327 101.714 402.567 102.071C402.813 102.423 402.936 102.854 402.936 103.363C402.936 104.213 402.596 104.896 401.917 105.411C401.237 105.921 400.355 106.176 399.271 106.176C398.509 106.176 397.836 106.041 397.25 105.771C396.664 105.502 396.204 105.127 395.87 104.646C395.542 104.16 395.378 103.636 395.378 103.073H397.004C397.033 103.618 397.25 104.052 397.654 104.374C398.064 104.69 398.603 104.849 399.271 104.849C399.886 104.849 400.379 104.726 400.748 104.479C401.123 104.228 401.31 103.894 401.31 103.478ZM407.46 94.1875V96.4902H409.236V97.7471H407.46V103.645C407.46 104.025 407.539 104.312 407.698 104.506C407.856 104.693 408.125 104.787 408.506 104.787C408.694 104.787 408.952 104.752 409.28 104.682V106C408.852 106.117 408.436 106.176 408.032 106.176C407.305 106.176 406.757 105.956 406.388 105.517C406.019 105.077 405.834 104.453 405.834 103.645V97.7471H404.103V96.4902H405.834V94.1875H407.46ZM415.94 97.9492C415.694 97.9082 415.427 97.8877 415.14 97.8877C414.073 97.8877 413.35 98.3418 412.969 99.25V106H411.343V96.4902H412.925L412.951 97.5889C413.485 96.7393 414.24 96.3145 415.219 96.3145C415.535 96.3145 415.776 96.3555 415.94 96.4375V97.9492ZM420.912 103.618L423.127 96.4902H424.867L421.044 107.468C420.452 109.05 419.512 109.841 418.223 109.841L417.915 109.814L417.309 109.7V108.382L417.748 108.417C418.299 108.417 418.727 108.306 419.031 108.083C419.342 107.86 419.597 107.453 419.796 106.861L420.156 105.895L416.764 96.4902H418.539L420.912 103.618ZM425.612 105.147C425.612 104.866 425.694 104.632 425.858 104.444C426.028 104.257 426.28 104.163 426.614 104.163C426.948 104.163 427.2 104.257 427.37 104.444C427.546 104.632 427.634 104.866 427.634 105.147C427.634 105.417 427.546 105.643 427.37 105.824C427.2 106.006 426.948 106.097 426.614 106.097C426.28 106.097 426.028 106.006 425.858 105.824C425.694 105.643 425.612 105.417 425.612 105.147Z" fill="#263238"/>
</g>
<defs>
<clipPath id="clip0_1_70">
<rect width="473" height="112" fill="white"/>
</clipPath>
</defs>
</svg>
