<svg width="382" height="643" viewBox="0 0 382 643" fill="none" xmlns="http://www.w3.org/2000/svg">
<rect x="0.5" y="0.5" width="381" height="642" rx="9.5" fill="white"/>
<rect x="0.5" y="0.5" width="381" height="642" rx="9.5" stroke="#D3D3D3"/>
<path d="M54.6666 61C52.7217 61 50.8565 61.7726 49.4812 63.1479C48.1059 64.5231 47.3333 66.3884 47.3333 68.3333V112.333C47.3333 116.367 50.6333 119.667 54.6666 119.667H98.6666C100.612 119.667 102.477 118.894 103.852 117.519C105.227 116.143 106 114.278 106 112.333H54.6666V61ZM113.333 46.3333H69.3333C67.3884 46.3333 65.5231 47.1059 64.1479 48.4812C62.7726 49.8565 62 51.7217 62 53.6666V97.6666C62 99.6116 62.7726 101.477 64.1479 102.852C65.5231 104.227 67.3884 105 69.3333 105H113.333C115.278 105 117.143 104.227 118.519 102.852C119.894 101.477 120.667 99.6116 120.667 97.6666V53.6666C120.667 51.7217 119.894 49.8565 118.519 48.4812C117.143 47.1059 115.278 46.3333 113.333 46.3333ZM95 97.6666H69.3333V72H95V97.6666ZM113.333 97.6666H102.333V72H113.333V97.6666ZM113.333 64.6666H69.3333V53.6666H113.333V64.6666Z" fill="#F3CD03"/>
<path d="M73.112 169.08H76.064L70.088 186H67.568L63.32 173.832L59.048 186H56.528L50.576 169.08H53.696L57.896 181.68L62.312 169.08H64.496L68.792 181.752L73.112 169.08ZM82.2776 186.192C81.0776 186.192 80.0216 185.944 79.1096 185.448C78.2136 184.952 77.5176 184.24 77.0216 183.312C76.5256 182.384 76.2776 181.304 76.2776 180.072C76.2776 178.84 76.5256 177.768 77.0216 176.856C77.5176 175.928 78.2136 175.216 79.1096 174.72C80.0216 174.224 81.0776 173.976 82.2776 173.976C83.4776 173.976 84.5256 174.224 85.4216 174.72C86.3336 175.216 87.0296 175.928 87.5096 176.856C88.0056 177.768 88.2536 178.84 88.2536 180.072C88.2536 181.304 88.0056 182.384 87.5096 183.312C87.0296 184.24 86.3336 184.952 85.4216 185.448C84.5256 185.944 83.4776 186.192 82.2776 186.192ZM82.2536 183.864C83.2296 183.864 83.9736 183.544 84.4856 182.904C84.9976 182.264 85.2536 181.32 85.2536 180.072C85.2536 178.84 84.9976 177.904 84.4856 177.264C83.9736 176.608 83.2376 176.28 82.2776 176.28C81.3176 176.28 80.5736 176.608 80.0456 177.264C79.5336 177.904 79.2776 178.84 79.2776 180.072C79.2776 181.32 79.5336 182.264 80.0456 182.904C80.5576 183.544 81.2936 183.864 82.2536 183.864ZM98.5583 176.472L96.8063 176.64C94.8223 176.848 93.8303 177.856 93.8303 179.664V186H90.8303V174.264H93.6863V176.328C94.2943 174.92 95.5503 174.152 97.4543 174.024L98.3663 173.952L98.5583 176.472ZM111.878 186H108.158L103.118 180.648V186H100.118V169.08H103.118V179.4L107.846 174.288H111.494L106.214 179.904L111.878 186ZM124.741 173.976C126.389 173.976 127.613 174.376 128.413 175.176C129.213 175.976 129.613 177.208 129.613 178.872V186H126.757V184.2C126.485 184.824 126.053 185.312 125.461 185.664C124.885 186.016 124.213 186.192 123.445 186.192C122.661 186.192 121.949 186.032 121.309 185.712C120.669 185.392 120.165 184.952 119.797 184.392C119.429 183.832 119.245 183.208 119.245 182.52C119.245 181.656 119.461 180.976 119.893 180.48C120.341 179.984 121.061 179.624 122.053 179.4C123.045 179.176 124.413 179.064 126.157 179.064H126.757V178.512C126.757 177.712 126.581 177.136 126.229 176.784C125.893 176.432 125.325 176.256 124.525 176.256C123.901 176.256 123.245 176.368 122.557 176.592C121.885 176.8 121.221 177.096 120.565 177.48L119.725 175.416C120.381 175 121.173 174.656 122.101 174.384C123.029 174.112 123.909 173.976 124.741 173.976ZM124.045 184.032C124.845 184.032 125.493 183.768 125.989 183.24C126.501 182.696 126.757 182 126.757 181.152V180.648H126.325C125.253 180.648 124.421 180.696 123.829 180.792C123.237 180.888 122.813 181.056 122.557 181.296C122.301 181.536 122.173 181.864 122.173 182.28C122.173 182.792 122.349 183.216 122.701 183.552C123.053 183.872 123.501 184.032 124.045 184.032ZM138.762 183.936C139.114 183.936 139.482 183.912 139.866 183.864L139.722 186.096C139.242 186.144 138.802 186.168 138.402 186.168C136.754 186.168 135.538 185.792 134.754 185.04C133.97 184.272 133.578 183.136 133.578 181.632V176.52H131.322V174.264H133.578V170.76H136.578V174.264H139.674V176.52H136.578V181.584C136.578 183.152 137.306 183.936 138.762 183.936ZM154.337 183.936C154.689 183.936 155.057 183.912 155.441 183.864L155.297 186.096C154.817 186.144 154.377 186.168 153.977 186.168C152.329 186.168 151.113 185.792 150.329 185.04C149.545 184.272 149.153 183.136 149.153 181.632V176.52H146.897V174.264H149.153V170.76H152.153V174.264H155.249V176.52H152.153V181.584C152.153 183.152 152.881 183.936 154.337 183.936ZM164.112 173.976C165.52 173.976 166.568 174.376 167.256 175.176C167.944 175.976 168.288 177.184 168.288 178.8V186H165.288V178.968C165.288 178.056 165.112 177.392 164.76 176.976C164.424 176.56 163.888 176.352 163.152 176.352C162.288 176.352 161.592 176.624 161.064 177.168C160.552 177.712 160.296 178.44 160.296 179.352V186H157.296V169.08H160.296V175.896C160.696 175.272 161.224 174.8 161.88 174.48C162.552 174.144 163.296 173.976 164.112 173.976ZM181.731 180.672H173.739C173.835 181.76 174.163 182.568 174.723 183.096C175.283 183.624 176.083 183.888 177.123 183.888C178.419 183.888 179.603 183.472 180.675 182.64L181.539 184.704C180.995 185.152 180.307 185.512 179.475 185.784C178.659 186.056 177.835 186.192 177.003 186.192C175.083 186.192 173.563 185.648 172.443 184.56C171.339 183.472 170.787 181.984 170.787 180.096C170.787 178.896 171.027 177.832 171.507 176.904C171.987 175.976 172.659 175.256 173.523 174.744C174.403 174.232 175.395 173.976 176.499 173.976C178.115 173.976 179.387 174.496 180.315 175.536C181.259 176.576 181.731 178.008 181.731 179.832V180.672ZM176.571 176.088C175.771 176.088 175.123 176.344 174.627 176.856C174.147 177.368 173.851 178.104 173.739 179.064H179.163C179.131 178.088 178.891 177.352 178.443 176.856C177.995 176.344 177.371 176.088 176.571 176.088ZM195.221 186.192C194.181 186.192 193.221 186.064 192.341 185.808C191.477 185.552 190.741 185.184 190.133 184.704L190.973 182.616C192.221 183.528 193.653 183.984 195.269 183.984C195.957 183.984 196.477 183.872 196.829 183.648C197.197 183.424 197.381 183.104 197.381 182.688C197.381 182.336 197.253 182.064 196.997 181.872C196.757 181.68 196.317 181.504 195.677 181.344L193.757 180.912C192.669 180.672 191.861 180.28 191.333 179.736C190.805 179.192 190.541 178.488 190.541 177.624C190.541 176.904 190.741 176.272 191.141 175.728C191.557 175.168 192.125 174.736 192.845 174.432C193.581 174.128 194.429 173.976 195.389 173.976C196.221 173.976 197.021 174.104 197.789 174.36C198.573 174.616 199.261 174.976 199.853 175.44L199.013 177.48C197.797 176.6 196.581 176.16 195.365 176.16C194.709 176.16 194.197 176.28 193.829 176.52C193.461 176.76 193.277 177.096 193.277 177.528C193.277 177.848 193.389 178.112 193.613 178.32C193.853 178.528 194.229 178.688 194.741 178.8L196.733 179.256C197.901 179.512 198.757 179.92 199.301 180.48C199.845 181.024 200.117 181.744 200.117 182.64C200.117 183.728 199.677 184.592 198.797 185.232C197.917 185.872 196.725 186.192 195.221 186.192ZM209.393 173.976C210.401 173.976 211.297 174.232 212.081 174.744C212.881 175.256 213.497 175.984 213.929 176.928C214.377 177.856 214.601 178.928 214.601 180.144C214.601 181.36 214.377 182.424 213.929 183.336C213.497 184.248 212.889 184.952 212.105 185.448C211.321 185.944 210.417 186.192 209.393 186.192C208.561 186.192 207.817 186.016 207.161 185.664C206.505 185.312 206.001 184.824 205.649 184.2V190.32H202.649V174.264H205.601V176.04C205.953 175.384 206.457 174.88 207.113 174.528C207.785 174.16 208.545 173.976 209.393 173.976ZM208.601 183.864C209.545 183.864 210.281 183.544 210.809 182.904C211.337 182.248 211.601 181.328 211.601 180.144C211.601 178.928 211.337 177.984 210.809 177.312C210.281 176.64 209.545 176.304 208.601 176.304C207.641 176.304 206.897 176.632 206.369 177.288C205.857 177.944 205.601 178.88 205.601 180.096C205.601 181.296 205.857 182.224 206.369 182.88C206.897 183.536 207.641 183.864 208.601 183.864ZM227.459 180.672H219.467C219.563 181.76 219.891 182.568 220.451 183.096C221.011 183.624 221.811 183.888 222.851 183.888C224.147 183.888 225.331 183.472 226.403 182.64L227.267 184.704C226.723 185.152 226.035 185.512 225.203 185.784C224.387 186.056 223.563 186.192 222.731 186.192C220.811 186.192 219.291 185.648 218.171 184.56C217.067 183.472 216.515 181.984 216.515 180.096C216.515 178.896 216.755 177.832 217.235 176.904C217.715 175.976 218.387 175.256 219.251 174.744C220.131 174.232 221.123 173.976 222.227 173.976C223.843 173.976 225.115 174.496 226.043 175.536C226.987 176.576 227.459 178.008 227.459 179.832V180.672ZM222.299 176.088C221.499 176.088 220.851 176.344 220.355 176.856C219.875 177.368 219.579 178.104 219.467 179.064H224.891C224.859 178.088 224.619 177.352 224.171 176.856C223.723 176.344 223.099 176.088 222.299 176.088ZM240.309 180.672H232.317C232.413 181.76 232.741 182.568 233.301 183.096C233.861 183.624 234.661 183.888 235.701 183.888C236.997 183.888 238.181 183.472 239.253 182.64L240.117 184.704C239.573 185.152 238.885 185.512 238.053 185.784C237.237 186.056 236.413 186.192 235.581 186.192C233.661 186.192 232.141 185.648 231.021 184.56C229.917 183.472 229.365 181.984 229.365 180.096C229.365 178.896 229.605 177.832 230.085 176.904C230.565 175.976 231.237 175.256 232.101 174.744C232.981 174.232 233.973 173.976 235.077 173.976C236.693 173.976 237.965 174.496 238.893 175.536C239.837 176.576 240.309 178.008 240.309 179.832V180.672ZM235.149 176.088C234.349 176.088 233.701 176.344 233.205 176.856C232.725 177.368 232.429 178.104 232.317 179.064H237.741C237.709 178.088 237.469 177.352 237.021 176.856C236.573 176.344 235.949 176.088 235.149 176.088ZM254.191 169.08V186H251.215V184.104C250.863 184.76 250.351 185.272 249.679 185.64C249.023 186.008 248.271 186.192 247.423 186.192C246.415 186.192 245.511 185.936 244.711 185.424C243.927 184.912 243.311 184.192 242.863 183.264C242.431 182.32 242.215 181.24 242.215 180.024C242.215 178.808 242.431 177.744 242.863 176.832C243.311 175.92 243.927 175.216 244.711 174.72C245.495 174.224 246.399 173.976 247.423 173.976C248.271 173.976 249.023 174.152 249.679 174.504C250.335 174.856 250.839 175.352 251.191 175.992V169.08H254.191ZM248.215 183.864C249.175 183.864 249.911 183.536 250.423 182.88C250.951 182.224 251.215 181.288 251.215 180.072C251.215 178.856 250.951 177.928 250.423 177.288C249.911 176.632 249.183 176.304 248.239 176.304C247.279 176.304 246.535 176.624 246.007 177.264C245.479 177.904 245.215 178.824 245.215 180.024C245.215 181.24 245.479 182.184 246.007 182.856C246.535 183.528 247.271 183.864 248.215 183.864ZM56.912 218.192C55.712 218.192 54.656 217.944 53.744 217.448C52.848 216.952 52.152 216.24 51.656 215.312C51.16 214.384 50.912 213.304 50.912 212.072C50.912 210.84 51.16 209.768 51.656 208.856C52.152 207.928 52.848 207.216 53.744 206.72C54.656 206.224 55.712 205.976 56.912 205.976C58.112 205.976 59.16 206.224 60.056 206.72C60.968 207.216 61.664 207.928 62.144 208.856C62.64 209.768 62.888 210.84 62.888 212.072C62.888 213.304 62.64 214.384 62.144 215.312C61.664 216.24 60.968 216.952 60.056 217.448C59.16 217.944 58.112 218.192 56.912 218.192ZM56.888 215.864C57.864 215.864 58.608 215.544 59.12 214.904C59.632 214.264 59.888 213.32 59.888 212.072C59.888 210.84 59.632 209.904 59.12 209.264C58.608 208.608 57.872 208.28 56.912 208.28C55.952 208.28 55.208 208.608 54.68 209.264C54.168 209.904 53.912 210.84 53.912 212.072C53.912 213.32 54.168 214.264 54.68 214.904C55.192 215.544 55.928 215.864 56.888 215.864ZM69.2104 206.264H72.3064V208.52H69.2104V218H66.2104V208.52H63.9544V206.264H66.2104C66.2104 204.584 66.6424 203.32 67.5064 202.472C68.3864 201.624 69.7464 201.152 71.5864 201.056L72.7624 200.984L72.9544 203.216L71.8264 203.264C70.8824 203.312 70.2104 203.528 69.8104 203.912C69.4104 204.28 69.2104 204.88 69.2104 205.712V206.264ZM86.7116 215.936C87.0636 215.936 87.4316 215.912 87.8156 215.864L87.6716 218.096C87.1916 218.144 86.7516 218.168 86.3516 218.168C84.7036 218.168 83.4876 217.792 82.7036 217.04C81.9196 216.272 81.5276 215.136 81.5276 213.632V208.52H79.2716V206.264H81.5276V202.76H84.5276V206.264H87.6236V208.52H84.5276V213.584C84.5276 215.152 85.2556 215.936 86.7116 215.936ZM96.4869 205.976C97.8949 205.976 98.9429 206.376 99.6309 207.176C100.319 207.976 100.663 209.184 100.663 210.8V218H97.6629V210.968C97.6629 210.056 97.4869 209.392 97.1349 208.976C96.7989 208.56 96.2629 208.352 95.5269 208.352C94.6629 208.352 93.9669 208.624 93.4389 209.168C92.9269 209.712 92.6709 210.44 92.6709 211.352V218H89.6709V201.08H92.6709V207.896C93.0709 207.272 93.5989 206.8 94.2549 206.48C94.9269 206.144 95.6709 205.976 96.4869 205.976ZM109.162 218.192C107.962 218.192 106.906 217.944 105.994 217.448C105.098 216.952 104.402 216.24 103.906 215.312C103.41 214.384 103.162 213.304 103.162 212.072C103.162 210.84 103.41 209.768 103.906 208.856C104.402 207.928 105.098 207.216 105.994 206.72C106.906 206.224 107.962 205.976 109.162 205.976C110.362 205.976 111.41 206.224 112.306 206.72C113.218 207.216 113.914 207.928 114.394 208.856C114.89 209.768 115.138 210.84 115.138 212.072C115.138 213.304 114.89 214.384 114.394 215.312C113.914 216.24 113.218 216.952 112.306 217.448C111.41 217.944 110.362 218.192 109.162 218.192ZM109.138 215.864C110.114 215.864 110.858 215.544 111.37 214.904C111.882 214.264 112.138 213.32 112.138 212.072C112.138 210.84 111.882 209.904 111.37 209.264C110.858 208.608 110.122 208.28 109.162 208.28C108.202 208.28 107.458 208.608 106.93 209.264C106.418 209.904 106.162 210.84 106.162 212.072C106.162 213.32 106.418 214.264 106.93 214.904C107.442 215.544 108.178 215.864 109.138 215.864ZM128.491 206.264V218H125.563V216.2C125.195 216.84 124.699 217.336 124.075 217.688C123.451 218.024 122.747 218.192 121.963 218.192C119.083 218.192 117.643 216.576 117.643 213.344V206.264H120.643V213.368C120.643 214.2 120.811 214.816 121.147 215.216C121.483 215.616 122.011 215.816 122.731 215.816C123.563 215.816 124.227 215.544 124.723 215C125.235 214.44 125.491 213.704 125.491 212.792V206.264H128.491ZM143.137 206.264V216.92C143.137 218.76 142.625 220.152 141.601 221.096C140.593 222.04 139.097 222.512 137.113 222.512C136.089 222.512 135.105 222.376 134.161 222.104C133.217 221.848 132.393 221.48 131.689 221L132.529 218.888C133.985 219.768 135.489 220.208 137.041 220.208C139.121 220.208 140.161 219.184 140.161 217.136V215.6C139.809 216.256 139.297 216.768 138.625 217.136C137.953 217.488 137.185 217.664 136.321 217.664C135.297 217.664 134.385 217.424 133.585 216.944C132.801 216.448 132.185 215.76 131.737 214.88C131.289 214 131.065 212.984 131.065 211.832C131.065 210.68 131.281 209.664 131.713 208.784C132.161 207.888 132.785 207.2 133.585 206.72C134.385 206.224 135.297 205.976 136.321 205.976C137.185 205.976 137.953 206.16 138.625 206.528C139.297 206.88 139.809 207.384 140.161 208.04V206.264H143.137ZM137.113 215.336C138.073 215.336 138.817 215.024 139.345 214.4C139.889 213.776 140.161 212.92 140.161 211.832C140.161 210.728 139.889 209.864 139.345 209.24C138.817 208.616 138.073 208.304 137.113 208.304C136.169 208.304 135.425 208.616 134.881 209.24C134.337 209.864 134.065 210.728 134.065 211.832C134.065 212.904 134.337 213.76 134.881 214.4C135.425 215.024 136.169 215.336 137.113 215.336ZM153.16 205.976C154.568 205.976 155.616 206.376 156.304 207.176C156.992 207.976 157.336 209.184 157.336 210.8V218H154.336V210.968C154.336 210.056 154.16 209.392 153.808 208.976C153.472 208.56 152.936 208.352 152.2 208.352C151.336 208.352 150.64 208.624 150.112 209.168C149.6 209.712 149.344 210.44 149.344 211.352V218H146.344V201.08H149.344V207.896C149.744 207.272 150.272 206.8 150.928 206.48C151.6 206.144 152.344 205.976 153.16 205.976ZM166.483 215.936C166.835 215.936 167.203 215.912 167.587 215.864L167.443 218.096C166.963 218.144 166.523 218.168 166.123 218.168C164.475 218.168 163.259 217.792 162.475 217.04C161.691 216.272 161.299 215.136 161.299 213.632V208.52H159.043V206.264H161.299V202.76H164.299V206.264H167.395V208.52H164.299V213.584C164.299 215.152 165.027 215.936 166.483 215.936ZM169.648 214.688H173.008V218H169.648V214.688Z" fill="black"/>
<path d="M51.392 288V276.72H58.528V277.808H52.688V281.728H58.208V282.816H52.688V286.912H58.528V288H51.392ZM66.2965 280.224H67.5925L64.2325 288H63.0165L59.6725 280.224H61.0485L63.6565 286.592L66.2965 280.224ZM75.5655 284.304H69.8695C69.9122 285.211 70.1575 285.899 70.6055 286.368C71.0535 286.827 71.6882 287.056 72.5095 287.056C73.4162 287.056 74.2482 286.747 75.0055 286.128L75.4375 287.072C75.0962 287.392 74.6588 287.648 74.1255 287.84C73.5922 288.021 73.0482 288.112 72.4935 288.112C71.2775 288.112 70.3175 287.755 69.6135 287.04C68.9202 286.325 68.5735 285.339 68.5735 284.08C68.5735 283.28 68.7282 282.576 69.0375 281.968C69.3468 281.349 69.7788 280.869 70.3335 280.528C70.8988 280.187 71.5388 280.016 72.2535 280.016C73.2882 280.016 74.0988 280.357 74.6855 281.04C75.2722 281.712 75.5655 282.64 75.5655 283.824V284.304ZM72.2695 281.024C71.5868 281.024 71.0375 281.237 70.6215 281.664C70.2162 282.091 69.9762 282.693 69.9015 283.472H74.4295C74.4082 282.683 74.2108 282.08 73.8375 281.664C73.4642 281.237 72.9415 281.024 72.2695 281.024ZM82.091 281.136L81.243 281.216C80.443 281.291 79.8617 281.541 79.499 281.968C79.147 282.395 78.971 282.923 78.971 283.552V288H77.675V280.208H78.939V281.568C79.3763 280.661 80.235 280.155 81.515 280.048L81.979 280.016L82.091 281.136ZM98.4166 280.208H99.7126L96.8166 288H95.5686L93.3766 281.968L91.1686 288H89.9366L87.0406 280.208H88.3846L90.5926 286.464L92.8486 280.208H93.9686L96.1926 286.464L98.4166 280.208ZM104.648 288.112C103.912 288.112 103.261 287.947 102.696 287.616C102.141 287.285 101.709 286.816 101.4 286.208C101.101 285.589 100.952 284.875 100.952 284.064C100.952 283.253 101.101 282.544 101.4 281.936C101.709 281.317 102.141 280.843 102.696 280.512C103.261 280.181 103.912 280.016 104.648 280.016C105.384 280.016 106.034 280.181 106.6 280.512C107.165 280.843 107.597 281.317 107.896 281.936C108.205 282.544 108.36 283.253 108.36 284.064C108.36 284.875 108.205 285.589 107.896 286.208C107.597 286.816 107.165 287.285 106.6 287.616C106.034 287.947 105.384 288.112 104.648 288.112ZM104.648 287.04C105.416 287.04 106.002 286.789 106.408 286.288C106.824 285.776 107.032 285.035 107.032 284.064C107.032 283.115 106.824 282.384 106.408 281.872C105.992 281.349 105.405 281.088 104.648 281.088C103.89 281.088 103.304 281.349 102.888 281.872C102.472 282.384 102.264 283.115 102.264 284.064C102.264 285.024 102.466 285.76 102.872 286.272C103.288 286.784 103.88 287.04 104.648 287.04ZM114.411 280.016C116.277 280.016 117.211 281.045 117.211 283.104V288H115.915V283.184C115.915 282.459 115.771 281.931 115.483 281.6C115.205 281.269 114.757 281.104 114.139 281.104C113.424 281.104 112.853 281.323 112.427 281.76C112 282.197 111.787 282.789 111.787 283.536V288H110.491V280.208H111.771V281.488C112.027 281.008 112.384 280.645 112.843 280.4C113.301 280.144 113.824 280.016 114.411 280.016ZM126.696 276.72V288H125.4V286.576C125.166 287.067 124.819 287.445 124.36 287.712C123.912 287.979 123.384 288.112 122.776 288.112C122.094 288.112 121.491 287.941 120.968 287.6C120.446 287.259 120.04 286.784 119.752 286.176C119.464 285.557 119.32 284.843 119.32 284.032C119.32 283.232 119.464 282.528 119.752 281.92C120.04 281.312 120.446 280.843 120.968 280.512C121.491 280.181 122.094 280.016 122.776 280.016C123.384 280.016 123.912 280.149 124.36 280.416C124.819 280.683 125.166 281.061 125.4 281.552V276.72H126.696ZM123.032 287.04C123.79 287.04 124.371 286.784 124.776 286.272C125.192 285.749 125.4 285.013 125.4 284.064C125.4 283.115 125.192 282.384 124.776 281.872C124.371 281.36 123.79 281.104 123.032 281.104C122.275 281.104 121.683 281.36 121.256 281.872C120.84 282.384 120.632 283.104 120.632 284.032C120.632 284.981 120.84 285.723 121.256 286.256C121.683 286.779 122.275 287.04 123.032 287.04ZM135.825 284.304H130.129C130.172 285.211 130.417 285.899 130.865 286.368C131.313 286.827 131.948 287.056 132.769 287.056C133.676 287.056 134.508 286.747 135.265 286.128L135.697 287.072C135.356 287.392 134.918 287.648 134.385 287.84C133.852 288.021 133.308 288.112 132.753 288.112C131.537 288.112 130.577 287.755 129.873 287.04C129.18 286.325 128.833 285.339 128.833 284.08C128.833 283.28 128.988 282.576 129.297 281.968C129.606 281.349 130.038 280.869 130.593 280.528C131.158 280.187 131.798 280.016 132.513 280.016C133.548 280.016 134.358 280.357 134.945 281.04C135.532 281.712 135.825 282.64 135.825 283.824V284.304ZM132.529 281.024C131.846 281.024 131.297 281.237 130.881 281.664C130.476 282.091 130.236 282.693 130.161 283.472H134.689C134.668 282.683 134.47 282.08 134.097 281.664C133.724 281.237 133.201 281.024 132.529 281.024ZM142.35 281.136L141.502 281.216C140.702 281.291 140.121 281.541 139.758 281.968C139.406 282.395 139.23 282.923 139.23 283.552V288H137.934V280.208H139.198V281.568C139.636 280.661 140.494 280.155 141.774 280.048L142.238 280.016L142.35 281.136ZM150.147 284.304H144.451C144.493 285.211 144.739 285.899 145.187 286.368C145.635 286.827 146.269 287.056 147.091 287.056C147.997 287.056 148.829 286.747 149.587 286.128L150.019 287.072C149.677 287.392 149.24 287.648 148.707 287.84C148.173 288.021 147.629 288.112 147.075 288.112C145.859 288.112 144.899 287.755 144.195 287.04C143.501 286.325 143.155 285.339 143.155 284.08C143.155 283.28 143.309 282.576 143.619 281.968C143.928 281.349 144.36 280.869 144.915 280.528C145.48 280.187 146.12 280.016 146.835 280.016C147.869 280.016 148.68 280.357 149.267 281.04C149.853 281.712 150.147 282.64 150.147 283.824V284.304ZM146.851 281.024C146.168 281.024 145.619 281.237 145.203 281.664C144.797 282.091 144.557 282.693 144.483 283.472H149.011C148.989 282.683 148.792 282.08 148.419 281.664C148.045 281.237 147.523 281.024 146.851 281.024ZM159.168 276.72V288H157.872V286.576C157.638 287.067 157.291 287.445 156.832 287.712C156.384 287.979 155.856 288.112 155.248 288.112C154.566 288.112 153.963 287.941 153.44 287.6C152.918 287.259 152.512 286.784 152.224 286.176C151.936 285.557 151.792 284.843 151.792 284.032C151.792 283.232 151.936 282.528 152.224 281.92C152.512 281.312 152.918 280.843 153.44 280.512C153.963 280.181 154.566 280.016 155.248 280.016C155.856 280.016 156.384 280.149 156.832 280.416C157.291 280.683 157.638 281.061 157.872 281.552V276.72H159.168ZM155.504 287.04C156.262 287.04 156.843 286.784 157.248 286.272C157.664 285.749 157.872 285.013 157.872 284.064C157.872 283.115 157.664 282.384 157.248 281.872C156.843 281.36 156.262 281.104 155.504 281.104C154.747 281.104 154.155 281.36 153.728 281.872C153.312 282.384 153.104 283.104 153.104 284.032C153.104 284.981 153.312 285.723 153.728 286.256C154.155 286.779 154.747 287.04 155.504 287.04ZM166.094 288V280.208H167.39V288H166.094ZM165.966 276.832H167.534V278.288H165.966V276.832ZM171.741 280.208H173.949V281.232H171.741V288H170.445V281.232H168.925V280.208H170.445V279.952C170.445 278.917 170.701 278.133 171.213 277.6C171.735 277.067 172.535 276.768 173.613 276.704L174.253 276.672L174.349 277.68L173.613 277.728C172.962 277.771 172.487 277.957 172.189 278.288C171.89 278.608 171.741 279.104 171.741 279.776V280.208ZM185.371 280.224H186.667L182.059 290.88H180.731L182.043 287.904L178.747 280.224H180.123L182.731 286.592L185.371 280.224ZM191.345 288.112C190.609 288.112 189.958 287.947 189.393 287.616C188.838 287.285 188.406 286.816 188.097 286.208C187.798 285.589 187.649 284.875 187.649 284.064C187.649 283.253 187.798 282.544 188.097 281.936C188.406 281.317 188.838 280.843 189.393 280.512C189.958 280.181 190.609 280.016 191.345 280.016C192.081 280.016 192.731 280.181 193.297 280.512C193.862 280.843 194.294 281.317 194.593 281.936C194.902 282.544 195.057 283.253 195.057 284.064C195.057 284.875 194.902 285.589 194.593 286.208C194.294 286.816 193.862 287.285 193.297 287.616C192.731 287.947 192.081 288.112 191.345 288.112ZM191.345 287.04C192.113 287.04 192.699 286.789 193.105 286.288C193.521 285.776 193.729 285.035 193.729 284.064C193.729 283.115 193.521 282.384 193.105 281.872C192.689 281.349 192.102 281.088 191.345 281.088C190.587 281.088 190.001 281.349 189.585 281.872C189.169 282.384 188.961 283.115 188.961 284.064C188.961 285.024 189.163 285.76 189.569 286.272C189.985 286.784 190.577 287.04 191.345 287.04ZM203.748 280.208V288H202.484V286.672C202.238 287.141 201.892 287.499 201.444 287.744C201.006 287.989 200.51 288.112 199.956 288.112C199.028 288.112 198.329 287.856 197.86 287.344C197.39 286.821 197.156 286.053 197.156 285.04V280.208H198.452V285.008C198.452 285.701 198.59 286.213 198.868 286.544C199.145 286.864 199.582 287.024 200.18 287.024C200.862 287.024 201.412 286.805 201.828 286.368C202.244 285.92 202.452 285.333 202.452 284.608V280.208H203.748ZM206.5 281.152L206.148 276.72H207.684L207.364 281.152H206.5ZM214.503 281.136L213.655 281.216C212.855 281.291 212.274 281.541 211.911 281.968C211.559 282.395 211.383 282.923 211.383 283.552V288H210.087V280.208H211.351V281.568C211.789 280.661 212.647 280.155 213.927 280.048L214.391 280.016L214.503 281.136ZM222.3 284.304H216.604C216.647 285.211 216.892 285.899 217.34 286.368C217.788 286.827 218.423 287.056 219.244 287.056C220.151 287.056 220.983 286.747 221.74 286.128L222.172 287.072C221.831 287.392 221.393 287.648 220.86 287.84C220.327 288.021 219.783 288.112 219.228 288.112C218.012 288.112 217.052 287.755 216.348 287.04C215.655 286.325 215.308 285.339 215.308 284.08C215.308 283.28 215.463 282.576 215.772 281.968C216.081 281.349 216.513 280.869 217.068 280.528C217.633 280.187 218.273 280.016 218.988 280.016C220.023 280.016 220.833 280.357 221.42 281.04C222.007 281.712 222.3 282.64 222.3 283.824V284.304ZM219.004 281.024C218.321 281.024 217.772 281.237 217.356 281.664C216.951 282.091 216.711 282.693 216.636 283.472H221.164C221.143 282.683 220.945 282.08 220.572 281.664C220.199 281.237 219.676 281.024 219.004 281.024ZM232.158 287.072C232.393 287.072 232.628 287.056 232.862 287.024L232.798 288.048C232.553 288.091 232.286 288.112 231.998 288.112C231.06 288.112 230.35 287.867 229.87 287.376C229.401 286.885 229.166 286.203 229.166 285.328V281.232H227.646V280.208H229.166V277.84H230.462V280.208H232.67V281.232H230.462V285.232C230.462 286.459 231.028 287.072 232.158 287.072ZM237.604 288.112C236.868 288.112 236.217 287.947 235.652 287.616C235.097 287.285 234.665 286.816 234.356 286.208C234.057 285.589 233.908 284.875 233.908 284.064C233.908 283.253 234.057 282.544 234.356 281.936C234.665 281.317 235.097 280.843 235.652 280.512C236.217 280.181 236.868 280.016 237.604 280.016C238.34 280.016 238.991 280.181 239.556 280.512C240.121 280.843 240.553 281.317 240.852 281.936C241.161 282.544 241.316 283.253 241.316 284.064C241.316 284.875 241.161 285.589 240.852 286.208C240.553 286.816 240.121 287.285 239.556 287.616C238.991 287.947 238.34 288.112 237.604 288.112ZM237.604 287.04C238.372 287.04 238.959 286.789 239.364 286.288C239.78 285.776 239.988 285.035 239.988 284.064C239.988 283.115 239.78 282.384 239.364 281.872C238.948 281.349 238.361 281.088 237.604 281.088C236.847 281.088 236.26 281.349 235.844 281.872C235.428 282.384 235.22 283.115 235.22 284.064C235.22 285.024 235.423 285.76 235.828 286.272C236.244 286.784 236.836 287.04 237.604 287.04ZM246.679 288.112C245.943 288.112 245.292 287.947 244.727 287.616C244.172 287.285 243.74 286.816 243.431 286.208C243.132 285.589 242.983 284.875 242.983 284.064C242.983 283.253 243.132 282.544 243.431 281.936C243.74 281.317 244.172 280.843 244.727 280.512C245.292 280.181 245.943 280.016 246.679 280.016C247.415 280.016 248.066 280.181 248.631 280.512C249.196 280.843 249.628 281.317 249.927 281.936C250.236 282.544 250.391 283.253 250.391 284.064C250.391 284.875 250.236 285.589 249.927 286.208C249.628 286.816 249.196 287.285 248.631 287.616C248.066 287.947 247.415 288.112 246.679 288.112ZM246.679 287.04C247.447 287.04 248.034 286.789 248.439 286.288C248.855 285.776 249.063 285.035 249.063 284.064C249.063 283.115 248.855 282.384 248.439 281.872C248.023 281.349 247.436 281.088 246.679 281.088C245.922 281.088 245.335 281.349 244.919 281.872C244.503 282.384 244.295 283.115 244.295 284.064C244.295 285.024 244.498 285.76 244.903 286.272C245.319 286.784 245.911 287.04 246.679 287.04ZM261.263 281.136L260.415 281.216C259.615 281.291 259.034 281.541 258.671 281.968C258.319 282.395 258.143 282.923 258.143 283.552V288H256.847V280.208H258.111V281.568C258.548 280.661 259.407 280.155 260.687 280.048L261.151 280.016L261.263 281.136ZM269.059 284.304H263.363C263.406 285.211 263.651 285.899 264.099 286.368C264.547 286.827 265.182 287.056 266.003 287.056C266.91 287.056 267.742 286.747 268.499 286.128L268.931 287.072C268.59 287.392 268.153 287.648 267.619 287.84C267.086 288.021 266.542 288.112 265.987 288.112C264.771 288.112 263.811 287.755 263.107 287.04C262.414 286.325 262.067 285.339 262.067 284.08C262.067 283.28 262.222 282.576 262.531 281.968C262.841 281.349 263.273 280.869 263.827 280.528C264.393 280.187 265.033 280.016 265.747 280.016C266.782 280.016 267.593 280.357 268.179 281.04C268.766 281.712 269.059 282.64 269.059 283.824V284.304ZM265.763 281.024C265.081 281.024 264.531 281.237 264.115 281.664C263.71 282.091 263.47 282.693 263.395 283.472H267.923C267.902 282.683 267.705 282.08 267.331 281.664C266.958 281.237 266.435 281.024 265.763 281.024ZM271.169 288V276.72H272.465V288H271.169ZM275.087 288V280.208H276.383V288H275.087ZM274.959 276.832H276.527V278.288H274.959V276.832ZM282.174 280.016C283.166 280.016 283.902 280.272 284.382 280.784C284.873 281.285 285.118 282.053 285.118 283.088V288H283.854V286.672C283.652 287.131 283.342 287.488 282.926 287.744C282.51 287.989 282.03 288.112 281.486 288.112C280.985 288.112 280.521 288.011 280.094 287.808C279.678 287.605 279.348 287.323 279.102 286.96C278.857 286.597 278.734 286.197 278.734 285.76C278.734 285.173 278.884 284.72 279.182 284.4C279.481 284.069 279.972 283.835 280.654 283.696C281.337 283.547 282.286 283.472 283.502 283.472H283.854V282.944C283.854 282.293 283.721 281.824 283.454 281.536C283.188 281.237 282.756 281.088 282.158 281.088C281.262 281.088 280.372 281.365 279.486 281.92L279.054 280.976C279.46 280.688 279.945 280.459 280.51 280.288C281.086 280.107 281.641 280.016 282.174 280.016ZM281.662 287.088C282.302 287.088 282.825 286.875 283.23 286.448C283.646 286.011 283.854 285.451 283.854 284.768V284.304H283.566C282.628 284.304 281.913 284.347 281.422 284.432C280.932 284.507 280.58 284.64 280.366 284.832C280.164 285.013 280.062 285.285 280.062 285.648C280.062 286.064 280.212 286.411 280.51 286.688C280.82 286.955 281.204 287.088 281.662 287.088ZM291.611 280.016C293.477 280.016 294.411 281.045 294.411 283.104V288H293.115V283.184C293.115 282.459 292.971 281.931 292.683 281.6C292.405 281.269 291.957 281.104 291.339 281.104C290.624 281.104 290.053 281.323 289.627 281.76C289.2 282.197 288.987 282.789 288.987 283.536V288H287.691V280.208H288.971V281.488C289.227 281.008 289.584 280.645 290.043 280.4C290.501 280.144 291.024 280.016 291.611 280.016ZM300.408 287.072C300.643 287.072 300.878 287.056 301.112 287.024L301.048 288.048C300.803 288.091 300.536 288.112 300.248 288.112C299.31 288.112 298.6 287.867 298.12 287.376C297.651 286.885 297.416 286.203 297.416 285.328V281.232H295.896V280.208H297.416V277.84H298.712V280.208H300.92V281.232H298.712V285.232C298.712 286.459 299.278 287.072 300.408 287.072ZM54.432 312.112C53.696 312.112 53.0453 311.947 52.48 311.616C51.9253 311.285 51.4933 310.816 51.184 310.208C50.8853 309.589 50.736 308.875 50.736 308.064C50.736 307.253 50.8853 306.544 51.184 305.936C51.4933 305.317 51.9253 304.843 52.48 304.512C53.0453 304.181 53.696 304.016 54.432 304.016C55.168 304.016 55.8187 304.181 56.384 304.512C56.9493 304.843 57.3813 305.317 57.68 305.936C57.9893 306.544 58.144 307.253 58.144 308.064C58.144 308.875 57.9893 309.589 57.68 310.208C57.3813 310.816 56.9493 311.285 56.384 311.616C55.8187 311.947 55.168 312.112 54.432 312.112ZM54.432 311.04C55.2 311.04 55.7867 310.789 56.192 310.288C56.608 309.776 56.816 309.035 56.816 308.064C56.816 307.115 56.608 306.384 56.192 305.872C55.776 305.349 55.1893 305.088 54.432 305.088C53.6747 305.088 53.088 305.349 52.672 305.872C52.256 306.384 52.048 307.115 52.048 308.064C52.048 309.024 52.2507 309.76 52.656 310.272C53.072 310.784 53.664 311.04 54.432 311.04ZM64.195 304.016C66.0617 304.016 66.995 305.045 66.995 307.104V312H65.699V307.184C65.699 306.459 65.555 305.931 65.267 305.6C64.9897 305.269 64.5417 305.104 63.923 305.104C63.2083 305.104 62.6377 305.323 62.211 305.76C61.7843 306.197 61.571 306.789 61.571 307.536V312H60.275V304.208H61.555V305.488C61.811 305.008 62.1683 304.645 62.627 304.4C63.0857 304.144 63.6083 304.016 64.195 304.016ZM77.0618 304.016C78.0538 304.016 78.7898 304.272 79.2698 304.784C79.7604 305.285 80.0058 306.053 80.0058 307.088V312H78.7418V310.672C78.5391 311.131 78.2298 311.488 77.8138 311.744C77.3978 311.989 76.9178 312.112 76.3738 312.112C75.8724 312.112 75.4084 312.011 74.9818 311.808C74.5658 311.605 74.2351 311.323 73.9898 310.96C73.7444 310.597 73.6218 310.197 73.6218 309.76C73.6218 309.173 73.7711 308.72 74.0698 308.4C74.3684 308.069 74.8591 307.835 75.5418 307.696C76.2244 307.547 77.1738 307.472 78.3898 307.472H78.7418V306.944C78.7418 306.293 78.6084 305.824 78.3418 305.536C78.0751 305.237 77.6431 305.088 77.0458 305.088C76.1498 305.088 75.2591 305.365 74.3738 305.92L73.9418 304.976C74.3471 304.688 74.8324 304.459 75.3978 304.288C75.9738 304.107 76.5284 304.016 77.0618 304.016ZM76.5498 311.088C77.1898 311.088 77.7124 310.875 78.1178 310.448C78.5338 310.011 78.7418 309.451 78.7418 308.768V308.304H78.4538C77.5151 308.304 76.8004 308.347 76.3098 308.432C75.8191 308.507 75.4671 308.64 75.2538 308.832C75.0511 309.013 74.9498 309.285 74.9498 309.648C74.9498 310.064 75.0991 310.411 75.3978 310.688C75.7071 310.955 76.0911 311.088 76.5498 311.088ZM90.1991 312.112C89.4311 312.112 88.7645 311.947 88.1991 311.616C87.6338 311.285 87.1965 310.821 86.8871 310.224C86.5885 309.616 86.4391 308.907 86.4391 308.096C86.4391 307.285 86.5938 306.576 86.9031 305.968C87.2231 305.349 87.6658 304.869 88.2311 304.528C88.8071 304.187 89.4791 304.016 90.2471 304.016C90.7698 304.016 91.2818 304.112 91.7831 304.304C92.2845 304.485 92.6898 304.731 92.9991 305.04L92.5671 306C91.8311 305.403 91.0845 305.104 90.3271 305.104C89.5271 305.104 88.9031 305.365 88.4551 305.888C88.0071 306.411 87.7831 307.147 87.7831 308.096C87.7831 309.035 88.0071 309.76 88.4551 310.272C88.9031 310.784 89.5271 311.04 90.3271 311.04C91.0845 311.04 91.8311 310.741 92.5671 310.144L92.9991 311.104C92.6685 311.413 92.2525 311.659 91.7511 311.84C91.2498 312.021 90.7325 312.112 90.1991 312.112ZM94.7594 312V300.72H96.0554V312H94.7594ZM98.6781 312V304.208H99.9741V312H98.6781ZM98.5501 300.832H100.118V302.288H98.5501V300.832ZM109.125 308.304H103.429C103.472 309.211 103.717 309.899 104.165 310.368C104.613 310.827 105.248 311.056 106.069 311.056C106.976 311.056 107.808 310.747 108.565 310.128L108.997 311.072C108.656 311.392 108.218 311.648 107.685 311.84C107.152 312.021 106.608 312.112 106.053 312.112C104.837 312.112 103.877 311.755 103.173 311.04C102.48 310.325 102.133 309.339 102.133 308.08C102.133 307.28 102.288 306.576 102.597 305.968C102.906 305.349 103.338 304.869 103.893 304.528C104.458 304.187 105.098 304.016 105.813 304.016C106.848 304.016 107.658 304.357 108.245 305.04C108.832 305.712 109.125 306.64 109.125 307.824V308.304ZM105.829 305.024C105.146 305.024 104.597 305.237 104.181 305.664C103.776 306.091 103.536 306.693 103.461 307.472H107.989C107.968 306.683 107.77 306.08 107.397 305.664C107.024 305.237 106.501 305.024 105.829 305.024ZM115.154 304.016C117.021 304.016 117.954 305.045 117.954 307.104V312H116.658V307.184C116.658 306.459 116.514 305.931 116.226 305.6C115.949 305.269 115.501 305.104 114.882 305.104C114.168 305.104 113.597 305.323 113.17 305.76C112.744 306.197 112.53 306.789 112.53 307.536V312H111.234V304.208H112.514V305.488C112.77 305.008 113.128 304.645 113.586 304.4C114.045 304.144 114.568 304.016 115.154 304.016ZM123.952 311.072C124.187 311.072 124.421 311.056 124.656 311.024L124.592 312.048C124.347 312.091 124.08 312.112 123.792 312.112C122.853 312.112 122.144 311.867 121.664 311.376C121.195 310.885 120.96 310.203 120.96 309.328V305.232H119.44V304.208H120.96V301.84H122.256V304.208H124.464V305.232H122.256V309.232C122.256 310.459 122.821 311.072 123.952 311.072ZM132.219 304.208H134.427V305.232H132.219V312H130.923V305.232H129.403V304.208H130.923V303.952C130.923 302.917 131.179 302.133 131.691 301.6C132.213 301.067 133.013 300.768 134.091 300.704L134.731 300.672L134.827 301.68L134.091 301.728C133.44 301.771 132.965 301.957 132.667 302.288C132.368 302.608 132.219 303.104 132.219 303.776V304.208ZM139.094 312.112C138.358 312.112 137.708 311.947 137.142 311.616C136.588 311.285 136.156 310.816 135.846 310.208C135.548 309.589 135.398 308.875 135.398 308.064C135.398 307.253 135.548 306.544 135.846 305.936C136.156 305.317 136.588 304.843 137.142 304.512C137.708 304.181 138.358 304.016 139.094 304.016C139.83 304.016 140.481 304.181 141.046 304.512C141.612 304.843 142.044 305.317 142.342 305.936C142.652 306.544 142.806 307.253 142.806 308.064C142.806 308.875 142.652 309.589 142.342 310.208C142.044 310.816 141.612 311.285 141.046 311.616C140.481 311.947 139.83 312.112 139.094 312.112ZM139.094 311.04C139.862 311.04 140.449 310.789 140.854 310.288C141.27 309.776 141.478 309.035 141.478 308.064C141.478 307.115 141.27 306.384 140.854 305.872C140.438 305.349 139.852 305.088 139.094 305.088C138.337 305.088 137.75 305.349 137.334 305.872C136.918 306.384 136.71 307.115 136.71 308.064C136.71 309.024 136.913 309.76 137.318 310.272C137.734 310.784 138.326 311.04 139.094 311.04ZM149.354 305.136L148.506 305.216C147.706 305.291 147.124 305.541 146.762 305.968C146.41 306.395 146.234 306.923 146.234 307.552V312H144.938V304.208H146.202V305.568C146.639 304.661 147.498 304.155 148.778 304.048L149.242 304.016L149.354 305.136ZM165.679 304.208H166.975L164.079 312H162.831L160.639 305.968L158.431 312H157.199L154.303 304.208H155.647L157.855 310.464L160.111 304.208H161.231L163.455 310.464L165.679 304.208ZM171.91 312.112C171.174 312.112 170.523 311.947 169.958 311.616C169.403 311.285 168.971 310.816 168.662 310.208C168.363 309.589 168.214 308.875 168.214 308.064C168.214 307.253 168.363 306.544 168.662 305.936C168.971 305.317 169.403 304.843 169.958 304.512C170.523 304.181 171.174 304.016 171.91 304.016C172.646 304.016 173.297 304.181 173.862 304.512C174.427 304.843 174.859 305.317 175.158 305.936C175.467 306.544 175.622 307.253 175.622 308.064C175.622 308.875 175.467 309.589 175.158 310.208C174.859 310.816 174.427 311.285 173.862 311.616C173.297 311.947 172.646 312.112 171.91 312.112ZM171.91 311.04C172.678 311.04 173.265 310.789 173.67 310.288C174.086 309.776 174.294 309.035 174.294 308.064C174.294 307.115 174.086 306.384 173.67 305.872C173.254 305.349 172.667 305.088 171.91 305.088C171.153 305.088 170.566 305.349 170.15 305.872C169.734 306.384 169.526 307.115 169.526 308.064C169.526 309.024 169.729 309.76 170.134 310.272C170.55 310.784 171.142 311.04 171.91 311.04ZM182.169 305.136L181.321 305.216C180.521 305.291 179.94 305.541 179.577 305.968C179.225 306.395 179.049 306.923 179.049 307.552V312H177.753V304.208H179.017V305.568C179.454 304.661 180.313 304.155 181.593 304.048L182.057 304.016L182.169 305.136ZM190.538 312H188.858L184.89 308.272V312H183.594V300.72H184.89V307.744L188.522 304.224H190.17L186.298 307.952L190.538 312ZM193.319 308.656C193.319 307.995 193.436 307.435 193.671 306.976C193.905 306.507 194.247 305.989 194.695 305.424C195.057 304.965 195.324 304.576 195.495 304.256C195.676 303.936 195.767 303.579 195.767 303.184C195.767 302.725 195.607 302.368 195.287 302.112C194.967 301.845 194.529 301.712 193.975 301.712C193.473 301.712 192.961 301.824 192.439 302.048C191.916 302.261 191.404 302.576 190.903 302.992L190.391 301.984C190.849 301.557 191.409 301.221 192.071 300.976C192.732 300.72 193.388 300.592 194.039 300.592C194.945 300.592 195.681 300.821 196.247 301.28C196.812 301.739 197.095 302.341 197.095 303.088C197.095 303.653 196.972 304.144 196.727 304.56C196.481 304.976 196.113 305.461 195.623 306.016C195.164 306.539 194.812 306.997 194.567 307.392C194.321 307.787 194.172 308.245 194.119 308.768L194.087 309.056H193.319V308.656ZM192.903 312V310.368H194.535V312H192.903ZM206.985 312.128C205.225 312.128 203.817 311.653 202.761 310.704L203.273 309.696C203.828 310.165 204.393 310.501 204.969 310.704C205.556 310.907 206.233 311.008 207.001 311.008C207.908 311.008 208.607 310.832 209.097 310.48C209.588 310.128 209.833 309.632 209.833 308.992C209.833 308.619 209.716 308.315 209.481 308.08C209.247 307.845 208.937 307.659 208.553 307.52C208.169 307.381 207.652 307.237 207.001 307.088C206.127 306.885 205.407 306.672 204.841 306.448C204.287 306.224 203.833 305.904 203.481 305.488C203.14 305.072 202.969 304.528 202.969 303.856C202.969 303.216 203.135 302.651 203.465 302.16C203.807 301.659 204.287 301.275 204.905 301.008C205.535 300.731 206.26 300.592 207.081 300.592C207.86 300.592 208.585 300.715 209.257 300.96C209.94 301.205 210.516 301.557 210.985 302.016L210.489 303.024C209.956 302.565 209.412 302.235 208.857 302.032C208.313 301.819 207.721 301.712 207.081 301.712C206.207 301.712 205.519 301.899 205.017 302.272C204.527 302.635 204.281 303.147 204.281 303.808C204.281 304.373 204.5 304.8 204.937 305.088C205.375 305.376 206.036 305.621 206.921 305.824C207.892 306.059 208.655 306.277 209.209 306.48C209.764 306.672 210.223 306.965 210.585 307.36C210.959 307.755 211.145 308.283 211.145 308.944C211.145 309.584 210.975 310.144 210.633 310.624C210.303 311.104 209.823 311.477 209.193 311.744C208.564 312 207.828 312.128 206.985 312.128ZM213.284 312V300.72H214.58V312H213.284ZM220.371 304.016C221.363 304.016 222.099 304.272 222.579 304.784C223.07 305.285 223.315 306.053 223.315 307.088V312H222.051V310.672C221.848 311.131 221.539 311.488 221.123 311.744C220.707 311.989 220.227 312.112 219.683 312.112C219.182 312.112 218.718 312.011 218.291 311.808C217.875 311.605 217.544 311.323 217.299 310.96C217.054 310.597 216.931 310.197 216.931 309.76C216.931 309.173 217.08 308.72 217.379 308.4C217.678 308.069 218.168 307.835 218.851 307.696C219.534 307.547 220.483 307.472 221.699 307.472H222.051V306.944C222.051 306.293 221.918 305.824 221.651 305.536C221.384 305.237 220.952 305.088 220.355 305.088C219.459 305.088 218.568 305.365 217.683 305.92L217.251 304.976C217.656 304.688 218.142 304.459 218.707 304.288C219.283 304.107 219.838 304.016 220.371 304.016ZM219.859 311.088C220.499 311.088 221.022 310.875 221.427 310.448C221.843 310.011 222.051 309.451 222.051 308.768V308.304H221.763C220.824 308.304 220.11 308.347 219.619 308.432C219.128 308.507 218.776 308.64 218.563 308.832C218.36 309.013 218.259 309.285 218.259 309.648C218.259 310.064 218.408 310.411 218.707 310.688C219.016 310.955 219.4 311.088 219.859 311.088ZM229.312 311.072C229.546 311.072 229.781 311.056 230.016 311.024L229.952 312.048C229.706 312.091 229.44 312.112 229.152 312.112C228.213 312.112 227.504 311.867 227.024 311.376C226.554 310.885 226.32 310.203 226.32 309.328V305.232H224.8V304.208H226.32V301.84H227.616V304.208H229.824V305.232H227.616V309.232C227.616 310.459 228.181 311.072 229.312 311.072ZM238.053 308.304H232.357C232.4 309.211 232.645 309.899 233.093 310.368C233.541 310.827 234.176 311.056 234.997 311.056C235.904 311.056 236.736 310.747 237.493 310.128L237.925 311.072C237.584 311.392 237.146 311.648 236.613 311.84C236.08 312.021 235.536 312.112 234.981 312.112C233.765 312.112 232.805 311.755 232.101 311.04C231.408 310.325 231.061 309.339 231.061 308.08C231.061 307.28 231.216 306.576 231.525 305.968C231.834 305.349 232.266 304.869 232.821 304.528C233.386 304.187 234.026 304.016 234.741 304.016C235.776 304.016 236.586 304.357 237.173 305.04C237.76 305.712 238.053 306.64 238.053 307.824V308.304ZM234.757 305.024C234.074 305.024 233.525 305.237 233.109 305.664C232.704 306.091 232.464 306.693 232.389 307.472H236.917C236.896 306.683 236.698 306.08 236.325 305.664C235.952 305.237 235.429 305.024 234.757 305.024ZM248.408 304.016C250.274 304.016 251.208 305.045 251.208 307.104V312H249.912V307.184C249.912 306.459 249.768 305.931 249.48 305.6C249.202 305.269 248.754 305.104 248.136 305.104C247.421 305.104 246.85 305.323 246.424 305.76C245.997 306.197 245.784 306.789 245.784 307.536V312H244.488V300.72H245.784V305.456C246.04 304.987 246.392 304.629 246.84 304.384C247.298 304.139 247.821 304.016 248.408 304.016ZM260.309 308.304H254.613C254.656 309.211 254.901 309.899 255.349 310.368C255.797 310.827 256.432 311.056 257.253 311.056C258.16 311.056 258.992 310.747 259.749 310.128L260.181 311.072C259.84 311.392 259.403 311.648 258.869 311.84C258.336 312.021 257.792 312.112 257.237 312.112C256.021 312.112 255.061 311.755 254.357 311.04C253.664 310.325 253.317 309.339 253.317 308.08C253.317 307.28 253.472 306.576 253.781 305.968C254.091 305.349 254.523 304.869 255.077 304.528C255.643 304.187 256.283 304.016 256.997 304.016C258.032 304.016 258.843 304.357 259.429 305.04C260.016 305.712 260.309 306.64 260.309 307.824V308.304ZM257.013 305.024C256.331 305.024 255.781 305.237 255.365 305.664C254.96 306.091 254.72 306.693 254.645 307.472H259.173C259.152 306.683 258.955 306.08 258.581 305.664C258.208 305.237 257.685 305.024 257.013 305.024ZM262.419 312V300.72H263.715V312H262.419ZM270.257 304.016C270.94 304.016 271.543 304.187 272.065 304.528C272.588 304.869 272.993 305.349 273.281 305.968C273.569 306.576 273.713 307.285 273.713 308.096C273.713 308.907 273.569 309.616 273.281 310.224C272.993 310.821 272.588 311.285 272.065 311.616C271.553 311.947 270.951 312.112 270.257 312.112C269.649 312.112 269.116 311.979 268.657 311.712C268.209 311.445 267.868 311.067 267.633 310.576V314.88H266.337V304.208H267.633V305.552C267.868 305.061 268.209 304.683 268.657 304.416C269.116 304.149 269.649 304.016 270.257 304.016ZM270.001 311.04C270.759 311.04 271.345 310.784 271.761 310.272C272.177 309.76 272.385 309.035 272.385 308.096C272.385 307.157 272.177 306.427 271.761 305.904C271.345 305.371 270.759 305.104 270.001 305.104C269.244 305.104 268.657 305.36 268.241 305.872C267.836 306.384 267.633 307.115 267.633 308.064C267.633 309.013 267.836 309.749 268.241 310.272C268.657 310.784 269.244 311.04 270.001 311.04ZM278.49 312.112C277.178 312.112 276.138 311.776 275.37 311.104L275.802 310.144C276.218 310.475 276.639 310.715 277.066 310.864C277.503 311.003 277.994 311.072 278.538 311.072C279.114 311.072 279.551 310.976 279.85 310.784C280.159 310.581 280.314 310.293 280.314 309.92C280.314 309.611 280.213 309.365 280.01 309.184C279.807 309.003 279.471 308.859 279.002 308.752L277.69 308.448C277.029 308.299 276.522 308.043 276.17 307.68C275.818 307.317 275.642 306.869 275.642 306.336C275.642 305.643 275.914 305.083 276.458 304.656C277.002 304.229 277.727 304.016 278.634 304.016C279.178 304.016 279.695 304.107 280.186 304.288C280.677 304.459 281.087 304.709 281.418 305.04L280.986 305.984C280.271 305.376 279.487 305.072 278.634 305.072C278.09 305.072 277.663 305.179 277.354 305.392C277.055 305.595 276.906 305.883 276.906 306.256C276.906 306.565 276.997 306.816 277.178 307.008C277.37 307.189 277.674 307.328 278.09 307.424L279.418 307.744C280.143 307.915 280.682 308.176 281.034 308.528C281.386 308.869 281.562 309.317 281.562 309.872C281.562 310.555 281.285 311.099 280.73 311.504C280.186 311.909 279.439 312.112 278.49 312.112ZM56.784 328.224H58.08L53.472 338.88H52.144L53.456 335.904L50.16 328.224H51.536L54.144 334.592L56.784 328.224ZM62.757 336.112C62.021 336.112 61.3703 335.947 60.805 335.616C60.2503 335.285 59.8183 334.816 59.509 334.208C59.2103 333.589 59.061 332.875 59.061 332.064C59.061 331.253 59.2103 330.544 59.509 329.936C59.8183 329.317 60.2503 328.843 60.805 328.512C61.3703 328.181 62.021 328.016 62.757 328.016C63.493 328.016 64.1437 328.181 64.709 328.512C65.2743 328.843 65.7063 329.317 66.005 329.936C66.3143 330.544 66.469 331.253 66.469 332.064C66.469 332.875 66.3143 333.589 66.005 334.208C65.7063 334.816 65.2743 335.285 64.709 335.616C64.1437 335.947 63.493 336.112 62.757 336.112ZM62.757 335.04C63.525 335.04 64.1117 334.789 64.517 334.288C64.933 333.776 65.141 333.035 65.141 332.064C65.141 331.115 64.933 330.384 64.517 329.872C64.101 329.349 63.5143 329.088 62.757 329.088C61.9997 329.088 61.413 329.349 60.997 329.872C60.581 330.384 60.373 331.115 60.373 332.064C60.373 333.024 60.5757 333.76 60.981 334.272C61.397 334.784 61.989 335.04 62.757 335.04ZM75.16 328.208V336H73.896V334.672C73.6507 335.141 73.304 335.499 72.856 335.744C72.4187 335.989 71.9227 336.112 71.368 336.112C70.44 336.112 69.7413 335.856 69.272 335.344C68.8027 334.821 68.568 334.053 68.568 333.04V328.208H69.864V333.008C69.864 333.701 70.0027 334.213 70.28 334.544C70.5573 334.864 70.9947 335.024 71.592 335.024C72.2747 335.024 72.824 334.805 73.24 334.368C73.656 333.92 73.864 333.333 73.864 332.608V328.208H75.16ZM82.0937 336V328.208H83.3897V336H82.0937ZM81.9657 324.832H83.5337V326.288H81.9657V324.832ZM92.9245 324.72V336H91.6285V334.576C91.3938 335.067 91.0472 335.445 90.5885 335.712C90.1405 335.979 89.6125 336.112 89.0045 336.112C88.3218 336.112 87.7192 335.941 87.1965 335.6C86.6738 335.259 86.2685 334.784 85.9805 334.176C85.6925 333.557 85.5485 332.843 85.5485 332.032C85.5485 331.232 85.6925 330.528 85.9805 329.92C86.2685 329.312 86.6738 328.843 87.1965 328.512C87.7192 328.181 88.3218 328.016 89.0045 328.016C89.6125 328.016 90.1405 328.149 90.5885 328.416C91.0472 328.683 91.3938 329.061 91.6285 329.552V324.72H92.9245ZM89.2605 335.04C90.0178 335.04 90.5992 334.784 91.0045 334.272C91.4205 333.749 91.6285 333.013 91.6285 332.064C91.6285 331.115 91.4205 330.384 91.0045 329.872C90.5992 329.36 90.0178 329.104 89.2605 329.104C88.5032 329.104 87.9112 329.36 87.4845 329.872C87.0685 330.384 86.8605 331.104 86.8605 332.032C86.8605 332.981 87.0685 333.723 87.4845 334.256C87.9112 334.779 88.5032 335.04 89.2605 335.04ZM102.053 332.304H96.357C96.3997 333.211 96.645 333.899 97.093 334.368C97.541 334.827 98.1757 335.056 98.997 335.056C99.9037 335.056 100.736 334.747 101.493 334.128L101.925 335.072C101.584 335.392 101.146 335.648 100.613 335.84C100.08 336.021 99.5357 336.112 98.981 336.112C97.765 336.112 96.805 335.755 96.101 335.04C95.4077 334.325 95.061 333.339 95.061 332.08C95.061 331.28 95.2157 330.576 95.525 329.968C95.8343 329.349 96.2663 328.869 96.821 328.528C97.3863 328.187 98.0263 328.016 98.741 328.016C99.7757 328.016 100.586 328.357 101.173 329.04C101.76 329.712 102.053 330.64 102.053 331.824V332.304ZM98.757 329.024C98.0743 329.024 97.525 329.237 97.109 329.664C96.7037 330.091 96.4637 330.693 96.389 331.472H100.917C100.896 330.683 100.698 330.08 100.325 329.664C99.9517 329.237 99.429 329.024 98.757 329.024ZM108.083 328.016C109.949 328.016 110.883 329.045 110.883 331.104V336H109.587V331.184C109.587 330.459 109.443 329.931 109.155 329.6C108.877 329.269 108.429 329.104 107.811 329.104C107.096 329.104 106.525 329.323 106.099 329.76C105.672 330.197 105.459 330.789 105.459 331.536V336H104.163V328.208H105.443V329.488C105.699 329.008 106.056 328.645 106.515 328.4C106.973 328.144 107.496 328.016 108.083 328.016ZM116.88 335.072C117.115 335.072 117.35 335.056 117.584 335.024L117.52 336.048C117.275 336.091 117.008 336.112 116.72 336.112C115.782 336.112 115.072 335.867 114.592 335.376C114.123 334.885 113.888 334.203 113.888 333.328V329.232H112.368V328.208H113.888V325.84H115.184V328.208H117.392V329.232H115.184V333.232C115.184 334.459 115.75 335.072 116.88 335.072ZM119.094 336V328.208H120.39V336H119.094ZM118.966 324.832H120.534V326.288H118.966V324.832ZM124.741 328.208H126.949V329.232H124.741V336H123.445V329.232H121.925V328.208H123.445V327.952C123.445 326.917 123.701 326.133 124.213 325.6C124.735 325.067 125.535 324.768 126.613 324.704L127.253 324.672L127.349 325.68L126.613 325.728C125.962 325.771 125.487 325.957 125.189 326.288C124.89 326.608 124.741 327.104 124.741 327.776V328.208ZM134.265 328.224H135.561L130.953 338.88H129.625L130.937 335.904L127.641 328.224H129.017L131.625 334.592L134.265 328.224ZM141.233 334.368H142.865V336H141.233V334.368Z" fill="#5C5C5C"/>
<g clip-path="url(#clip0_46_2106)">
<path fill-rule="evenodd" clip-rule="evenodd" d="M191 604C128.592 604 78 553.408 78 491C78 428.592 128.592 378 191 378C253.408 378 304 428.592 304 491C304 553.408 253.408 604 191 604ZM191 594C247.885 594 294 547.885 294 491C294 434.115 247.885 388 191 388C134.115 388 88 434.115 88 491C88 547.885 134.115 594 191 594Z" fill="#EDF0F4"/>
<path fill-rule="evenodd" clip-rule="evenodd" d="M191 378C188.239 378 186 380.239 186 383C186 385.761 188.239 388 191 388C247.885 388 294 434.115 294 491C294 547.885 247.885 594 191 594C137.197 594 92.5664 552.587 88.3279 499.283C88.109 496.53 85.7 494.476 82.9473 494.695C80.1946 494.914 78.1405 497.323 78.3594 500.075C83.0105 558.568 131.972 604 191 604C253.408 604 304 553.408 304 491C304 428.592 253.408 378 191 378Z" fill="#826AF9"/>
<path fill-rule="evenodd" clip-rule="evenodd" d="M191 588C137.428 588 94 544.572 94 491C94 437.428 137.428 394 191 394C244.572 394 288 437.428 288 491C288 544.572 244.572 588 191 588ZM191 578C239.049 578 278 539.049 278 491C278 442.951 239.049 404 191 404C142.951 404 104 442.951 104 491C104 539.049 142.951 578 191 578Z" fill="#EDF0F4"/>
<path fill-rule="evenodd" clip-rule="evenodd" d="M191 394C188.239 394 186 396.239 186 399C186 401.761 188.239 404 191 404C239.049 404 278 442.951 278 491C278 539.049 239.049 578 191 578C142.951 578 104 539.049 104 491C104 472.574 109.736 455.024 120.241 440.371C121.85 438.126 121.334 435.003 119.09 433.394C116.846 431.785 113.722 432.3 112.113 434.544C100.401 450.883 94 470.467 94 491C94 544.572 137.428 588 191 588C244.572 588 288 544.572 288 491C288 437.428 244.572 394 191 394Z" fill="#9E86FF"/>
<path fill-rule="evenodd" clip-rule="evenodd" d="M191 573C145.713 573 109 536.287 109 491C109 445.713 145.713 409 191 409C236.287 409 273 445.713 273 491C273 536.287 236.287 573 191 573ZM191 563C230.765 563 263 530.765 263 491C263 451.235 230.765 419 191 419C151.235 419 119 451.235 119 491C119 530.765 151.235 563 191 563Z" fill="#EDF0F4"/>
<path fill-rule="evenodd" clip-rule="evenodd" d="M191 409C188.239 409 186 411.239 186 414C186 416.761 188.239 419 191 419C230.765 419 263 451.235 263 491C263 530.765 230.765 563 191 563C151.235 563 119 530.765 119 491C119 465.965 131.874 443.145 152.668 430.04C155.005 428.568 155.705 425.48 154.233 423.144C152.76 420.808 149.673 420.107 147.337 421.58C123.666 436.497 109 462.494 109 491C109 536.287 145.713 573 191 573C236.287 573 273 536.287 273 491C273 445.713 236.287 409 191 409Z" fill="#F7D2FF"/>
<g clip-path="url(#clip1_46_2106)">
<path d="M161.213 482.26C161.213 481.726 161.063 481.303 160.764 480.99C160.471 480.671 159.97 480.378 159.26 480.111C158.55 479.844 157.938 479.581 157.424 479.32C156.91 479.053 156.467 478.751 156.096 478.412C155.731 478.067 155.445 477.663 155.237 477.201C155.035 476.739 154.934 476.189 154.934 475.551C154.934 474.451 155.285 473.549 155.989 472.846C156.692 472.143 157.626 471.732 158.791 471.615V469.525H160.354V471.645C161.506 471.807 162.408 472.289 163.059 473.09C163.71 473.884 164.035 474.916 164.035 476.186H161.213C161.213 475.404 161.05 474.822 160.725 474.438C160.406 474.047 159.976 473.852 159.436 473.852C158.902 473.852 158.489 474.005 158.196 474.311C157.903 474.61 157.756 475.027 157.756 475.561C157.756 476.055 157.899 476.452 158.186 476.752C158.472 477.051 159.003 477.357 159.778 477.67C160.559 477.982 161.2 478.279 161.701 478.559C162.203 478.832 162.626 479.145 162.971 479.496C163.316 479.841 163.58 480.238 163.762 480.688C163.944 481.13 164.035 481.648 164.035 482.24C164.035 483.347 163.69 484.245 163 484.936C162.31 485.626 161.36 486.033 160.149 486.156V488.1H158.596V486.166C157.261 486.023 156.226 485.551 155.491 484.75C154.761 483.943 154.397 482.872 154.397 481.537H157.219C157.219 482.312 157.401 482.908 157.766 483.324C158.137 483.734 158.668 483.939 159.358 483.939C159.931 483.939 160.383 483.79 160.715 483.49C161.047 483.184 161.213 482.774 161.213 482.26ZM175.617 473.363L170.119 486H167.141L172.649 474.066H165.578V471.781H175.617V473.363ZM180.305 477.641H181.809C182.525 477.641 183.056 477.462 183.401 477.104C183.746 476.745 183.918 476.27 183.918 475.678C183.918 475.105 183.746 474.659 183.401 474.34C183.062 474.021 182.593 473.861 181.994 473.861C181.454 473.861 181.002 474.011 180.637 474.311C180.272 474.604 180.09 474.988 180.09 475.463H177.268C177.268 474.721 177.466 474.057 177.864 473.471C178.267 472.878 178.827 472.416 179.543 472.084C180.266 471.752 181.06 471.586 181.926 471.586C183.43 471.586 184.608 471.947 185.461 472.67C186.314 473.386 186.741 474.376 186.741 475.639C186.741 476.29 186.542 476.889 186.145 477.436C185.748 477.982 185.227 478.402 184.582 478.695C185.383 478.982 185.979 479.411 186.369 479.984C186.767 480.557 186.965 481.234 186.965 482.016C186.965 483.279 186.503 484.291 185.578 485.053C184.66 485.814 183.443 486.195 181.926 486.195C180.507 486.195 179.345 485.821 178.44 485.072C177.541 484.324 177.092 483.334 177.092 482.104H179.914C179.914 482.637 180.113 483.074 180.51 483.412C180.914 483.751 181.408 483.92 181.994 483.92C182.665 483.92 183.189 483.744 183.567 483.393C183.951 483.035 184.143 482.562 184.143 481.977C184.143 480.557 183.362 479.848 181.799 479.848H180.305V477.641ZM189.768 489.564L188.293 488.793L188.645 488.158C189.081 487.364 189.306 486.573 189.319 485.785V483.598H191.701L191.692 485.551C191.685 486.273 191.503 487.003 191.145 487.738C190.787 488.474 190.328 489.083 189.768 489.564ZM200.403 480.316C199.667 481.039 198.808 481.4 197.825 481.4C196.568 481.4 195.562 480.971 194.807 480.111C194.052 479.245 193.674 478.08 193.674 476.615C193.674 475.684 193.876 474.831 194.28 474.057C194.69 473.275 195.259 472.67 195.989 472.24C196.718 471.804 197.538 471.586 198.45 471.586C199.387 471.586 200.22 471.82 200.95 472.289C201.679 472.758 202.245 473.432 202.649 474.311C203.052 475.189 203.257 476.195 203.264 477.328V478.373C203.264 480.743 202.675 482.605 201.496 483.959C200.318 485.313 198.648 486.036 196.487 486.127L195.793 486.137V483.783L196.418 483.773C198.873 483.663 200.201 482.51 200.403 480.316ZM198.518 479.242C198.974 479.242 199.364 479.125 199.69 478.891C200.022 478.656 200.272 478.373 200.442 478.041V476.879C200.442 475.922 200.259 475.18 199.895 474.652C199.53 474.125 199.042 473.861 198.43 473.861C197.864 473.861 197.398 474.122 197.033 474.643C196.669 475.157 196.487 475.805 196.487 476.586C196.487 477.361 196.662 477.999 197.014 478.5C197.372 478.995 197.873 479.242 198.518 479.242ZM211.887 480.316C211.151 481.039 210.292 481.4 209.309 481.4C208.052 481.4 207.047 480.971 206.291 480.111C205.536 479.245 205.158 478.08 205.158 476.615C205.158 475.684 205.36 474.831 205.764 474.057C206.174 473.275 206.744 472.67 207.473 472.24C208.202 471.804 209.022 471.586 209.934 471.586C210.871 471.586 211.705 471.82 212.434 472.289C213.163 472.758 213.729 473.432 214.133 474.311C214.537 475.189 214.742 476.195 214.748 477.328V478.373C214.748 480.743 214.159 482.605 212.981 483.959C211.802 485.313 210.132 486.036 207.971 486.127L207.278 486.137V483.783L207.903 483.773C210.357 483.663 211.685 482.51 211.887 480.316ZM210.002 479.242C210.458 479.242 210.849 479.125 211.174 478.891C211.506 478.656 211.757 478.373 211.926 478.041V476.879C211.926 475.922 211.744 475.18 211.379 474.652C211.015 474.125 210.526 473.861 209.914 473.861C209.348 473.861 208.882 474.122 208.518 474.643C208.153 475.157 207.971 475.805 207.971 476.586C207.971 477.361 208.147 477.999 208.498 478.5C208.856 478.995 209.358 479.242 210.002 479.242ZM225.119 480.648H226.731V482.924H225.119V486H222.297V482.924H216.467L216.34 481.146L222.268 471.781H225.119V480.648ZM219.153 480.648H222.297V475.629L222.112 475.951L219.153 480.648Z" fill="#505D6F"/>
<path d="M167.745 507.604H163.568V512H162.256V502.047H168.422V503.127H163.568V506.531H167.745V507.604ZM174.13 512C174.057 511.854 173.998 511.594 173.952 511.221C173.364 511.831 172.662 512.137 171.847 512.137C171.118 512.137 170.518 511.932 170.049 511.521C169.584 511.107 169.352 510.583 169.352 509.949C169.352 509.179 169.643 508.582 170.227 508.158C170.814 507.73 171.639 507.516 172.701 507.516H173.932V506.935C173.932 506.493 173.799 506.142 173.535 505.882C173.271 505.618 172.881 505.485 172.366 505.485C171.915 505.485 171.537 505.599 171.231 505.827C170.926 506.055 170.773 506.331 170.773 506.654H169.502C169.502 506.285 169.632 505.93 169.892 505.588C170.156 505.242 170.511 504.968 170.958 504.768C171.409 504.567 171.904 504.467 172.441 504.467C173.294 504.467 173.961 504.681 174.444 505.109C174.927 505.533 175.178 506.119 175.196 506.866V510.271C175.196 510.95 175.283 511.49 175.456 511.891V512H174.13ZM172.031 511.036C172.428 511.036 172.804 510.934 173.159 510.729C173.515 510.523 173.772 510.257 173.932 509.929V508.411H172.94C171.391 508.411 170.616 508.865 170.616 509.771C170.616 510.168 170.748 510.478 171.013 510.701C171.277 510.924 171.617 511.036 172.031 511.036ZM180.146 511.104C180.597 511.104 180.991 510.968 181.328 510.694C181.665 510.421 181.852 510.079 181.889 509.669H183.085C183.062 510.093 182.916 510.496 182.647 510.879C182.379 511.262 182.019 511.567 181.567 511.795C181.121 512.023 180.647 512.137 180.146 512.137C179.138 512.137 178.336 511.802 177.739 511.132C177.147 510.457 176.851 509.537 176.851 508.37V508.158C176.851 507.438 176.983 506.798 177.247 506.237C177.511 505.677 177.89 505.242 178.382 504.932C178.879 504.622 179.464 504.467 180.139 504.467C180.968 504.467 181.656 504.715 182.203 505.212C182.755 505.709 183.049 506.354 183.085 507.146H181.889C181.852 506.668 181.67 506.276 181.342 505.971C181.018 505.661 180.617 505.506 180.139 505.506C179.496 505.506 178.997 505.738 178.642 506.203C178.291 506.663 178.115 507.331 178.115 508.206V508.445C178.115 509.298 178.291 509.954 178.642 510.414C178.993 510.874 179.494 511.104 180.146 511.104ZM187.576 512.137C186.574 512.137 185.758 511.809 185.129 511.152C184.5 510.492 184.186 509.61 184.186 508.507V508.274C184.186 507.541 184.325 506.887 184.603 506.312C184.885 505.734 185.277 505.283 185.778 504.959C186.284 504.631 186.831 504.467 187.419 504.467C188.381 504.467 189.128 504.784 189.661 505.417C190.194 506.05 190.461 506.957 190.461 508.138V508.664H185.45C185.468 509.393 185.68 509.983 186.086 510.435C186.496 510.881 187.016 511.104 187.645 511.104C188.091 511.104 188.469 511.013 188.779 510.831C189.089 510.649 189.36 510.407 189.593 510.106L190.365 510.708C189.745 511.66 188.816 512.137 187.576 512.137ZM187.419 505.506C186.909 505.506 186.48 505.693 186.134 506.066C185.787 506.436 185.573 506.955 185.491 507.625H189.196V507.529C189.16 506.887 188.987 506.39 188.677 506.039C188.367 505.684 187.948 505.506 187.419 505.506ZM198.192 508.384C198.192 509.514 197.933 510.423 197.413 511.111C196.894 511.795 196.196 512.137 195.321 512.137C194.387 512.137 193.665 511.806 193.154 511.146L193.093 512H191.931V501.5H193.195V505.417C193.706 504.784 194.41 504.467 195.308 504.467C196.205 504.467 196.91 504.806 197.42 505.485C197.935 506.164 198.192 507.094 198.192 508.274V508.384ZM196.928 508.24C196.928 507.379 196.761 506.714 196.429 506.244C196.096 505.775 195.618 505.54 194.993 505.54C194.159 505.54 193.56 505.927 193.195 506.702V509.901C193.583 510.676 194.187 511.063 195.007 511.063C195.613 511.063 196.085 510.829 196.422 510.359C196.759 509.89 196.928 509.184 196.928 508.24ZM199.457 508.233C199.457 507.509 199.598 506.857 199.881 506.278C200.168 505.7 200.564 505.253 201.07 504.938C201.581 504.624 202.162 504.467 202.813 504.467C203.821 504.467 204.634 504.815 205.254 505.513C205.878 506.21 206.19 507.137 206.19 508.295V508.384C206.19 509.104 206.051 509.751 205.773 510.325C205.5 510.895 205.106 511.339 204.591 511.658C204.08 511.977 203.493 512.137 202.827 512.137C201.825 512.137 201.011 511.788 200.387 511.091C199.767 510.394 199.457 509.471 199.457 508.322V508.233ZM200.729 508.384C200.729 509.204 200.918 509.863 201.296 510.359C201.679 510.856 202.189 511.104 202.827 511.104C203.47 511.104 203.98 510.854 204.358 510.353C204.737 509.847 204.926 509.14 204.926 508.233C204.926 507.422 204.732 506.766 204.345 506.265C203.962 505.759 203.451 505.506 202.813 505.506C202.189 505.506 201.686 505.754 201.303 506.251C200.92 506.748 200.729 507.459 200.729 508.384ZM207.441 508.233C207.441 507.509 207.583 506.857 207.865 506.278C208.152 505.7 208.549 505.253 209.055 504.938C209.565 504.624 210.146 504.467 210.798 504.467C211.805 504.467 212.618 504.815 213.238 505.513C213.863 506.21 214.175 507.137 214.175 508.295V508.384C214.175 509.104 214.036 509.751 213.758 510.325C213.484 510.895 213.09 511.339 212.575 511.658C212.065 511.977 211.477 512.137 210.812 512.137C209.809 512.137 208.995 511.788 208.371 511.091C207.751 510.394 207.441 509.471 207.441 508.322V508.233ZM208.713 508.384C208.713 509.204 208.902 509.863 209.28 510.359C209.663 510.856 210.174 511.104 210.812 511.104C211.454 511.104 211.965 510.854 212.343 510.353C212.721 509.847 212.91 509.14 212.91 508.233C212.91 507.422 212.716 506.766 212.329 506.265C211.946 505.759 211.436 505.506 210.798 505.506C210.174 505.506 209.67 505.754 209.287 506.251C208.904 506.748 208.713 507.459 208.713 508.384ZM217.825 508.575L217.032 509.402V512H215.768V501.5H217.032V507.851L217.709 507.037L220.013 504.604H221.551L218.673 507.693L221.886 512H220.402L217.825 508.575Z" fill="#9AA1A9"/>
</g>
</g>
<defs>
<clipPath id="clip0_46_2106">
<rect width="226" height="226" fill="white" transform="translate(78 378)"/>
</clipPath>
<clipPath id="clip1_46_2106">
<rect width="136" height="55" fill="white" transform="translate(123 464)"/>
</clipPath>
</defs>
</svg>
