<svg width="332" height="97" viewBox="0 0 332 97" fill="none" xmlns="http://www.w3.org/2000/svg">
<path d="M20.4688 48.2188C20.4688 50.4479 20.0833 52.4062 19.3125 54.0938C18.5417 55.7708 17.4375 57.0625 16 57.9688C14.5729 58.8646 12.9271 59.3125 11.0625 59.3125C9.21875 59.3125 7.57292 58.8646 6.125 57.9688C4.6875 57.0625 3.57292 55.776 2.78125 54.1094C2 52.4427 1.60417 50.5208 1.59375 48.3438V47.0625C1.59375 44.8438 1.98438 42.8854 2.76562 41.1875C3.55729 39.4896 4.66667 38.1927 6.09375 37.2969C7.53125 36.3906 9.17708 35.9375 11.0312 35.9375C12.8854 35.9375 14.526 36.3854 15.9531 37.2812C17.3906 38.1667 18.5 39.4479 19.2812 41.125C20.0625 42.7917 20.4583 44.7344 20.4688 46.9531V48.2188ZM16.5156 47.0312C16.5156 44.5104 16.0365 42.5781 15.0781 41.2344C14.1302 39.8906 12.7812 39.2188 11.0312 39.2188C9.32292 39.2188 7.98438 39.8906 7.01562 41.2344C6.05729 42.5677 5.56771 44.4583 5.54688 46.9062V48.2188C5.54688 50.7188 6.03125 52.651 7 54.0156C7.97917 55.3802 9.33333 56.0625 11.0625 56.0625C12.8125 56.0625 14.1562 55.3958 15.0938 54.0625C16.0417 52.7292 16.5156 50.7812 16.5156 48.2188V47.0312ZM34.4813 57.3438C33.3667 58.6562 31.7833 59.3125 29.7313 59.3125C27.8979 59.3125 26.5073 58.776 25.5594 57.7031C24.6219 56.6302 24.1531 55.0781 24.1531 53.0469V42.0938H27.95V53C27.95 55.1458 28.8406 56.2188 30.6219 56.2188C32.4656 56.2188 33.7104 55.5573 34.3563 54.2344V42.0938H38.1531V59H34.575L34.4813 57.3438ZM51.0719 45.5625C50.5719 45.4792 50.0563 45.4375 49.525 45.4375C47.7854 45.4375 46.6135 46.1042 46.0094 47.4375V59H42.2125V42.0938H45.8375L45.9313 43.9844C46.8479 42.5156 48.1188 41.7812 49.7438 41.7812C50.2854 41.7812 50.7333 41.8542 51.0875 42L51.0719 45.5625ZM75.3156 49.3594H66.1594V59H62.2062V36.25H76.6594V39.4375H66.1594V46.2031H75.3156V49.3594ZM89.5312 57.3438C88.4167 58.6562 86.8333 59.3125 84.7812 59.3125C82.9479 59.3125 81.5573 58.776 80.6094 57.7031C79.6719 56.6302 79.2031 55.0781 79.2031 53.0469V42.0938H83V53C83 55.1458 83.8906 56.2188 85.6719 56.2188C87.5156 56.2188 88.7604 55.5573 89.4062 54.2344V42.0938H93.2031V59H89.625L89.5312 57.3438ZM102.028 37.9844V42.0938H105.012V44.9062H102.028V54.3438C102.028 54.9896 102.153 55.4583 102.403 55.75C102.664 56.0312 103.122 56.1719 103.778 56.1719C104.216 56.1719 104.658 56.1198 105.106 56.0156V58.9531C104.242 59.1927 103.408 59.3125 102.606 59.3125C99.6896 59.3125 98.2312 57.7031 98.2312 54.4844V44.9062H95.45V42.0938H98.2312V37.9844H102.028ZM118.369 57.3438C117.254 58.6562 115.671 59.3125 113.619 59.3125C111.785 59.3125 110.395 58.776 109.447 57.7031C108.509 56.6302 108.041 55.0781 108.041 53.0469V42.0938H111.838V53C111.838 55.1458 112.728 56.2188 114.509 56.2188C116.353 56.2188 117.598 55.5573 118.244 54.2344V42.0938H122.041V59H118.463L118.369 57.3438ZM134.959 45.5625C134.459 45.4792 133.944 45.4375 133.412 45.4375C131.673 45.4375 130.501 46.1042 129.897 47.4375V59H126.1V42.0938H129.725L129.819 43.9844C130.735 42.5156 132.006 41.7812 133.631 41.7812C134.173 41.7812 134.621 41.8542 134.975 42L134.959 45.5625ZM144.691 59.3125C142.284 59.3125 140.331 58.5573 138.831 57.0469C137.342 55.526 136.597 53.5052 136.597 50.9844V50.5156C136.597 48.8281 136.92 47.3229 137.566 46C138.222 44.6667 139.139 43.6302 140.316 42.8906C141.493 42.151 142.805 41.7812 144.253 41.7812C146.555 41.7812 148.331 42.5156 149.581 43.9844C150.842 45.4531 151.472 47.5312 151.472 50.2188V51.75H140.425C140.54 53.1458 141.003 54.25 141.816 55.0625C142.639 55.875 143.67 56.2812 144.909 56.2812C146.649 56.2812 148.066 55.5781 149.159 54.1719L151.206 56.125C150.529 57.1354 149.623 57.9219 148.488 58.4844C147.363 59.0365 146.097 59.3125 144.691 59.3125ZM144.238 44.8281C143.196 44.8281 142.352 45.1927 141.706 45.9219C141.071 46.651 140.665 47.6667 140.488 48.9688H147.722V48.6875C147.639 47.4167 147.3 46.4583 146.706 45.8125C146.113 45.1562 145.29 44.8281 144.238 44.8281ZM167.122 50.5469V59H163.169V36.25H171.872C174.414 36.25 176.429 36.9115 177.919 38.2344C179.419 39.5573 180.169 41.3073 180.169 43.4844C180.169 45.7135 179.434 47.4479 177.966 48.6875C176.507 49.9271 174.46 50.5469 171.825 50.5469H167.122ZM167.122 47.375H171.872C173.278 47.375 174.351 47.0469 175.091 46.3906C175.83 45.724 176.2 44.7656 176.2 43.5156C176.2 42.2865 175.825 41.3073 175.075 40.5781C174.325 39.8385 173.294 39.4583 171.981 39.4375H167.122V47.375ZM192.322 45.5625C191.822 45.4792 191.306 45.4375 190.775 45.4375C189.035 45.4375 187.864 46.1042 187.259 47.4375V59H183.462V42.0938H187.087L187.181 43.9844C188.098 42.5156 189.369 41.7812 190.994 41.7812C191.535 41.7812 191.983 41.8542 192.337 42L192.322 45.5625ZM202.053 59.3125C199.647 59.3125 197.694 58.5573 196.194 57.0469C194.704 55.526 193.959 53.5052 193.959 50.9844V50.5156C193.959 48.8281 194.282 47.3229 194.928 46C195.584 44.6667 196.501 43.6302 197.678 42.8906C198.855 42.151 200.168 41.7812 201.616 41.7812C203.918 41.7812 205.694 42.5156 206.944 43.9844C208.204 45.4531 208.834 47.5312 208.834 50.2188V51.75H197.788C197.902 53.1458 198.366 54.25 199.178 55.0625C200.001 55.875 201.032 56.2812 202.272 56.2812C204.011 56.2812 205.428 55.5781 206.522 54.1719L208.569 56.125C207.892 57.1354 206.985 57.9219 205.85 58.4844C204.725 59.0365 203.459 59.3125 202.053 59.3125ZM201.6 44.8281C200.558 44.8281 199.715 45.1927 199.069 45.9219C198.433 46.651 198.027 47.6667 197.85 48.9688H205.084V48.6875C205.001 47.4167 204.663 46.4583 204.069 45.8125C203.475 45.1562 202.652 44.8281 201.6 44.8281ZM221.472 54.4062C221.472 53.7292 221.191 53.2135 220.628 52.8594C220.076 52.5052 219.154 52.1927 217.863 51.9219C216.571 51.651 215.493 51.3073 214.628 50.8906C212.732 49.974 211.784 48.6458 211.784 46.9062C211.784 45.4479 212.399 44.2292 213.628 43.25C214.857 42.2708 216.42 41.7812 218.316 41.7812C220.336 41.7812 221.967 42.2812 223.206 43.2812C224.456 44.2812 225.081 45.5781 225.081 47.1719H221.284C221.284 46.4427 221.014 45.8385 220.472 45.3594C219.93 44.8698 219.211 44.625 218.316 44.625C217.482 44.625 216.8 44.8177 216.269 45.2031C215.748 45.5885 215.488 46.1042 215.488 46.75C215.488 47.3333 215.732 47.7865 216.222 48.1094C216.711 48.4323 217.701 48.7604 219.191 49.0938C220.68 49.4167 221.847 49.8073 222.691 50.2656C223.545 50.7135 224.175 51.2552 224.581 51.8906C224.998 52.526 225.206 53.2969 225.206 54.2031C225.206 55.724 224.576 56.9583 223.316 57.9062C222.055 58.8438 220.404 59.3125 218.363 59.3125C216.977 59.3125 215.743 59.0625 214.659 58.5625C213.576 58.0625 212.732 57.375 212.128 56.5C211.524 55.625 211.222 54.6823 211.222 53.6719H214.909C214.961 54.5677 215.3 55.2604 215.925 55.75C216.55 56.2292 217.378 56.4688 218.409 56.4688C219.409 56.4688 220.17 56.2812 220.691 55.9062C221.211 55.5208 221.472 55.0208 221.472 54.4062ZM243.531 50.7188C243.531 53.3333 242.938 55.4219 241.75 56.9844C240.562 58.5365 238.969 59.3125 236.969 59.3125C235.115 59.3125 233.63 58.7031 232.516 57.4844V65.5H228.719V42.0938H232.219L232.375 43.8125C233.49 42.4583 235.005 41.7812 236.922 41.7812C238.984 41.7812 240.599 42.5521 241.766 44.0938C242.943 45.625 243.531 47.7552 243.531 50.4844V50.7188ZM239.75 50.3906C239.75 48.7031 239.411 47.3646 238.734 46.375C238.068 45.3854 237.109 44.8906 235.859 44.8906C234.307 44.8906 233.193 45.5312 232.516 46.8125V54.3125C233.203 55.625 234.328 56.2812 235.891 56.2812C237.099 56.2812 238.042 55.7969 238.719 54.8281C239.406 53.849 239.75 52.3698 239.75 50.3906ZM254.403 59.3125C251.997 59.3125 250.044 58.5573 248.544 57.0469C247.054 55.526 246.309 53.5052 246.309 50.9844V50.5156C246.309 48.8281 246.632 47.3229 247.278 46C247.934 44.6667 248.851 43.6302 250.028 42.8906C251.205 42.151 252.518 41.7812 253.966 41.7812C256.268 41.7812 258.044 42.5156 259.294 43.9844C260.554 45.4531 261.184 47.5312 261.184 50.2188V51.75H250.137C250.252 53.1458 250.716 54.25 251.528 55.0625C252.351 55.875 253.382 56.2812 254.622 56.2812C256.361 56.2812 257.778 55.5781 258.872 54.1719L260.919 56.125C260.242 57.1354 259.335 57.9219 258.2 58.4844C257.075 59.0365 255.809 59.3125 254.403 59.3125ZM253.95 44.8281C252.908 44.8281 252.065 45.1927 251.419 45.9219C250.783 46.651 250.377 47.6667 250.2 48.9688H257.434V48.6875C257.351 47.4167 257.012 46.4583 256.419 45.8125C255.825 45.1562 255.002 44.8281 253.95 44.8281ZM271.291 56.2812C272.239 56.2812 273.025 56.0052 273.65 55.4531C274.275 54.901 274.608 54.2188 274.65 53.4062H278.228C278.186 54.4583 277.858 55.4427 277.244 56.3594C276.629 57.2656 275.796 57.9844 274.744 58.5156C273.692 59.0469 272.556 59.3125 271.337 59.3125C268.973 59.3125 267.098 58.5469 265.712 57.0156C264.327 55.4844 263.634 53.3698 263.634 50.6719V50.2812C263.634 47.7083 264.322 45.651 265.697 44.1094C267.072 42.5573 268.947 41.7812 271.322 41.7812C273.332 41.7812 274.968 42.3698 276.228 43.5469C277.499 44.7135 278.166 46.25 278.228 48.1562H274.65C274.608 47.1875 274.275 46.3906 273.65 45.7656C273.035 45.1406 272.249 44.8281 271.291 44.8281C270.061 44.8281 269.114 45.276 268.447 46.1719C267.78 47.0573 267.442 48.4062 267.431 50.2188V50.8281C267.431 52.6615 267.759 54.0312 268.416 54.9375C269.082 55.8333 270.041 56.2812 271.291 56.2812ZM286.053 37.9844V42.0938H289.038V44.9062H286.053V54.3438C286.053 54.9896 286.178 55.4583 286.428 55.75C286.689 56.0312 287.147 56.1719 287.803 56.1719C288.241 56.1719 288.683 56.1198 289.131 56.0156V58.9531C288.267 59.1927 287.433 59.3125 286.631 59.3125C283.715 59.3125 282.256 57.7031 282.256 54.4844V44.9062H279.475V42.0938H282.256V37.9844H286.053ZM296.191 59H292.394V42.0938H296.191V59ZM292.159 37.7031C292.159 37.1198 292.342 36.6354 292.706 36.25C293.081 35.8646 293.612 35.6719 294.3 35.6719C294.987 35.6719 295.519 35.8646 295.894 36.25C296.269 36.6354 296.456 37.1198 296.456 37.7031C296.456 38.276 296.269 38.7552 295.894 39.1406C295.519 39.5156 294.987 39.7031 294.3 39.7031C293.612 39.7031 293.081 39.5156 292.706 39.1406C292.342 38.7552 292.159 38.276 292.159 37.7031ZM306.5 54.1875L310.078 42.0938H314L308.141 59H304.844L298.938 42.0938H302.875L306.5 54.1875ZM323.809 59.3125C321.403 59.3125 319.45 58.5573 317.95 57.0469C316.46 55.526 315.716 53.5052 315.716 50.9844V50.5156C315.716 48.8281 316.039 47.3229 316.684 46C317.341 44.6667 318.257 43.6302 319.434 42.8906C320.611 42.151 321.924 41.7812 323.372 41.7812C325.674 41.7812 327.45 42.5156 328.7 43.9844C329.96 45.4531 330.591 47.5312 330.591 50.2188V51.75H319.544C319.658 53.1458 320.122 54.25 320.934 55.0625C321.757 55.875 322.789 56.2812 324.028 56.2812C325.768 56.2812 327.184 55.5781 328.278 54.1719L330.325 56.125C329.648 57.1354 328.742 57.9219 327.606 58.4844C326.481 59.0365 325.216 59.3125 323.809 59.3125ZM323.356 44.8281C322.315 44.8281 321.471 45.1927 320.825 45.9219C320.19 46.651 319.783 47.6667 319.606 48.9688H326.841V48.6875C326.757 47.4167 326.419 46.4583 325.825 45.8125C325.231 45.1562 324.408 44.8281 323.356 44.8281Z" fill="#263238"/>
</svg>
