<svg width="67" height="21" viewBox="0 0 67 21" fill="none" xmlns="http://www.w3.org/2000/svg">
<path d="M10.8984 12.9395C10.7402 14.293 10.2393 15.3389 9.39551 16.0771C8.55762 16.8096 7.44141 17.1758 6.04688 17.1758C4.53516 17.1758 3.32227 16.6338 2.4082 15.5498C1.5 14.4658 1.0459 13.0156 1.0459 11.1992V9.96875C1.0459 8.7793 1.25684 7.7334 1.67871 6.83105C2.10645 5.92871 2.70996 5.2373 3.48926 4.75684C4.26855 4.27051 5.1709 4.02734 6.19629 4.02734C7.55566 4.02734 8.64551 4.4082 9.46582 5.16992C10.2861 5.92578 10.7637 6.97461 10.8984 8.31641H9.20215C9.05566 7.29688 8.73633 6.55859 8.24414 6.10156C7.75781 5.64453 7.0752 5.41602 6.19629 5.41602C5.11816 5.41602 4.27148 5.81445 3.65625 6.61133C3.04688 7.4082 2.74219 8.54199 2.74219 10.0127V11.252C2.74219 12.6406 3.03223 13.7451 3.6123 14.5654C4.19238 15.3857 5.00391 15.7959 6.04688 15.7959C6.98438 15.7959 7.70215 15.585 8.2002 15.1631C8.7041 14.7354 9.03809 13.9941 9.20215 12.9395H10.8984ZM14.7217 17H13.0957V3.5H14.7217V17ZM19.0986 17H17.4727V7.49023H19.0986V17ZM17.3408 4.96777C17.3408 4.7041 17.4199 4.48145 17.5781 4.2998C17.7422 4.11816 17.9824 4.02734 18.2988 4.02734C18.6152 4.02734 18.8555 4.11816 19.0195 4.2998C19.1836 4.48145 19.2656 4.7041 19.2656 4.96777C19.2656 5.23145 19.1836 5.45117 19.0195 5.62695C18.8555 5.80273 18.6152 5.89062 18.2988 5.89062C17.9824 5.89062 17.7422 5.80273 17.5781 5.62695C17.4199 5.45117 17.3408 5.23145 17.3408 4.96777ZM25.6553 17.1758C24.3662 17.1758 23.3174 16.7539 22.5088 15.9102C21.7002 15.0605 21.2959 13.9268 21.2959 12.5088V12.21C21.2959 11.2666 21.4746 10.4258 21.832 9.6875C22.1953 8.94336 22.6992 8.36328 23.3438 7.94727C23.9941 7.52539 24.6973 7.31445 25.4531 7.31445C26.6895 7.31445 27.6504 7.72168 28.3359 8.53613C29.0215 9.35059 29.3643 10.5166 29.3643 12.0342V12.7109H22.9219C22.9453 13.6484 23.2178 14.4072 23.7393 14.9873C24.2666 15.5615 24.9346 15.8486 25.7432 15.8486C26.3174 15.8486 26.8037 15.7314 27.2021 15.4971C27.6006 15.2627 27.9492 14.9521 28.248 14.5654L29.2412 15.3389C28.4443 16.5635 27.249 17.1758 25.6553 17.1758ZM25.4531 8.65039C24.7969 8.65039 24.2461 8.89062 23.8008 9.37109C23.3555 9.8457 23.0801 10.5137 22.9746 11.375H27.7383V11.252C27.6914 10.4258 27.4688 9.78711 27.0703 9.33594C26.6719 8.87891 26.1328 8.65039 25.4531 8.65039ZM32.792 7.49023L32.8447 8.68555C33.5713 7.77148 34.5205 7.31445 35.6924 7.31445C37.7021 7.31445 38.7158 8.44824 38.7334 10.7158V17H37.1074V10.707C37.1016 10.0215 36.9434 9.51465 36.6328 9.18652C36.3281 8.8584 35.8506 8.69434 35.2002 8.69434C34.6729 8.69434 34.21 8.83496 33.8115 9.11621C33.4131 9.39746 33.1025 9.7666 32.8799 10.2236V17H31.2539V7.49023H32.792ZM43.3916 5.1875V7.49023H45.167V8.74707H43.3916V14.6445C43.3916 15.0254 43.4707 15.3125 43.6289 15.5059C43.7871 15.6934 44.0566 15.7871 44.4375 15.7871C44.625 15.7871 44.8828 15.752 45.2109 15.6816V17C44.7832 17.1172 44.3672 17.1758 43.9629 17.1758C43.2363 17.1758 42.6885 16.9561 42.3193 16.5166C41.9502 16.0771 41.7656 15.4531 41.7656 14.6445V8.74707H40.0342V7.49023H41.7656V5.1875H43.3916Z" fill="#1F2E35" fill-opacity="0.8"/>
<path d="M54 7.71429L60.5 15L67 7.71429L65.4706 6L60.5 11.5714L55.5294 6L54 7.71429Z" fill="#1F2E35" fill-opacity="0.8"/>
</svg>
