<svg width="510" height="76" viewBox="0 0 510 76" fill="none" xmlns="http://www.w3.org/2000/svg">
<path d="M122.512 16.3281H117.191V31H114.25V16.3281H108.977V13.9375H122.512V16.3281ZM129.016 31.2344C127.211 31.2344 125.746 30.668 124.621 29.5352C123.504 28.3945 122.945 26.8789 122.945 24.9883V24.6367C122.945 23.3711 123.188 22.2422 123.672 21.25C124.164 20.25 124.852 19.4727 125.734 18.918C126.617 18.3633 127.602 18.0859 128.688 18.0859C130.414 18.0859 131.746 18.6367 132.684 19.7383C133.629 20.8398 134.102 22.3984 134.102 24.4141V25.5625H125.816C125.902 26.6094 126.25 27.4375 126.859 28.0469C127.477 28.6562 128.25 28.9609 129.18 28.9609C130.484 28.9609 131.547 28.4336 132.367 27.3789L133.902 28.8438C133.395 29.6016 132.715 30.1914 131.863 30.6133C131.02 31.0273 130.07 31.2344 129.016 31.2344ZM128.676 20.3711C127.895 20.3711 127.262 20.6445 126.777 21.1914C126.301 21.7383 125.996 22.5 125.863 23.4766H131.289V23.2656C131.227 22.3125 130.973 21.5938 130.527 21.1094C130.082 20.6172 129.465 20.3711 128.676 20.3711ZM139.352 31H136.504V13H139.352V31ZM153.566 24.7891C153.566 26.75 153.121 28.3164 152.23 29.4883C151.34 30.6523 150.145 31.2344 148.645 31.2344C147.254 31.2344 146.141 30.7773 145.305 29.8633V35.875H142.457V18.3203H145.082L145.199 19.6094C146.035 18.5938 147.172 18.0859 148.609 18.0859C150.156 18.0859 151.367 18.6641 152.242 19.8203C153.125 20.9688 153.566 22.5664 153.566 24.6133V24.7891ZM150.73 24.543C150.73 23.2773 150.477 22.2734 149.969 21.5312C149.469 20.7891 148.75 20.418 147.812 20.418C146.648 20.418 145.812 20.8984 145.305 21.8594V27.4844C145.82 28.4688 146.664 28.9609 147.836 28.9609C148.742 28.9609 149.449 28.5977 149.957 27.8711C150.473 27.1367 150.73 26.0273 150.73 24.543ZM155.453 24.543C155.453 23.3008 155.699 22.1836 156.191 21.1914C156.684 20.1914 157.375 19.4258 158.266 18.8945C159.156 18.3555 160.18 18.0859 161.336 18.0859C163.047 18.0859 164.434 18.6367 165.496 19.7383C166.566 20.8398 167.145 22.3008 167.23 24.1211L167.242 24.7891C167.242 26.0391 167 27.1562 166.516 28.1406C166.039 29.125 165.352 29.8867 164.453 30.4258C163.562 30.9648 162.531 31.2344 161.359 31.2344C159.57 31.2344 158.137 30.6406 157.059 29.4531C155.988 28.2578 155.453 26.668 155.453 24.6836V24.543ZM158.301 24.7891C158.301 26.0938 158.57 27.1172 159.109 27.8594C159.648 28.5938 160.398 28.9609 161.359 28.9609C162.32 28.9609 163.066 28.5859 163.598 27.8359C164.137 27.0859 164.406 25.9883 164.406 24.543C164.406 23.2617 164.129 22.2461 163.574 21.4961C163.027 20.7461 162.281 20.3711 161.336 20.3711C160.406 20.3711 159.668 20.7422 159.121 21.4844C158.574 22.2188 158.301 23.3203 158.301 24.7891ZM172.293 18.3203L172.375 19.7852C173.312 18.6523 174.543 18.0859 176.066 18.0859C178.707 18.0859 180.051 19.5977 180.098 22.6211V31H177.25V22.7852C177.25 21.9805 177.074 21.3867 176.723 21.0039C176.379 20.6133 175.812 20.418 175.023 20.418C173.875 20.418 173.02 20.9375 172.457 21.9766V31H169.609V18.3203H172.293Z" fill="#1F2E35"/>
<path d="M108.169 61.8057C108.169 60.4814 108.345 59.21 108.696 57.9912C109.054 56.7725 109.584 55.665 110.287 54.6689C110.99 53.6729 111.72 52.9697 112.476 52.5596L112.81 53.6318C111.954 54.2881 111.251 55.29 110.7 56.6377C110.155 57.9854 109.856 59.4941 109.804 61.1641L109.795 61.9111C109.795 64.1729 110.208 66.1357 111.034 67.7998C111.532 68.7959 112.124 69.5752 112.81 70.1377L112.476 71.1309C111.696 70.6973 110.952 69.9707 110.243 68.9512C108.86 66.959 108.169 64.5771 108.169 61.8057ZM122.24 61.542C122.24 63.4463 121.915 64.8613 121.265 65.7871C120.614 66.7129 119.598 67.1758 118.215 67.1758C116.85 67.1758 115.839 66.7246 115.183 65.8223C114.526 64.9141 114.187 63.5605 114.163 61.7617V59.5908C114.163 57.71 114.488 56.3125 115.139 55.3984C115.789 54.4844 116.809 54.0273 118.197 54.0273C119.574 54.0273 120.588 54.4697 121.238 55.3545C121.889 56.2334 122.223 57.5928 122.24 59.4326V61.542ZM120.614 59.3184C120.614 57.9414 120.421 56.9395 120.034 56.3125C119.647 55.6797 119.035 55.3633 118.197 55.3633C117.365 55.3633 116.759 55.6768 116.378 56.3037C115.997 56.9307 115.801 57.8945 115.789 59.1953V61.7969C115.789 63.1797 115.988 64.2021 116.387 64.8643C116.791 65.5205 117.4 65.8486 118.215 65.8486C119.018 65.8486 119.612 65.5381 119.999 64.917C120.392 64.2959 120.597 63.3174 120.614 61.9814V59.3184ZM126.688 59.8105H127.909C128.677 59.7988 129.28 59.5967 129.72 59.2041C130.159 58.8115 130.379 58.2812 130.379 57.6133C130.379 56.1133 129.632 55.3633 128.138 55.3633C127.435 55.3633 126.872 55.5654 126.45 55.9697C126.034 56.3682 125.826 56.8984 125.826 57.5605H124.2C124.2 56.5469 124.569 55.7061 125.308 55.0381C126.052 54.3643 126.995 54.0273 128.138 54.0273C129.345 54.0273 130.291 54.3467 130.977 54.9854C131.662 55.624 132.005 56.5117 132.005 57.6484C132.005 58.2051 131.823 58.7441 131.46 59.2656C131.103 59.7871 130.613 60.1768 129.992 60.4346C130.695 60.6572 131.237 61.0264 131.618 61.542C132.005 62.0576 132.198 62.6875 132.198 63.4316C132.198 64.5801 131.823 65.4912 131.073 66.165C130.323 66.8389 129.348 67.1758 128.146 67.1758C126.945 67.1758 125.967 66.8506 125.211 66.2002C124.461 65.5498 124.086 64.6914 124.086 63.625H125.721C125.721 64.2988 125.94 64.8379 126.38 65.2422C126.819 65.6465 127.408 65.8486 128.146 65.8486C128.932 65.8486 129.532 65.6436 129.948 65.2334C130.364 64.8232 130.572 64.2344 130.572 63.4668C130.572 62.7227 130.344 62.1514 129.887 61.7529C129.43 61.3545 128.771 61.1494 127.909 61.1377H126.688V59.8105ZM139.774 67H138.14V56.1631L134.861 57.3672V55.8906L139.52 54.1416H139.774V67ZM148.458 61.8936C148.458 63.2002 148.285 64.4541 147.939 65.6553C147.6 66.8506 147.075 67.9551 146.366 68.9688C145.663 69.9824 144.925 70.7031 144.151 71.1309L143.809 70.1377C144.711 69.4463 145.435 68.374 145.979 66.9209C146.53 65.4619 146.812 63.8447 146.823 62.0693V61.7881C146.823 60.5576 146.694 59.415 146.437 58.3604C146.179 57.2998 145.818 56.3506 145.355 55.5127C144.898 54.6748 144.383 54.0215 143.809 53.5527L144.151 52.5596C144.925 52.9873 145.66 53.7021 146.357 54.7041C147.061 55.7061 147.585 56.8105 147.931 58.0176C148.282 59.2246 148.458 60.5166 148.458 61.8936ZM157.625 59.8105H158.847C159.614 59.7988 160.218 59.5967 160.657 59.2041C161.097 58.8115 161.316 58.2812 161.316 57.6133C161.316 56.1133 160.569 55.3633 159.075 55.3633C158.372 55.3633 157.81 55.5654 157.388 55.9697C156.972 56.3682 156.764 56.8984 156.764 57.5605H155.138C155.138 56.5469 155.507 55.7061 156.245 55.0381C156.989 54.3643 157.933 54.0273 159.075 54.0273C160.282 54.0273 161.229 54.3467 161.914 54.9854C162.6 55.624 162.942 56.5117 162.942 57.6484C162.942 58.2051 162.761 58.7441 162.397 59.2656C162.04 59.7871 161.551 60.1768 160.93 60.4346C161.633 60.6572 162.175 61.0264 162.556 61.542C162.942 62.0576 163.136 62.6875 163.136 63.4316C163.136 64.5801 162.761 65.4912 162.011 66.165C161.261 66.8389 160.285 67.1758 159.084 67.1758C157.883 67.1758 156.904 66.8506 156.148 66.2002C155.398 65.5498 155.023 64.6914 155.023 63.625H156.658C156.658 64.2988 156.878 64.8379 157.317 65.2422C157.757 65.6465 158.346 65.8486 159.084 65.8486C159.869 65.8486 160.47 65.6436 160.886 65.2334C161.302 64.8232 161.51 64.2344 161.51 63.4668C161.51 62.7227 161.281 62.1514 160.824 61.7529C160.367 61.3545 159.708 61.1494 158.847 61.1377H157.625V59.8105ZM173.393 61.542C173.393 63.4463 173.067 64.8613 172.417 65.7871C171.767 66.7129 170.75 67.1758 169.367 67.1758C168.002 67.1758 166.991 66.7246 166.335 65.8223C165.679 64.9141 165.339 63.5605 165.315 61.7617V59.5908C165.315 57.71 165.641 56.3125 166.291 55.3984C166.941 54.4844 167.961 54.0273 169.35 54.0273C170.727 54.0273 171.74 54.4697 172.391 55.3545C173.041 56.2334 173.375 57.5928 173.393 59.4326V61.542ZM171.767 59.3184C171.767 57.9414 171.573 56.9395 171.187 56.3125C170.8 55.6797 170.188 55.3633 169.35 55.3633C168.518 55.3633 167.911 55.6768 167.53 56.3037C167.149 56.9307 166.953 57.8945 166.941 59.1953V61.7969C166.941 63.1797 167.141 64.2021 167.539 64.8643C167.943 65.5205 168.553 65.8486 169.367 65.8486C170.17 65.8486 170.765 65.5381 171.151 64.917C171.544 64.2959 171.749 63.3174 171.767 61.9814V59.3184ZM181.707 61.375C181.367 61.7793 180.96 62.1045 180.485 62.3506C180.017 62.5967 179.501 62.7197 178.938 62.7197C178.2 62.7197 177.556 62.5381 177.005 62.1748C176.46 61.8115 176.038 61.3018 175.739 60.6455C175.44 59.9834 175.291 59.2539 175.291 58.457C175.291 57.6016 175.452 56.8311 175.774 56.1455C176.103 55.46 176.565 54.9355 177.163 54.5723C177.761 54.209 178.458 54.0273 179.255 54.0273C180.521 54.0273 181.517 54.502 182.243 55.4512C182.976 56.3945 183.342 57.6836 183.342 59.3184V59.793C183.342 62.2832 182.85 64.1025 181.865 65.251C180.881 66.3936 179.396 66.9795 177.409 67.0088H177.093V65.6377H177.436C178.777 65.6143 179.809 65.2656 180.529 64.5918C181.25 63.9121 181.643 62.8398 181.707 61.375ZM179.202 61.375C179.747 61.375 180.248 61.208 180.705 60.874C181.168 60.54 181.505 60.127 181.716 59.6348V58.9844C181.716 57.918 181.484 57.0508 181.021 56.3828C180.559 55.7148 179.973 55.3809 179.264 55.3809C178.549 55.3809 177.975 55.6562 177.541 56.207C177.107 56.752 176.891 57.4727 176.891 58.3691C176.891 59.2422 177.099 59.9629 177.515 60.5312C177.937 61.0938 178.499 61.375 179.202 61.375ZM193.968 67H185.583V65.8311L190.013 60.9092C190.669 60.165 191.12 59.5615 191.366 59.0986C191.618 58.6299 191.744 58.1465 191.744 57.6484C191.744 56.9805 191.542 56.4326 191.138 56.0049C190.733 55.5771 190.194 55.3633 189.521 55.3633C188.712 55.3633 188.082 55.5947 187.631 56.0576C187.186 56.5146 186.963 57.1533 186.963 57.9736H185.337C185.337 56.7959 185.715 55.8438 186.471 55.1172C187.232 54.3906 188.249 54.0273 189.521 54.0273C190.71 54.0273 191.65 54.3408 192.342 54.9678C193.033 55.5889 193.379 56.418 193.379 57.4551C193.379 58.7148 192.576 60.2148 190.971 61.9551L187.543 65.6729H193.968V67ZM204.075 67H195.69V65.8311L200.12 60.9092C200.776 60.165 201.228 59.5615 201.474 59.0986C201.726 58.6299 201.852 58.1465 201.852 57.6484C201.852 56.9805 201.649 56.4326 201.245 56.0049C200.841 55.5771 200.302 55.3633 199.628 55.3633C198.819 55.3633 198.189 55.5947 197.738 56.0576C197.293 56.5146 197.07 57.1533 197.07 57.9736H195.444C195.444 56.7959 195.822 55.8438 196.578 55.1172C197.34 54.3906 198.356 54.0273 199.628 54.0273C200.817 54.0273 201.758 54.3408 202.449 54.9678C203.141 55.5889 203.486 56.418 203.486 57.4551C203.486 58.7148 202.684 60.2148 201.078 61.9551L197.65 65.6729H204.075V67ZM214.183 67H205.798V65.8311L210.228 60.9092C210.884 60.165 211.335 59.5615 211.581 59.0986C211.833 58.6299 211.959 58.1465 211.959 57.6484C211.959 56.9805 211.757 56.4326 211.353 56.0049C210.948 55.5771 210.409 55.3633 209.735 55.3633C208.927 55.3633 208.297 55.5947 207.846 56.0576C207.4 56.5146 207.178 57.1533 207.178 57.9736H205.552C205.552 56.7959 205.93 55.8438 206.686 55.1172C207.447 54.3906 208.464 54.0273 209.735 54.0273C210.925 54.0273 211.865 54.3408 212.557 54.9678C213.248 55.5889 213.594 56.418 213.594 57.4551C213.594 58.7148 212.791 60.2148 211.186 61.9551L207.758 65.6729H214.183V67ZM218.27 59.8105H219.491C220.259 59.7988 220.862 59.5967 221.302 59.2041C221.741 58.8115 221.961 58.2812 221.961 57.6133C221.961 56.1133 221.214 55.3633 219.72 55.3633C219.017 55.3633 218.454 55.5654 218.032 55.9697C217.616 56.3682 217.408 56.8984 217.408 57.5605H215.782C215.782 56.5469 216.151 55.7061 216.89 55.0381C217.634 54.3643 218.577 54.0273 219.72 54.0273C220.927 54.0273 221.873 54.3467 222.559 54.9854C223.244 55.624 223.587 56.5117 223.587 57.6484C223.587 58.2051 223.405 58.7441 223.042 59.2656C222.685 59.7871 222.195 60.1768 221.574 60.4346C222.277 60.6572 222.819 61.0264 223.2 61.542C223.587 62.0576 223.78 62.6875 223.78 63.4316C223.78 64.5801 223.405 65.4912 222.655 66.165C221.905 66.8389 220.93 67.1758 219.729 67.1758C218.527 67.1758 217.549 66.8506 216.793 66.2002C216.043 65.5498 215.668 64.6914 215.668 63.625H217.303C217.303 64.2988 217.522 64.8379 217.962 65.2422C218.401 65.6465 218.99 65.8486 219.729 65.8486C220.514 65.8486 221.114 65.6436 221.53 65.2334C221.946 64.8232 222.154 64.2344 222.154 63.4668C222.154 62.7227 221.926 62.1514 221.469 61.7529C221.012 61.3545 220.353 61.1494 219.491 61.1377H218.27V59.8105Z" fill="#30444E"/>
<circle cx="35" cy="38" r="35" fill="#D5E1DB" fill-opacity="0.4"/>
<path d="M43.2231 39.2472C42.6059 38.63 41.6083 38.63 40.9911 39.2472L38.475 41.7632C37.3085 41.4159 35.1318 40.6267 33.7522 39.2472C32.3726 37.8676 31.5833 35.691 31.2361 34.5245L33.7522 32.0085C34.3694 31.3913 34.3694 30.3938 33.7522 29.7766L27.4382 23.4629C26.821 22.8457 25.8234 22.8457 25.2062 23.4629L20.9253 27.7436C20.3255 28.3434 19.9877 29.1673 20.0003 30.0086C20.0366 32.2563 20.6317 40.0632 26.7847 46.2159C32.9377 52.3686 40.7449 52.9621 42.9943 53C43.0021 53 43.0306 53 43.0385 53C43.8719 53 44.6596 52.6717 45.2562 52.075L49.5371 47.7943C50.1543 47.1772 50.1543 46.1796 49.5371 45.5624L43.2231 39.2472ZM43.0227 49.8416C41.0527 49.8084 34.3125 49.2796 29.0167 43.9824C23.7035 38.6695 23.1889 31.9059 23.1573 29.9755L26.3222 26.8107L30.4042 30.8925L28.3632 32.9334C27.9859 33.3091 27.8249 33.8521 27.9338 34.373C27.9717 34.5545 28.8983 38.8589 31.5186 41.4791C34.1389 44.0992 38.4435 45.0258 38.625 45.0637C39.1506 45.1757 39.6889 45.0132 40.0646 44.6359L42.1071 42.595L46.1891 46.6768L43.0227 49.8416Z" fill="#EE4248"/>
</svg>
