<svg width="69" height="21" viewBox="0 0 69 21" fill="none" xmlns="http://www.w3.org/2000/svg">
<path d="M8.46387 14.0205H3.50684L2.46973 17H0.158203L4.99219 4.20312H6.9873L11.8301 17H9.50977L8.46387 14.0205ZM4.13086 12.2275H7.83984L5.98535 6.91895L4.13086 12.2275ZM21.4277 12.3418C21.4277 13.8184 21.0967 14.9932 20.4346 15.8662C19.7783 16.7393 18.873 17.1758 17.7188 17.1758C16.6055 17.1758 15.7383 16.7744 15.1172 15.9717L15.0117 17H13.0781V3.5H15.2139V8.4043C15.8291 7.67773 16.6582 7.31445 17.7012 7.31445C18.8613 7.31445 19.7725 7.74512 20.4346 8.60645C21.0967 9.46777 21.4277 10.6719 21.4277 12.2188V12.3418ZM19.292 12.1572C19.292 11.126 19.1104 10.3525 18.7471 9.83691C18.3838 9.32129 17.8564 9.06348 17.165 9.06348C16.2393 9.06348 15.5889 9.46777 15.2139 10.2764V14.1963C15.5947 15.0225 16.251 15.4355 17.1826 15.4355C17.8506 15.4355 18.3662 15.1865 18.7295 14.6885C19.0928 14.1904 19.2803 13.4375 19.292 12.4297V12.1572ZM22.8252 12.1572C22.8252 11.2256 23.0098 10.3877 23.3789 9.64355C23.748 8.89355 24.2666 8.31934 24.9346 7.9209C25.6025 7.5166 26.3701 7.31445 27.2373 7.31445C28.5205 7.31445 29.5605 7.72754 30.3574 8.55371C31.1602 9.37988 31.5938 10.4756 31.6582 11.8408L31.667 12.3418C31.667 13.2793 31.4854 14.1172 31.1221 14.8555C30.7646 15.5938 30.249 16.165 29.5752 16.5693C28.9072 16.9736 28.1338 17.1758 27.2549 17.1758C25.9131 17.1758 24.8379 16.7305 24.0293 15.8398C23.2266 14.9434 22.8252 13.751 22.8252 12.2627V12.1572ZM24.9609 12.3418C24.9609 13.3203 25.1631 14.0879 25.5674 14.6445C25.9717 15.1953 26.5342 15.4707 27.2549 15.4707C27.9756 15.4707 28.5352 15.1895 28.9336 14.627C29.3379 14.0645 29.54 13.2412 29.54 12.1572C29.54 11.1963 29.332 10.4346 28.916 9.87207C28.5059 9.30957 27.9463 9.02832 27.2373 9.02832C26.54 9.02832 25.9863 9.30664 25.5762 9.86328C25.166 10.4141 24.9609 11.2402 24.9609 12.3418ZM39.2344 16.0684C38.6074 16.8066 37.7168 17.1758 36.5625 17.1758C35.5312 17.1758 34.749 16.874 34.2158 16.2705C33.6885 15.667 33.4248 14.7939 33.4248 13.6514V7.49023H35.5605V13.625C35.5605 14.832 36.0615 15.4355 37.0635 15.4355C38.1006 15.4355 38.8008 15.0635 39.1641 14.3193V7.49023H41.2998V17H39.2871L39.2344 16.0684ZM46.1514 5.17871V7.49023H47.8301V9.07227H46.1514V14.3809C46.1514 14.7441 46.2217 15.0078 46.3623 15.1719C46.5088 15.3301 46.7666 15.4092 47.1357 15.4092C47.3818 15.4092 47.6309 15.3799 47.8828 15.3213V16.9736C47.3965 17.1084 46.9277 17.1758 46.4766 17.1758C44.8359 17.1758 44.0156 16.2705 44.0156 14.46V9.07227H42.4512V7.49023H44.0156V5.17871H46.1514Z" fill="#1F2E35" fill-opacity="0.8"/>
<path d="M56 7.71429L62.5 15L69 7.71429L67.4706 6L62.5 11.5714L57.5294 6L56 7.71429Z" fill="#1F2E35" fill-opacity="0.8"/>
</svg>
