<svg width="461" height="106" viewBox="0 0 461 106" fill="none" xmlns="http://www.w3.org/2000/svg">
<path d="M118.301 27.0273H111.691L110.309 31H107.227L113.672 13.9375H116.332L122.789 31H119.695L118.301 27.0273ZM112.523 24.6367H117.469L114.996 17.5586L112.523 24.6367ZM127.488 31H124.641V13H127.488V31ZM138.176 31C138.051 30.7578 137.941 30.3633 137.848 29.8164C136.941 30.7617 135.832 31.2344 134.52 31.2344C133.246 31.2344 132.207 30.8711 131.402 30.1445C130.598 29.418 130.195 28.5195 130.195 27.4492C130.195 26.0977 130.695 25.0625 131.695 24.3438C132.703 23.6172 134.141 23.2539 136.008 23.2539H137.754V22.4219C137.754 21.7656 137.57 21.2422 137.203 20.8516C136.836 20.4531 136.277 20.2539 135.527 20.2539C134.879 20.2539 134.348 20.418 133.934 20.7461C133.52 21.0664 133.312 21.4766 133.312 21.9766H130.465C130.465 21.2812 130.695 20.6328 131.156 20.0312C131.617 19.4219 132.242 18.9453 133.031 18.6016C133.828 18.2578 134.715 18.0859 135.691 18.0859C137.176 18.0859 138.359 18.4609 139.242 19.2109C140.125 19.9531 140.578 21 140.602 22.3516V28.0703C140.602 29.2109 140.762 30.1211 141.082 30.8008V31H138.176ZM135.047 28.9492C135.609 28.9492 136.137 28.8125 136.629 28.5391C137.129 28.2656 137.504 27.8984 137.754 27.4375V25.0469H136.219C135.164 25.0469 134.371 25.2305 133.84 25.5977C133.309 25.9648 133.043 26.4844 133.043 27.1562C133.043 27.7031 133.223 28.1406 133.582 28.4688C133.949 28.7891 134.438 28.9492 135.047 28.9492ZM146.262 18.3203L146.344 19.6445C147.234 18.6055 148.453 18.0859 150 18.0859C151.695 18.0859 152.855 18.7344 153.48 20.0312C154.402 18.7344 155.699 18.0859 157.371 18.0859C158.77 18.0859 159.809 18.4727 160.488 19.2461C161.176 20.0195 161.527 21.1602 161.543 22.668V31H158.695V22.75C158.695 21.9453 158.52 21.3555 158.168 20.9805C157.816 20.6055 157.234 20.418 156.422 20.418C155.773 20.418 155.242 20.5938 154.828 20.9453C154.422 21.2891 154.137 21.7422 153.973 22.3047L153.984 31H151.137V22.6562C151.098 21.1641 150.336 20.418 148.852 20.418C147.711 20.418 146.902 20.8828 146.426 21.8125V31H143.578V18.3203H146.262ZM172.043 31C171.918 30.7578 171.809 30.3633 171.715 29.8164C170.809 30.7617 169.699 31.2344 168.387 31.2344C167.113 31.2344 166.074 30.8711 165.27 30.1445C164.465 29.418 164.062 28.5195 164.062 27.4492C164.062 26.0977 164.562 25.0625 165.562 24.3438C166.57 23.6172 168.008 23.2539 169.875 23.2539H171.621V22.4219C171.621 21.7656 171.438 21.2422 171.07 20.8516C170.703 20.4531 170.145 20.2539 169.395 20.2539C168.746 20.2539 168.215 20.418 167.801 20.7461C167.387 21.0664 167.18 21.4766 167.18 21.9766H164.332C164.332 21.2812 164.562 20.6328 165.023 20.0312C165.484 19.4219 166.109 18.9453 166.898 18.6016C167.695 18.2578 168.582 18.0859 169.559 18.0859C171.043 18.0859 172.227 18.4609 173.109 19.2109C173.992 19.9531 174.445 21 174.469 22.3516V28.0703C174.469 29.2109 174.629 30.1211 174.949 30.8008V31H172.043ZM168.914 28.9492C169.477 28.9492 170.004 28.8125 170.496 28.5391C170.996 28.2656 171.371 27.8984 171.621 27.4375V25.0469H170.086C169.031 25.0469 168.238 25.2305 167.707 25.5977C167.176 25.9648 166.91 26.4844 166.91 27.1562C166.91 27.7031 167.09 28.1406 167.449 28.4688C167.816 28.7891 168.305 28.9492 168.914 28.9492ZM181.02 15.2383V18.3203H183.258V20.4297H181.02V27.5078C181.02 27.9922 181.113 28.3438 181.301 28.5625C181.496 28.7734 181.84 28.8789 182.332 28.8789C182.66 28.8789 182.992 28.8398 183.328 28.7617V30.9648C182.68 31.1445 182.055 31.2344 181.453 31.2344C179.266 31.2344 178.172 30.0273 178.172 27.6133V20.4297H176.086V18.3203H178.172V15.2383H181.02Z" fill="#1F2E35"/>
<path d="M113.847 54.2031H115.543V63.2646C115.543 64.4893 115.174 65.4473 114.436 66.1387C113.703 66.8301 112.725 67.1758 111.5 67.1758C110.229 67.1758 109.238 66.8506 108.529 66.2002C107.82 65.5498 107.466 64.6387 107.466 63.4668H109.153C109.153 64.1992 109.353 64.7705 109.751 65.1807C110.155 65.5908 110.738 65.7959 111.5 65.7959C112.197 65.7959 112.76 65.5762 113.188 65.1367C113.621 64.6973 113.841 64.082 113.847 63.291V54.2031ZM119.929 67H118.303V53.5H119.929V67ZM122.574 66.1475C122.574 65.8662 122.656 65.6318 122.82 65.4443C122.99 65.2568 123.242 65.1631 123.576 65.1631C123.91 65.1631 124.162 65.2568 124.332 65.4443C124.508 65.6318 124.596 65.8662 124.596 66.1475C124.596 66.417 124.508 66.6426 124.332 66.8242C124.162 67.0059 123.91 67.0967 123.576 67.0967C123.242 67.0967 122.99 67.0059 122.82 66.8242C122.656 66.6426 122.574 66.417 122.574 66.1475ZM141.84 67H140.144V61.085H133.692V67H132.005V54.2031H133.692V59.7051H140.144V54.2031H141.84V67ZM150.453 67C150.359 66.8125 150.283 66.4785 150.225 65.998C149.469 66.7832 148.566 67.1758 147.518 67.1758C146.58 67.1758 145.81 66.9121 145.206 66.3848C144.608 65.8516 144.31 65.1777 144.31 64.3633C144.31 63.373 144.685 62.6055 145.435 62.0605C146.19 61.5098 147.251 61.2344 148.616 61.2344H150.198V60.4873C150.198 59.9189 150.028 59.4678 149.688 59.1338C149.349 58.7939 148.848 58.624 148.186 58.624C147.605 58.624 147.119 58.7705 146.727 59.0635C146.334 59.3564 146.138 59.7109 146.138 60.127H144.503C144.503 59.6523 144.67 59.1953 145.004 58.7559C145.344 58.3105 145.801 57.959 146.375 57.7012C146.955 57.4434 147.591 57.3145 148.282 57.3145C149.378 57.3145 150.236 57.5898 150.857 58.1406C151.479 58.6855 151.801 59.4385 151.824 60.3994V64.7764C151.824 65.6494 151.936 66.3438 152.158 66.8594V67H150.453ZM147.755 65.7607C148.265 65.7607 148.748 65.6289 149.205 65.3652C149.662 65.1016 149.993 64.7588 150.198 64.3369V62.3857H148.924C146.932 62.3857 145.936 62.9688 145.936 64.1348C145.936 64.6445 146.105 65.043 146.445 65.3301C146.785 65.6172 147.222 65.7607 147.755 65.7607ZM156.14 67H154.514V53.5H156.14V67ZM160.517 67H158.891V57.4902H160.517V67ZM158.759 54.9678C158.759 54.7041 158.838 54.4814 158.996 54.2998C159.16 54.1182 159.4 54.0273 159.717 54.0273C160.033 54.0273 160.273 54.1182 160.438 54.2998C160.602 54.4814 160.684 54.7041 160.684 54.9678C160.684 55.2314 160.602 55.4512 160.438 55.627C160.273 55.8027 160.033 55.8906 159.717 55.8906C159.4 55.8906 159.16 55.8027 158.996 55.627C158.838 55.4512 158.759 55.2314 158.759 54.9678ZM164.656 57.4902L164.7 58.5449C165.397 57.7246 166.338 57.3145 167.521 57.3145C168.852 57.3145 169.757 57.8242 170.237 58.8438C170.554 58.3867 170.964 58.0176 171.468 57.7363C171.978 57.4551 172.578 57.3145 173.27 57.3145C175.355 57.3145 176.416 58.4189 176.451 60.6279V67H174.825V60.7246C174.825 60.0449 174.67 59.5381 174.359 59.2041C174.049 58.8643 173.527 58.6943 172.795 58.6943C172.191 58.6943 171.69 58.876 171.292 59.2393C170.894 59.5967 170.662 60.0801 170.598 60.6895V67H168.963V60.7686C168.963 59.3857 168.286 58.6943 166.933 58.6943C165.866 58.6943 165.137 59.1484 164.744 60.0566V67H163.118V57.4902H164.656ZM185.319 61.9902V67H183.632V54.2031H188.352C189.752 54.2031 190.848 54.5605 191.639 55.2754C192.436 55.9902 192.834 56.9365 192.834 58.1143C192.834 59.3564 192.444 60.3145 191.665 60.9883C190.892 61.6562 189.781 61.9902 188.334 61.9902H185.319ZM185.319 60.6104H188.352C189.254 60.6104 189.945 60.3994 190.426 59.9775C190.906 59.5498 191.146 58.9346 191.146 58.1318C191.146 57.3701 190.906 56.7607 190.426 56.3037C189.945 55.8467 189.286 55.6094 188.448 55.5918H185.319V60.6104ZM198.556 67.1758C197.267 67.1758 196.218 66.7539 195.409 65.9102C194.601 65.0605 194.196 63.9268 194.196 62.5088V62.21C194.196 61.2666 194.375 60.4258 194.732 59.6875C195.096 58.9434 195.6 58.3633 196.244 57.9473C196.895 57.5254 197.598 57.3145 198.354 57.3145C199.59 57.3145 200.551 57.7217 201.236 58.5361C201.922 59.3506 202.265 60.5166 202.265 62.0342V62.7109H195.822C195.846 63.6484 196.118 64.4072 196.64 64.9873C197.167 65.5615 197.835 65.8486 198.644 65.8486C199.218 65.8486 199.704 65.7314 200.103 65.4971C200.501 65.2627 200.85 64.9521 201.148 64.5654L202.142 65.3389C201.345 66.5635 200.149 67.1758 198.556 67.1758ZM198.354 58.6504C197.697 58.6504 197.146 58.8906 196.701 59.3711C196.256 59.8457 195.98 60.5137 195.875 61.375H200.639V61.252C200.592 60.4258 200.369 59.7871 199.971 59.3359C199.572 58.8789 199.033 58.6504 198.354 58.6504ZM208.751 58.9492C208.505 58.9082 208.238 58.8877 207.951 58.8877C206.885 58.8877 206.161 59.3418 205.78 60.25V67H204.154V57.4902H205.736L205.763 58.5889C206.296 57.7393 207.052 57.3145 208.03 57.3145C208.347 57.3145 208.587 57.3555 208.751 57.4375V58.9492ZM209.683 62.166C209.683 60.707 210.028 59.5352 210.72 58.6504C211.411 57.7598 212.316 57.3145 213.436 57.3145C214.549 57.3145 215.431 57.6953 216.081 58.457V53.5H217.707V67H216.213L216.134 65.9805C215.483 66.7773 214.578 67.1758 213.418 67.1758C212.316 67.1758 211.417 66.7246 210.72 65.8223C210.028 64.9199 209.683 63.7422 209.683 62.2891V62.166ZM211.309 62.3506C211.309 63.4287 211.531 64.2725 211.977 64.8818C212.422 65.4912 213.037 65.7959 213.822 65.7959C214.854 65.7959 215.606 65.333 216.081 64.4072V60.0391C215.595 59.1426 214.848 58.6943 213.84 58.6943C213.043 58.6943 212.422 59.002 211.977 59.6172C211.531 60.2324 211.309 61.1436 211.309 62.3506ZM226.109 67C226.016 66.8125 225.939 66.4785 225.881 65.998C225.125 66.7832 224.223 67.1758 223.174 67.1758C222.236 67.1758 221.466 66.9121 220.862 66.3848C220.265 65.8516 219.966 65.1777 219.966 64.3633C219.966 63.373 220.341 62.6055 221.091 62.0605C221.847 61.5098 222.907 61.2344 224.272 61.2344H225.854V60.4873C225.854 59.9189 225.685 59.4678 225.345 59.1338C225.005 58.7939 224.504 58.624 223.842 58.624C223.262 58.624 222.775 58.7705 222.383 59.0635C221.99 59.3564 221.794 59.7109 221.794 60.127H220.159C220.159 59.6523 220.326 59.1953 220.66 58.7559C221 58.3105 221.457 57.959 222.031 57.7012C222.611 57.4434 223.247 57.3145 223.938 57.3145C225.034 57.3145 225.893 57.5898 226.514 58.1406C227.135 58.6855 227.457 59.4385 227.48 60.3994V64.7764C227.48 65.6494 227.592 66.3438 227.814 66.8594V67H226.109ZM223.411 65.7607C223.921 65.7607 224.404 65.6289 224.861 65.3652C225.318 65.1016 225.649 64.7588 225.854 64.3369V62.3857H224.58C222.588 62.3857 221.592 62.9688 221.592 64.1348C221.592 64.6445 221.762 65.043 222.102 65.3301C222.441 65.6172 222.878 65.7607 223.411 65.7607ZM231.567 57.4902L231.62 58.6855C232.347 57.7715 233.296 57.3145 234.468 57.3145C236.478 57.3145 237.491 58.4482 237.509 60.7158V67H235.883V60.707C235.877 60.0215 235.719 59.5146 235.408 59.1865C235.104 58.8584 234.626 58.6943 233.976 58.6943C233.448 58.6943 232.985 58.835 232.587 59.1162C232.188 59.3975 231.878 59.7666 231.655 60.2236V67H230.029V57.4902H231.567ZM245.832 67C245.738 66.8125 245.662 66.4785 245.604 65.998C244.848 66.7832 243.945 67.1758 242.896 67.1758C241.959 67.1758 241.188 66.9121 240.585 66.3848C239.987 65.8516 239.688 65.1777 239.688 64.3633C239.688 63.373 240.063 62.6055 240.813 62.0605C241.569 61.5098 242.63 61.2344 243.995 61.2344H245.577V60.4873C245.577 59.9189 245.407 59.4678 245.067 59.1338C244.728 58.7939 244.227 58.624 243.564 58.624C242.984 58.624 242.498 58.7705 242.105 59.0635C241.713 59.3564 241.517 59.7109 241.517 60.127H239.882C239.882 59.6523 240.049 59.1953 240.383 58.7559C240.723 58.3105 241.18 57.959 241.754 57.7012C242.334 57.4434 242.97 57.3145 243.661 57.3145C244.757 57.3145 245.615 57.5898 246.236 58.1406C246.857 58.6855 247.18 59.4385 247.203 60.3994V64.7764C247.203 65.6494 247.314 66.3438 247.537 66.8594V67H245.832ZM243.134 65.7607C243.644 65.7607 244.127 65.6289 244.584 65.3652C245.041 65.1016 245.372 64.7588 245.577 64.3369V62.3857H244.303C242.311 62.3857 241.314 62.9688 241.314 64.1348C241.314 64.6445 241.484 65.043 241.824 65.3301C242.164 65.6172 242.601 65.7607 243.134 65.7607ZM257.724 61.0498L256.159 62.6758V67H254.472V54.2031H256.159V60.5312L261.846 54.2031H263.885L258.849 59.8545L264.28 67H262.259L257.724 61.0498ZM271.162 66.0596C270.529 66.8037 269.601 67.1758 268.376 67.1758C267.362 67.1758 266.589 66.8828 266.056 66.2969C265.528 65.7051 265.262 64.832 265.256 63.6777V57.4902H266.882V63.6338C266.882 65.0752 267.468 65.7959 268.64 65.7959C269.882 65.7959 270.708 65.333 271.118 64.4072V57.4902H272.744V67H271.197L271.162 66.0596ZM280.76 64.4775C280.76 64.0381 280.593 63.6982 280.259 63.458C279.931 63.2119 279.354 63.001 278.527 62.8252C277.707 62.6494 277.054 62.4385 276.567 62.1924C276.087 61.9463 275.729 61.6533 275.495 61.3135C275.267 60.9736 275.152 60.5693 275.152 60.1006C275.152 59.3213 275.48 58.6621 276.137 58.123C276.799 57.584 277.643 57.3145 278.668 57.3145C279.746 57.3145 280.619 57.5928 281.287 58.1494C281.961 58.7061 282.298 59.418 282.298 60.2852H280.663C280.663 59.8398 280.473 59.4561 280.092 59.1338C279.717 58.8115 279.242 58.6504 278.668 58.6504C278.076 58.6504 277.613 58.7793 277.279 59.0371C276.945 59.2949 276.778 59.6318 276.778 60.0479C276.778 60.4404 276.934 60.7363 277.244 60.9355C277.555 61.1348 278.114 61.3252 278.923 61.5068C279.737 61.6885 280.396 61.9053 280.9 62.1572C281.404 62.4092 281.776 62.7139 282.017 63.0713C282.263 63.4229 282.386 63.8535 282.386 64.3633C282.386 65.2129 282.046 65.8955 281.366 66.4111C280.687 66.9209 279.805 67.1758 278.721 67.1758C277.959 67.1758 277.285 67.041 276.699 66.7715C276.113 66.502 275.653 66.127 275.319 65.6465C274.991 65.1602 274.827 64.6357 274.827 64.0732H276.453C276.482 64.6182 276.699 65.0518 277.104 65.374C277.514 65.6904 278.053 65.8486 278.721 65.8486C279.336 65.8486 279.828 65.7256 280.197 65.4795C280.572 65.2275 280.76 64.8936 280.76 64.4775ZM290.375 66.0596C289.742 66.8037 288.813 67.1758 287.589 67.1758C286.575 67.1758 285.802 66.8828 285.269 66.2969C284.741 65.7051 284.475 64.832 284.469 63.6777V57.4902H286.095V63.6338C286.095 65.0752 286.681 65.7959 287.853 65.7959C289.095 65.7959 289.921 65.333 290.331 64.4072V57.4902H291.957V67H290.41L290.375 66.0596ZM295.965 57.4902L296.009 58.5449C296.706 57.7246 297.646 57.3145 298.83 57.3145C300.16 57.3145 301.065 57.8242 301.546 58.8438C301.862 58.3867 302.272 58.0176 302.776 57.7363C303.286 57.4551 303.887 57.3145 304.578 57.3145C306.664 57.3145 307.725 58.4189 307.76 60.6279V67H306.134V60.7246C306.134 60.0449 305.979 59.5381 305.668 59.2041C305.357 58.8643 304.836 58.6943 304.104 58.6943C303.5 58.6943 302.999 58.876 302.601 59.2393C302.202 59.5967 301.971 60.0801 301.906 60.6895V67H300.271V60.7686C300.271 59.3857 299.595 58.6943 298.241 58.6943C297.175 58.6943 296.445 59.1484 296.053 60.0566V67H294.427V57.4902H295.965ZM316.092 67C315.998 66.8125 315.922 66.4785 315.863 65.998C315.107 66.7832 314.205 67.1758 313.156 67.1758C312.219 67.1758 311.448 66.9121 310.845 66.3848C310.247 65.8516 309.948 65.1777 309.948 64.3633C309.948 63.373 310.323 62.6055 311.073 62.0605C311.829 61.5098 312.89 61.2344 314.255 61.2344H315.837V60.4873C315.837 59.9189 315.667 59.4678 315.327 59.1338C314.987 58.7939 314.486 58.624 313.824 58.624C313.244 58.624 312.758 58.7705 312.365 59.0635C311.973 59.3564 311.776 59.7109 311.776 60.127H310.142C310.142 59.6523 310.309 59.1953 310.643 58.7559C310.982 58.3105 311.439 57.959 312.014 57.7012C312.594 57.4434 313.229 57.3145 313.921 57.3145C315.017 57.3145 315.875 57.5898 316.496 58.1406C317.117 58.6855 317.439 59.4385 317.463 60.3994V64.7764C317.463 65.6494 317.574 66.3438 317.797 66.8594V67H316.092ZM313.394 65.7607C313.903 65.7607 314.387 65.6289 314.844 65.3652C315.301 65.1016 315.632 64.7588 315.837 64.3369V62.3857H314.562C312.57 62.3857 311.574 62.9688 311.574 64.1348C311.574 64.6445 311.744 65.043 312.084 65.3301C312.424 65.6172 312.86 65.7607 313.394 65.7607ZM319.959 69.5488L319.036 68.916C319.587 68.1484 319.874 67.3574 319.897 66.543V65.0752H321.488V66.3496C321.488 66.9414 321.342 67.5332 321.049 68.125C320.762 68.7168 320.398 69.1914 319.959 69.5488ZM332.958 61.8232H329.952V67H328.256V54.2031H332.492C333.934 54.2031 335.041 54.5312 335.814 55.1875C336.594 55.8438 336.983 56.7988 336.983 58.0527C336.983 58.8496 336.767 59.5439 336.333 60.1357C335.905 60.7275 335.308 61.1699 334.54 61.4629L337.546 66.8945V67H335.735L332.958 61.8232ZM329.952 60.4434H332.545C333.383 60.4434 334.048 60.2266 334.54 59.793C335.038 59.3594 335.287 58.7793 335.287 58.0527C335.287 57.2617 335.05 56.6553 334.575 56.2334C334.106 55.8115 333.427 55.5977 332.536 55.5918H329.952V60.4434ZM340.868 67H339.242V57.4902H340.868V67ZM339.11 54.9678C339.11 54.7041 339.189 54.4814 339.348 54.2998C339.512 54.1182 339.752 54.0273 340.068 54.0273C340.385 54.0273 340.625 54.1182 340.789 54.2998C340.953 54.4814 341.035 54.7041 341.035 54.9678C341.035 55.2314 340.953 55.4512 340.789 55.627C340.625 55.8027 340.385 55.8906 340.068 55.8906C339.752 55.8906 339.512 55.8027 339.348 55.627C339.189 55.4512 339.11 55.2314 339.11 54.9678ZM345.017 57.4902L345.069 58.6855C345.796 57.7715 346.745 57.3145 347.917 57.3145C349.927 57.3145 350.94 58.4482 350.958 60.7158V67H349.332V60.707C349.326 60.0215 349.168 59.5146 348.857 59.1865C348.553 58.8584 348.075 58.6943 347.425 58.6943C346.897 58.6943 346.435 58.835 346.036 59.1162C345.638 59.3975 345.327 59.7666 345.104 60.2236V67H343.479V57.4902H345.017ZM353.023 62.166C353.023 60.6836 353.366 59.5059 354.052 58.6328C354.737 57.7539 355.646 57.3145 356.776 57.3145C357.937 57.3145 358.842 57.7246 359.492 58.5449L359.571 57.4902H361.057V66.7715C361.057 68.002 360.69 68.9717 359.958 69.6807C359.231 70.3896 358.253 70.7441 357.022 70.7441C356.337 70.7441 355.666 70.5977 355.01 70.3047C354.354 70.0117 353.853 69.6104 353.507 69.1006L354.351 68.125C355.048 68.9863 355.9 69.417 356.908 69.417C357.699 69.417 358.314 69.1943 358.754 68.749C359.199 68.3037 359.422 67.6768 359.422 66.8682V66.0508C358.771 66.8008 357.884 67.1758 356.759 67.1758C355.646 67.1758 354.743 66.7275 354.052 65.8311C353.366 64.9346 353.023 63.7129 353.023 62.166ZM354.658 62.3506C354.658 63.4229 354.878 64.2666 355.317 64.8818C355.757 65.4912 356.372 65.7959 357.163 65.7959C358.188 65.7959 358.941 65.3301 359.422 64.3984V60.0566C358.924 59.1484 358.177 58.6943 357.181 58.6943C356.39 58.6943 355.771 59.002 355.326 59.6172C354.881 60.2324 354.658 61.1436 354.658 62.3506ZM372.931 61.8232H369.925V67H368.229V54.2031H372.465C373.906 54.2031 375.014 54.5312 375.787 55.1875C376.566 55.8438 376.956 56.7988 376.956 58.0527C376.956 58.8496 376.739 59.5439 376.306 60.1357C375.878 60.7275 375.28 61.1699 374.513 61.4629L377.519 66.8945V67H375.708L372.931 61.8232ZM369.925 60.4434H372.518C373.355 60.4434 374.021 60.2266 374.513 59.793C375.011 59.3594 375.26 58.7793 375.26 58.0527C375.26 57.2617 375.022 56.6553 374.548 56.2334C374.079 55.8115 373.399 55.5977 372.509 55.5918H369.925V60.4434ZM378.644 62.1572C378.644 61.2256 378.825 60.3877 379.188 59.6436C379.558 58.8994 380.067 58.3252 380.718 57.9209C381.374 57.5166 382.121 57.3145 382.959 57.3145C384.254 57.3145 385.3 57.7627 386.097 58.6592C386.899 59.5557 387.301 60.748 387.301 62.2363V62.3506C387.301 63.2764 387.122 64.1084 386.765 64.8467C386.413 65.5791 385.906 66.1504 385.244 66.5605C384.588 66.9707 383.832 67.1758 382.977 67.1758C381.688 67.1758 380.642 66.7275 379.839 65.8311C379.042 64.9346 378.644 63.748 378.644 62.2715V62.1572ZM380.278 62.3506C380.278 63.4053 380.521 64.252 381.008 64.8906C381.5 65.5293 382.156 65.8486 382.977 65.8486C383.803 65.8486 384.459 65.5264 384.945 64.8818C385.432 64.2314 385.675 63.3232 385.675 62.1572C385.675 61.1143 385.426 60.2705 384.928 59.626C384.436 58.9756 383.779 58.6504 382.959 58.6504C382.156 58.6504 381.509 58.9697 381.017 59.6084C380.524 60.2471 380.278 61.1611 380.278 62.3506ZM395.211 67C395.117 66.8125 395.041 66.4785 394.982 65.998C394.227 66.7832 393.324 67.1758 392.275 67.1758C391.338 67.1758 390.567 66.9121 389.964 66.3848C389.366 65.8516 389.067 65.1777 389.067 64.3633C389.067 63.373 389.442 62.6055 390.192 62.0605C390.948 61.5098 392.009 61.2344 393.374 61.2344H394.956V60.4873C394.956 59.9189 394.786 59.4678 394.446 59.1338C394.106 58.7939 393.605 58.624 392.943 58.624C392.363 58.624 391.877 58.7705 391.484 59.0635C391.092 59.3564 390.896 59.7109 390.896 60.127H389.261C389.261 59.6523 389.428 59.1953 389.762 58.7559C390.102 58.3105 390.559 57.959 391.133 57.7012C391.713 57.4434 392.349 57.3145 393.04 57.3145C394.136 57.3145 394.994 57.5898 395.615 58.1406C396.236 58.6855 396.559 59.4385 396.582 60.3994V64.7764C396.582 65.6494 396.693 66.3438 396.916 66.8594V67H395.211ZM392.513 65.7607C393.022 65.7607 393.506 65.6289 393.963 65.3652C394.42 65.1016 394.751 64.7588 394.956 64.3369V62.3857H393.682C391.689 62.3857 390.693 62.9688 390.693 64.1348C390.693 64.6445 390.863 65.043 391.203 65.3301C391.543 65.6172 391.979 65.7607 392.513 65.7607ZM398.735 62.166C398.735 60.707 399.081 59.5352 399.772 58.6504C400.464 57.7598 401.369 57.3145 402.488 57.3145C403.602 57.3145 404.483 57.6953 405.134 58.457V53.5H406.76V67H405.266L405.187 65.9805C404.536 66.7773 403.631 67.1758 402.471 67.1758C401.369 67.1758 400.47 66.7246 399.772 65.8223C399.081 64.9199 398.735 63.7422 398.735 62.2891V62.166ZM400.361 62.3506C400.361 63.4287 400.584 64.2725 401.029 64.8818C401.475 65.4912 402.09 65.7959 402.875 65.7959C403.906 65.7959 404.659 65.333 405.134 64.4072V60.0391C404.647 59.1426 403.9 58.6943 402.893 58.6943C402.096 58.6943 401.475 59.002 401.029 59.6172C400.584 60.2324 400.361 61.1436 400.361 62.3506ZM108.485 97V84.2031H112.669C114.058 84.2031 115.101 84.4902 115.798 85.0645C116.501 85.6387 116.853 86.4883 116.853 87.6133C116.853 88.2109 116.683 88.7412 116.343 89.2041C116.003 89.6611 115.54 90.0156 114.954 90.2676C115.646 90.4609 116.19 90.8301 116.589 91.375C116.993 91.9141 117.195 92.5586 117.195 93.3086C117.195 94.457 116.823 95.3594 116.079 96.0156C115.335 96.6719 114.283 97 112.924 97H108.485ZM110.173 91.0146V95.6201H112.959C113.744 95.6201 114.362 95.418 114.813 95.0137C115.271 94.6035 115.499 94.041 115.499 93.3262C115.499 91.7852 114.661 91.0146 112.985 91.0146H110.173ZM110.173 89.6611H112.722C113.46 89.6611 114.049 89.4766 114.488 89.1074C114.934 88.7383 115.156 88.2373 115.156 87.6045C115.156 86.9014 114.951 86.3916 114.541 86.0752C114.131 85.7529 113.507 85.5918 112.669 85.5918H110.173V89.6611ZM125.316 97C125.223 96.8125 125.146 96.4785 125.088 95.998C124.332 96.7832 123.43 97.1758 122.381 97.1758C121.443 97.1758 120.673 96.9121 120.069 96.3848C119.472 95.8516 119.173 95.1777 119.173 94.3633C119.173 93.373 119.548 92.6055 120.298 92.0605C121.054 91.5098 122.114 91.2344 123.479 91.2344H125.062V90.4873C125.062 89.9189 124.892 89.4678 124.552 89.1338C124.212 88.7939 123.711 88.624 123.049 88.624C122.469 88.624 121.982 88.7705 121.59 89.0635C121.197 89.3564 121.001 89.7109 121.001 90.127H119.366C119.366 89.6523 119.533 89.1953 119.867 88.7559C120.207 88.3105 120.664 87.959 121.238 87.7012C121.818 87.4434 122.454 87.3145 123.146 87.3145C124.241 87.3145 125.1 87.5898 125.721 88.1406C126.342 88.6855 126.664 89.4385 126.688 90.3994V94.7764C126.688 95.6494 126.799 96.3438 127.021 96.8594V97H125.316ZM122.618 95.7607C123.128 95.7607 123.611 95.6289 124.068 95.3652C124.525 95.1016 124.856 94.7588 125.062 94.3369V92.3857H123.787C121.795 92.3857 120.799 92.9688 120.799 94.1348C120.799 94.6445 120.969 95.043 121.309 95.3301C121.648 95.6172 122.085 95.7607 122.618 95.7607ZM130.774 87.4902L130.827 88.6855C131.554 87.7715 132.503 87.3145 133.675 87.3145C135.685 87.3145 136.698 88.4482 136.716 90.7158V97H135.09V90.707C135.084 90.0215 134.926 89.5146 134.615 89.1865C134.311 88.8584 133.833 88.6943 133.183 88.6943C132.655 88.6943 132.192 88.835 131.794 89.1162C131.396 89.3975 131.085 89.7666 130.862 90.2236V97H129.236V87.4902H130.774ZM138.781 92.166C138.781 90.6836 139.124 89.5059 139.81 88.6328C140.495 87.7539 141.403 87.3145 142.534 87.3145C143.694 87.3145 144.6 87.7246 145.25 88.5449L145.329 87.4902H146.814V96.7715C146.814 98.002 146.448 98.9717 145.716 99.6807C144.989 100.39 144.011 100.744 142.78 100.744C142.095 100.744 141.424 100.598 140.768 100.305C140.111 100.012 139.61 99.6104 139.265 99.1006L140.108 98.125C140.806 98.9863 141.658 99.417 142.666 99.417C143.457 99.417 144.072 99.1943 144.512 98.749C144.957 98.3037 145.18 97.6768 145.18 96.8682V96.0508C144.529 96.8008 143.642 97.1758 142.517 97.1758C141.403 97.1758 140.501 96.7275 139.81 95.8311C139.124 94.9346 138.781 93.7129 138.781 92.166ZM140.416 92.3506C140.416 93.4229 140.636 94.2666 141.075 94.8818C141.515 95.4912 142.13 95.7959 142.921 95.7959C143.946 95.7959 144.699 95.3301 145.18 94.3984V90.0566C144.682 89.1484 143.935 88.6943 142.938 88.6943C142.147 88.6943 141.529 89.002 141.084 89.6172C140.639 90.2324 140.416 91.1436 140.416 92.3506ZM151.93 92.5967L150.91 93.6602V97H149.284V83.5H150.91V91.665L151.78 90.6191L154.742 87.4902H156.72L153.02 91.4629L157.15 97H155.243L151.93 92.5967ZM164.27 97C164.176 96.8125 164.1 96.4785 164.041 95.998C163.285 96.7832 162.383 97.1758 161.334 97.1758C160.396 97.1758 159.626 96.9121 159.022 96.3848C158.425 95.8516 158.126 95.1777 158.126 94.3633C158.126 93.373 158.501 92.6055 159.251 92.0605C160.007 91.5098 161.067 91.2344 162.433 91.2344H164.015V90.4873C164.015 89.9189 163.845 89.4678 163.505 89.1338C163.165 88.7939 162.664 88.624 162.002 88.624C161.422 88.624 160.936 88.7705 160.543 89.0635C160.15 89.3564 159.954 89.7109 159.954 90.127H158.319C158.319 89.6523 158.486 89.1953 158.82 88.7559C159.16 88.3105 159.617 87.959 160.191 87.7012C160.771 87.4434 161.407 87.3145 162.099 87.3145C163.194 87.3145 164.053 87.5898 164.674 88.1406C165.295 88.6855 165.617 89.4385 165.641 90.3994V94.7764C165.641 95.6494 165.752 96.3438 165.975 96.8594V97H164.27ZM161.571 95.7607C162.081 95.7607 162.564 95.6289 163.021 95.3652C163.479 95.1016 163.81 94.7588 164.015 94.3369V92.3857H162.74C160.748 92.3857 159.752 92.9688 159.752 94.1348C159.752 94.6445 159.922 95.043 160.262 95.3301C160.602 95.6172 161.038 95.7607 161.571 95.7607ZM169.956 97H168.33V83.5H169.956V97ZM178.438 97C178.344 96.8125 178.268 96.4785 178.209 95.998C177.453 96.7832 176.551 97.1758 175.502 97.1758C174.564 97.1758 173.794 96.9121 173.19 96.3848C172.593 95.8516 172.294 95.1777 172.294 94.3633C172.294 93.373 172.669 92.6055 173.419 92.0605C174.175 91.5098 175.235 91.2344 176.601 91.2344H178.183V90.4873C178.183 89.9189 178.013 89.4678 177.673 89.1338C177.333 88.7939 176.832 88.624 176.17 88.624C175.59 88.624 175.104 88.7705 174.711 89.0635C174.318 89.3564 174.122 89.7109 174.122 90.127H172.487C172.487 89.6523 172.654 89.1953 172.988 88.7559C173.328 88.3105 173.785 87.959 174.359 87.7012C174.939 87.4434 175.575 87.3145 176.267 87.3145C177.362 87.3145 178.221 87.5898 178.842 88.1406C179.463 88.6855 179.785 89.4385 179.809 90.3994V94.7764C179.809 95.6494 179.92 96.3438 180.143 96.8594V97H178.438ZM175.739 95.7607C176.249 95.7607 176.732 95.6289 177.189 95.3652C177.646 95.1016 177.978 94.7588 178.183 94.3369V92.3857H176.908C174.916 92.3857 173.92 92.9688 173.92 94.1348C173.92 94.6445 174.09 95.043 174.43 95.3301C174.77 95.6172 175.206 95.7607 175.739 95.7607ZM183.896 87.4902L183.948 88.6855C184.675 87.7715 185.624 87.3145 186.796 87.3145C188.806 87.3145 189.819 88.4482 189.837 90.7158V97H188.211V90.707C188.205 90.0215 188.047 89.5146 187.736 89.1865C187.432 88.8584 186.954 88.6943 186.304 88.6943C185.776 88.6943 185.313 88.835 184.915 89.1162C184.517 89.3975 184.206 89.7666 183.983 90.2236V97H182.357V87.4902H183.896ZM192.236 99.5488L191.313 98.916C191.864 98.1484 192.151 97.3574 192.175 96.543V95.0752H193.766V96.3496C193.766 96.9414 193.619 97.5332 193.326 98.125C193.039 98.7168 192.676 99.1914 192.236 99.5488ZM202.722 84.2031L206.905 94.6445L211.089 84.2031H213.277V97H211.59V92.0166L211.748 86.6377L207.547 97H206.255L202.062 86.6641L202.229 92.0166V97H200.542V84.2031H202.722ZM221.873 97C221.779 96.8125 221.703 96.4785 221.645 95.998C220.889 96.7832 219.986 97.1758 218.938 97.1758C218 97.1758 217.229 96.9121 216.626 96.3848C216.028 95.8516 215.729 95.1777 215.729 94.3633C215.729 93.373 216.104 92.6055 216.854 92.0605C217.61 91.5098 218.671 91.2344 220.036 91.2344H221.618V90.4873C221.618 89.9189 221.448 89.4678 221.108 89.1338C220.769 88.7939 220.268 88.624 219.605 88.624C219.025 88.624 218.539 88.7705 218.146 89.0635C217.754 89.3564 217.558 89.7109 217.558 90.127H215.923C215.923 89.6523 216.09 89.1953 216.424 88.7559C216.764 88.3105 217.221 87.959 217.795 87.7012C218.375 87.4434 219.011 87.3145 219.702 87.3145C220.798 87.3145 221.656 87.5898 222.277 88.1406C222.898 88.6855 223.221 89.4385 223.244 90.3994V94.7764C223.244 95.6494 223.355 96.3438 223.578 96.8594V97H221.873ZM219.175 95.7607C219.685 95.7607 220.168 95.6289 220.625 95.3652C221.082 95.1016 221.413 94.7588 221.618 94.3369V92.3857H220.344C218.352 92.3857 217.355 92.9688 217.355 94.1348C217.355 94.6445 217.525 95.043 217.865 95.3301C218.205 95.6172 218.642 95.7607 219.175 95.7607ZM225.397 92.166C225.397 90.707 225.743 89.5352 226.435 88.6504C227.126 87.7598 228.031 87.3145 229.15 87.3145C230.264 87.3145 231.146 87.6953 231.796 88.457V83.5H233.422V97H231.928L231.849 95.9805C231.198 96.7773 230.293 97.1758 229.133 97.1758C228.031 97.1758 227.132 96.7246 226.435 95.8223C225.743 94.9199 225.397 93.7422 225.397 92.2891V92.166ZM227.023 92.3506C227.023 93.4287 227.246 94.2725 227.691 94.8818C228.137 95.4912 228.752 95.7959 229.537 95.7959C230.568 95.7959 231.321 95.333 231.796 94.4072V90.0391C231.31 89.1426 230.562 88.6943 229.555 88.6943C228.758 88.6943 228.137 89.002 227.691 89.6172C227.246 90.2324 227.023 91.1436 227.023 92.3506ZM241.824 96.0596C241.191 96.8037 240.263 97.1758 239.038 97.1758C238.024 97.1758 237.251 96.8828 236.718 96.2969C236.19 95.7051 235.924 94.832 235.918 93.6777V87.4902H237.544V93.6338C237.544 95.0752 238.13 95.7959 239.302 95.7959C240.544 95.7959 241.37 95.333 241.78 94.4072V87.4902H243.406V97H241.859L241.824 96.0596ZM250.481 88.9492C250.235 88.9082 249.969 88.8877 249.682 88.8877C248.615 88.8877 247.892 89.3418 247.511 90.25V97H245.885V87.4902H247.467L247.493 88.5889C248.026 87.7393 248.782 87.3145 249.761 87.3145C250.077 87.3145 250.317 87.3555 250.481 87.4375V88.9492ZM257.504 97C257.41 96.8125 257.334 96.4785 257.275 95.998C256.52 96.7832 255.617 97.1758 254.568 97.1758C253.631 97.1758 252.86 96.9121 252.257 96.3848C251.659 95.8516 251.36 95.1777 251.36 94.3633C251.36 93.373 251.735 92.6055 252.485 92.0605C253.241 91.5098 254.302 91.2344 255.667 91.2344H257.249V90.4873C257.249 89.9189 257.079 89.4678 256.739 89.1338C256.399 88.7939 255.898 88.624 255.236 88.624C254.656 88.624 254.17 88.7705 253.777 89.0635C253.385 89.3564 253.188 89.7109 253.188 90.127H251.554C251.554 89.6523 251.721 89.1953 252.055 88.7559C252.395 88.3105 252.852 87.959 253.426 87.7012C254.006 87.4434 254.642 87.3145 255.333 87.3145C256.429 87.3145 257.287 87.5898 257.908 88.1406C258.529 88.6855 258.852 89.4385 258.875 90.3994V94.7764C258.875 95.6494 258.986 96.3438 259.209 96.8594V97H257.504ZM254.806 95.7607C255.315 95.7607 255.799 95.6289 256.256 95.3652C256.713 95.1016 257.044 94.7588 257.249 94.3369V92.3857H255.975C253.982 92.3857 252.986 92.9688 252.986 94.1348C252.986 94.6445 253.156 95.043 253.496 95.3301C253.836 95.6172 254.272 95.7607 254.806 95.7607ZM261.371 99.5488L260.448 98.916C260.999 98.1484 261.286 97.3574 261.31 96.543V95.0752H262.9V96.3496C262.9 96.9414 262.754 97.5332 262.461 98.125C262.174 98.7168 261.811 99.1914 261.371 99.5488ZM275.038 84.2031H276.734V93.2646C276.734 94.4893 276.365 95.4473 275.627 96.1387C274.895 96.8301 273.916 97.1758 272.691 97.1758C271.42 97.1758 270.43 96.8506 269.721 96.2002C269.012 95.5498 268.657 94.6387 268.657 93.4668H270.345C270.345 94.1992 270.544 94.7705 270.942 95.1807C271.347 95.5908 271.93 95.7959 272.691 95.7959C273.389 95.7959 273.951 95.5762 274.379 95.1367C274.812 94.6973 275.032 94.082 275.038 93.291V84.2031ZM285.225 97C285.131 96.8125 285.055 96.4785 284.996 95.998C284.24 96.7832 283.338 97.1758 282.289 97.1758C281.352 97.1758 280.581 96.9121 279.978 96.3848C279.38 95.8516 279.081 95.1777 279.081 94.3633C279.081 93.373 279.456 92.6055 280.206 92.0605C280.962 91.5098 282.022 91.2344 283.388 91.2344H284.97V90.4873C284.97 89.9189 284.8 89.4678 284.46 89.1338C284.12 88.7939 283.619 88.624 282.957 88.624C282.377 88.624 281.891 88.7705 281.498 89.0635C281.105 89.3564 280.909 89.7109 280.909 90.127H279.274C279.274 89.6523 279.441 89.1953 279.775 88.7559C280.115 88.3105 280.572 87.959 281.146 87.7012C281.727 87.4434 282.362 87.3145 283.054 87.3145C284.149 87.3145 285.008 87.5898 285.629 88.1406C286.25 88.6855 286.572 89.4385 286.596 90.3994V94.7764C286.596 95.6494 286.707 96.3438 286.93 96.8594V97H285.225ZM282.526 95.7607C283.036 95.7607 283.52 95.6289 283.977 95.3652C284.434 95.1016 284.765 94.7588 284.97 94.3369V92.3857H283.695C281.703 92.3857 280.707 92.9688 280.707 94.1348C280.707 94.6445 280.877 95.043 281.217 95.3301C281.557 95.6172 281.993 95.7607 282.526 95.7607ZM297.564 94.7588L299.393 87.4902H301.019L298.25 97H296.932L294.62 89.793L292.37 97H291.052L288.292 87.4902H289.909L291.781 94.6094L293.996 87.4902H295.306L297.564 94.7588ZM308.551 97C308.457 96.8125 308.381 96.4785 308.322 95.998C307.566 96.7832 306.664 97.1758 305.615 97.1758C304.678 97.1758 303.907 96.9121 303.304 96.3848C302.706 95.8516 302.407 95.1777 302.407 94.3633C302.407 93.373 302.782 92.6055 303.532 92.0605C304.288 91.5098 305.349 91.2344 306.714 91.2344H308.296V90.4873C308.296 89.9189 308.126 89.4678 307.786 89.1338C307.446 88.7939 306.945 88.624 306.283 88.624C305.703 88.624 305.217 88.7705 304.824 89.0635C304.432 89.3564 304.235 89.7109 304.235 90.127H302.601C302.601 89.6523 302.768 89.1953 303.102 88.7559C303.441 88.3105 303.898 87.959 304.473 87.7012C305.053 87.4434 305.688 87.3145 306.38 87.3145C307.476 87.3145 308.334 87.5898 308.955 88.1406C309.576 88.6855 309.898 89.4385 309.922 90.3994V94.7764C309.922 95.6494 310.033 96.3438 310.256 96.8594V97H308.551ZM305.853 95.7607C306.362 95.7607 306.846 95.6289 307.303 95.3652C307.76 95.1016 308.091 94.7588 308.296 94.3369V92.3857H307.021C305.029 92.3857 304.033 92.9688 304.033 94.1348C304.033 94.6445 304.203 95.043 304.543 95.3301C304.883 95.6172 305.319 95.7607 305.853 95.7607ZM325.681 85.5918H321.567V97H319.889V85.5918H315.784V84.2031H325.681V85.5918ZM329.091 97H327.465V87.4902H329.091V97ZM327.333 84.9678C327.333 84.7041 327.412 84.4814 327.57 84.2998C327.734 84.1182 327.975 84.0273 328.291 84.0273C328.607 84.0273 328.848 84.1182 329.012 84.2998C329.176 84.4814 329.258 84.7041 329.258 84.9678C329.258 85.2314 329.176 85.4512 329.012 85.627C328.848 85.8027 328.607 85.8906 328.291 85.8906C327.975 85.8906 327.734 85.8027 327.57 85.627C327.412 85.4512 327.333 85.2314 327.333 84.9678ZM333.23 87.4902L333.274 88.5449C333.972 87.7246 334.912 87.3145 336.096 87.3145C337.426 87.3145 338.331 87.8242 338.812 88.8438C339.128 88.3867 339.538 88.0176 340.042 87.7363C340.552 87.4551 341.152 87.3145 341.844 87.3145C343.93 87.3145 344.99 88.4189 345.025 90.6279V97H343.399V90.7246C343.399 90.0449 343.244 89.5381 342.934 89.2041C342.623 88.8643 342.102 88.6943 341.369 88.6943C340.766 88.6943 340.265 88.876 339.866 89.2393C339.468 89.5967 339.236 90.0801 339.172 90.6895V97H337.537V90.7686C337.537 89.3857 336.86 88.6943 335.507 88.6943C334.44 88.6943 333.711 89.1484 333.318 90.0566V97H331.692V87.4902H333.23ZM353.357 96.0596C352.725 96.8037 351.796 97.1758 350.571 97.1758C349.558 97.1758 348.784 96.8828 348.251 96.2969C347.724 95.7051 347.457 94.832 347.451 93.6777V87.4902H349.077V93.6338C349.077 95.0752 349.663 95.7959 350.835 95.7959C352.077 95.7959 352.903 95.333 353.313 94.4072V87.4902H354.939V97H353.393L353.357 96.0596ZM362.015 88.9492C361.769 88.9082 361.502 88.8877 361.215 88.8877C360.148 88.8877 359.425 89.3418 359.044 90.25V97H357.418V87.4902H359L359.026 88.5889C359.56 87.7393 360.315 87.3145 361.294 87.3145C361.61 87.3145 361.851 87.3555 362.015 87.4375V88.9492ZM362.463 96.1475C362.463 95.8662 362.545 95.6318 362.709 95.4443C362.879 95.2568 363.131 95.1631 363.465 95.1631C363.799 95.1631 364.051 95.2568 364.221 95.4443C364.396 95.6318 364.484 95.8662 364.484 96.1475C364.484 96.417 364.396 96.6426 364.221 96.8242C364.051 97.0059 363.799 97.0967 363.465 97.0967C363.131 97.0967 362.879 97.0059 362.709 96.8242C362.545 96.6426 362.463 96.417 362.463 96.1475Z" fill="#30444E"/>
<circle cx="35" cy="54" r="35" fill="#D5E1DB" fill-opacity="0.4"/>
<path d="M23 51.4413H20L33.9393 37.4413C34.5251 36.8529 35.4749 36.8529 36.0607 37.4413L50 51.4413H47V63.4935C47 64.3255 46.3284 65 45.5 65H38V54.4543H32V65H24.5C23.6716 65 23 64.3255 23 63.4935V51.4413Z" fill="#EE4248"/>
</svg>
