<svg width="510" height="76" viewBox="0 0 510 76" fill="none" xmlns="http://www.w3.org/2000/svg">
<path d="M118.707 23.3828H111.699V28.6328H119.891V31H108.734V13.9375H119.809V16.3281H111.699V21.0391H118.707V23.3828ZM124.707 18.3203L124.789 19.6445C125.68 18.6055 126.898 18.0859 128.445 18.0859C130.141 18.0859 131.301 18.7344 131.926 20.0312C132.848 18.7344 134.145 18.0859 135.816 18.0859C137.215 18.0859 138.254 18.4727 138.934 19.2461C139.621 20.0195 139.973 21.1602 139.988 22.668V31H137.141V22.75C137.141 21.9453 136.965 21.3555 136.613 20.9805C136.262 20.6055 135.68 20.418 134.867 20.418C134.219 20.418 133.688 20.5938 133.273 20.9453C132.867 21.2891 132.582 21.7422 132.418 22.3047L132.43 31H129.582V22.6562C129.543 21.1641 128.781 20.418 127.297 20.418C126.156 20.418 125.348 20.8828 124.871 21.8125V31H122.023V18.3203H124.707ZM150.488 31C150.363 30.7578 150.254 30.3633 150.16 29.8164C149.254 30.7617 148.145 31.2344 146.832 31.2344C145.559 31.2344 144.52 30.8711 143.715 30.1445C142.91 29.418 142.508 28.5195 142.508 27.4492C142.508 26.0977 143.008 25.0625 144.008 24.3438C145.016 23.6172 146.453 23.2539 148.32 23.2539H150.066V22.4219C150.066 21.7656 149.883 21.2422 149.516 20.8516C149.148 20.4531 148.59 20.2539 147.84 20.2539C147.191 20.2539 146.66 20.418 146.246 20.7461C145.832 21.0664 145.625 21.4766 145.625 21.9766H142.777C142.777 21.2812 143.008 20.6328 143.469 20.0312C143.93 19.4219 144.555 18.9453 145.344 18.6016C146.141 18.2578 147.027 18.0859 148.004 18.0859C149.488 18.0859 150.672 18.4609 151.555 19.2109C152.438 19.9531 152.891 21 152.914 22.3516V28.0703C152.914 29.2109 153.074 30.1211 153.395 30.8008V31H150.488ZM147.359 28.9492C147.922 28.9492 148.449 28.8125 148.941 28.5391C149.441 28.2656 149.816 27.8984 150.066 27.4375V25.0469H148.531C147.477 25.0469 146.684 25.2305 146.152 25.5977C145.621 25.9648 145.355 26.4844 145.355 27.1562C145.355 27.7031 145.535 28.1406 145.895 28.4688C146.262 28.7891 146.75 28.9492 147.359 28.9492ZM158.926 31H156.078V18.3203H158.926V31ZM155.902 15.0273C155.902 14.5898 156.039 14.2266 156.312 13.9375C156.594 13.6484 156.992 13.5039 157.508 13.5039C158.023 13.5039 158.422 13.6484 158.703 13.9375C158.984 14.2266 159.125 14.5898 159.125 15.0273C159.125 15.457 158.984 15.8164 158.703 16.1055C158.422 16.3867 158.023 16.5273 157.508 16.5273C156.992 16.5273 156.594 16.3867 156.312 16.1055C156.039 15.8164 155.902 15.457 155.902 15.0273ZM165.066 31H162.219V13H165.066V31Z" fill="#1F2E35"/>
<path d="M113.768 64.4775C113.768 64.0381 113.601 63.6982 113.267 63.458C112.938 63.2119 112.361 63.001 111.535 62.8252C110.715 62.6494 110.062 62.4385 109.575 62.1924C109.095 61.9463 108.737 61.6533 108.503 61.3135C108.274 60.9736 108.16 60.5693 108.16 60.1006C108.16 59.3213 108.488 58.6621 109.145 58.123C109.807 57.584 110.65 57.3145 111.676 57.3145C112.754 57.3145 113.627 57.5928 114.295 58.1494C114.969 58.7061 115.306 59.418 115.306 60.2852H113.671C113.671 59.8398 113.48 59.4561 113.1 59.1338C112.725 58.8115 112.25 58.6504 111.676 58.6504C111.084 58.6504 110.621 58.7793 110.287 59.0371C109.953 59.2949 109.786 59.6318 109.786 60.0479C109.786 60.4404 109.941 60.7363 110.252 60.9355C110.562 61.1348 111.122 61.3252 111.931 61.5068C112.745 61.6885 113.404 61.9053 113.908 62.1572C114.412 62.4092 114.784 62.7139 115.024 63.0713C115.271 63.4229 115.394 63.8535 115.394 64.3633C115.394 65.2129 115.054 65.8955 114.374 66.4111C113.694 66.9209 112.812 67.1758 111.729 67.1758C110.967 67.1758 110.293 67.041 109.707 66.7715C109.121 66.502 108.661 66.127 108.327 65.6465C107.999 65.1602 107.835 64.6357 107.835 64.0732H109.461C109.49 64.6182 109.707 65.0518 110.111 65.374C110.521 65.6904 111.061 65.8486 111.729 65.8486C112.344 65.8486 112.836 65.7256 113.205 65.4795C113.58 65.2275 113.768 64.8936 113.768 64.4775ZM121.458 67.1758C120.169 67.1758 119.12 66.7539 118.312 65.9102C117.503 65.0605 117.099 63.9268 117.099 62.5088V62.21C117.099 61.2666 117.277 60.4258 117.635 59.6875C117.998 58.9434 118.502 58.3633 119.146 57.9473C119.797 57.5254 120.5 57.3145 121.256 57.3145C122.492 57.3145 123.453 57.7217 124.139 58.5361C124.824 59.3506 125.167 60.5166 125.167 62.0342V62.7109H118.725C118.748 63.6484 119.021 64.4072 119.542 64.9873C120.069 65.5615 120.737 65.8486 121.546 65.8486C122.12 65.8486 122.606 65.7314 123.005 65.4971C123.403 65.2627 123.752 64.9521 124.051 64.5654L125.044 65.3389C124.247 66.5635 123.052 67.1758 121.458 67.1758ZM121.256 58.6504C120.6 58.6504 120.049 58.8906 119.604 59.3711C119.158 59.8457 118.883 60.5137 118.777 61.375H123.541V61.252C123.494 60.4258 123.271 59.7871 122.873 59.3359C122.475 58.8789 121.936 58.6504 121.256 58.6504ZM129.711 62.5967L128.691 63.6602V67H127.065V53.5H128.691V61.665L129.562 60.6191L132.523 57.4902H134.501L130.801 61.4629L134.932 67H133.024L129.711 62.5967ZM135.749 62.1572C135.749 61.2256 135.931 60.3877 136.294 59.6436C136.663 58.8994 137.173 58.3252 137.823 57.9209C138.479 57.5166 139.227 57.3145 140.064 57.3145C141.359 57.3145 142.405 57.7627 143.202 58.6592C144.005 59.5557 144.406 60.748 144.406 62.2363V62.3506C144.406 63.2764 144.228 64.1084 143.87 64.8467C143.519 65.5791 143.012 66.1504 142.35 66.5605C141.693 66.9707 140.938 67.1758 140.082 67.1758C138.793 67.1758 137.747 66.7275 136.944 65.8311C136.147 64.9346 135.749 63.748 135.749 62.2715V62.1572ZM137.384 62.3506C137.384 63.4053 137.627 64.252 138.113 64.8906C138.605 65.5293 139.262 65.8486 140.082 65.8486C140.908 65.8486 141.564 65.5264 142.051 64.8818C142.537 64.2314 142.78 63.3232 142.78 62.1572C142.78 61.1143 142.531 60.2705 142.033 59.626C141.541 58.9756 140.885 58.6504 140.064 58.6504C139.262 58.6504 138.614 58.9697 138.122 59.6084C137.63 60.2471 137.384 61.1611 137.384 62.3506ZM148.212 67H146.586V53.5H148.212V67ZM156.693 67C156.6 66.8125 156.523 66.4785 156.465 65.998C155.709 66.7832 154.807 67.1758 153.758 67.1758C152.82 67.1758 152.05 66.9121 151.446 66.3848C150.849 65.8516 150.55 65.1777 150.55 64.3633C150.55 63.373 150.925 62.6055 151.675 62.0605C152.431 61.5098 153.491 61.2344 154.856 61.2344H156.438V60.4873C156.438 59.9189 156.269 59.4678 155.929 59.1338C155.589 58.7939 155.088 58.624 154.426 58.624C153.846 58.624 153.359 58.7705 152.967 59.0635C152.574 59.3564 152.378 59.7109 152.378 60.127H150.743C150.743 59.6523 150.91 59.1953 151.244 58.7559C151.584 58.3105 152.041 57.959 152.615 57.7012C153.195 57.4434 153.831 57.3145 154.522 57.3145C155.618 57.3145 156.477 57.5898 157.098 58.1406C157.719 58.6855 158.041 59.4385 158.064 60.3994V64.7764C158.064 65.6494 158.176 66.3438 158.398 66.8594V67H156.693ZM153.995 65.7607C154.505 65.7607 154.988 65.6289 155.445 65.3652C155.902 65.1016 156.233 64.7588 156.438 64.3369V62.3857H155.164C153.172 62.3857 152.176 62.9688 152.176 64.1348C152.176 64.6445 152.346 65.043 152.686 65.3301C153.025 65.6172 153.462 65.7607 153.995 65.7607ZM162.239 58.6416C162.96 57.7568 163.897 57.3145 165.052 57.3145C167.062 57.3145 168.075 58.4482 168.093 60.7158V67H166.467V60.707C166.461 60.0215 166.303 59.5146 165.992 59.1865C165.688 58.8584 165.21 58.6943 164.56 58.6943C164.032 58.6943 163.569 58.835 163.171 59.1162C162.772 59.3975 162.462 59.7666 162.239 60.2236V67H160.613V53.5H162.239V58.6416ZM173.182 62.5967L172.162 63.6602V67H170.536V53.5H172.162V61.665L173.032 60.6191L175.994 57.4902H177.972L174.271 61.4629L178.402 67H176.495L173.182 62.5967ZM185.521 66.0596C184.889 66.8037 183.96 67.1758 182.735 67.1758C181.722 67.1758 180.948 66.8828 180.415 66.2969C179.888 65.7051 179.621 64.832 179.615 63.6777V57.4902H181.241V63.6338C181.241 65.0752 181.827 65.7959 182.999 65.7959C184.241 65.7959 185.067 65.333 185.478 64.4072V57.4902H187.104V67H185.557L185.521 66.0596ZM203.627 62.5879C203.557 64.0059 203.205 65.125 202.572 65.9453C201.939 66.7656 201.093 67.1758 200.032 67.1758C198.937 67.1758 198.233 66.6836 197.923 65.6992C197.606 66.1973 197.243 66.5693 196.833 66.8154C196.429 67.0557 196.01 67.1758 195.576 67.1758C194.744 67.1758 194.114 66.8359 193.687 66.1562C193.259 65.4766 193.101 64.5361 193.212 63.335C193.3 62.3682 193.52 61.5068 193.871 60.751C194.229 59.9893 194.686 59.3916 195.242 58.958C195.805 58.5244 196.394 58.3076 197.009 58.3076C197.483 58.3076 197.908 58.3721 198.283 58.501C198.658 58.624 199.08 58.8701 199.549 59.2393L199.092 64.1084C198.98 65.4619 199.355 66.1387 200.217 66.1387C200.879 66.1387 201.415 65.8105 201.825 65.1543C202.235 64.498 202.458 63.6426 202.493 62.5879C202.604 60.3086 202.18 58.5713 201.219 57.376C200.264 56.1807 198.808 55.583 196.851 55.583C195.673 55.583 194.627 55.876 193.713 56.4619C192.799 57.042 192.078 57.8828 191.551 58.9844C191.023 60.0859 190.728 61.3574 190.663 62.7988C190.593 64.252 190.769 65.5146 191.19 66.5869C191.612 67.6533 192.254 68.4678 193.115 69.0303C193.982 69.5986 195.028 69.8828 196.253 69.8828C196.78 69.8828 197.308 69.8184 197.835 69.6895C198.368 69.5605 198.811 69.3936 199.162 69.1885L199.487 70.1992C199.124 70.4277 198.641 70.6152 198.037 70.7617C197.439 70.9082 196.833 70.9814 196.218 70.9814C194.753 70.9814 193.493 70.6504 192.438 69.9883C191.384 69.332 190.593 68.3828 190.065 67.1406C189.544 65.9043 189.318 64.457 189.389 62.7988C189.459 61.1875 189.819 59.7402 190.47 58.457C191.12 57.168 192.002 56.1748 193.115 55.4775C194.229 54.7744 195.485 54.4229 196.886 54.4229C198.345 54.4229 199.596 54.751 200.639 55.4072C201.682 56.0635 202.458 57.0098 202.968 58.2461C203.478 59.4824 203.697 60.9297 203.627 62.5879ZM194.609 63.335C194.527 64.167 194.604 64.8057 194.838 65.251C195.078 65.6963 195.456 65.9189 195.972 65.9189C196.323 65.9189 196.66 65.7695 196.982 65.4707C197.311 65.1719 197.58 64.7441 197.791 64.1875L197.8 64.1084L198.204 59.6875C197.876 59.5176 197.524 59.4326 197.149 59.4326C196.464 59.4326 195.896 59.7812 195.444 60.4785C194.999 61.1758 194.721 62.1279 194.609 63.335ZM211.291 64.4775C211.291 64.0381 211.124 63.6982 210.79 63.458C210.462 63.2119 209.885 63.001 209.059 62.8252C208.238 62.6494 207.585 62.4385 207.099 62.1924C206.618 61.9463 206.261 61.6533 206.026 61.3135C205.798 60.9736 205.684 60.5693 205.684 60.1006C205.684 59.3213 206.012 58.6621 206.668 58.123C207.33 57.584 208.174 57.3145 209.199 57.3145C210.277 57.3145 211.15 57.5928 211.818 58.1494C212.492 58.7061 212.829 59.418 212.829 60.2852H211.194C211.194 59.8398 211.004 59.4561 210.623 59.1338C210.248 58.8115 209.773 58.6504 209.199 58.6504C208.607 58.6504 208.145 58.7793 207.811 59.0371C207.477 59.2949 207.31 59.6318 207.31 60.0479C207.31 60.4404 207.465 60.7363 207.775 60.9355C208.086 61.1348 208.646 61.3252 209.454 61.5068C210.269 61.6885 210.928 61.9053 211.432 62.1572C211.936 62.4092 212.308 62.7139 212.548 63.0713C212.794 63.4229 212.917 63.8535 212.917 64.3633C212.917 65.2129 212.577 65.8955 211.897 66.4111C211.218 66.9209 210.336 67.1758 209.252 67.1758C208.49 67.1758 207.816 67.041 207.23 66.7715C206.645 66.502 206.185 66.127 205.851 65.6465C205.522 65.1602 205.358 64.6357 205.358 64.0732H206.984C207.014 64.6182 207.23 65.0518 207.635 65.374C208.045 65.6904 208.584 65.8486 209.252 65.8486C209.867 65.8486 210.359 65.7256 210.729 65.4795C211.104 65.2275 211.291 64.8936 211.291 64.4775ZM218.85 65.8486C219.43 65.8486 219.937 65.6729 220.37 65.3213C220.804 64.9697 221.044 64.5303 221.091 64.0029H222.629C222.6 64.5479 222.412 65.0664 222.066 65.5586C221.721 66.0508 221.258 66.4434 220.678 66.7363C220.104 67.0293 219.494 67.1758 218.85 67.1758C217.555 67.1758 216.523 66.7451 215.756 65.8838C214.994 65.0166 214.613 63.833 214.613 62.333V62.0605C214.613 61.1348 214.783 60.3115 215.123 59.5908C215.463 58.8701 215.949 58.3105 216.582 57.9121C217.221 57.5137 217.974 57.3145 218.841 57.3145C219.907 57.3145 220.792 57.6338 221.495 58.2725C222.204 58.9111 222.582 59.7402 222.629 60.7598H221.091C221.044 60.1445 220.81 59.6406 220.388 59.248C219.972 58.8496 219.456 58.6504 218.841 58.6504C218.015 58.6504 217.373 58.9492 216.916 59.5469C216.465 60.1387 216.239 60.9971 216.239 62.1221V62.4297C216.239 63.5254 216.465 64.3691 216.916 64.9609C217.367 65.5527 218.012 65.8486 218.85 65.8486ZM226.083 58.6416C226.804 57.7568 227.741 57.3145 228.896 57.3145C230.905 57.3145 231.919 58.4482 231.937 60.7158V67H230.311V60.707C230.305 60.0215 230.146 59.5146 229.836 59.1865C229.531 58.8584 229.054 58.6943 228.403 58.6943C227.876 58.6943 227.413 58.835 227.015 59.1162C226.616 59.3975 226.306 59.7666 226.083 60.2236V67H224.457V53.5H226.083V58.6416ZM234.406 66.1475C234.406 65.8662 234.488 65.6318 234.652 65.4443C234.822 65.2568 235.074 65.1631 235.408 65.1631C235.742 65.1631 235.994 65.2568 236.164 65.4443C236.34 65.6318 236.428 65.8662 236.428 66.1475C236.428 66.417 236.34 66.6426 236.164 66.8242C235.994 67.0059 235.742 67.0967 235.408 67.0967C235.074 67.0967 234.822 67.0059 234.652 66.8242C234.488 66.6426 234.406 66.417 234.406 66.1475ZM240.884 67H239.258V57.4902H240.884V67ZM239.126 54.9678C239.126 54.7041 239.205 54.4814 239.363 54.2998C239.527 54.1182 239.768 54.0273 240.084 54.0273C240.4 54.0273 240.641 54.1182 240.805 54.2998C240.969 54.4814 241.051 54.7041 241.051 54.9678C241.051 55.2314 240.969 55.4512 240.805 55.627C240.641 55.8027 240.4 55.8906 240.084 55.8906C239.768 55.8906 239.527 55.8027 239.363 55.627C239.205 55.4512 239.126 55.2314 239.126 54.9678ZM243.099 62.166C243.099 60.707 243.444 59.5352 244.136 58.6504C244.827 57.7598 245.732 57.3145 246.852 57.3145C247.965 57.3145 248.847 57.6953 249.497 58.457V53.5H251.123V67H249.629L249.55 65.9805C248.899 66.7773 247.994 67.1758 246.834 67.1758C245.732 67.1758 244.833 66.7246 244.136 65.8223C243.444 64.9199 243.099 63.7422 243.099 62.2891V62.166ZM244.725 62.3506C244.725 63.4287 244.947 64.2725 245.393 64.8818C245.838 65.4912 246.453 65.7959 247.238 65.7959C248.27 65.7959 249.022 65.333 249.497 64.4072V60.0391C249.011 59.1426 248.264 58.6943 247.256 58.6943C246.459 58.6943 245.838 59.002 245.393 59.6172C244.947 60.2324 244.725 61.1436 244.725 62.3506Z" fill="#30444E"/>
<circle cx="35" cy="38" r="35" fill="#D5E1DB" fill-opacity="0.4"/>
<path fill-rule="evenodd" clip-rule="evenodd" d="M20 29C20 27.3431 21.3431 26 23 26H47C48.6569 26 50 27.3431 50 29V47C50 48.6569 48.6569 50 47 50H23C21.3431 50 20 48.6569 20 47V29ZM47 31.8028V47H23V31.8028L35 39.8028L47 31.8028ZM45.7958 29H24.2042L35 36.1972L45.7958 29Z" fill="#EE4248"/>
</svg>
