<svg width="285" height="52" viewBox="0 0 285 52" fill="none" xmlns="http://www.w3.org/2000/svg">
<rect x="1.00003" y="0.5" width="283" height="51" rx="25.5" fill="white"/>
<rect x="1.00003" y="0.5" width="283" height="51" rx="25.5" stroke="#D0D0D0"/>
<path d="M35.8682 26.3784H31.6494V29.2349H36.6006V31H29.4522V20.3359H36.586V22.1157H31.6494V24.6572H35.8682V26.3784ZM39.8988 23.0752L39.9647 23.9907C40.5311 23.2827 41.2904 22.9287 42.2425 22.9287C43.0824 22.9287 43.7074 23.1753 44.1175 23.6685C44.5277 24.1616 44.7376 24.8989 44.7474 25.8804V31H42.6307V25.9316C42.6307 25.4824 42.533 25.1577 42.3377 24.9575C42.1424 24.7524 41.8177 24.6499 41.3636 24.6499C40.7679 24.6499 40.3211 24.9038 40.0233 25.4116V31H37.9066V23.0752H39.8988ZM49.0929 21.127V23.0752H50.4479V24.6279H49.0929V28.583C49.0929 28.876 49.1491 29.0859 49.2614 29.2129C49.3737 29.3398 49.5885 29.4033 49.9059 29.4033C50.1403 29.4033 50.3478 29.3862 50.5284 29.3521V30.9561C50.1134 31.083 49.6862 31.1465 49.2467 31.1465C47.7623 31.1465 47.0055 30.397 46.9762 28.8979V24.6279H45.819V23.0752H46.9762V21.127H49.0929ZM55.4745 31.1465C54.3124 31.1465 53.3652 30.79 52.6327 30.0771C51.9052 29.3643 51.5414 28.4146 51.5414 27.228V27.0229C51.5414 26.2271 51.6952 25.5166 52.0029 24.8916C52.3105 24.2617 52.7451 23.7783 53.3066 23.4414C53.873 23.0996 54.5175 22.9287 55.2402 22.9287C56.3242 22.9287 57.1762 23.2705 57.7963 23.9541C58.4213 24.6377 58.7338 25.6069 58.7338 26.8618V27.7261H53.6874C53.7558 28.2437 53.9609 28.6587 54.3027 28.9712C54.6493 29.2837 55.0864 29.4399 55.6137 29.4399C56.4291 29.4399 57.0663 29.1445 57.5253 28.5537L58.5654 29.7183C58.248 30.1675 57.8183 30.519 57.2763 30.7729C56.7343 31.022 56.1337 31.1465 55.4745 31.1465ZM55.2328 24.6426C54.8129 24.6426 54.4711 24.7842 54.2075 25.0674C53.9487 25.3506 53.7826 25.7559 53.7094 26.2832H56.6537V26.1147C56.644 25.646 56.517 25.2847 56.2729 25.0308C56.0287 24.772 55.6821 24.6426 55.2328 24.6426ZM64.5954 25.0601C64.3074 25.021 64.0534 25.0015 63.8337 25.0015C63.0329 25.0015 62.508 25.2725 62.259 25.8145V31H60.1423V23.0752H62.1418L62.2004 24.02C62.6252 23.2925 63.2136 22.9287 63.9656 22.9287C64.1999 22.9287 64.4197 22.9604 64.6247 23.0239L64.5954 25.0601ZM73.5721 25.1406L75.7913 20.3359H78.1937L74.6927 27.1328V31H72.4588V27.1328L68.9578 20.3359H71.3675L73.5721 25.1406ZM78.4157 26.9644C78.4157 26.1782 78.567 25.4775 78.8698 24.8623C79.1725 24.2471 79.6071 23.771 80.1735 23.4341C80.7448 23.0972 81.4064 22.9287 82.1583 22.9287C83.2277 22.9287 84.0993 23.2559 84.7731 23.9102C85.4518 24.5645 85.8302 25.4531 85.9083 26.5762L85.923 27.1182C85.923 28.334 85.5836 29.3105 84.9049 30.0479C84.2262 30.7803 83.3156 31.1465 82.173 31.1465C81.0304 31.1465 80.1173 30.7803 79.4337 30.0479C78.755 29.3154 78.4157 28.3193 78.4157 27.0596V26.9644ZM80.5324 27.1182C80.5324 27.8701 80.674 28.4463 80.9572 28.8467C81.2404 29.2422 81.6456 29.4399 82.173 29.4399C82.6857 29.4399 83.0861 29.2446 83.3742 28.854C83.6622 28.4585 83.8063 27.8286 83.8063 26.9644C83.8063 26.2271 83.6622 25.6558 83.3742 25.2505C83.0861 24.8452 82.6808 24.6426 82.1583 24.6426C81.6408 24.6426 81.2404 24.8452 80.9572 25.2505C80.674 25.6509 80.5324 26.2734 80.5324 27.1182ZM92.1728 30.1943C91.6503 30.8291 90.9277 31.1465 90.0048 31.1465C89.1552 31.1465 88.5058 30.9023 88.0566 30.4141C87.6122 29.9258 87.3852 29.2104 87.3754 28.2681V23.0752H89.4921V28.1948C89.4921 29.02 89.8681 29.4326 90.62 29.4326C91.3378 29.4326 91.831 29.1836 92.0995 28.6855V23.0752H94.2236V31H92.2314L92.1728 30.1943ZM100.473 25.0601C100.185 25.021 99.9314 25.0015 99.7117 25.0015C98.9109 25.0015 98.386 25.2725 98.1369 25.8145V31H96.0202V23.0752H98.0198L98.0784 24.02C98.5032 23.2925 99.0915 22.9287 99.8435 22.9287C100.078 22.9287 100.298 22.9604 100.503 23.0239L100.473 25.0601ZM111.794 28.8027H107.941L107.209 31H104.872L108.842 20.3359H110.878L114.87 31H112.534L111.794 28.8027ZM108.535 27.0229H111.201L109.86 23.0312L108.535 27.0229ZM115.597 26.979C115.597 25.7437 115.873 24.7598 116.425 24.0273C116.982 23.2949 117.741 22.9287 118.703 22.9287C119.474 22.9287 120.111 23.2168 120.614 23.793V19.75H122.738V31H120.827L120.724 30.1577C120.197 30.8169 119.518 31.1465 118.688 31.1465C117.756 31.1465 117.006 30.7803 116.44 30.0479C115.878 29.3105 115.597 28.2876 115.597 26.979ZM117.714 27.1328C117.714 27.875 117.843 28.4438 118.102 28.8394C118.361 29.2349 118.737 29.4326 119.23 29.4326C119.884 29.4326 120.346 29.1567 120.614 28.605V25.4775C120.351 24.9258 119.894 24.6499 119.245 24.6499C118.224 24.6499 117.714 25.4775 117.714 27.1328ZM129.032 25.0601C128.744 25.021 128.49 25.0015 128.27 25.0015C127.47 25.0015 126.945 25.2725 126.696 25.8145V31H124.579V23.0752H126.579L126.637 24.02C127.062 23.2925 127.65 22.9287 128.402 22.9287C128.637 22.9287 128.856 22.9604 129.061 23.0239L129.032 25.0601ZM133.759 31.1465C132.596 31.1465 131.649 30.79 130.917 30.0771C130.189 29.3643 129.825 28.4146 129.825 27.228V27.0229C129.825 26.2271 129.979 25.5166 130.287 24.8916C130.594 24.2617 131.029 23.7783 131.591 23.4414C132.157 23.0996 132.801 22.9287 133.524 22.9287C134.608 22.9287 135.46 23.2705 136.08 23.9541C136.705 24.6377 137.018 25.6069 137.018 26.8618V27.7261H131.971C132.04 28.2437 132.245 28.6587 132.587 28.9712C132.933 29.2837 133.37 29.4399 133.898 29.4399C134.713 29.4399 135.35 29.1445 135.809 28.5537L136.849 29.7183C136.532 30.1675 136.102 30.519 135.56 30.7729C135.018 31.022 134.418 31.1465 133.759 31.1465ZM133.517 24.6426C133.097 24.6426 132.755 24.7842 132.491 25.0674C132.233 25.3506 132.067 25.7559 131.993 26.2832H134.938V26.1147C134.928 25.646 134.801 25.2847 134.557 25.0308C134.313 24.772 133.966 24.6426 133.517 24.6426ZM142.718 28.8101C142.718 28.5513 142.589 28.3486 142.33 28.2021C142.076 28.0508 141.666 27.9165 141.1 27.7993C139.215 27.4038 138.272 26.603 138.272 25.397C138.272 24.6938 138.563 24.1079 139.144 23.6392C139.73 23.1655 140.494 22.9287 141.437 22.9287C142.442 22.9287 143.246 23.1655 143.846 23.6392C144.452 24.1128 144.754 24.728 144.754 25.4849H142.638C142.638 25.1821 142.54 24.9331 142.345 24.7378C142.149 24.5376 141.844 24.4375 141.429 24.4375C141.073 24.4375 140.797 24.5181 140.602 24.6792C140.406 24.8403 140.309 25.0454 140.309 25.2944C140.309 25.5288 140.418 25.7192 140.638 25.8657C140.863 26.0073 141.239 26.1318 141.766 26.2393C142.293 26.3418 142.738 26.459 143.099 26.5908C144.217 27.001 144.776 27.7114 144.776 28.7222C144.776 29.4448 144.466 30.0308 143.846 30.48C143.226 30.9243 142.425 31.1465 141.444 31.1465C140.78 31.1465 140.189 31.0293 139.671 30.7949C139.159 30.5557 138.756 30.231 138.463 29.8208C138.17 29.4058 138.023 28.959 138.023 28.4805H140.03C140.05 28.8564 140.189 29.1445 140.448 29.3447C140.707 29.5449 141.053 29.645 141.488 29.645C141.893 29.645 142.198 29.5693 142.403 29.418C142.613 29.2617 142.718 29.0591 142.718 28.8101ZM150.638 28.8101C150.638 28.5513 150.509 28.3486 150.25 28.2021C149.996 28.0508 149.586 27.9165 149.019 27.7993C147.135 27.4038 146.192 26.603 146.192 25.397C146.192 24.6938 146.483 24.1079 147.064 23.6392C147.65 23.1655 148.414 22.9287 149.356 22.9287C150.362 22.9287 151.165 23.1655 151.766 23.6392C152.371 24.1128 152.674 24.728 152.674 25.4849H150.557C150.557 25.1821 150.46 24.9331 150.264 24.7378C150.069 24.5376 149.764 24.4375 149.349 24.4375C148.993 24.4375 148.717 24.5181 148.521 24.6792C148.326 24.8403 148.228 25.0454 148.228 25.2944C148.228 25.5288 148.338 25.7192 148.558 25.8657C148.783 26.0073 149.159 26.1318 149.686 26.2393C150.213 26.3418 150.658 26.459 151.019 26.5908C152.137 27.001 152.696 27.7114 152.696 28.7222C152.696 29.4448 152.386 30.0308 151.766 30.48C151.146 30.9243 150.345 31.1465 149.364 31.1465C148.7 31.1465 148.109 31.0293 147.591 30.7949C147.078 30.5557 146.676 30.231 146.383 29.8208C146.09 29.4058 145.943 28.959 145.943 28.4805H147.95C147.97 28.8564 148.109 29.1445 148.368 29.3447C148.626 29.5449 148.973 29.645 149.408 29.645C149.813 29.645 150.118 29.5693 150.323 29.418C150.533 29.2617 150.638 29.0591 150.638 28.8101ZM164.756 26.3784H160.538V29.2349H165.489V31H158.34V20.3359H165.474V22.1157H160.538V24.6572H164.756V26.3784ZM168.823 23.0752L168.889 23.9614C169.451 23.2729 170.21 22.9287 171.167 22.9287C172.188 22.9287 172.888 23.3315 173.269 24.1372C173.826 23.3315 174.619 22.9287 175.65 22.9287C176.509 22.9287 177.149 23.1802 177.569 23.6831C177.989 24.1812 178.198 24.9331 178.198 25.939V31H176.074V25.9463C176.074 25.4971 175.987 25.1699 175.811 24.9648C175.635 24.7549 175.325 24.6499 174.881 24.6499C174.246 24.6499 173.806 24.9526 173.562 25.5581L173.57 31H171.453V25.9536C171.453 25.4946 171.363 25.1626 171.182 24.9575C171.001 24.7524 170.694 24.6499 170.259 24.6499C169.658 24.6499 169.224 24.8989 168.955 25.397V31H166.839V23.0752H168.823ZM184.624 31C184.526 30.8096 184.456 30.5728 184.412 30.2896C183.899 30.8608 183.232 31.1465 182.412 31.1465C181.636 31.1465 180.991 30.9219 180.479 30.4727C179.971 30.0234 179.717 29.457 179.717 28.7734C179.717 27.9336 180.027 27.2891 180.647 26.8398C181.272 26.3906 182.173 26.1636 183.35 26.1587H184.324V25.7046C184.324 25.3384 184.229 25.0454 184.038 24.8257C183.853 24.606 183.557 24.4961 183.152 24.4961C182.795 24.4961 182.515 24.5815 182.31 24.7524C182.109 24.9233 182.009 25.1577 182.009 25.4556H179.893C179.893 24.9966 180.034 24.5718 180.317 24.1812C180.601 23.7905 181.001 23.4854 181.519 23.2656C182.036 23.041 182.617 22.9287 183.262 22.9287C184.238 22.9287 185.012 23.1753 185.584 23.6685C186.16 24.1567 186.448 24.8452 186.448 25.7339V29.1689C186.453 29.9209 186.558 30.4897 186.763 30.8755V31H184.624ZM182.874 29.5278C183.186 29.5278 183.474 29.4595 183.738 29.3228C184.001 29.1812 184.197 28.9932 184.324 28.7588V27.3965H183.533C182.473 27.3965 181.909 27.7627 181.841 28.4951L181.834 28.6196C181.834 28.8833 181.926 29.1006 182.112 29.2715C182.297 29.4424 182.551 29.5278 182.874 29.5278ZM190.508 31H188.384V23.0752H190.508V31ZM188.259 21.0244C188.259 20.707 188.364 20.4458 188.574 20.2407C188.789 20.0356 189.079 19.9331 189.446 19.9331C189.807 19.9331 190.095 20.0356 190.31 20.2407C190.525 20.4458 190.632 20.707 190.632 21.0244C190.632 21.3467 190.522 21.6104 190.303 21.8154C190.088 22.0205 189.802 22.123 189.446 22.123C189.089 22.123 188.801 22.0205 188.581 21.8154C188.367 21.6104 188.259 21.3467 188.259 21.0244ZM194.692 31H192.568V19.75H194.692V31Z" fill="#5C5C5C"/>
</svg>
