<svg width="58" height="14" viewBox="0 0 58 14" fill="none" xmlns="http://www.w3.org/2000/svg">
<path d="M2.17285 7.99023V13H0.485352V0.203125H5.20508C6.60547 0.203125 7.70117 0.560547 8.49219 1.27539C9.28906 1.99023 9.6875 2.93652 9.6875 4.11426C9.6875 5.35645 9.29785 6.31445 8.51855 6.98828C7.74512 7.65625 6.63477 7.99023 5.1875 7.99023H2.17285ZM2.17285 6.61035H5.20508C6.10742 6.61035 6.79883 6.39941 7.2793 5.97754C7.75977 5.5498 8 4.93457 8 4.13184C8 3.37012 7.75977 2.76074 7.2793 2.30371C6.79883 1.84668 6.13965 1.60938 5.30176 1.5918H2.17285V6.61035ZM17.3516 13C17.2578 12.8125 17.1816 12.4785 17.123 11.998C16.3672 12.7832 15.4648 13.1758 14.416 13.1758C13.4785 13.1758 12.708 12.9121 12.1045 12.3848C11.5068 11.8516 11.208 11.1777 11.208 10.3633C11.208 9.37305 11.583 8.60547 12.333 8.06055C13.0889 7.50977 14.1494 7.23438 15.5146 7.23438H17.0967V6.4873C17.0967 5.91895 16.9268 5.46777 16.5869 5.13379C16.2471 4.79395 15.7461 4.62402 15.084 4.62402C14.5039 4.62402 14.0176 4.77051 13.625 5.06348C13.2324 5.35645 13.0361 5.71094 13.0361 6.12695H11.4014C11.4014 5.65234 11.5684 5.19531 11.9023 4.75586C12.2422 4.31055 12.6992 3.95898 13.2734 3.70117C13.8535 3.44336 14.4893 3.31445 15.1807 3.31445C16.2764 3.31445 17.1348 3.58984 17.7559 4.14062C18.377 4.68555 18.6992 5.43848 18.7227 6.39941V10.7764C18.7227 11.6494 18.834 12.3438 19.0566 12.8594V13H17.3516ZM14.6533 11.7607C15.1631 11.7607 15.6465 11.6289 16.1035 11.3652C16.5605 11.1016 16.8916 10.7588 17.0967 10.3369V8.38574H15.8223C13.8301 8.38574 12.834 8.96875 12.834 10.1348C12.834 10.6445 13.0039 11.043 13.3438 11.3301C13.6836 11.6172 14.1201 11.7607 14.6533 11.7607ZM25.8682 4.94922C25.6221 4.9082 25.3555 4.8877 25.0684 4.8877C24.002 4.8877 23.2783 5.3418 22.8975 6.25V13H21.2715V3.49023H22.8535L22.8799 4.58887C23.4131 3.73926 24.1689 3.31445 25.1475 3.31445C25.4639 3.31445 25.7041 3.35547 25.8682 3.4375V4.94922ZM30.0166 1.1875V3.49023H31.792V4.74707H30.0166V10.6445C30.0166 11.0254 30.0957 11.3125 30.2539 11.5059C30.4121 11.6934 30.6816 11.7871 31.0625 11.7871C31.25 11.7871 31.5078 11.752 31.8359 11.6816V13C31.4082 13.1172 30.9922 13.1758 30.5879 13.1758C29.8613 13.1758 29.3135 12.9561 28.9443 12.5166C28.5752 12.0771 28.3906 11.4531 28.3906 10.6445V4.74707H26.6592V3.49023H28.3906V1.1875H30.0166ZM35.2373 3.49023L35.29 4.68555C36.0166 3.77148 36.9658 3.31445 38.1377 3.31445C40.1475 3.31445 41.1611 4.44824 41.1787 6.71582V13H39.5527V6.70703C39.5469 6.02148 39.3887 5.51465 39.0781 5.18652C38.7734 4.8584 38.2959 4.69434 37.6455 4.69434C37.1182 4.69434 36.6553 4.83496 36.2568 5.11621C35.8584 5.39746 35.5479 5.7666 35.3252 6.22363V13H33.6992V3.49023H35.2373ZM47.5771 13.1758C46.2881 13.1758 45.2393 12.7539 44.4307 11.9102C43.6221 11.0605 43.2178 9.92676 43.2178 8.50879V8.20996C43.2178 7.2666 43.3965 6.42578 43.7539 5.6875C44.1172 4.94336 44.6211 4.36328 45.2656 3.94727C45.916 3.52539 46.6191 3.31445 47.375 3.31445C48.6113 3.31445 49.5723 3.72168 50.2578 4.53613C50.9434 5.35059 51.2861 6.5166 51.2861 8.03418V8.71094H44.8438C44.8672 9.64844 45.1396 10.4072 45.6611 10.9873C46.1885 11.5615 46.8564 11.8486 47.665 11.8486C48.2393 11.8486 48.7256 11.7314 49.124 11.4971C49.5225 11.2627 49.8711 10.9521 50.1699 10.5654L51.1631 11.3389C50.3662 12.5635 49.1709 13.1758 47.5771 13.1758ZM47.375 4.65039C46.7188 4.65039 46.168 4.89062 45.7227 5.37109C45.2773 5.8457 45.002 6.51367 44.8965 7.375H49.6602V7.25195C49.6133 6.42578 49.3906 5.78711 48.9922 5.33594C48.5938 4.87891 48.0547 4.65039 47.375 4.65039ZM57.7725 4.94922C57.5264 4.9082 57.2598 4.8877 56.9727 4.8877C55.9062 4.8877 55.1826 5.3418 54.8018 6.25V13H53.1758V3.49023H54.7578L54.7842 4.58887C55.3174 3.73926 56.0732 3.31445 57.0518 3.31445C57.3682 3.31445 57.6084 3.35547 57.7725 3.4375V4.94922Z" fill="#1F2E35" fill-opacity="0.8"/>
</svg>
