<svg width="62" height="15" viewBox="0 0 62 15" fill="none" xmlns="http://www.w3.org/2000/svg">
<path d="M2.17285 8.99023V14H0.485352V1.20312H5.20508C6.60547 1.20312 7.70117 1.56055 8.49219 2.27539C9.28906 2.99023 9.6875 3.93652 9.6875 5.11426C9.6875 6.35645 9.29785 7.31445 8.51855 7.98828C7.74512 8.65625 6.63477 8.99023 5.1875 8.99023H2.17285ZM2.17285 7.61035H5.20508C6.10742 7.61035 6.79883 7.39941 7.2793 6.97754C7.75977 6.5498 8 5.93457 8 5.13184C8 4.37012 7.75977 3.76074 7.2793 3.30371C6.79883 2.84668 6.13965 2.60938 5.30176 2.5918H2.17285V7.61035ZM16.1826 5.94922C15.9365 5.9082 15.6699 5.8877 15.3828 5.8877C14.3164 5.8877 13.5928 6.3418 13.2119 7.25V14H11.5859V4.49023H13.168L13.1943 5.58887C13.7275 4.73926 14.4834 4.31445 15.4619 4.31445C15.7783 4.31445 16.0186 4.35547 16.1826 4.4375V5.94922ZM17.0791 9.15723C17.0791 8.22559 17.2607 7.3877 17.624 6.64355C17.9932 5.89941 18.5029 5.3252 19.1533 4.9209C19.8096 4.5166 20.5566 4.31445 21.3945 4.31445C22.6895 4.31445 23.7354 4.7627 24.5322 5.65918C25.335 6.55566 25.7363 7.74805 25.7363 9.23633V9.35059C25.7363 10.2764 25.5576 11.1084 25.2002 11.8467C24.8486 12.5791 24.3418 13.1504 23.6797 13.5605C23.0234 13.9707 22.2676 14.1758 21.4121 14.1758C20.123 14.1758 19.0771 13.7275 18.2744 12.8311C17.4775 11.9346 17.0791 10.748 17.0791 9.27148V9.15723ZM18.7139 9.35059C18.7139 10.4053 18.957 11.252 19.4434 11.8906C19.9355 12.5293 20.5918 12.8486 21.4121 12.8486C22.2383 12.8486 22.8945 12.5264 23.3809 11.8818C23.8672 11.2314 24.1104 10.3232 24.1104 9.15723C24.1104 8.11426 23.8613 7.27051 23.3633 6.62598C22.8711 5.97559 22.2148 5.65039 21.3945 5.65039C20.5918 5.65039 19.9443 5.96973 19.4521 6.6084C18.96 7.24707 18.7139 8.16113 18.7139 9.35059ZM27.3799 9.16602C27.3799 7.70703 27.7256 6.53516 28.417 5.65039C29.1084 4.75977 30.0137 4.31445 31.1328 4.31445C32.2461 4.31445 33.1279 4.69531 33.7783 5.45703V0.5H35.4043V14H33.9102L33.8311 12.9805C33.1807 13.7773 32.2754 14.1758 31.1152 14.1758C30.0137 14.1758 29.1143 13.7246 28.417 12.8223C27.7256 11.9199 27.3799 10.7422 27.3799 9.28906V9.16602ZM29.0059 9.35059C29.0059 10.4287 29.2285 11.2725 29.6738 11.8818C30.1191 12.4912 30.7344 12.7959 31.5195 12.7959C32.5508 12.7959 33.3037 12.333 33.7783 11.4072V7.03906C33.292 6.14258 32.5449 5.69434 31.5371 5.69434C30.7402 5.69434 30.1191 6.00195 29.6738 6.61719C29.2285 7.23242 29.0059 8.14355 29.0059 9.35059ZM43.8066 13.0596C43.1738 13.8037 42.2451 14.1758 41.0205 14.1758C40.0068 14.1758 39.2334 13.8828 38.7002 13.2969C38.1729 12.7051 37.9062 11.832 37.9004 10.6777V4.49023H39.5264V10.6338C39.5264 12.0752 40.1123 12.7959 41.2842 12.7959C42.5264 12.7959 43.3525 12.333 43.7627 11.4072V4.49023H45.3887V14H43.8418L43.8066 13.0596ZM51.6816 12.8486C52.2617 12.8486 52.7686 12.6729 53.2021 12.3213C53.6357 11.9697 53.876 11.5303 53.9229 11.0029H55.4609C55.4316 11.5479 55.2441 12.0664 54.8984 12.5586C54.5527 13.0508 54.0898 13.4434 53.5098 13.7363C52.9355 14.0293 52.3262 14.1758 51.6816 14.1758C50.3867 14.1758 49.3555 13.7451 48.5879 12.8838C47.8262 12.0166 47.4453 10.833 47.4453 9.33301V9.06055C47.4453 8.13477 47.6152 7.31152 47.9551 6.59082C48.2949 5.87012 48.7812 5.31055 49.4141 4.91211C50.0527 4.51367 50.8057 4.31445 51.6729 4.31445C52.7393 4.31445 53.624 4.63379 54.3271 5.27246C55.0361 5.91113 55.4141 6.74023 55.4609 7.75977H53.9229C53.876 7.14453 53.6416 6.64062 53.2197 6.24805C52.8037 5.84961 52.2881 5.65039 51.6729 5.65039C50.8467 5.65039 50.2051 5.94922 49.748 6.54688C49.2969 7.13867 49.0713 7.99707 49.0713 9.12207V9.42969C49.0713 10.5254 49.2969 11.3691 49.748 11.9609C50.1992 12.5527 50.8438 12.8486 51.6816 12.8486ZM59.4951 2.1875V4.49023H61.2705V5.74707H59.4951V11.6445C59.4951 12.0254 59.5742 12.3125 59.7324 12.5059C59.8906 12.6934 60.1602 12.7871 60.541 12.7871C60.7285 12.7871 60.9863 12.752 61.3145 12.6816V14C60.8867 14.1172 60.4707 14.1758 60.0664 14.1758C59.3398 14.1758 58.792 13.9561 58.4229 13.5166C58.0537 13.0771 57.8691 12.4531 57.8691 11.6445V5.74707H56.1377V4.49023H57.8691V2.1875H59.4951Z" fill="#1F2E35" fill-opacity="0.8"/>
</svg>
