<svg width="67" height="14" viewBox="0 0 67 14" fill="none" xmlns="http://www.w3.org/2000/svg">
<path d="M5.25586 7.2959C3.80859 6.87988 2.75391 6.37012 2.0918 5.7666C1.43555 5.15723 1.10742 4.40723 1.10742 3.5166C1.10742 2.50879 1.50879 1.67676 2.31152 1.02051C3.12012 0.358398 4.16895 0.0273438 5.45801 0.0273438C6.33691 0.0273438 7.11914 0.197266 7.80469 0.537109C8.49609 0.876953 9.0293 1.3457 9.4043 1.94336C9.78516 2.54102 9.97559 3.19434 9.97559 3.90332H8.2793C8.2793 3.12988 8.0332 2.52344 7.54102 2.08398C7.04883 1.63867 6.35449 1.41602 5.45801 1.41602C4.62598 1.41602 3.97559 1.60059 3.50684 1.96973C3.04395 2.33301 2.8125 2.83984 2.8125 3.49023C2.8125 4.01172 3.03223 4.4541 3.47168 4.81738C3.91699 5.1748 4.66992 5.50293 5.73047 5.80176C6.79688 6.10059 7.62891 6.43164 8.22656 6.79492C8.83008 7.15234 9.27539 7.57129 9.5625 8.05176C9.85547 8.53223 10.002 9.09766 10.002 9.74805C10.002 10.7852 9.59766 11.6172 8.78906 12.2441C7.98047 12.8652 6.89941 13.1758 5.5459 13.1758C4.66699 13.1758 3.84668 13.0088 3.08496 12.6748C2.32324 12.335 1.73438 11.8721 1.31836 11.2861C0.908203 10.7002 0.703125 10.0352 0.703125 9.29102H2.39941C2.39941 10.0645 2.68359 10.6768 3.25195 11.1279C3.82617 11.5732 4.59082 11.7959 5.5459 11.7959C6.43652 11.7959 7.11914 11.6143 7.59375 11.251C8.06836 10.8877 8.30566 10.3926 8.30566 9.76562C8.30566 9.13867 8.08594 8.65527 7.64648 8.31543C7.20703 7.96973 6.41016 7.62988 5.25586 7.2959ZM15.8643 13.1758C14.5752 13.1758 13.5264 12.7539 12.7178 11.9102C11.9092 11.0605 11.5049 9.92676 11.5049 8.50879V8.20996C11.5049 7.2666 11.6836 6.42578 12.041 5.6875C12.4043 4.94336 12.9082 4.36328 13.5527 3.94727C14.2031 3.52539 14.9062 3.31445 15.6621 3.31445C16.8984 3.31445 17.8594 3.72168 18.5449 4.53613C19.2305 5.35059 19.5732 6.5166 19.5732 8.03418V8.71094H13.1309C13.1543 9.64844 13.4268 10.4072 13.9482 10.9873C14.4756 11.5615 15.1436 11.8486 15.9521 11.8486C16.5264 11.8486 17.0127 11.7314 17.4111 11.4971C17.8096 11.2627 18.1582 10.9521 18.457 10.5654L19.4502 11.3389C18.6533 12.5635 17.458 13.1758 15.8643 13.1758ZM15.6621 4.65039C15.0059 4.65039 14.4551 4.89062 14.0098 5.37109C13.5645 5.8457 13.2891 6.51367 13.1836 7.375H17.9473V7.25195C17.9004 6.42578 17.6777 5.78711 17.2793 5.33594C16.8809 4.87891 16.3418 4.65039 15.6621 4.65039ZM26.0596 4.94922C25.8135 4.9082 25.5469 4.8877 25.2598 4.8877C24.1934 4.8877 23.4697 5.3418 23.0889 6.25V13H21.4629V3.49023H23.0449L23.0713 4.58887C23.6045 3.73926 24.3604 3.31445 25.3389 3.31445C25.6553 3.31445 25.8955 3.35547 26.0596 3.4375V4.94922ZM30.8584 10.7939L33.2139 3.49023H34.875L31.4648 13H30.2256L26.7803 3.49023H28.4414L30.8584 10.7939ZM38.2061 13H36.5801V3.49023H38.2061V13ZM36.4482 0.967773C36.4482 0.704102 36.5273 0.481445 36.6855 0.299805C36.8496 0.118164 37.0898 0.0273438 37.4062 0.0273438C37.7227 0.0273438 37.9629 0.118164 38.127 0.299805C38.291 0.481445 38.373 0.704102 38.373 0.967773C38.373 1.23145 38.291 1.45117 38.127 1.62695C37.9629 1.80273 37.7227 1.89062 37.4062 1.89062C37.0898 1.89062 36.8496 1.80273 36.6855 1.62695C36.5273 1.45117 36.4482 1.23145 36.4482 0.967773ZM44.6309 11.8486C45.2109 11.8486 45.7178 11.6729 46.1514 11.3213C46.585 10.9697 46.8252 10.5303 46.8721 10.0029H48.4102C48.3809 10.5479 48.1934 11.0664 47.8477 11.5586C47.502 12.0508 47.0391 12.4434 46.459 12.7363C45.8848 13.0293 45.2754 13.1758 44.6309 13.1758C43.3359 13.1758 42.3047 12.7451 41.5371 11.8838C40.7754 11.0166 40.3945 9.83301 40.3945 8.33301V8.06055C40.3945 7.13477 40.5645 6.31152 40.9043 5.59082C41.2441 4.87012 41.7305 4.31055 42.3633 3.91211C43.002 3.51367 43.7549 3.31445 44.6221 3.31445C45.6885 3.31445 46.5732 3.63379 47.2764 4.27246C47.9854 4.91113 48.3633 5.74023 48.4102 6.75977H46.8721C46.8252 6.14453 46.5908 5.64062 46.1689 5.24805C45.7529 4.84961 45.2373 4.65039 44.6221 4.65039C43.7959 4.65039 43.1543 4.94922 42.6973 5.54688C42.2461 6.13867 42.0205 6.99707 42.0205 8.12207V8.42969C42.0205 9.52539 42.2461 10.3691 42.6973 10.9609C43.1484 11.5527 43.793 11.8486 44.6309 11.8486ZM54.1846 13.1758C52.8955 13.1758 51.8467 12.7539 51.0381 11.9102C50.2295 11.0605 49.8252 9.92676 49.8252 8.50879V8.20996C49.8252 7.2666 50.0039 6.42578 50.3613 5.6875C50.7246 4.94336 51.2285 4.36328 51.873 3.94727C52.5234 3.52539 53.2266 3.31445 53.9824 3.31445C55.2188 3.31445 56.1797 3.72168 56.8652 4.53613C57.5508 5.35059 57.8936 6.5166 57.8936 8.03418V8.71094H51.4512C51.4746 9.64844 51.7471 10.4072 52.2686 10.9873C52.7959 11.5615 53.4639 11.8486 54.2725 11.8486C54.8467 11.8486 55.333 11.7314 55.7314 11.4971C56.1299 11.2627 56.4785 10.9521 56.7773 10.5654L57.7705 11.3389C56.9736 12.5635 55.7783 13.1758 54.1846 13.1758ZM53.9824 4.65039C53.3262 4.65039 52.7754 4.89062 52.3301 5.37109C51.8848 5.8457 51.6094 6.51367 51.5039 7.375H56.2676V7.25195C56.2207 6.42578 55.998 5.78711 55.5996 5.33594C55.2012 4.87891 54.6621 4.65039 53.9824 4.65039ZM65.3203 10.4775C65.3203 10.0381 65.1533 9.69824 64.8193 9.45801C64.4912 9.21191 63.9141 9.00098 63.0879 8.8252C62.2676 8.64941 61.6143 8.43848 61.1279 8.19238C60.6475 7.94629 60.29 7.65332 60.0557 7.31348C59.8271 6.97363 59.7129 6.56934 59.7129 6.10059C59.7129 5.32129 60.041 4.66211 60.6973 4.12305C61.3594 3.58398 62.2031 3.31445 63.2285 3.31445C64.3066 3.31445 65.1797 3.59277 65.8477 4.14941C66.5215 4.70605 66.8584 5.41797 66.8584 6.28516H65.2236C65.2236 5.83984 65.0332 5.45605 64.6523 5.13379C64.2773 4.81152 63.8027 4.65039 63.2285 4.65039C62.6367 4.65039 62.1738 4.7793 61.8398 5.03711C61.5059 5.29492 61.3389 5.63184 61.3389 6.04785C61.3389 6.44043 61.4941 6.73633 61.8047 6.93555C62.1152 7.13477 62.6748 7.3252 63.4834 7.50684C64.2979 7.68848 64.957 7.90527 65.4609 8.15723C65.9648 8.40918 66.3369 8.71387 66.5771 9.07129C66.8232 9.42285 66.9463 9.85352 66.9463 10.3633C66.9463 11.2129 66.6064 11.8955 65.9268 12.4111C65.2471 12.9209 64.3652 13.1758 63.2812 13.1758C62.5195 13.1758 61.8457 13.041 61.2598 12.7715C60.6738 12.502 60.2139 12.127 59.8799 11.6465C59.5518 11.1602 59.3877 10.6357 59.3877 10.0732H61.0137C61.043 10.6182 61.2598 11.0518 61.6641 11.374C62.0742 11.6904 62.6133 11.8486 63.2812 11.8486C63.8965 11.8486 64.3887 11.7256 64.7578 11.4795C65.1328 11.2275 65.3203 10.8936 65.3203 10.4775Z" fill="#1F2E35" fill-opacity="0.8"/>
</svg>
