<svg width="210" height="51" viewBox="0 0 210 51" fill="none" xmlns="http://www.w3.org/2000/svg">
<g clip-path="url(#clip0_46_2331)">
<path d="M45.6279 12.503C44.1234 13.152 42.4861 13.6191 40.7997 13.801C42.5506 12.7608 43.8618 11.1175 44.4872 9.17936C42.8442 10.1567 41.0444 10.8421 39.1674 11.205C38.3829 10.3664 37.4342 9.69826 36.3802 9.24233C35.3262 8.7864 34.1897 8.55242 33.0413 8.55495C28.3951 8.55495 24.6585 12.3211 24.6585 16.9427C24.6585 17.5917 24.7371 18.2407 24.865 18.8651C17.9079 18.5013 11.7031 15.1776 7.57809 10.0889C6.82646 11.3727 6.43258 12.8345 6.43743 14.3222C6.43743 17.2328 7.91734 19.7993 10.1741 21.3087C8.84414 21.2563 7.54536 20.8908 6.38335 20.2418V20.345C6.38335 24.4209 9.26449 27.7986 13.1044 28.5755C12.3834 28.7627 11.6417 28.8585 10.8968 28.8606C10.3511 28.8606 9.83482 28.8065 9.31366 28.7328C10.3757 32.0564 13.4682 34.4705 17.1508 34.5492C14.2696 36.8059 10.6608 38.1334 6.74226 38.1334C6.03919 38.1334 5.39019 38.1088 4.71661 38.0301C8.43358 40.4147 12.8438 41.7914 17.5933 41.7914C33.0118 41.7914 41.4487 29.018 41.4487 17.931C41.4487 17.5671 41.4487 17.2033 41.4241 16.8395C43.0565 15.6447 44.4872 14.1648 45.6279 12.503Z" fill="white"/>
<path d="M123.093 5.50659H86.9064C86.0361 5.50659 85.3331 6.20967 85.3331 7.07991V43.2663C85.3331 44.1365 86.0361 44.8396 86.9064 44.8396H123.093C123.963 44.8396 124.666 44.1365 124.666 43.2663V7.07991C124.666 6.20967 123.963 5.50659 123.093 5.50659ZM118.55 16.9869H115.408C112.945 16.9869 112.468 18.1571 112.468 19.8779V23.6686H118.348L117.581 29.603H112.468V44.8396H106.337V29.6079H101.209V23.6686H106.337V19.2928C106.337 14.2139 109.439 11.4459 113.972 11.4459C116.146 11.4459 118.009 11.6081 118.555 11.6819V16.9869H118.55Z" fill="white"/>
<path d="M202.921 5.50659H166.735C165.865 5.50659 165.161 6.20967 165.161 7.07991V43.2663C165.161 44.1365 165.865 44.8396 166.735 44.8396H202.921C203.791 44.8396 204.494 44.1365 204.494 43.2663V7.07991C204.494 6.20967 203.791 5.50659 202.921 5.50659ZM176.829 39.0232H170.993V20.2516H176.829V39.0232ZM173.913 17.6851C173.244 17.6851 172.59 17.4867 172.034 17.115C171.477 16.7433 171.044 16.215 170.788 15.5969C170.532 14.9788 170.465 14.2987 170.595 13.6425C170.726 12.9863 171.048 12.3836 171.521 11.9106C171.994 11.4375 172.597 11.1153 173.253 10.9848C173.909 10.8543 174.589 10.9213 175.208 11.1773C175.826 11.4333 176.354 11.8669 176.726 12.4231C177.097 12.9794 177.296 13.6334 177.296 14.3024C177.291 16.1708 175.776 17.6851 173.913 17.6851ZM198.678 39.0232H192.847V29.8931C192.847 27.715 192.808 24.9174 189.813 24.9174C186.78 24.9174 186.313 27.2872 186.313 29.7357V39.0232H180.487V20.2516H186.082V22.818H186.16C186.937 21.343 188.84 19.7845 191.682 19.7845C197.592 19.7845 198.678 23.6735 198.678 28.7278V39.0232Z" fill="white"/>
</g>
<defs>
<clipPath id="clip0_46_2331">
<rect width="210" height="50.3463" fill="white"/>
</clipPath>
</defs>
</svg>
