<svg width="249" height="24" viewBox="0 0 249 24" fill="none" xmlns="http://www.w3.org/2000/svg">
<path d="M15.3759 7.25781H16.601V13.8022C16.601 14.6867 16.3344 15.3786 15.8012 15.8779C15.2722 16.3773 14.5655 16.627 13.6811 16.627C12.7628 16.627 12.0476 16.3921 11.5356 15.9224C11.0235 15.4526 10.7675 14.7946 10.7675 13.9482H11.9862C11.9862 14.4772 12.1301 14.8898 12.4179 15.186C12.7099 15.4823 13.1309 15.6304 13.6811 15.6304C14.1846 15.6304 14.5909 15.4717 14.8998 15.1543C15.213 14.8369 15.3717 14.3926 15.3759 13.8213V7.25781ZM22.8328 15.8208C22.3758 16.3582 21.7051 16.627 20.8206 16.627C20.0885 16.627 19.5299 16.4154 19.1448 15.9922C18.764 15.5648 18.5714 14.9342 18.5672 14.1006V9.63184H19.7415V14.0688C19.7415 15.1099 20.1647 15.6304 21.011 15.6304C21.9082 15.6304 22.5049 15.2961 22.8011 14.6274V9.63184H23.9754V16.5H22.8582L22.8328 15.8208ZM29.8645 14.6782C29.8645 14.3608 29.7439 14.1154 29.5026 13.9419C29.2657 13.7642 28.8488 13.6118 28.2522 13.4849C27.6597 13.3579 27.1879 13.2056 26.8366 13.0278C26.4896 12.8501 26.2315 12.6385 26.0622 12.3931C25.8972 12.1476 25.8147 11.8556 25.8147 11.5171C25.8147 10.9543 26.0516 10.4782 26.5256 10.0889C27.0038 9.69954 27.6132 9.50488 28.3537 9.50488C29.1324 9.50488 29.7629 9.70589 30.2453 10.1079C30.732 10.5099 30.9753 11.0241 30.9753 11.6504H29.7946C29.7946 11.3288 29.6571 11.0516 29.382 10.8188C29.1112 10.5861 28.7684 10.4697 28.3537 10.4697C27.9263 10.4697 27.592 10.5628 27.3508 10.749C27.1096 10.9352 26.989 11.1785 26.989 11.479C26.989 11.7625 27.1011 11.9762 27.3254 12.1201C27.5497 12.264 27.9538 12.4015 28.5378 12.5327C29.126 12.6639 29.6021 12.8205 29.966 13.0024C30.33 13.1844 30.5987 13.4045 30.7722 13.6626C30.9499 13.9165 31.0388 14.2275 31.0388 14.5957C31.0388 15.2093 30.7933 15.7023 30.3024 16.0747C29.8116 16.4429 29.1747 16.627 28.3918 16.627C27.8417 16.627 27.355 16.5296 26.9318 16.335C26.5087 16.1403 26.1765 15.8695 25.9353 15.5225C25.6983 15.1712 25.5798 14.7925 25.5798 14.3862H26.7541C26.7753 14.7798 26.9318 15.0929 27.2238 15.3257C27.5201 15.5542 27.9094 15.6685 28.3918 15.6685C28.8361 15.6685 29.1916 15.5796 29.4582 15.4019C29.729 15.2199 29.8645 14.9787 29.8645 14.6782ZM34.2618 7.96875V9.63184H35.544V10.5396H34.2618V14.7988C34.2618 15.0739 34.319 15.2812 34.4332 15.4209C34.5475 15.5563 34.7421 15.624 35.0172 15.624C35.1526 15.624 35.3388 15.5986 35.5758 15.5479V16.5C35.2669 16.5846 34.9664 16.627 34.6744 16.627C34.1497 16.627 33.754 16.4683 33.4874 16.1509C33.2208 15.8335 33.0875 15.3828 33.0875 14.7988V10.5396H31.837V9.63184H33.0875V7.96875H34.2618ZM41.9394 7.96875V9.63184H43.2216V10.5396H41.9394V14.7988C41.9394 15.0739 41.9965 15.2812 42.1107 15.4209C42.225 15.5563 42.4197 15.624 42.6947 15.624C42.8301 15.624 43.0163 15.5986 43.2533 15.5479V16.5C42.9444 16.5846 42.644 16.627 42.352 16.627C41.8272 16.627 41.4315 16.4683 41.1649 16.1509C40.8983 15.8335 40.765 15.3828 40.765 14.7988V10.5396H39.5146V9.63184H40.765V7.96875H41.9394ZM46.9461 14.7798L48.5457 9.63184H49.8025L47.0413 17.5601C46.6139 18.7026 45.9347 19.2739 45.0037 19.2739L44.7815 19.2549L44.3436 19.1724V18.2202L44.6609 18.2456C45.0587 18.2456 45.3676 18.1652 45.5877 18.0044C45.812 17.8436 45.9961 17.5495 46.1399 17.1221L46.4002 16.4238L43.95 9.63184H45.2322L46.9461 14.7798ZM56.758 13.1421C56.758 14.1873 56.5189 15.0295 56.0407 15.6685C55.5625 16.3075 54.9151 16.627 54.0983 16.627C53.2647 16.627 52.6088 16.3625 52.1306 15.8335V19.1406H50.9563V9.63184H52.029L52.0861 10.3936C52.5643 9.80111 53.2287 9.50488 54.0793 9.50488C54.9045 9.50488 55.5562 9.81592 56.0344 10.438C56.5168 11.0601 56.758 11.9255 56.758 13.0342V13.1421ZM55.5837 13.0088C55.5837 12.2344 55.4187 11.6229 55.0886 11.1743C54.7585 10.7257 54.3057 10.5015 53.7302 10.5015C53.0192 10.5015 52.486 10.8167 52.1306 11.4473V14.729C52.4818 15.3553 53.0192 15.6685 53.7429 15.6685C54.3057 15.6685 54.7522 15.4463 55.0822 15.002C55.4165 14.5534 55.5837 13.889 55.5837 13.0088ZM61.2062 16.627C60.2752 16.627 59.5177 16.3223 58.9337 15.7129C58.3497 15.0993 58.0577 14.2804 58.0577 13.2563V13.0405C58.0577 12.3592 58.1868 11.752 58.4449 11.2188C58.7073 10.6813 59.0712 10.2624 59.5367 9.96191C60.0065 9.65723 60.5143 9.50488 61.0602 9.50488C61.9531 9.50488 62.6471 9.79899 63.1422 10.3872C63.6373 10.9754 63.8849 11.8175 63.8849 12.9136V13.4023H59.232C59.249 14.0794 59.4457 14.6274 59.8224 15.0464C60.2032 15.4611 60.6856 15.6685 61.2696 15.6685C61.6843 15.6685 62.0356 15.5838 62.3233 15.4146C62.6111 15.2453 62.8629 15.021 63.0787 14.7417L63.796 15.3003C63.2205 16.1847 62.3572 16.627 61.2062 16.627ZM61.0602 10.4697C60.5862 10.4697 60.1884 10.6432 59.8668 10.9902C59.5452 11.333 59.3463 11.8154 59.2701 12.4375H62.7106V12.3486C62.6767 11.752 62.5159 11.2907 62.2281 10.9648C61.9404 10.6348 61.551 10.4697 61.0602 10.4697ZM74.7553 14.8813L76.0756 9.63184H77.2499L75.2504 16.5H74.2982L72.6288 11.2949L71.0038 16.5H70.0517L68.0585 9.63184H69.2265L70.5785 14.7734L72.1781 9.63184H73.1239L74.7553 14.8813ZM79.7239 10.4634C80.2444 9.82438 80.9215 9.50488 81.7552 9.50488C83.2067 9.50488 83.9388 10.3237 83.9515 11.9614V16.5H82.7772V11.9551C82.7729 11.46 82.6587 11.0939 82.4344 10.8569C82.2143 10.62 81.8694 10.5015 81.3997 10.5015C81.0189 10.5015 80.6845 10.603 80.3968 10.8062C80.109 11.0093 79.8847 11.2759 79.7239 11.606V16.5H78.5496V6.75H79.7239V10.4634ZM90.05 16.5C89.9823 16.3646 89.9273 16.1234 89.885 15.7764C89.3391 16.3434 88.6874 16.627 87.9299 16.627C87.2528 16.627 86.6963 16.4365 86.2605 16.0557C85.8288 15.6706 85.613 15.1839 85.613 14.5957C85.613 13.8805 85.8838 13.3262 86.4255 12.9326C86.9714 12.5348 87.7373 12.3359 88.7233 12.3359H89.8659V11.7964C89.8659 11.3859 89.7432 11.0601 89.4978 10.8188C89.2523 10.5734 88.8905 10.4507 88.4123 10.4507C87.9934 10.4507 87.6421 10.5565 87.3586 10.7681C87.0751 10.9797 86.9333 11.2357 86.9333 11.5361H85.7526C85.7526 11.1934 85.8732 10.8633 86.1145 10.5459C86.3599 10.2243 86.69 9.97038 87.1047 9.78418C87.5236 9.59798 87.9828 9.50488 88.4821 9.50488C89.2735 9.50488 89.8934 9.70378 90.342 10.1016C90.7906 10.4951 91.0233 11.0389 91.0402 11.7329V14.894C91.0402 15.5246 91.1206 16.026 91.2814 16.3984V16.5H90.05ZM88.1013 15.605C88.4694 15.605 88.8186 15.5098 89.1486 15.3193C89.4787 15.1289 89.7178 14.8813 89.8659 14.5767V13.1675H88.9455C87.5067 13.1675 86.7873 13.5885 86.7873 14.4307C86.7873 14.7988 86.91 15.0866 87.1555 15.2939C87.4009 15.5013 87.7162 15.605 88.1013 15.605ZM94.5743 7.96875V9.63184H95.8566V10.5396H94.5743V14.7988C94.5743 15.0739 94.6315 15.2812 94.7457 15.4209C94.86 15.5563 95.0546 15.624 95.3297 15.624C95.4651 15.624 95.6513 15.5986 95.8883 15.5479V16.5C95.5794 16.5846 95.2789 16.627 94.9869 16.627C94.4622 16.627 94.0665 16.4683 93.7999 16.1509C93.5333 15.8335 93.4 15.3828 93.4 14.7988V10.5396H92.1495V9.63184H93.4V7.96875H94.5743ZM98.0513 7.45459L97.918 9.79053H97.0991L97.1055 6.75H98.0513V7.45459ZM103.198 14.6782C103.198 14.3608 103.077 14.1154 102.836 13.9419C102.599 13.7642 102.182 13.6118 101.585 13.4849C100.993 13.3579 100.521 13.2056 100.17 13.0278C99.8228 12.8501 99.5647 12.6385 99.3954 12.3931C99.2304 12.1476 99.1479 11.8556 99.1479 11.5171C99.1479 10.9543 99.3848 10.4782 99.8588 10.0889C100.337 9.69954 100.946 9.50488 101.687 9.50488C102.466 9.50488 103.096 9.70589 103.579 10.1079C104.065 10.5099 104.309 11.0241 104.309 11.6504H103.128C103.128 11.3288 102.99 11.0516 102.715 10.8188C102.444 10.5861 102.102 10.4697 101.687 10.4697C101.26 10.4697 100.925 10.5628 100.684 10.749C100.443 10.9352 100.322 11.1785 100.322 11.479C100.322 11.7625 100.434 11.9762 100.659 12.1201C100.883 12.264 101.287 12.4015 101.871 12.5327C102.459 12.6639 102.935 12.8205 103.299 13.0024C103.663 13.1844 103.932 13.4045 104.105 13.6626C104.283 13.9165 104.372 14.2275 104.372 14.5957C104.372 15.2093 104.127 15.7023 103.636 16.0747C103.145 16.4429 102.508 16.627 101.725 16.627C101.175 16.627 100.688 16.5296 100.265 16.335C99.8419 16.1403 99.5097 15.8695 99.2685 15.5225C99.0315 15.1712 98.913 14.7925 98.913 14.3862H100.087C100.108 14.7798 100.265 15.0929 100.557 15.3257C100.853 15.5542 101.243 15.6685 101.725 15.6685C102.169 15.6685 102.525 15.5796 102.791 15.4019C103.062 15.2199 103.198 14.9787 103.198 14.6782ZM109.015 13.0024C109.015 12.3296 109.147 11.7244 109.409 11.187C109.675 10.6496 110.044 10.2349 110.513 9.94287C110.987 9.65088 111.527 9.50488 112.132 9.50488C113.067 9.50488 113.823 9.82861 114.398 10.4761C114.978 11.1235 115.268 11.9847 115.268 13.0596V13.1421C115.268 13.8107 115.139 14.4116 114.881 14.9448C114.627 15.4738 114.261 15.8864 113.782 16.1826C113.308 16.4788 112.763 16.627 112.145 16.627C111.214 16.627 110.458 16.3032 109.879 15.6558C109.303 15.0083 109.015 14.1514 109.015 13.085V13.0024ZM110.196 13.1421C110.196 13.9038 110.372 14.5153 110.723 14.9766C111.078 15.4378 111.552 15.6685 112.145 15.6685C112.741 15.6685 113.215 15.4357 113.567 14.9702C113.918 14.5005 114.093 13.8446 114.093 13.0024C114.093 12.2492 113.914 11.6398 113.554 11.1743C113.198 10.7046 112.724 10.4697 112.132 10.4697C111.552 10.4697 111.085 10.7004 110.729 11.1616C110.374 11.6229 110.196 12.283 110.196 13.1421ZM117.951 9.63184L117.989 10.4951C118.514 9.83496 119.2 9.50488 120.046 9.50488C121.498 9.50488 122.23 10.3237 122.242 11.9614V16.5H121.068V11.9551C121.064 11.46 120.949 11.0939 120.725 10.8569C120.505 10.62 120.16 10.5015 119.691 10.5015C119.31 10.5015 118.975 10.603 118.688 10.8062C118.4 11.0093 118.176 11.2759 118.015 11.606V16.5H116.84V9.63184H117.951ZM129.685 14.7798L131.285 9.63184H132.541L129.78 17.5601C129.353 18.7026 128.674 19.2739 127.743 19.2739L127.52 19.2549L127.082 19.1724V18.2202L127.4 18.2456C127.798 18.2456 128.107 18.1652 128.327 18.0044C128.551 17.8436 128.735 17.5495 128.879 17.1221L129.139 16.4238L126.689 9.63184H127.971L129.685 14.7798ZM133.283 13.0024C133.283 12.3296 133.414 11.7244 133.676 11.187C133.943 10.6496 134.311 10.2349 134.781 9.94287C135.255 9.65088 135.794 9.50488 136.399 9.50488C137.334 9.50488 138.09 9.82861 138.665 10.4761C139.245 11.1235 139.535 11.9847 139.535 13.0596V13.1421C139.535 13.8107 139.406 14.4116 139.148 14.9448C138.894 15.4738 138.528 15.8864 138.05 16.1826C137.576 16.4788 137.03 16.627 136.412 16.627C135.481 16.627 134.726 16.3032 134.146 15.6558C133.57 15.0083 133.283 14.1514 133.283 13.085V13.0024ZM134.463 13.1421C134.463 13.9038 134.639 14.5153 134.99 14.9766C135.346 15.4378 135.819 15.6685 136.412 15.6685C137.009 15.6685 137.483 15.4357 137.834 14.9702C138.185 14.5005 138.361 13.8446 138.361 13.0024C138.361 12.2492 138.181 11.6398 137.821 11.1743C137.466 10.7046 136.992 10.4697 136.399 10.4697C135.819 10.4697 135.352 10.7004 134.996 11.1616C134.641 11.6229 134.463 12.283 134.463 13.1421ZM145.348 15.8208C144.891 16.3582 144.22 16.627 143.336 16.627C142.604 16.627 142.045 16.4154 141.66 15.9922C141.279 15.5648 141.086 14.9342 141.082 14.1006V9.63184H142.257V14.0688C142.257 15.1099 142.68 15.6304 143.526 15.6304C144.423 15.6304 145.02 15.2961 145.316 14.6274V9.63184H146.49V16.5H145.373L145.348 15.8208ZM151.7 10.6855C151.523 10.6559 151.33 10.6411 151.123 10.6411C150.352 10.6411 149.83 10.9691 149.555 11.625V16.5H148.38V9.63184H149.523L149.542 10.4253C149.927 9.81169 150.473 9.50488 151.18 9.50488C151.408 9.50488 151.582 9.53451 151.7 9.59375V10.6855ZM157.315 9.63184L157.347 10.3936C157.85 9.80111 158.529 9.50488 159.384 9.50488C160.345 9.50488 160.999 9.87305 161.346 10.6094C161.574 10.2793 161.87 10.0127 162.234 9.80957C162.602 9.60645 163.036 9.50488 163.536 9.50488C165.042 9.50488 165.808 10.3026 165.833 11.8979V16.5H164.659V11.9678C164.659 11.4769 164.547 11.1108 164.323 10.8696C164.098 10.6242 163.722 10.5015 163.193 10.5015C162.757 10.5015 162.395 10.6326 162.107 10.895C161.82 11.1532 161.652 11.5023 161.606 11.9424V16.5H160.425V11.9995C160.425 11.0008 159.936 10.5015 158.959 10.5015C158.189 10.5015 157.662 10.8294 157.378 11.4854V16.5H156.204V9.63184H157.315ZM168.987 16.5H167.812V9.63184H168.987V16.5ZM167.717 7.81006C167.717 7.61963 167.774 7.45882 167.888 7.32764C168.007 7.19645 168.18 7.13086 168.409 7.13086C168.638 7.13086 168.811 7.19645 168.93 7.32764C169.048 7.45882 169.107 7.61963 169.107 7.81006C169.107 8.00049 169.048 8.15918 168.93 8.28613C168.811 8.41309 168.638 8.47656 168.409 8.47656C168.18 8.47656 168.007 8.41309 167.888 8.28613C167.774 8.15918 167.717 8.00049 167.717 7.81006ZM172.083 9.63184L172.121 10.4951C172.646 9.83496 173.331 9.50488 174.177 9.50488C175.629 9.50488 176.361 10.3237 176.374 11.9614V16.5H175.199V11.9551C175.195 11.46 175.081 11.0939 174.857 10.8569C174.637 10.62 174.292 10.5015 173.822 10.5015C173.441 10.5015 173.107 10.603 172.819 10.8062C172.531 11.0093 172.307 11.2759 172.146 11.606V16.5H170.972V9.63184H172.083ZM177.959 13.0088C177.959 11.9551 178.209 11.1087 178.708 10.4697C179.207 9.8265 179.861 9.50488 180.67 9.50488C181.474 9.50488 182.11 9.77995 182.58 10.3301V6.75H183.755V16.5H182.675L182.618 15.7637C182.149 16.3392 181.495 16.627 180.657 16.627C179.861 16.627 179.212 16.3011 178.708 15.6494C178.209 14.9977 177.959 14.1471 177.959 13.0977V13.0088ZM179.133 13.1421C179.133 13.9207 179.294 14.5301 179.616 14.9702C179.937 15.4103 180.382 15.6304 180.949 15.6304C181.694 15.6304 182.237 15.2961 182.58 14.6274V11.4727C182.229 10.8252 181.689 10.5015 180.962 10.5015C180.386 10.5015 179.937 10.7236 179.616 11.168C179.294 11.6123 179.133 12.2703 179.133 13.1421ZM193.247 16.5C193.18 16.3646 193.125 16.1234 193.082 15.7764C192.537 16.3434 191.885 16.627 191.127 16.627C190.45 16.627 189.894 16.4365 189.458 16.0557C189.026 15.6706 188.81 15.1839 188.81 14.5957C188.81 13.8805 189.081 13.3262 189.623 12.9326C190.169 12.5348 190.935 12.3359 191.921 12.3359H193.063V11.7964C193.063 11.3859 192.941 11.0601 192.695 10.8188C192.45 10.5734 192.088 10.4507 191.61 10.4507C191.191 10.4507 190.84 10.5565 190.556 10.7681C190.273 10.9797 190.131 11.2357 190.131 11.5361H188.95C188.95 11.1934 189.071 10.8633 189.312 10.5459C189.557 10.2243 189.887 9.97038 190.302 9.78418C190.721 9.59798 191.18 9.50488 191.68 9.50488C192.471 9.50488 193.091 9.70378 193.539 10.1016C193.988 10.4951 194.221 11.0389 194.238 11.7329V14.894C194.238 15.5246 194.318 16.026 194.479 16.3984V16.5H193.247ZM191.299 15.605C191.667 15.605 192.016 15.5098 192.346 15.3193C192.676 15.1289 192.915 14.8813 193.063 14.5767V13.1675H192.143C190.704 13.1675 189.985 13.5885 189.985 14.4307C189.985 14.7988 190.107 15.0866 190.353 15.2939C190.598 15.5013 190.914 15.605 191.299 15.605ZM197.289 9.63184L197.327 10.4951C197.852 9.83496 198.538 9.50488 199.384 9.50488C200.836 9.50488 201.568 10.3237 201.58 11.9614V16.5H200.406V11.9551C200.402 11.46 200.288 11.0939 200.063 10.8569C199.843 10.62 199.498 10.5015 199.029 10.5015C198.648 10.5015 198.313 10.603 198.026 10.8062C197.738 11.0093 197.514 11.2759 197.353 11.606V16.5H196.179V9.63184H197.289ZM203.166 13.0088C203.166 11.9551 203.415 11.1087 203.915 10.4697C204.414 9.8265 205.068 9.50488 205.876 9.50488C206.68 9.50488 207.317 9.77995 207.787 10.3301V6.75H208.961V16.5H207.882L207.825 15.7637C207.355 16.3392 206.701 16.627 205.863 16.627C205.068 16.627 204.418 16.3011 203.915 15.6494C203.415 14.9977 203.166 14.1471 203.166 13.0977V13.0088ZM204.34 13.1421C204.34 13.9207 204.501 14.5301 204.822 14.9702C205.144 15.4103 205.588 15.6304 206.155 15.6304C206.9 15.6304 207.444 15.2961 207.787 14.6274V11.4727C207.436 10.8252 206.896 10.5015 206.168 10.5015C205.593 10.5015 205.144 10.7236 204.822 11.168C204.501 11.6123 204.34 12.2703 204.34 13.1421ZM220.295 14.8813L221.615 9.63184H222.79L220.79 16.5H219.838L218.168 11.2949L216.543 16.5H215.591L213.598 9.63184H214.766L216.118 14.7734L217.718 9.63184H218.664L220.295 14.8813ZM226.939 16.627C226.008 16.627 225.251 16.3223 224.667 15.7129C224.083 15.0993 223.791 14.2804 223.791 13.2563V13.0405C223.791 12.3592 223.92 11.752 224.178 11.2188C224.441 10.6813 224.804 10.2624 225.27 9.96191C225.74 9.65723 226.247 9.50488 226.793 9.50488C227.686 9.50488 228.38 9.79899 228.875 10.3872C229.371 10.9754 229.618 11.8175 229.618 12.9136V13.4023H224.965C224.982 14.0794 225.179 14.6274 225.556 15.0464C225.936 15.4611 226.419 15.6685 227.003 15.6685C227.418 15.6685 227.769 15.5838 228.057 15.4146C228.344 15.2453 228.596 15.021 228.812 14.7417L229.529 15.3003C228.954 16.1847 228.09 16.627 226.939 16.627ZM226.793 10.4697C226.319 10.4697 225.922 10.6432 225.6 10.9902C225.278 11.333 225.079 11.8154 225.003 12.4375H228.444V12.3486C228.41 11.752 228.249 11.2907 227.961 10.9648C227.674 10.6348 227.284 10.4697 226.793 10.4697ZM231.711 7.45459L231.578 9.79053H230.759L230.765 6.75H231.711V7.45459ZM234.642 16.5H233.468V6.75H234.642V16.5ZM237.903 16.5H236.729V6.75H237.903V16.5Z" fill="white"/>
</svg>
