<svg width="92" height="18" viewBox="0 0 92 18" fill="none" xmlns="http://www.w3.org/2000/svg">
<path d="M10.3271 2.5918H6.21387V14H4.53516V2.5918H0.430664V1.20312H10.3271V2.5918ZM15.0381 14.1758C13.749 14.1758 12.7002 13.7539 11.8916 12.9102C11.083 12.0605 10.6787 10.9268 10.6787 9.50879V9.20996C10.6787 8.2666 10.8574 7.42578 11.2148 6.6875C11.5781 5.94336 12.082 5.36328 12.7266 4.94727C13.377 4.52539 14.0801 4.31445 14.8359 4.31445C16.0723 4.31445 17.0332 4.72168 17.7188 5.53613C18.4043 6.35059 18.7471 7.5166 18.7471 9.03418V9.71094H12.3047C12.3281 10.6484 12.6006 11.4072 13.1221 11.9873C13.6494 12.5615 14.3174 12.8486 15.126 12.8486C15.7002 12.8486 16.1865 12.7314 16.585 12.4971C16.9834 12.2627 17.332 11.9521 17.6309 11.5654L18.624 12.3389C17.8271 13.5635 16.6318 14.1758 15.0381 14.1758ZM14.8359 5.65039C14.1797 5.65039 13.6289 5.89062 13.1836 6.37109C12.7383 6.8457 12.4629 7.51367 12.3574 8.375H17.1211V8.25195C17.0742 7.42578 16.8516 6.78711 16.4531 6.33594C16.0547 5.87891 15.5156 5.65039 14.8359 5.65039ZM24.4512 12.8486C25.0312 12.8486 25.5381 12.6729 25.9717 12.3213C26.4053 11.9697 26.6455 11.5303 26.6924 11.0029H28.2305C28.2012 11.5479 28.0137 12.0664 27.668 12.5586C27.3223 13.0508 26.8594 13.4434 26.2793 13.7363C25.7051 14.0293 25.0957 14.1758 24.4512 14.1758C23.1562 14.1758 22.125 13.7451 21.3574 12.8838C20.5957 12.0166 20.2148 10.833 20.2148 9.33301V9.06055C20.2148 8.13477 20.3848 7.31152 20.7246 6.59082C21.0645 5.87012 21.5508 5.31055 22.1836 4.91211C22.8223 4.51367 23.5752 4.31445 24.4424 4.31445C25.5088 4.31445 26.3936 4.63379 27.0967 5.27246C27.8057 5.91113 28.1836 6.74023 28.2305 7.75977H26.6924C26.6455 7.14453 26.4111 6.64062 25.9893 6.24805C25.5732 5.84961 25.0576 5.65039 24.4424 5.65039C23.6162 5.65039 22.9746 5.94922 22.5176 6.54688C22.0664 7.13867 21.8408 7.99707 21.8408 9.12207V9.42969C21.8408 10.5254 22.0664 11.3691 22.5176 11.9609C22.9688 12.5527 23.6133 12.8486 24.4512 12.8486ZM31.6846 5.6416C32.4053 4.75684 33.3428 4.31445 34.4971 4.31445C36.5068 4.31445 37.5205 5.44824 37.5381 7.71582V14H35.9121V7.70703C35.9062 7.02148 35.748 6.51465 35.4375 6.18652C35.1328 5.8584 34.6553 5.69434 34.0049 5.69434C33.4775 5.69434 33.0146 5.83496 32.6162 6.11621C32.2178 6.39746 31.9072 6.7666 31.6846 7.22363V14H30.0586V0.5H31.6846V5.6416ZM41.5107 4.49023L41.5635 5.68555C42.29 4.77148 43.2393 4.31445 44.4111 4.31445C46.4209 4.31445 47.4346 5.44824 47.4521 7.71582V14H45.8262V7.70703C45.8203 7.02148 45.6621 6.51465 45.3516 6.18652C45.0469 5.8584 44.5693 5.69434 43.9189 5.69434C43.3916 5.69434 42.9287 5.83496 42.5303 6.11621C42.1318 6.39746 41.8213 6.7666 41.5986 7.22363V14H39.9727V4.49023H41.5107ZM49.4736 9.15723C49.4736 8.22559 49.6553 7.3877 50.0186 6.64355C50.3877 5.89941 50.8975 5.3252 51.5479 4.9209C52.2041 4.5166 52.9512 4.31445 53.7891 4.31445C55.084 4.31445 56.1299 4.7627 56.9268 5.65918C57.7295 6.55566 58.1309 7.74805 58.1309 9.23633V9.35059C58.1309 10.2764 57.9521 11.1084 57.5947 11.8467C57.2432 12.5791 56.7363 13.1504 56.0742 13.5605C55.418 13.9707 54.6621 14.1758 53.8066 14.1758C52.5176 14.1758 51.4717 13.7275 50.6689 12.8311C49.8721 11.9346 49.4736 10.748 49.4736 9.27148V9.15723ZM51.1084 9.35059C51.1084 10.4053 51.3516 11.252 51.8379 11.8906C52.3301 12.5293 52.9863 12.8486 53.8066 12.8486C54.6328 12.8486 55.2891 12.5264 55.7754 11.8818C56.2617 11.2314 56.5049 10.3232 56.5049 9.15723C56.5049 8.11426 56.2559 7.27051 55.7578 6.62598C55.2656 5.97559 54.6094 5.65039 53.7891 5.65039C52.9863 5.65039 52.3389 5.96973 51.8467 6.6084C51.3545 7.24707 51.1084 8.16113 51.1084 9.35059ZM61.9365 14H60.3105V0.5H61.9365V14ZM64.1162 9.15723C64.1162 8.22559 64.2979 7.3877 64.6611 6.64355C65.0303 5.89941 65.54 5.3252 66.1904 4.9209C66.8467 4.5166 67.5938 4.31445 68.4316 4.31445C69.7266 4.31445 70.7725 4.7627 71.5693 5.65918C72.3721 6.55566 72.7734 7.74805 72.7734 9.23633V9.35059C72.7734 10.2764 72.5947 11.1084 72.2373 11.8467C71.8857 12.5791 71.3789 13.1504 70.7168 13.5605C70.0605 13.9707 69.3047 14.1758 68.4492 14.1758C67.1602 14.1758 66.1143 13.7275 65.3115 12.8311C64.5146 11.9346 64.1162 10.748 64.1162 9.27148V9.15723ZM65.751 9.35059C65.751 10.4053 65.9941 11.252 66.4805 11.8906C66.9727 12.5293 67.6289 12.8486 68.4492 12.8486C69.2754 12.8486 69.9316 12.5264 70.418 11.8818C70.9043 11.2314 71.1475 10.3232 71.1475 9.15723C71.1475 8.11426 70.8984 7.27051 70.4004 6.62598C69.9082 5.97559 69.252 5.65039 68.4316 5.65039C67.6289 5.65039 66.9814 5.96973 66.4893 6.6084C65.9971 7.24707 65.751 8.16113 65.751 9.35059ZM74.4258 9.16602C74.4258 7.68359 74.7686 6.50586 75.4541 5.63281C76.1396 4.75391 77.0479 4.31445 78.1787 4.31445C79.3389 4.31445 80.2441 4.72461 80.8945 5.54492L80.9736 4.49023H82.459V13.7715C82.459 15.002 82.0928 15.9717 81.3604 16.6807C80.6338 17.3896 79.6553 17.7441 78.4248 17.7441C77.7393 17.7441 77.0684 17.5977 76.4121 17.3047C75.7559 17.0117 75.2549 16.6104 74.9092 16.1006L75.7529 15.125C76.4502 15.9863 77.3027 16.417 78.3105 16.417C79.1016 16.417 79.7168 16.1943 80.1562 15.749C80.6016 15.3037 80.8242 14.6768 80.8242 13.8682V13.0508C80.1738 13.8008 79.2861 14.1758 78.1611 14.1758C77.0479 14.1758 76.1455 13.7275 75.4541 12.8311C74.7686 11.9346 74.4258 10.7129 74.4258 9.16602ZM76.0605 9.35059C76.0605 10.4229 76.2803 11.2666 76.7197 11.8818C77.1592 12.4912 77.7744 12.7959 78.5654 12.7959C79.5908 12.7959 80.3438 12.3301 80.8242 11.3984V7.05664C80.3262 6.14844 79.5791 5.69434 78.583 5.69434C77.792 5.69434 77.1738 6.00195 76.7285 6.61719C76.2832 7.23242 76.0605 8.14355 76.0605 9.35059ZM88.0312 11.6182L90.2461 4.49023H91.9863L88.1631 15.4678C87.5713 17.0498 86.6309 17.8408 85.3418 17.8408L85.0342 17.8145L84.4277 17.7002V16.3818L84.8672 16.417C85.418 16.417 85.8457 16.3057 86.1504 16.083C86.4609 15.8604 86.7158 15.4531 86.915 14.8613L87.2754 13.8945L83.8828 4.49023H85.6582L88.0312 11.6182Z" fill="#1F2E35" fill-opacity="0.8"/>
</svg>
